<?xml version="1.0" encoding="UTF-8" standalone="no"?>
<!DOCTYPE svg PUBLIC "-//W3C//DTD SVG 1.1//EN"
 "http://www.w3.org/Graphics/SVG/1.1/DTD/svg11.dtd">
<!-- Generated by graphviz version 9.0.0 (0)
 -->
<!-- Pages: 1 -->
<svg width="1419pt" height="499pt"
 viewBox="0.00 0.00 1419.00 498.95" xmlns="http://www.w3.org/2000/svg" xmlns:xlink="http://www.w3.org/1999/xlink">
<g id="graph0" class="graph" transform="scale(1 1) rotate(0) translate(4 494.95)">
<polygon fill="white" stroke="none" points="-4,4 -4,-494.95 1415,-494.95 1415,4 -4,4"/>
<g id="clust1" class="cluster">
<title>clusterindicators (15)</title>
<path fill="none" stroke="black" d="M20,-231.32C20,-231.32 222,-231.32 222,-231.32 228,-231.32 234,-237.32 234,-243.32 234,-243.32 234,-341.13 234,-341.13 234,-347.13 228,-353.13 222,-353.13 222,-353.13 20,-353.13 20,-353.13 14,-353.13 8,-347.13 8,-341.13 8,-341.13 8,-243.32 8,-243.32 8,-237.32 14,-231.32 20,-231.32"/>
<text text-anchor="middle" x="186.25" y="-238.52" font-family="Times,serif" font-size="14.00">indicators (15)</text>
</g>
<g id="clust2" class="cluster">
<title>clusterindicators_1 (3)</title>
<path fill="none" stroke="black" d="M254,-243.23C254,-243.23 352,-243.23 352,-243.23 358,-243.23 364,-249.23 364,-255.23 364,-255.23 364,-470.95 364,-470.95 364,-476.95 358,-482.95 352,-482.95 352,-482.95 254,-482.95 254,-482.95 248,-482.95 242,-476.95 242,-470.95 242,-470.95 242,-255.23 242,-255.23 242,-249.23 248,-243.23 254,-243.23"/>
<text text-anchor="middle" x="312.88" y="-250.43" font-family="Times,serif" font-size="14.00">indicators_1 (3)</text>
</g>
<g id="clust3" class="cluster">
<title>clusterindicators_2 (3)</title>
<path fill="none" stroke="black" d="M384,-243.23C384,-243.23 482,-243.23 482,-243.23 488,-243.23 494,-249.23 494,-255.23 494,-255.23 494,-470.95 494,-470.95 494,-476.95 488,-482.95 482,-482.95 482,-482.95 384,-482.95 384,-482.95 378,-482.95 372,-476.95 372,-470.95 372,-470.95 372,-255.23 372,-255.23 372,-249.23 378,-243.23 384,-243.23"/>
<text text-anchor="middle" x="442.88" y="-250.43" font-family="Times,serif" font-size="14.00">indicators_2 (3)</text>
</g>
<g id="clust4" class="cluster">
<title>clusterindicators_3 (3)</title>
<path fill="none" stroke="black" d="M514,-243.23C514,-243.23 612,-243.23 612,-243.23 618,-243.23 624,-249.23 624,-255.23 624,-255.23 624,-470.95 624,-470.95 624,-476.95 618,-482.95 612,-482.95 612,-482.95 514,-482.95 514,-482.95 508,-482.95 502,-476.95 502,-470.95 502,-470.95 502,-255.23 502,-255.23 502,-249.23 508,-243.23 514,-243.23"/>
<text text-anchor="middle" x="572.88" y="-250.43" font-family="Times,serif" font-size="14.00">indicators_3 (3)</text>
</g>
<g id="clust5" class="cluster">
<title>clusterindicators_4 (3)</title>
<path fill="none" stroke="black" d="M644,-243.23C644,-243.23 742,-243.23 742,-243.23 748,-243.23 754,-249.23 754,-255.23 754,-255.23 754,-470.95 754,-470.95 754,-476.95 748,-482.95 742,-482.95 742,-482.95 644,-482.95 644,-482.95 638,-482.95 632,-476.95 632,-470.95 632,-470.95 632,-255.23 632,-255.23 632,-249.23 638,-243.23 644,-243.23"/>
<text text-anchor="middle" x="702.88" y="-250.43" font-family="Times,serif" font-size="14.00">indicators_4 (3)</text>
</g>
<g id="clust6" class="cluster">
<title>clusterindicators_5 (3)</title>
<path fill="none" stroke="black" d="M774,-243.23C774,-243.23 872,-243.23 872,-243.23 878,-243.23 884,-249.23 884,-255.23 884,-255.23 884,-470.95 884,-470.95 884,-476.95 878,-482.95 872,-482.95 872,-482.95 774,-482.95 774,-482.95 768,-482.95 762,-476.95 762,-470.95 762,-470.95 762,-255.23 762,-255.23 762,-249.23 768,-243.23 774,-243.23"/>
<text text-anchor="middle" x="832.88" y="-250.43" font-family="Times,serif" font-size="14.00">indicators_5 (3)</text>
</g>
<g id="clust7" class="cluster">
<title>cluster15</title>
<path fill="none" stroke="black" d="M1043,-361.13C1043,-361.13 1203,-361.13 1203,-361.13 1209,-361.13 1215,-367.13 1215,-373.13 1215,-373.13 1215,-470.95 1215,-470.95 1215,-476.95 1209,-482.95 1203,-482.95 1203,-482.95 1043,-482.95 1043,-482.95 1037,-482.95 1031,-476.95 1031,-470.95 1031,-470.95 1031,-373.13 1031,-373.13 1031,-367.13 1037,-361.13 1043,-361.13"/>
<text text-anchor="middle" x="1200.25" y="-368.33" font-family="Times,serif" font-size="14.00">15</text>
</g>
<g id="clust8" class="cluster">
<title>cluster5 x 5</title>
<path fill="none" stroke="black" d="M904,-243.23C904,-243.23 990,-243.23 990,-243.23 996,-243.23 1002,-249.23 1002,-255.23 1002,-255.23 1002,-329.23 1002,-329.23 1002,-335.23 996,-341.23 990,-341.23 990,-341.23 904,-341.23 904,-341.23 898,-341.23 892,-335.23 892,-329.23 892,-329.23 892,-255.23 892,-255.23 892,-249.23 898,-243.23 904,-243.23"/>
<text text-anchor="middle" x="980.12" y="-250.43" font-family="Times,serif" font-size="14.00">5 x 5</text>
</g>
<g id="clust9" class="cluster">
<title>cluster5</title>
<path fill="none" stroke="black" d="M1022,-243.23C1022,-243.23 1108,-243.23 1108,-243.23 1114,-243.23 1120,-249.23 1120,-255.23 1120,-255.23 1120,-329.23 1120,-329.23 1120,-335.23 1114,-341.23 1108,-341.23 1108,-341.23 1022,-341.23 1022,-341.23 1016,-341.23 1010,-335.23 1010,-329.23 1010,-329.23 1010,-255.23 1010,-255.23 1010,-249.23 1016,-243.23 1022,-243.23"/>
<text text-anchor="middle" x="1108.62" y="-250.43" font-family="Times,serif" font-size="14.00">5</text>
</g>
<g id="clust10" class="cluster">
<title>clusterlatent (5) x latent1 (5)</title>
<path fill="none" stroke="black" d="M1140,-243.23C1140,-243.23 1252,-243.23 1252,-243.23 1258,-243.23 1264,-249.23 1264,-255.23 1264,-255.23 1264,-329.23 1264,-329.23 1264,-335.23 1258,-341.23 1252,-341.23 1252,-341.23 1140,-341.23 1140,-341.23 1134,-341.23 1128,-335.23 1128,-329.23 1128,-329.23 1128,-255.23 1128,-255.23 1128,-249.23 1134,-243.23 1140,-243.23"/>
<text text-anchor="middle" x="1196" y="-250.43" font-family="Times,serif" font-size="14.00">latent (5) x latent1 (5)</text>
</g>
<g id="clust11" class="cluster">
<title>clusterobs (283) x latent (5)</title>
<path fill="none" stroke="black" d="M1284,-231.32C1284,-231.32 1391,-231.32 1391,-231.32 1397,-231.32 1403,-237.32 1403,-243.32 1403,-243.32 1403,-341.13 1403,-341.13 1403,-347.13 1397,-353.13 1391,-353.13 1391,-353.13 1284,-353.13 1284,-353.13 1278,-353.13 1272,-347.13 1272,-341.13 1272,-341.13 1272,-243.32 1272,-243.32 1272,-237.32 1278,-231.32 1284,-231.32"/>
<text text-anchor="middle" x="1337.25" y="-238.52" font-family="Times,serif" font-size="14.00">obs (283) x latent (5)</text>
</g>
<g id="clust12" class="cluster">
<title>cluster283 x 15</title>
<path fill="none" stroke="black" d="M451,-8C451,-8 543,-8 543,-8 549,-8 555,-14 555,-20 555,-20 555,-211.32 555,-211.32 555,-217.32 549,-223.32 543,-223.32 543,-223.32 451,-223.32 451,-223.32 445,-223.32 439,-217.32 439,-211.32 439,-211.32 439,-20 439,-20 439,-14 445,-8 451,-8"/>
<text text-anchor="middle" x="523" y="-15.2" font-family="Times,serif" font-size="14.00">283 x 15</text>
</g>
<!-- Psi -->
<g id="node1" class="node">
<title>Psi</title>
<ellipse fill="none" stroke="black" cx="71" cy="-304.48" rx="55.33" ry="40.66"/>
<text text-anchor="middle" x="71" y="-315.93" font-family="Times,serif" font-size="14.00">Psi</text>
<text text-anchor="middle" x="71" y="-299.43" font-family="Times,serif" font-size="14.00">~</text>
<text text-anchor="middle" x="71" y="-282.93" font-family="Times,serif" font-size="14.00">InvGamma</text>
</g>
<!-- likelihood -->
<g id="node19" class="node">
<title>likelihood</title>
<ellipse fill="lightgrey" stroke="black" cx="497" cy="-81.16" rx="50.03" ry="40.66"/>
<text text-anchor="middle" x="497" y="-92.61" font-family="Times,serif" font-size="14.00">likelihood</text>
<text text-anchor="middle" x="497" y="-76.11" font-family="Times,serif" font-size="14.00">~</text>
<text text-anchor="middle" x="497" y="-59.61" font-family="Times,serif" font-size="14.00">Normal</text>
</g>
<!-- Psi&#45;&gt;likelihood -->
<g id="edge17" class="edge">
<title>Psi&#45;&gt;likelihood</title>
<path fill="none" stroke="black" d="M96.88,-268.04C107.58,-255.21 120.81,-241.41 135,-231.32 231.23,-162.9 363.54,-118.66 438.66,-97.28"/>
<polygon fill="black" stroke="black" points="439.18,-100.77 447.86,-94.7 437.29,-94.03 439.18,-100.77"/>
</g>
<!-- tau -->
<g id="node2" class="node">
<title>tau</title>
<ellipse fill="none" stroke="black" cx="185" cy="-304.48" rx="41.01" ry="40.66"/>
<text text-anchor="middle" x="185" y="-315.93" font-family="Times,serif" font-size="14.00">tau</text>
<text text-anchor="middle" x="185" y="-299.43" font-family="Times,serif" font-size="14.00">~</text>
<text text-anchor="middle" x="185" y="-282.93" font-family="Times,serif" font-size="14.00">Normal</text>
</g>
<!-- mu -->
<g id="node18" class="node">
<title>mu</title>
<polygon fill="none" stroke="black" points="545.12,-215.32 454.88,-215.32 454.88,-157.82 545.12,-157.82 545.12,-215.32"/>
<text text-anchor="middle" x="500" y="-198.02" font-family="Times,serif" font-size="14.00">mu</text>
<text text-anchor="middle" x="500" y="-181.52" font-family="Times,serif" font-size="14.00">~</text>
<text text-anchor="middle" x="500" y="-165.02" font-family="Times,serif" font-size="14.00">Deterministic</text>
</g>
<!-- tau&#45;&gt;mu -->
<g id="edge16" class="edge">
<title>tau&#45;&gt;mu</title>
<path fill="none" stroke="black" d="M203.32,-267.83C212.03,-254.33 223.7,-240.11 238,-231.32 271.56,-210.68 377.04,-198.1 443.48,-192.02"/>
<polygon fill="black" stroke="black" points="443.44,-195.53 453.09,-191.16 442.82,-188.56 443.44,-195.53"/>
</g>
<!-- lambdas1 -->
<g id="node3" class="node">
<title>lambdas1</title>
<polygon fill="none" stroke="black" points="352.12,-333.23 261.88,-333.23 261.88,-275.73 352.12,-275.73 352.12,-333.23"/>
<text text-anchor="middle" x="307" y="-315.93" font-family="Times,serif" font-size="14.00">lambdas1</text>
<text text-anchor="middle" x="307" y="-299.43" font-family="Times,serif" font-size="14.00">~</text>
<text text-anchor="middle" x="307" y="-282.93" font-family="Times,serif" font-size="14.00">Deterministic</text>
</g>
<!-- lambdas1&#45;&gt;mu -->
<g id="edge10" class="edge">
<title>lambdas1&#45;&gt;mu</title>
<path fill="none" stroke="black" d="M324.97,-275.51C335.83,-260.56 350.88,-242.89 368,-231.32 390.55,-216.07 418.83,-205.77 443.43,-199.01"/>
<polygon fill="black" stroke="black" points="444.18,-202.44 452.98,-196.53 442.42,-195.66 444.18,-202.44"/>
</g>
<!-- lambdas_1 -->
<g id="node4" class="node">
<title>lambdas_1</title>
<ellipse fill="none" stroke="black" cx="303" cy="-434.29" rx="53.21" ry="40.66"/>
<text text-anchor="middle" x="303" y="-445.74" font-family="Times,serif" font-size="14.00">lambdas_1</text>
<text text-anchor="middle" x="303" y="-429.24" font-family="Times,serif" font-size="14.00">~</text>
<text text-anchor="middle" x="303" y="-412.74" font-family="Times,serif" font-size="14.00">Normal</text>
</g>
<!-- lambdas_1&#45;&gt;lambdas1 -->
<g id="edge1" class="edge">
<title>lambdas_1&#45;&gt;lambdas1</title>
<path fill="none" stroke="black" d="M304.25,-393.2C304.74,-377.8 305.29,-360.24 305.77,-344.9"/>
<polygon fill="black" stroke="black" points="309.26,-345.3 306.07,-335.19 302.26,-345.08 309.26,-345.3"/>
</g>
<!-- lambdas_2 -->
<g id="node5" class="node">
<title>lambdas_2</title>
<ellipse fill="none" stroke="black" cx="433" cy="-434.29" rx="53.21" ry="40.66"/>
<text text-anchor="middle" x="433" y="-445.74" font-family="Times,serif" font-size="14.00">lambdas_2</text>
<text text-anchor="middle" x="433" y="-429.24" font-family="Times,serif" font-size="14.00">~</text>
<text text-anchor="middle" x="433" y="-412.74" font-family="Times,serif" font-size="14.00">Normal</text>
</g>
<!-- lambdas2 -->
<g id="node6" class="node">
<title>lambdas2</title>
<polygon fill="none" stroke="black" points="482.12,-333.23 391.88,-333.23 391.88,-275.73 482.12,-275.73 482.12,-333.23"/>
<text text-anchor="middle" x="437" y="-315.93" font-family="Times,serif" font-size="14.00">lambdas2</text>
<text text-anchor="middle" x="437" y="-299.43" font-family="Times,serif" font-size="14.00">~</text>
<text text-anchor="middle" x="437" y="-282.93" font-family="Times,serif" font-size="14.00">Deterministic</text>
</g>
<!-- lambdas_2&#45;&gt;lambdas2 -->
<g id="edge2" class="edge">
<title>lambdas_2&#45;&gt;lambdas2</title>
<path fill="none" stroke="black" d="M434.25,-393.2C434.74,-377.8 435.29,-360.24 435.77,-344.9"/>
<polygon fill="black" stroke="black" points="439.26,-345.3 436.07,-335.19 432.26,-345.08 439.26,-345.3"/>
</g>
<!-- lambdas2&#45;&gt;mu -->
<g id="edge15" class="edge">
<title>lambdas2&#45;&gt;mu</title>
<path fill="none" stroke="black" d="M452.25,-275.42C460.39,-260.44 470.53,-241.79 479.37,-225.53"/>
<polygon fill="black" stroke="black" points="482.25,-227.56 483.95,-217.1 476.1,-224.21 482.25,-227.56"/>
</g>
<!-- lambdas3 -->
<g id="node7" class="node">
<title>lambdas3</title>
<polygon fill="none" stroke="black" points="604.12,-333.23 513.88,-333.23 513.88,-275.73 604.12,-275.73 604.12,-333.23"/>
<text text-anchor="middle" x="559" y="-315.93" font-family="Times,serif" font-size="14.00">lambdas3</text>
<text text-anchor="middle" x="559" y="-299.43" font-family="Times,serif" font-size="14.00">~</text>
<text text-anchor="middle" x="559" y="-282.93" font-family="Times,serif" font-size="14.00">Deterministic</text>
</g>
<!-- lambdas3&#45;&gt;mu -->
<g id="edge13" class="edge">
<title>lambdas3&#45;&gt;mu</title>
<path fill="none" stroke="black" d="M544.72,-275.42C537.16,-260.58 527.78,-242.14 519.56,-225.99"/>
<polygon fill="black" stroke="black" points="522.7,-224.44 515.04,-217.12 516.46,-227.62 522.7,-224.44"/>
</g>
<!-- lambdas_3 -->
<g id="node8" class="node">
<title>lambdas_3</title>
<ellipse fill="none" stroke="black" cx="563" cy="-434.29" rx="53.21" ry="40.66"/>
<text text-anchor="middle" x="563" y="-445.74" font-family="Times,serif" font-size="14.00">lambdas_3</text>
<text text-anchor="middle" x="563" y="-429.24" font-family="Times,serif" font-size="14.00">~</text>
<text text-anchor="middle" x="563" y="-412.74" font-family="Times,serif" font-size="14.00">Normal</text>
</g>
<!-- lambdas_3&#45;&gt;lambdas3 -->
<g id="edge3" class="edge">
<title>lambdas_3&#45;&gt;lambdas3</title>
<path fill="none" stroke="black" d="M561.75,-393.2C561.26,-377.8 560.71,-360.24 560.23,-344.9"/>
<polygon fill="black" stroke="black" points="563.74,-345.08 559.93,-335.19 556.74,-345.3 563.74,-345.08"/>
</g>
<!-- lambdas4 -->
<g id="node9" class="node">
<title>lambdas4</title>
<polygon fill="none" stroke="black" points="734.12,-333.23 643.88,-333.23 643.88,-275.73 734.12,-275.73 734.12,-333.23"/>
<text text-anchor="middle" x="689" y="-315.93" font-family="Times,serif" font-size="14.00">lambdas4</text>
<text text-anchor="middle" x="689" y="-299.43" font-family="Times,serif" font-size="14.00">~</text>
<text text-anchor="middle" x="689" y="-282.93" font-family="Times,serif" font-size="14.00">Deterministic</text>
</g>
<!-- lambdas4&#45;&gt;mu -->
<g id="edge12" class="edge">
<title>lambdas4&#45;&gt;mu</title>
<path fill="none" stroke="black" d="M670.99,-275.57C660.11,-260.64 645.07,-242.97 628,-231.32 606.57,-216.68 579.79,-206.53 556.28,-199.72"/>
<polygon fill="black" stroke="black" points="557.41,-196.4 546.84,-197.13 555.56,-203.15 557.41,-196.4"/>
</g>
<!-- lambdas_4 -->
<g id="node10" class="node">
<title>lambdas_4</title>
<ellipse fill="none" stroke="black" cx="693" cy="-434.29" rx="53.21" ry="40.66"/>
<text text-anchor="middle" x="693" y="-445.74" font-family="Times,serif" font-size="14.00">lambdas_4</text>
<text text-anchor="middle" x="693" y="-429.24" font-family="Times,serif" font-size="14.00">~</text>
<text text-anchor="middle" x="693" y="-412.74" font-family="Times,serif" font-size="14.00">Normal</text>
</g>
<!-- lambdas_4&#45;&gt;lambdas4 -->
<g id="edge4" class="edge">
<title>lambdas_4&#45;&gt;lambdas4</title>
<path fill="none" stroke="black" d="M691.75,-393.2C691.26,-377.8 690.71,-360.24 690.23,-344.9"/>
<polygon fill="black" stroke="black" points="693.74,-345.08 689.93,-335.19 686.74,-345.3 693.74,-345.08"/>
</g>
<!-- lambdas5 -->
<g id="node11" class="node">
<title>lambdas5</title>
<polygon fill="none" stroke="black" points="864.12,-333.23 773.88,-333.23 773.88,-275.73 864.12,-275.73 864.12,-333.23"/>
<text text-anchor="middle" x="819" y="-315.93" font-family="Times,serif" font-size="14.00">lambdas5</text>
<text text-anchor="middle" x="819" y="-299.43" font-family="Times,serif" font-size="14.00">~</text>
<text text-anchor="middle" x="819" y="-282.93" font-family="Times,serif" font-size="14.00">Deterministic</text>
</g>
<!-- lambdas5&#45;&gt;mu -->
<g id="edge11" class="edge">
<title>lambdas5&#45;&gt;mu</title>
<path fill="none" stroke="black" d="M802.43,-275.56C791.73,-260.04 776.38,-241.8 758,-231.32 724.54,-212.23 622.21,-199.23 556.93,-192.63"/>
<polygon fill="black" stroke="black" points="557.39,-189.16 547.1,-191.66 556.71,-196.13 557.39,-189.16"/>
</g>
<!-- lambdas_5 -->
<g id="node12" class="node">
<title>lambdas_5</title>
<ellipse fill="none" stroke="black" cx="823" cy="-434.29" rx="53.21" ry="40.66"/>
<text text-anchor="middle" x="823" y="-445.74" font-family="Times,serif" font-size="14.00">lambdas_5</text>
<text text-anchor="middle" x="823" y="-429.24" font-family="Times,serif" font-size="14.00">~</text>
<text text-anchor="middle" x="823" y="-412.74" font-family="Times,serif" font-size="14.00">Normal</text>
</g>
<!-- lambdas_5&#45;&gt;lambdas5 -->
<g id="edge5" class="edge">
<title>lambdas_5&#45;&gt;lambdas5</title>
<path fill="none" stroke="black" d="M821.75,-393.2C821.26,-377.8 820.71,-360.24 820.23,-344.9"/>
<polygon fill="black" stroke="black" points="823.74,-345.08 819.93,-335.19 816.74,-345.3 823.74,-345.08"/>
</g>
<!-- chol_cov -->
<g id="node13" class="node">
<title>chol_cov</title>
<ellipse fill="none" stroke="black" cx="1123" cy="-434.29" rx="84.5" ry="40.66"/>
<text text-anchor="middle" x="1123" y="-445.74" font-family="Times,serif" font-size="14.00">chol_cov</text>
<text text-anchor="middle" x="1123" y="-429.24" font-family="Times,serif" font-size="14.00">~</text>
<text text-anchor="middle" x="1123" y="-412.74" font-family="Times,serif" font-size="14.00">_LKJCholeskyCov</text>
</g>
<!-- chol_cov_corr -->
<g id="node14" class="node">
<title>chol_cov_corr</title>
<polygon fill="none" stroke="black" points="994,-333.23 900,-333.23 900,-275.73 994,-275.73 994,-333.23"/>
<text text-anchor="middle" x="947" y="-315.93" font-family="Times,serif" font-size="14.00">chol_cov_corr</text>
<text text-anchor="middle" x="947" y="-299.43" font-family="Times,serif" font-size="14.00">~</text>
<text text-anchor="middle" x="947" y="-282.93" font-family="Times,serif" font-size="14.00">Deterministic</text>
</g>
<!-- chol_cov&#45;&gt;chol_cov_corr -->
<g id="edge6" class="edge">
<title>chol_cov&#45;&gt;chol_cov_corr</title>
<path fill="none" stroke="black" d="M1073.73,-400.79C1052.6,-386.54 1027.82,-369.38 1006,-353.13 1000.72,-349.2 995.26,-344.99 989.88,-340.76"/>
<polygon fill="black" stroke="black" points="992.15,-338.09 982.14,-334.6 987.79,-343.57 992.15,-338.09"/>
</g>
<!-- chol_cov_stds -->
<g id="node15" class="node">
<title>chol_cov_stds</title>
<polygon fill="none" stroke="black" points="1111.62,-333.23 1018.38,-333.23 1018.38,-275.73 1111.62,-275.73 1111.62,-333.23"/>
<text text-anchor="middle" x="1065" y="-315.93" font-family="Times,serif" font-size="14.00">chol_cov_stds</text>
<text text-anchor="middle" x="1065" y="-299.43" font-family="Times,serif" font-size="14.00">~</text>
<text text-anchor="middle" x="1065" y="-282.93" font-family="Times,serif" font-size="14.00">Deterministic</text>
</g>
<!-- chol_cov&#45;&gt;chol_cov_stds -->
<g id="edge7" class="edge">
<title>chol_cov&#45;&gt;chol_cov_stds</title>
<path fill="none" stroke="black" d="M1105.28,-394.25C1097.96,-378.11 1089.5,-359.46 1082.23,-343.44"/>
<polygon fill="black" stroke="black" points="1085.59,-342.38 1078.27,-334.72 1079.21,-345.27 1085.59,-342.38"/>
</g>
<!-- cov -->
<g id="node16" class="node">
<title>cov</title>
<polygon fill="none" stroke="black" points="1226.12,-333.23 1135.88,-333.23 1135.88,-275.73 1226.12,-275.73 1226.12,-333.23"/>
<text text-anchor="middle" x="1181" y="-315.93" font-family="Times,serif" font-size="14.00">cov</text>
<text text-anchor="middle" x="1181" y="-299.43" font-family="Times,serif" font-size="14.00">~</text>
<text text-anchor="middle" x="1181" y="-282.93" font-family="Times,serif" font-size="14.00">Deterministic</text>
</g>
<!-- chol_cov&#45;&gt;cov -->
<g id="edge8" class="edge">
<title>chol_cov&#45;&gt;cov</title>
<path fill="none" stroke="black" d="M1140.72,-394.25C1148.04,-378.11 1156.5,-359.46 1163.77,-343.44"/>
<polygon fill="black" stroke="black" points="1166.79,-345.27 1167.73,-334.72 1160.41,-342.38 1166.79,-345.27"/>
</g>
<!-- ksi -->
<g id="node17" class="node">
<title>ksi</title>
<ellipse fill="none" stroke="black" cx="1335" cy="-304.48" rx="54.8" ry="40.66"/>
<text text-anchor="middle" x="1335" y="-315.93" font-family="Times,serif" font-size="14.00">ksi</text>
<text text-anchor="middle" x="1335" y="-299.43" font-family="Times,serif" font-size="14.00">~</text>
<text text-anchor="middle" x="1335" y="-282.93" font-family="Times,serif" font-size="14.00">MvNormal</text>
</g>
<!-- chol_cov&#45;&gt;ksi -->
<g id="edge9" class="edge">
<title>chol_cov&#45;&gt;ksi</title>
<path fill="none" stroke="black" d="M1179.63,-403.91C1206.78,-389.34 1239.52,-371.06 1268,-353.13 1274.33,-349.15 1280.88,-344.8 1287.29,-340.4"/>
<polygon fill="black" stroke="black" points="1289.09,-343.41 1295.3,-334.82 1285.09,-337.67 1289.09,-343.41"/>
</g>
<!-- ksi&#45;&gt;mu -->
<g id="edge14" class="edge">
<title>ksi&#45;&gt;mu</title>
<path fill="none" stroke="black" d="M1311.08,-267.65C1299.78,-253.77 1285.02,-239.32 1268,-231.32 1204.27,-201.34 724.14,-191.06 557.09,-188.37"/>
<polygon fill="black" stroke="black" points="557.18,-184.87 547.12,-188.21 557.07,-191.87 557.18,-184.87"/>
</g>
<!-- mu&#45;&gt;likelihood -->
<g id="edge18" class="edge">
<title>mu&#45;&gt;likelihood</title>
<path fill="none" stroke="black" d="M499.19,-157.58C498.97,-150.1 498.73,-141.77 498.49,-133.45"/>
<polygon fill="black" stroke="black" points="501.99,-133.61 498.21,-123.71 495,-133.81 501.99,-133.61"/>
</g>
</g>
</svg>
