<?xml version="1.0" encoding="UTF-8" standalone="no"?>
<!DOCTYPE svg PUBLIC "-//W3C//DTD SVG 1.1//EN"
 "http://www.w3.org/Graphics/SVG/1.1/DTD/svg11.dtd">
<!-- Generated by graphviz version 9.0.0 (0)
 -->
<!-- Pages: 1 -->
<svg width="1302pt" height="759pt"
 viewBox="0.00 0.00 1302.00 758.59" xmlns="http://www.w3.org/2000/svg" xmlns:xlink="http://www.w3.org/1999/xlink">
<g id="graph0" class="graph" transform="scale(1 1) rotate(0) translate(4 754.59)">
<polygon fill="white" stroke="none" points="-4,4 -4,-754.59 1298,-754.59 1298,4 -4,4"/>
<g id="clust1" class="cluster">
<title>clusterindicators (15)</title>
<path fill="none" stroke="black" d="M1072,-231.32C1072,-231.32 1274,-231.32 1274,-231.32 1280,-231.32 1286,-237.32 1286,-243.32 1286,-243.32 1286,-341.13 1286,-341.13 1286,-347.13 1280,-353.13 1274,-353.13 1274,-353.13 1072,-353.13 1072,-353.13 1066,-353.13 1060,-347.13 1060,-341.13 1060,-341.13 1060,-243.32 1060,-243.32 1060,-237.32 1066,-231.32 1072,-231.32"/>
<text text-anchor="middle" x="1238.25" y="-238.52" font-family="Times,serif" font-size="14.00">indicators (15)</text>
</g>
<g id="clust2" class="cluster">
<title>clusterindicators_1 (3)</title>
<path fill="none" stroke="black" d="M20,-243.23C20,-243.23 118,-243.23 118,-243.23 124,-243.23 130,-249.23 130,-255.23 130,-255.23 130,-470.95 130,-470.95 130,-476.95 124,-482.95 118,-482.95 118,-482.95 20,-482.95 20,-482.95 14,-482.95 8,-476.95 8,-470.95 8,-470.95 8,-255.23 8,-255.23 8,-249.23 14,-243.23 20,-243.23"/>
<text text-anchor="middle" x="78.88" y="-250.43" font-family="Times,serif" font-size="14.00">indicators_1 (3)</text>
</g>
<g id="clust3" class="cluster">
<title>clusterindicators_2 (3)</title>
<path fill="none" stroke="black" d="M150,-243.23C150,-243.23 248,-243.23 248,-243.23 254,-243.23 260,-249.23 260,-255.23 260,-255.23 260,-470.95 260,-470.95 260,-476.95 254,-482.95 248,-482.95 248,-482.95 150,-482.95 150,-482.95 144,-482.95 138,-476.95 138,-470.95 138,-470.95 138,-255.23 138,-255.23 138,-249.23 144,-243.23 150,-243.23"/>
<text text-anchor="middle" x="208.88" y="-250.43" font-family="Times,serif" font-size="14.00">indicators_2 (3)</text>
</g>
<g id="clust4" class="cluster">
<title>clusterindicators_3 (3)</title>
<path fill="none" stroke="black" d="M280,-243.23C280,-243.23 378,-243.23 378,-243.23 384,-243.23 390,-249.23 390,-255.23 390,-255.23 390,-470.95 390,-470.95 390,-476.95 384,-482.95 378,-482.95 378,-482.95 280,-482.95 280,-482.95 274,-482.95 268,-476.95 268,-470.95 268,-470.95 268,-255.23 268,-255.23 268,-249.23 274,-243.23 280,-243.23"/>
<text text-anchor="middle" x="338.88" y="-250.43" font-family="Times,serif" font-size="14.00">indicators_3 (3)</text>
</g>
<g id="clust5" class="cluster">
<title>clusterindicators_4 (3)</title>
<path fill="none" stroke="black" d="M410,-243.23C410,-243.23 508,-243.23 508,-243.23 514,-243.23 520,-249.23 520,-255.23 520,-255.23 520,-470.95 520,-470.95 520,-476.95 514,-482.95 508,-482.95 508,-482.95 410,-482.95 410,-482.95 404,-482.95 398,-476.95 398,-470.95 398,-470.95 398,-255.23 398,-255.23 398,-249.23 404,-243.23 410,-243.23"/>
<text text-anchor="middle" x="468.88" y="-250.43" font-family="Times,serif" font-size="14.00">indicators_4 (3)</text>
</g>
<g id="clust6" class="cluster">
<title>clusterindicators_5 (3)</title>
<path fill="none" stroke="black" d="M540,-243.23C540,-243.23 638,-243.23 638,-243.23 644,-243.23 650,-249.23 650,-255.23 650,-255.23 650,-470.95 650,-470.95 650,-476.95 644,-482.95 638,-482.95 638,-482.95 540,-482.95 540,-482.95 534,-482.95 528,-476.95 528,-470.95 528,-470.95 528,-255.23 528,-255.23 528,-249.23 534,-243.23 540,-243.23"/>
<text text-anchor="middle" x="598.88" y="-250.43" font-family="Times,serif" font-size="14.00">indicators_5 (3)</text>
</g>
<g id="clust7" class="cluster">
<title>cluster3</title>
<path fill="none" stroke="black" d="M879,-620.77C879,-620.77 1039,-620.77 1039,-620.77 1045,-620.77 1051,-626.77 1051,-632.77 1051,-632.77 1051,-730.59 1051,-730.59 1051,-736.59 1045,-742.59 1039,-742.59 1039,-742.59 879,-742.59 879,-742.59 873,-742.59 867,-736.59 867,-730.59 867,-730.59 867,-632.77 867,-632.77 867,-626.77 873,-620.77 879,-620.77"/>
<text text-anchor="middle" x="1039.62" y="-627.97" font-family="Times,serif" font-size="14.00">3</text>
</g>
<g id="clust8" class="cluster">
<title>cluster2 x 2</title>
<path fill="none" stroke="black" d="M1109,-502.86C1109,-502.86 1195,-502.86 1195,-502.86 1201,-502.86 1207,-508.86 1207,-514.86 1207,-514.86 1207,-588.86 1207,-588.86 1207,-594.86 1201,-600.86 1195,-600.86 1195,-600.86 1109,-600.86 1109,-600.86 1103,-600.86 1097,-594.86 1097,-588.86 1097,-588.86 1097,-514.86 1097,-514.86 1097,-508.86 1103,-502.86 1109,-502.86"/>
<text text-anchor="middle" x="1185.12" y="-510.06" font-family="Times,serif" font-size="14.00">2 x 2</text>
</g>
<g id="clust9" class="cluster">
<title>cluster2</title>
<path fill="none" stroke="black" d="M708,-502.86C708,-502.86 794,-502.86 794,-502.86 800,-502.86 806,-508.86 806,-514.86 806,-514.86 806,-588.86 806,-588.86 806,-594.86 800,-600.86 794,-600.86 794,-600.86 708,-600.86 708,-600.86 702,-600.86 696,-594.86 696,-588.86 696,-588.86 696,-514.86 696,-514.86 696,-508.86 702,-502.86 708,-502.86"/>
<text text-anchor="middle" x="794.62" y="-510.06" font-family="Times,serif" font-size="14.00">2</text>
</g>
<g id="clust10" class="cluster">
<title>clusterlatent (2) x latent1 (2)</title>
<path fill="none" stroke="black" d="M826,-502.86C826,-502.86 938,-502.86 938,-502.86 944,-502.86 950,-508.86 950,-514.86 950,-514.86 950,-588.86 950,-588.86 950,-594.86 944,-600.86 938,-600.86 938,-600.86 826,-600.86 826,-600.86 820,-600.86 814,-594.86 814,-588.86 814,-588.86 814,-514.86 814,-514.86 814,-508.86 820,-502.86 826,-502.86"/>
<text text-anchor="middle" x="882" y="-510.06" font-family="Times,serif" font-size="14.00">latent (2) x latent1 (2)</text>
</g>
<g id="clust11" class="cluster">
<title>clusterobs (283) x latent (2)</title>
<path fill="none" stroke="black" d="M970,-490.95C970,-490.95 1077,-490.95 1077,-490.95 1083,-490.95 1089,-496.95 1089,-502.95 1089,-502.95 1089,-600.77 1089,-600.77 1089,-606.77 1083,-612.77 1077,-612.77 1077,-612.77 970,-612.77 970,-612.77 964,-612.77 958,-606.77 958,-600.77 958,-600.77 958,-502.95 958,-502.95 958,-496.95 964,-490.95 970,-490.95"/>
<text text-anchor="middle" x="1023.25" y="-498.15" font-family="Times,serif" font-size="14.00">obs (283) x latent (2)</text>
</g>
<g id="clust12" class="cluster">
<title>clusterlatent_regression (4)</title>
<path fill="none" stroke="black" d="M573,-490.95C573,-490.95 676,-490.95 676,-490.95 682,-490.95 688,-496.95 688,-502.95 688,-502.95 688,-600.77 688,-600.77 688,-606.77 682,-612.77 676,-612.77 676,-612.77 573,-612.77 573,-612.77 567,-612.77 561,-606.77 561,-600.77 561,-600.77 561,-502.95 561,-502.95 561,-496.95 567,-490.95 573,-490.95"/>
<text text-anchor="middle" x="624.12" y="-498.15" font-family="Times,serif" font-size="14.00">latent_regression (4)</text>
</g>
<g id="clust13" class="cluster">
<title>clusterregression (4)</title>
<path fill="none" stroke="black" d="M896,-361.13C896,-361.13 970,-361.13 970,-361.13 976,-361.13 982,-367.13 982,-373.13 982,-373.13 982,-470.95 982,-470.95 982,-476.95 976,-482.95 970,-482.95 970,-482.95 896,-482.95 896,-482.95 890,-482.95 884,-476.95 884,-470.95 884,-470.95 884,-373.13 884,-373.13 884,-367.13 890,-361.13 896,-361.13"/>
<text text-anchor="middle" x="936.5" y="-368.33" font-family="Times,serif" font-size="14.00">regression (4)</text>
</g>
<g id="clust14" class="cluster">
<title>cluster283</title>
<path fill="none" stroke="black" d="M670,-243.23C670,-243.23 864,-243.23 864,-243.23 870,-243.23 876,-249.23 876,-255.23 876,-255.23 876,-459.04 876,-459.04 876,-465.04 870,-471.04 864,-471.04 864,-471.04 670,-471.04 670,-471.04 664,-471.04 658,-465.04 658,-459.04 658,-459.04 658,-255.23 658,-255.23 658,-249.23 664,-243.23 670,-243.23"/>
<text text-anchor="middle" x="857.88" y="-250.43" font-family="Times,serif" font-size="14.00">283</text>
</g>
<g id="clust15" class="cluster">
<title>cluster283 x 15</title>
<path fill="none" stroke="black" d="M667,-8C667,-8 759,-8 759,-8 765,-8 771,-14 771,-20 771,-20 771,-211.32 771,-211.32 771,-217.32 765,-223.32 759,-223.32 759,-223.32 667,-223.32 667,-223.32 661,-223.32 655,-217.32 655,-211.32 655,-211.32 655,-20 655,-20 655,-14 661,-8 667,-8"/>
<text text-anchor="middle" x="739" y="-15.2" font-family="Times,serif" font-size="14.00">283 x 15</text>
</g>
<!-- tau -->
<g id="node1" class="node">
<title>tau</title>
<ellipse fill="none" stroke="black" cx="1109" cy="-304.48" rx="41.01" ry="40.66"/>
<text text-anchor="middle" x="1109" y="-315.93" font-family="Times,serif" font-size="14.00">tau</text>
<text text-anchor="middle" x="1109" y="-299.43" font-family="Times,serif" font-size="14.00">~</text>
<text text-anchor="middle" x="1109" y="-282.93" font-family="Times,serif" font-size="14.00">Normal</text>
</g>
<!-- mu -->
<g id="node24" class="node">
<title>mu</title>
<polygon fill="none" stroke="black" points="755.12,-215.32 664.88,-215.32 664.88,-157.82 755.12,-157.82 755.12,-215.32"/>
<text text-anchor="middle" x="710" y="-198.02" font-family="Times,serif" font-size="14.00">mu</text>
<text text-anchor="middle" x="710" y="-181.52" font-family="Times,serif" font-size="14.00">~</text>
<text text-anchor="middle" x="710" y="-165.02" font-family="Times,serif" font-size="14.00">Deterministic</text>
</g>
<!-- tau&#45;&gt;mu -->
<g id="edge18" class="edge">
<title>tau&#45;&gt;mu</title>
<path fill="none" stroke="black" d="M1090.15,-267.88C1081.07,-254.21 1068.89,-239.86 1054,-231.32 1041.38,-224.07 1003.44,-225.13 989,-223.32 911.94,-213.64 822.94,-202.19 766.59,-194.9"/>
<polygon fill="black" stroke="black" points="767.28,-191.46 756.92,-193.65 766.39,-198.41 767.28,-191.46"/>
</g>
<!-- Psi -->
<g id="node2" class="node">
<title>Psi</title>
<ellipse fill="none" stroke="black" cx="1223" cy="-304.48" rx="55.33" ry="40.66"/>
<text text-anchor="middle" x="1223" y="-315.93" font-family="Times,serif" font-size="14.00">Psi</text>
<text text-anchor="middle" x="1223" y="-299.43" font-family="Times,serif" font-size="14.00">~</text>
<text text-anchor="middle" x="1223" y="-282.93" font-family="Times,serif" font-size="14.00">InvGamma</text>
</g>
<!-- likelihood -->
<g id="node23" class="node">
<title>likelihood</title>
<ellipse fill="lightgrey" stroke="black" cx="713" cy="-81.16" rx="50.03" ry="40.66"/>
<text text-anchor="middle" x="713" y="-92.61" font-family="Times,serif" font-size="14.00">likelihood</text>
<text text-anchor="middle" x="713" y="-76.11" font-family="Times,serif" font-size="14.00">~</text>
<text text-anchor="middle" x="713" y="-59.61" font-family="Times,serif" font-size="14.00">Normal</text>
</g>
<!-- Psi&#45;&gt;likelihood -->
<g id="edge29" class="edge">
<title>Psi&#45;&gt;likelihood</title>
<path fill="none" stroke="black" d="M1197.78,-267.9C1187.07,-254.89 1173.67,-241.01 1159,-231.32 1035.54,-149.73 863.34,-108.9 773.3,-92.01"/>
<polygon fill="black" stroke="black" points="774.16,-88.61 763.69,-90.25 772.9,-95.5 774.16,-88.61"/>
</g>
<!-- lambdas1 -->
<g id="node3" class="node">
<title>lambdas1</title>
<polygon fill="none" stroke="black" points="118.12,-333.23 27.88,-333.23 27.88,-275.73 118.12,-275.73 118.12,-333.23"/>
<text text-anchor="middle" x="73" y="-315.93" font-family="Times,serif" font-size="14.00">lambdas1</text>
<text text-anchor="middle" x="73" y="-299.43" font-family="Times,serif" font-size="14.00">~</text>
<text text-anchor="middle" x="73" y="-282.93" font-family="Times,serif" font-size="14.00">Deterministic</text>
</g>
<!-- lambdas1&#45;&gt;mu -->
<g id="edge25" class="edge">
<title>lambdas1&#45;&gt;mu</title>
<path fill="none" stroke="black" d="M88.98,-275.29C99.58,-259.48 115.01,-241.02 134,-231.32 179.45,-208.09 516.83,-194.14 653.13,-189.4"/>
<polygon fill="black" stroke="black" points="653.13,-192.9 663.01,-189.06 652.89,-185.9 653.13,-192.9"/>
</g>
<!-- lambdas_1 -->
<g id="node4" class="node">
<title>lambdas_1</title>
<ellipse fill="none" stroke="black" cx="69" cy="-434.29" rx="53.21" ry="40.66"/>
<text text-anchor="middle" x="69" y="-445.74" font-family="Times,serif" font-size="14.00">lambdas_1</text>
<text text-anchor="middle" x="69" y="-429.24" font-family="Times,serif" font-size="14.00">~</text>
<text text-anchor="middle" x="69" y="-412.74" font-family="Times,serif" font-size="14.00">Normal</text>
</g>
<!-- lambdas_1&#45;&gt;lambdas1 -->
<g id="edge1" class="edge">
<title>lambdas_1&#45;&gt;lambdas1</title>
<path fill="none" stroke="black" d="M70.25,-393.2C70.74,-377.8 71.29,-360.24 71.77,-344.9"/>
<polygon fill="black" stroke="black" points="75.26,-345.3 72.07,-335.19 68.26,-345.08 75.26,-345.3"/>
</g>
<!-- lambdas_2 -->
<g id="node5" class="node">
<title>lambdas_2</title>
<ellipse fill="none" stroke="black" cx="199" cy="-434.29" rx="53.21" ry="40.66"/>
<text text-anchor="middle" x="199" y="-445.74" font-family="Times,serif" font-size="14.00">lambdas_2</text>
<text text-anchor="middle" x="199" y="-429.24" font-family="Times,serif" font-size="14.00">~</text>
<text text-anchor="middle" x="199" y="-412.74" font-family="Times,serif" font-size="14.00">Normal</text>
</g>
<!-- lambdas2 -->
<g id="node6" class="node">
<title>lambdas2</title>
<polygon fill="none" stroke="black" points="248.12,-333.23 157.88,-333.23 157.88,-275.73 248.12,-275.73 248.12,-333.23"/>
<text text-anchor="middle" x="203" y="-315.93" font-family="Times,serif" font-size="14.00">lambdas2</text>
<text text-anchor="middle" x="203" y="-299.43" font-family="Times,serif" font-size="14.00">~</text>
<text text-anchor="middle" x="203" y="-282.93" font-family="Times,serif" font-size="14.00">Deterministic</text>
</g>
<!-- lambdas_2&#45;&gt;lambdas2 -->
<g id="edge2" class="edge">
<title>lambdas_2&#45;&gt;lambdas2</title>
<path fill="none" stroke="black" d="M200.25,-393.2C200.74,-377.8 201.29,-360.24 201.77,-344.9"/>
<polygon fill="black" stroke="black" points="205.26,-345.3 202.07,-335.19 198.26,-345.08 205.26,-345.3"/>
</g>
<!-- lambdas2&#45;&gt;mu -->
<g id="edge21" class="edge">
<title>lambdas2&#45;&gt;mu</title>
<path fill="none" stroke="black" d="M219.06,-275.45C229.68,-259.68 245.12,-241.23 264,-231.32 330.23,-196.55 548.6,-189.33 653.19,-187.89"/>
<polygon fill="black" stroke="black" points="652.99,-191.39 662.94,-187.77 652.9,-184.39 652.99,-191.39"/>
</g>
<!-- lambdas_3 -->
<g id="node7" class="node">
<title>lambdas_3</title>
<ellipse fill="none" stroke="black" cx="329" cy="-434.29" rx="53.21" ry="40.66"/>
<text text-anchor="middle" x="329" y="-445.74" font-family="Times,serif" font-size="14.00">lambdas_3</text>
<text text-anchor="middle" x="329" y="-429.24" font-family="Times,serif" font-size="14.00">~</text>
<text text-anchor="middle" x="329" y="-412.74" font-family="Times,serif" font-size="14.00">Normal</text>
</g>
<!-- lambdas3 -->
<g id="node8" class="node">
<title>lambdas3</title>
<polygon fill="none" stroke="black" points="378.12,-333.23 287.88,-333.23 287.88,-275.73 378.12,-275.73 378.12,-333.23"/>
<text text-anchor="middle" x="333" y="-315.93" font-family="Times,serif" font-size="14.00">lambdas3</text>
<text text-anchor="middle" x="333" y="-299.43" font-family="Times,serif" font-size="14.00">~</text>
<text text-anchor="middle" x="333" y="-282.93" font-family="Times,serif" font-size="14.00">Deterministic</text>
</g>
<!-- lambdas_3&#45;&gt;lambdas3 -->
<g id="edge3" class="edge">
<title>lambdas_3&#45;&gt;lambdas3</title>
<path fill="none" stroke="black" d="M330.25,-393.2C330.74,-377.8 331.29,-360.24 331.77,-344.9"/>
<polygon fill="black" stroke="black" points="335.26,-345.3 332.07,-335.19 328.26,-345.08 335.26,-345.3"/>
</g>
<!-- lambdas3&#45;&gt;mu -->
<g id="edge27" class="edge">
<title>lambdas3&#45;&gt;mu</title>
<path fill="none" stroke="black" d="M349.46,-275.35C360.12,-259.77 375.46,-241.52 394,-231.32 437.47,-207.38 574.9,-195.52 653.46,-190.56"/>
<polygon fill="black" stroke="black" points="653.33,-194.07 663.1,-189.97 652.9,-187.08 653.33,-194.07"/>
</g>
<!-- lambdas_4 -->
<g id="node9" class="node">
<title>lambdas_4</title>
<ellipse fill="none" stroke="black" cx="459" cy="-434.29" rx="53.21" ry="40.66"/>
<text text-anchor="middle" x="459" y="-445.74" font-family="Times,serif" font-size="14.00">lambdas_4</text>
<text text-anchor="middle" x="459" y="-429.24" font-family="Times,serif" font-size="14.00">~</text>
<text text-anchor="middle" x="459" y="-412.74" font-family="Times,serif" font-size="14.00">Normal</text>
</g>
<!-- lambdas4 -->
<g id="node10" class="node">
<title>lambdas4</title>
<polygon fill="none" stroke="black" points="508.12,-333.23 417.88,-333.23 417.88,-275.73 508.12,-275.73 508.12,-333.23"/>
<text text-anchor="middle" x="463" y="-315.93" font-family="Times,serif" font-size="14.00">lambdas4</text>
<text text-anchor="middle" x="463" y="-299.43" font-family="Times,serif" font-size="14.00">~</text>
<text text-anchor="middle" x="463" y="-282.93" font-family="Times,serif" font-size="14.00">Deterministic</text>
</g>
<!-- lambdas_4&#45;&gt;lambdas4 -->
<g id="edge4" class="edge">
<title>lambdas_4&#45;&gt;lambdas4</title>
<path fill="none" stroke="black" d="M460.25,-393.2C460.74,-377.8 461.29,-360.24 461.77,-344.9"/>
<polygon fill="black" stroke="black" points="465.26,-345.3 462.07,-335.19 458.26,-345.08 465.26,-345.3"/>
</g>
<!-- lambdas4&#45;&gt;mu -->
<g id="edge20" class="edge">
<title>lambdas4&#45;&gt;mu</title>
<path fill="none" stroke="black" d="M480.33,-275.27C491.09,-260.05 506.24,-242.21 524,-231.32 563.25,-207.25 614.62,-196.42 653.42,-191.55"/>
<polygon fill="black" stroke="black" points="653.49,-195.06 663.02,-190.44 652.69,-188.11 653.49,-195.06"/>
</g>
<!-- lambdas_5 -->
<g id="node11" class="node">
<title>lambdas_5</title>
<ellipse fill="none" stroke="black" cx="589" cy="-434.29" rx="53.21" ry="40.66"/>
<text text-anchor="middle" x="589" y="-445.74" font-family="Times,serif" font-size="14.00">lambdas_5</text>
<text text-anchor="middle" x="589" y="-429.24" font-family="Times,serif" font-size="14.00">~</text>
<text text-anchor="middle" x="589" y="-412.74" font-family="Times,serif" font-size="14.00">Normal</text>
</g>
<!-- lambdas5 -->
<g id="node12" class="node">
<title>lambdas5</title>
<polygon fill="none" stroke="black" points="638.12,-333.23 547.88,-333.23 547.88,-275.73 638.12,-275.73 638.12,-333.23"/>
<text text-anchor="middle" x="593" y="-315.93" font-family="Times,serif" font-size="14.00">lambdas5</text>
<text text-anchor="middle" x="593" y="-299.43" font-family="Times,serif" font-size="14.00">~</text>
<text text-anchor="middle" x="593" y="-282.93" font-family="Times,serif" font-size="14.00">Deterministic</text>
</g>
<!-- lambdas_5&#45;&gt;lambdas5 -->
<g id="edge5" class="edge">
<title>lambdas_5&#45;&gt;lambdas5</title>
<path fill="none" stroke="black" d="M590.25,-393.2C590.74,-377.8 591.29,-360.24 591.77,-344.9"/>
<polygon fill="black" stroke="black" points="595.26,-345.3 592.07,-335.19 588.26,-345.08 595.26,-345.3"/>
</g>
<!-- lambdas5&#45;&gt;mu -->
<g id="edge19" class="edge">
<title>lambdas5&#45;&gt;mu</title>
<path fill="none" stroke="black" d="M614.63,-275.23C625.76,-261.4 639.93,-244.85 654,-231.32 656.93,-228.5 660.03,-225.68 663.21,-222.91"/>
<polygon fill="black" stroke="black" points="665.2,-225.81 670.6,-216.7 660.7,-220.46 665.2,-225.81"/>
</g>
<!-- chol_cov -->
<g id="node13" class="node">
<title>chol_cov</title>
<ellipse fill="none" stroke="black" cx="959" cy="-693.93" rx="84.5" ry="40.66"/>
<text text-anchor="middle" x="959" y="-705.38" font-family="Times,serif" font-size="14.00">chol_cov</text>
<text text-anchor="middle" x="959" y="-688.88" font-family="Times,serif" font-size="14.00">~</text>
<text text-anchor="middle" x="959" y="-672.38" font-family="Times,serif" font-size="14.00">_LKJCholeskyCov</text>
</g>
<!-- chol_cov_corr -->
<g id="node14" class="node">
<title>chol_cov_corr</title>
<polygon fill="none" stroke="black" points="1199,-592.86 1105,-592.86 1105,-535.36 1199,-535.36 1199,-592.86"/>
<text text-anchor="middle" x="1152" y="-575.56" font-family="Times,serif" font-size="14.00">chol_cov_corr</text>
<text text-anchor="middle" x="1152" y="-559.06" font-family="Times,serif" font-size="14.00">~</text>
<text text-anchor="middle" x="1152" y="-542.56" font-family="Times,serif" font-size="14.00">Deterministic</text>
</g>
<!-- chol_cov&#45;&gt;chol_cov_corr -->
<g id="edge6" class="edge">
<title>chol_cov&#45;&gt;chol_cov_corr</title>
<path fill="none" stroke="black" d="M1013.56,-662.62C1038.31,-648.28 1067.66,-630.45 1093,-612.77 1098.67,-608.81 1104.49,-604.48 1110.17,-600.08"/>
<polygon fill="black" stroke="black" points="1112.06,-603.05 1117.74,-594.1 1107.73,-597.55 1112.06,-603.05"/>
</g>
<!-- chol_cov_stds -->
<g id="node15" class="node">
<title>chol_cov_stds</title>
<polygon fill="none" stroke="black" points="797.62,-592.86 704.38,-592.86 704.38,-535.36 797.62,-535.36 797.62,-592.86"/>
<text text-anchor="middle" x="751" y="-575.56" font-family="Times,serif" font-size="14.00">chol_cov_stds</text>
<text text-anchor="middle" x="751" y="-559.06" font-family="Times,serif" font-size="14.00">~</text>
<text text-anchor="middle" x="751" y="-542.56" font-family="Times,serif" font-size="14.00">Deterministic</text>
</g>
<!-- chol_cov&#45;&gt;chol_cov_stds -->
<g id="edge7" class="edge">
<title>chol_cov&#45;&gt;chol_cov_stds</title>
<path fill="none" stroke="black" d="M900.24,-664.52C872.21,-650.17 838.62,-631.79 810,-612.77 804.17,-608.9 798.22,-604.58 792.45,-600.16"/>
<polygon fill="black" stroke="black" points="794.78,-597.55 784.76,-594.13 790.47,-603.06 794.78,-597.55"/>
</g>
<!-- cov -->
<g id="node16" class="node">
<title>cov</title>
<polygon fill="none" stroke="black" points="942.12,-592.86 851.88,-592.86 851.88,-535.36 942.12,-535.36 942.12,-592.86"/>
<text text-anchor="middle" x="897" y="-575.56" font-family="Times,serif" font-size="14.00">cov</text>
<text text-anchor="middle" x="897" y="-559.06" font-family="Times,serif" font-size="14.00">~</text>
<text text-anchor="middle" x="897" y="-542.56" font-family="Times,serif" font-size="14.00">Deterministic</text>
</g>
<!-- chol_cov&#45;&gt;cov -->
<g id="edge8" class="edge">
<title>chol_cov&#45;&gt;cov</title>
<path fill="none" stroke="black" d="M940.06,-653.88C932.23,-637.74 923.19,-619.1 915.41,-603.07"/>
<polygon fill="black" stroke="black" points="918.69,-601.8 911.18,-594.33 912.39,-604.86 918.69,-601.8"/>
</g>
<!-- ksi -->
<g id="node17" class="node">
<title>ksi</title>
<ellipse fill="none" stroke="black" cx="1021" cy="-564.11" rx="54.8" ry="40.66"/>
<text text-anchor="middle" x="1021" y="-575.56" font-family="Times,serif" font-size="14.00">ksi</text>
<text text-anchor="middle" x="1021" y="-559.06" font-family="Times,serif" font-size="14.00">~</text>
<text text-anchor="middle" x="1021" y="-542.56" font-family="Times,serif" font-size="14.00">MvNormal</text>
</g>
<!-- chol_cov&#45;&gt;ksi -->
<g id="edge9" class="edge">
<title>chol_cov&#45;&gt;ksi</title>
<path fill="none" stroke="black" d="M977.94,-653.88C984.24,-640.9 991.33,-626.29 997.9,-612.72"/>
<polygon fill="black" stroke="black" points="1000.94,-614.49 1002.15,-603.96 994.64,-611.43 1000.94,-614.49"/>
</g>
<!-- regr_se_acad -->
<g id="node20" class="node">
<title>regr_se_acad</title>
<polygon fill="none" stroke="black" points="756.12,-463.04 665.88,-463.04 665.88,-405.54 756.12,-405.54 756.12,-463.04"/>
<text text-anchor="middle" x="711" y="-445.74" font-family="Times,serif" font-size="14.00">regr_se_acad</text>
<text text-anchor="middle" x="711" y="-429.24" font-family="Times,serif" font-size="14.00">~</text>
<text text-anchor="middle" x="711" y="-412.74" font-family="Times,serif" font-size="14.00">Deterministic</text>
</g>
<!-- ksi&#45;&gt;regr_se_acad -->
<g id="edge11" class="edge">
<title>ksi&#45;&gt;regr_se_acad</title>
<path fill="none" stroke="black" d="M997.14,-527.16C985.85,-513.26 971.07,-498.83 954,-490.95 915.83,-473.34 804,-498.65 765,-482.95 757.58,-479.97 750.5,-475.5 744.05,-470.48"/>
<polygon fill="black" stroke="black" points="746.72,-468.15 736.83,-464.35 742.19,-473.49 746.72,-468.15"/>
</g>
<!-- regr -->
<g id="node21" class="node">
<title>regr</title>
<polygon fill="none" stroke="black" points="866.12,-333.23 775.88,-333.23 775.88,-275.73 866.12,-275.73 866.12,-333.23"/>
<text text-anchor="middle" x="821" y="-315.93" font-family="Times,serif" font-size="14.00">regr</text>
<text text-anchor="middle" x="821" y="-299.43" font-family="Times,serif" font-size="14.00">~</text>
<text text-anchor="middle" x="821" y="-282.93" font-family="Times,serif" font-size="14.00">Deterministic</text>
</g>
<!-- ksi&#45;&gt;regr -->
<g id="edge15" class="edge">
<title>ksi&#45;&gt;regr</title>
<path fill="none" stroke="black" d="M1025.27,-523.21C1027.78,-478.46 1024.67,-406.26 986,-361.13 959.08,-329.72 913.79,-315.99 877.47,-310.01"/>
<polygon fill="black" stroke="black" points="878.41,-306.61 868.01,-308.61 877.39,-313.54 878.41,-306.61"/>
</g>
<!-- regr_se_social -->
<g id="node22" class="node">
<title>regr_se_social</title>
<polygon fill="none" stroke="black" points="868,-463.04 774,-463.04 774,-405.54 868,-405.54 868,-463.04"/>
<text text-anchor="middle" x="821" y="-445.74" font-family="Times,serif" font-size="14.00">regr_se_social</text>
<text text-anchor="middle" x="821" y="-429.24" font-family="Times,serif" font-size="14.00">~</text>
<text text-anchor="middle" x="821" y="-412.74" font-family="Times,serif" font-size="14.00">Deterministic</text>
</g>
<!-- ksi&#45;&gt;regr_se_social -->
<g id="edge13" class="edge">
<title>ksi&#45;&gt;regr_se_social</title>
<path fill="none" stroke="black" d="M996.57,-527.32C985.27,-513.63 970.65,-499.31 954,-490.95 924.43,-476.12 910.55,-495.64 880,-482.95 872.39,-479.79 864.98,-475.33 858.12,-470.39"/>
<polygon fill="black" stroke="black" points="860.39,-467.72 850.34,-464.37 856.1,-473.26 860.39,-467.72"/>
</g>
<!-- ksi&#45;&gt;mu -->
<g id="edge22" class="edge">
<title>ksi&#45;&gt;mu</title>
<path fill="none" stroke="black" d="M1029.45,-523.61C1036.51,-481.44 1042.1,-413.61 1019,-361.13 984.94,-283.77 954.12,-271.96 880,-231.32 844.95,-212.1 801.18,-201.09 766.84,-194.92"/>
<polygon fill="black" stroke="black" points="767.52,-191.48 757.07,-193.26 766.34,-198.39 767.52,-191.48"/>
</g>
<!-- beta_r -->
<g id="node18" class="node">
<title>beta_r</title>
<ellipse fill="none" stroke="black" cx="639" cy="-564.11" rx="41.01" ry="40.66"/>
<text text-anchor="middle" x="639" y="-575.56" font-family="Times,serif" font-size="14.00">beta_r</text>
<text text-anchor="middle" x="639" y="-559.06" font-family="Times,serif" font-size="14.00">~</text>
<text text-anchor="middle" x="639" y="-542.56" font-family="Times,serif" font-size="14.00">Normal</text>
</g>
<!-- beta_r&#45;&gt;regr_se_acad -->
<g id="edge10" class="edge">
<title>beta_r&#45;&gt;regr_se_acad</title>
<path fill="none" stroke="black" d="M658.67,-528.18C668.28,-511.13 679.85,-490.58 689.67,-473.16"/>
<polygon fill="black" stroke="black" points="692.62,-475.05 694.48,-464.62 686.52,-471.62 692.62,-475.05"/>
</g>
<!-- beta_r&#45;&gt;regr_se_social -->
<g id="edge12" class="edge">
<title>beta_r&#45;&gt;regr_se_social</title>
<path fill="none" stroke="black" d="M656.84,-527.43C665.54,-513.76 677.32,-499.42 692,-490.95 720.27,-474.64 735.03,-495.88 765,-482.95 772.33,-479.79 779.43,-475.33 785.96,-470.39"/>
<polygon fill="black" stroke="black" points="787.78,-473.42 793.32,-464.39 783.36,-467.99 787.78,-473.42"/>
</g>
<!-- beta_r2 -->
<g id="node19" class="node">
<title>beta_r2</title>
<ellipse fill="none" stroke="black" cx="933" cy="-434.29" rx="41.01" ry="40.66"/>
<text text-anchor="middle" x="933" y="-445.74" font-family="Times,serif" font-size="14.00">beta_r2</text>
<text text-anchor="middle" x="933" y="-429.24" font-family="Times,serif" font-size="14.00">~</text>
<text text-anchor="middle" x="933" y="-412.74" font-family="Times,serif" font-size="14.00">Normal</text>
</g>
<!-- beta_r2&#45;&gt;regr -->
<g id="edge16" class="edge">
<title>beta_r2&#45;&gt;regr</title>
<path fill="none" stroke="black" d="M910.46,-399.99C901.46,-387.42 890.71,-373.24 880,-361.13 874.16,-354.53 867.65,-347.83 861.15,-341.48"/>
<polygon fill="black" stroke="black" points="863.7,-339.08 854.06,-334.69 858.86,-344.13 863.7,-339.08"/>
</g>
<!-- regr_se_acad&#45;&gt;regr -->
<g id="edge14" class="edge">
<title>regr_se_acad&#45;&gt;regr</title>
<path fill="none" stroke="black" d="M730.6,-405.14C740.47,-391.49 752.89,-375.07 765,-361.13 770.69,-354.59 776.99,-347.88 783.25,-341.48"/>
<polygon fill="black" stroke="black" points="785.46,-344.22 790.04,-334.66 780.5,-339.28 785.46,-344.22"/>
</g>
<!-- regr_se_acad&#45;&gt;mu -->
<g id="edge24" class="edge">
<title>regr_se_acad&#45;&gt;mu</title>
<path fill="none" stroke="black" d="M710.89,-405.11C710.71,-361.34 710.36,-276.91 710.16,-227.08"/>
<polygon fill="black" stroke="black" points="713.66,-227.3 710.12,-217.32 706.66,-227.33 713.66,-227.3"/>
</g>
<!-- regr&#45;&gt;mu -->
<g id="edge26" class="edge">
<title>regr&#45;&gt;mu</title>
<path fill="none" stroke="black" d="M800.01,-275.38C789.22,-261.59 775.52,-245.03 762,-231.32 759.31,-228.59 756.46,-225.85 753.55,-223.14"/>
<polygon fill="black" stroke="black" points="756.11,-220.74 746.33,-216.66 751.43,-225.95 756.11,-220.74"/>
</g>
<!-- regr_se_social&#45;&gt;regr -->
<g id="edge17" class="edge">
<title>regr_se_social&#45;&gt;regr</title>
<path fill="none" stroke="black" d="M821,-405.24C821,-387.51 821,-364.34 821,-344.78"/>
<polygon fill="black" stroke="black" points="824.5,-344.97 821,-334.97 817.5,-344.97 824.5,-344.97"/>
</g>
<!-- regr_se_social&#45;&gt;mu -->
<g id="edge23" class="edge">
<title>regr_se_social&#45;&gt;mu</title>
<path fill="none" stroke="black" d="M799.34,-405.09C788.61,-390.21 776.05,-371.31 767,-353.13 761.22,-341.53 737.84,-271.91 722.88,-226.72"/>
<polygon fill="black" stroke="black" points="726.21,-225.64 719.75,-217.24 719.56,-227.84 726.21,-225.64"/>
</g>
<!-- mu&#45;&gt;likelihood -->
<g id="edge28" class="edge">
<title>mu&#45;&gt;likelihood</title>
<path fill="none" stroke="black" d="M710.81,-157.58C711.03,-150.1 711.27,-141.77 711.51,-133.45"/>
<polygon fill="black" stroke="black" points="715,-133.81 711.79,-123.71 708.01,-133.61 715,-133.81"/>
</g>
</g>
</svg>
