<?xml version="1.0" encoding="UTF-8" standalone="no"?>
<!DOCTYPE svg PUBLIC "-//W3C//DTD SVG 1.1//EN"
 "http://www.w3.org/Graphics/SVG/1.1/DTD/svg11.dtd">
<!-- Generated by graphviz version 9.0.0 (0)
 -->
<!-- Pages: 1 -->
<svg width="1535pt" height="759pt"
 viewBox="0.00 0.00 1535.00 758.59" xmlns="http://www.w3.org/2000/svg" xmlns:xlink="http://www.w3.org/1999/xlink">
<g id="graph0" class="graph" transform="scale(1 1) rotate(0) translate(4 754.59)">
<polygon fill="white" stroke="none" points="-4,4 -4,-754.59 1531,-754.59 1531,4 -4,4"/>
<g id="clust1" class="cluster">
<title>clusterindicators (15)</title>
<path fill="none" stroke="black" d="M20,-231.32C20,-231.32 222,-231.32 222,-231.32 228,-231.32 234,-237.32 234,-243.32 234,-243.32 234,-341.13 234,-341.13 234,-347.13 228,-353.13 222,-353.13 222,-353.13 20,-353.13 20,-353.13 14,-353.13 8,-347.13 8,-341.13 8,-341.13 8,-243.32 8,-243.32 8,-237.32 14,-231.32 20,-231.32"/>
<text text-anchor="middle" x="186.25" y="-238.52" font-family="Times,serif" font-size="14.00">indicators (15)</text>
</g>
<g id="clust2" class="cluster">
<title>clusterindicators_1 (3)</title>
<path fill="none" stroke="black" d="M254,-243.23C254,-243.23 352,-243.23 352,-243.23 358,-243.23 364,-249.23 364,-255.23 364,-255.23 364,-470.95 364,-470.95 364,-476.95 358,-482.95 352,-482.95 352,-482.95 254,-482.95 254,-482.95 248,-482.95 242,-476.95 242,-470.95 242,-470.95 242,-255.23 242,-255.23 242,-249.23 248,-243.23 254,-243.23"/>
<text text-anchor="middle" x="312.88" y="-250.43" font-family="Times,serif" font-size="14.00">indicators_1 (3)</text>
</g>
<g id="clust3" class="cluster">
<title>clusterindicators_2 (3)</title>
<path fill="none" stroke="black" d="M384,-243.23C384,-243.23 482,-243.23 482,-243.23 488,-243.23 494,-249.23 494,-255.23 494,-255.23 494,-470.95 494,-470.95 494,-476.95 488,-482.95 482,-482.95 482,-482.95 384,-482.95 384,-482.95 378,-482.95 372,-476.95 372,-470.95 372,-470.95 372,-255.23 372,-255.23 372,-249.23 378,-243.23 384,-243.23"/>
<text text-anchor="middle" x="442.88" y="-250.43" font-family="Times,serif" font-size="14.00">indicators_2 (3)</text>
</g>
<g id="clust4" class="cluster">
<title>clusterindicators_3 (3)</title>
<path fill="none" stroke="black" d="M514,-243.23C514,-243.23 612,-243.23 612,-243.23 618,-243.23 624,-249.23 624,-255.23 624,-255.23 624,-470.95 624,-470.95 624,-476.95 618,-482.95 612,-482.95 612,-482.95 514,-482.95 514,-482.95 508,-482.95 502,-476.95 502,-470.95 502,-470.95 502,-255.23 502,-255.23 502,-249.23 508,-243.23 514,-243.23"/>
<text text-anchor="middle" x="572.88" y="-250.43" font-family="Times,serif" font-size="14.00">indicators_3 (3)</text>
</g>
<g id="clust5" class="cluster">
<title>clusterindicators_4 (3)</title>
<path fill="none" stroke="black" d="M644,-243.23C644,-243.23 742,-243.23 742,-243.23 748,-243.23 754,-249.23 754,-255.23 754,-255.23 754,-470.95 754,-470.95 754,-476.95 748,-482.95 742,-482.95 742,-482.95 644,-482.95 644,-482.95 638,-482.95 632,-476.95 632,-470.95 632,-470.95 632,-255.23 632,-255.23 632,-249.23 638,-243.23 644,-243.23"/>
<text text-anchor="middle" x="702.88" y="-250.43" font-family="Times,serif" font-size="14.00">indicators_4 (3)</text>
</g>
<g id="clust6" class="cluster">
<title>clusterindicators_5 (3)</title>
<path fill="none" stroke="black" d="M774,-243.23C774,-243.23 872,-243.23 872,-243.23 878,-243.23 884,-249.23 884,-255.23 884,-255.23 884,-470.95 884,-470.95 884,-476.95 878,-482.95 872,-482.95 872,-482.95 774,-482.95 774,-482.95 768,-482.95 762,-476.95 762,-470.95 762,-470.95 762,-255.23 762,-255.23 762,-249.23 768,-243.23 774,-243.23"/>
<text text-anchor="middle" x="832.88" y="-250.43" font-family="Times,serif" font-size="14.00">indicators_5 (3)</text>
</g>
<g id="clust7" class="cluster">
<title>cluster3</title>
<path fill="none" stroke="black" d="M1185,-620.77C1185,-620.77 1345,-620.77 1345,-620.77 1351,-620.77 1357,-626.77 1357,-632.77 1357,-632.77 1357,-730.59 1357,-730.59 1357,-736.59 1351,-742.59 1345,-742.59 1345,-742.59 1185,-742.59 1185,-742.59 1179,-742.59 1173,-736.59 1173,-730.59 1173,-730.59 1173,-632.77 1173,-632.77 1173,-626.77 1179,-620.77 1185,-620.77"/>
<text text-anchor="middle" x="1345.62" y="-627.97" font-family="Times,serif" font-size="14.00">3</text>
</g>
<g id="clust8" class="cluster">
<title>cluster2 x 2</title>
<path fill="none" stroke="black" d="M1415,-502.86C1415,-502.86 1507,-502.86 1507,-502.86 1513,-502.86 1519,-508.86 1519,-514.86 1519,-514.86 1519,-588.86 1519,-588.86 1519,-594.86 1513,-600.86 1507,-600.86 1507,-600.86 1415,-600.86 1415,-600.86 1409,-600.86 1403,-594.86 1403,-588.86 1403,-588.86 1403,-514.86 1403,-514.86 1403,-508.86 1409,-502.86 1415,-502.86"/>
<text text-anchor="middle" x="1497.12" y="-510.06" font-family="Times,serif" font-size="14.00">2 x 2</text>
</g>
<g id="clust9" class="cluster">
<title>cluster2</title>
<path fill="none" stroke="black" d="M1008,-502.86C1008,-502.86 1100,-502.86 1100,-502.86 1106,-502.86 1112,-508.86 1112,-514.86 1112,-514.86 1112,-588.86 1112,-588.86 1112,-594.86 1106,-600.86 1100,-600.86 1100,-600.86 1008,-600.86 1008,-600.86 1002,-600.86 996,-594.86 996,-588.86 996,-588.86 996,-514.86 996,-514.86 996,-508.86 1002,-502.86 1008,-502.86"/>
<text text-anchor="middle" x="1100.62" y="-510.06" font-family="Times,serif" font-size="14.00">2</text>
</g>
<g id="clust10" class="cluster">
<title>clusterlatent (2) x latent1 (2)</title>
<path fill="none" stroke="black" d="M1132,-502.86C1132,-502.86 1244,-502.86 1244,-502.86 1250,-502.86 1256,-508.86 1256,-514.86 1256,-514.86 1256,-588.86 1256,-588.86 1256,-594.86 1250,-600.86 1244,-600.86 1244,-600.86 1132,-600.86 1132,-600.86 1126,-600.86 1120,-594.86 1120,-588.86 1120,-588.86 1120,-514.86 1120,-514.86 1120,-508.86 1126,-502.86 1132,-502.86"/>
<text text-anchor="middle" x="1188" y="-510.06" font-family="Times,serif" font-size="14.00">latent (2) x latent1 (2)</text>
</g>
<g id="clust11" class="cluster">
<title>clusterobs (283) x latent (2)</title>
<path fill="none" stroke="black" d="M1276,-490.95C1276,-490.95 1383,-490.95 1383,-490.95 1389,-490.95 1395,-496.95 1395,-502.95 1395,-502.95 1395,-600.77 1395,-600.77 1395,-606.77 1389,-612.77 1383,-612.77 1383,-612.77 1276,-612.77 1276,-612.77 1270,-612.77 1264,-606.77 1264,-600.77 1264,-600.77 1264,-502.95 1264,-502.95 1264,-496.95 1270,-490.95 1276,-490.95"/>
<text text-anchor="middle" x="1329.25" y="-498.15" font-family="Times,serif" font-size="14.00">obs (283) x latent (2)</text>
</g>
<g id="clust12" class="cluster">
<title>clusterlatent_regression (4)</title>
<path fill="none" stroke="black" d="M873,-490.95C873,-490.95 976,-490.95 976,-490.95 982,-490.95 988,-496.95 988,-502.95 988,-502.95 988,-600.77 988,-600.77 988,-606.77 982,-612.77 976,-612.77 976,-612.77 873,-612.77 873,-612.77 867,-612.77 861,-606.77 861,-600.77 861,-600.77 861,-502.95 861,-502.95 861,-496.95 867,-490.95 873,-490.95"/>
<text text-anchor="middle" x="924.12" y="-498.15" font-family="Times,serif" font-size="14.00">latent_regression (4)</text>
</g>
<g id="clust13" class="cluster">
<title>clusterregression (4)</title>
<path fill="none" stroke="black" d="M1202,-361.13C1202,-361.13 1276,-361.13 1276,-361.13 1282,-361.13 1288,-367.13 1288,-373.13 1288,-373.13 1288,-470.95 1288,-470.95 1288,-476.95 1282,-482.95 1276,-482.95 1276,-482.95 1202,-482.95 1202,-482.95 1196,-482.95 1190,-476.95 1190,-470.95 1190,-470.95 1190,-373.13 1190,-373.13 1190,-367.13 1196,-361.13 1202,-361.13"/>
<text text-anchor="middle" x="1242.5" y="-368.33" font-family="Times,serif" font-size="14.00">regression (4)</text>
</g>
<g id="clust14" class="cluster">
<title>cluster283</title>
<path fill="none" stroke="black" d="M904,-231.32C904,-231.32 1170,-231.32 1170,-231.32 1176,-231.32 1182,-237.32 1182,-243.32 1182,-243.32 1182,-470.95 1182,-470.95 1182,-476.95 1176,-482.95 1170,-482.95 1170,-482.95 904,-482.95 904,-482.95 898,-482.95 892,-476.95 892,-470.95 892,-470.95 892,-243.32 892,-243.32 892,-237.32 898,-231.32 904,-231.32"/>
<text text-anchor="middle" x="1163.88" y="-238.52" font-family="Times,serif" font-size="14.00">283</text>
</g>
<g id="clust15" class="cluster">
<title>cluster283 x 15</title>
<path fill="none" stroke="black" d="M644,-8C644,-8 736,-8 736,-8 742,-8 748,-14 748,-20 748,-20 748,-211.32 748,-211.32 748,-217.32 742,-223.32 736,-223.32 736,-223.32 644,-223.32 644,-223.32 638,-223.32 632,-217.32 632,-211.32 632,-211.32 632,-20 632,-20 632,-14 638,-8 644,-8"/>
<text text-anchor="middle" x="716" y="-15.2" font-family="Times,serif" font-size="14.00">283 x 15</text>
</g>
<!-- Psi -->
<g id="node1" class="node">
<title>Psi</title>
<ellipse fill="none" stroke="black" cx="71" cy="-304.48" rx="55.33" ry="40.66"/>
<text text-anchor="middle" x="71" y="-315.93" font-family="Times,serif" font-size="14.00">Psi</text>
<text text-anchor="middle" x="71" y="-299.43" font-family="Times,serif" font-size="14.00">~</text>
<text text-anchor="middle" x="71" y="-282.93" font-family="Times,serif" font-size="14.00">InvGamma</text>
</g>
<!-- likelihood -->
<g id="node23" class="node">
<title>likelihood</title>
<ellipse fill="lightgrey" stroke="black" cx="690" cy="-81.16" rx="50.03" ry="40.66"/>
<text text-anchor="middle" x="690" y="-92.61" font-family="Times,serif" font-size="14.00">likelihood</text>
<text text-anchor="middle" x="690" y="-76.11" font-family="Times,serif" font-size="14.00">~</text>
<text text-anchor="middle" x="690" y="-59.61" font-family="Times,serif" font-size="14.00">Normal</text>
</g>
<!-- Psi&#45;&gt;likelihood -->
<g id="edge28" class="edge">
<title>Psi&#45;&gt;likelihood</title>
<path fill="none" stroke="black" d="M95.62,-267.8C106.34,-254.63 119.9,-240.65 135,-231.32 295.26,-132.2 521.14,-98.14 628.58,-87.1"/>
<polygon fill="black" stroke="black" points="628.74,-90.6 638.34,-86.13 628.04,-83.64 628.74,-90.6"/>
</g>
<!-- tau -->
<g id="node2" class="node">
<title>tau</title>
<ellipse fill="none" stroke="black" cx="185" cy="-304.48" rx="41.01" ry="40.66"/>
<text text-anchor="middle" x="185" y="-315.93" font-family="Times,serif" font-size="14.00">tau</text>
<text text-anchor="middle" x="185" y="-299.43" font-family="Times,serif" font-size="14.00">~</text>
<text text-anchor="middle" x="185" y="-282.93" font-family="Times,serif" font-size="14.00">Normal</text>
</g>
<!-- mu -->
<g id="node24" class="node">
<title>mu</title>
<polygon fill="none" stroke="black" points="738.12,-215.32 647.88,-215.32 647.88,-157.82 738.12,-157.82 738.12,-215.32"/>
<text text-anchor="middle" x="693" y="-198.02" font-family="Times,serif" font-size="14.00">mu</text>
<text text-anchor="middle" x="693" y="-181.52" font-family="Times,serif" font-size="14.00">~</text>
<text text-anchor="middle" x="693" y="-165.02" font-family="Times,serif" font-size="14.00">Deterministic</text>
</g>
<!-- tau&#45;&gt;mu -->
<g id="edge22" class="edge">
<title>tau&#45;&gt;mu</title>
<path fill="none" stroke="black" d="M202.66,-267.48C211.33,-253.76 223.14,-239.46 238,-231.32 261.63,-218.36 332.15,-225.64 359,-223.32 456.63,-214.87 569.99,-202.11 636.37,-194.34"/>
<polygon fill="black" stroke="black" points="636.38,-197.86 645.9,-193.22 635.56,-190.91 636.38,-197.86"/>
</g>
<!-- lambdas_1 -->
<g id="node3" class="node">
<title>lambdas_1</title>
<ellipse fill="none" stroke="black" cx="303" cy="-434.29" rx="53.21" ry="40.66"/>
<text text-anchor="middle" x="303" y="-445.74" font-family="Times,serif" font-size="14.00">lambdas_1</text>
<text text-anchor="middle" x="303" y="-429.24" font-family="Times,serif" font-size="14.00">~</text>
<text text-anchor="middle" x="303" y="-412.74" font-family="Times,serif" font-size="14.00">Normal</text>
</g>
<!-- lambdas1 -->
<g id="node4" class="node">
<title>lambdas1</title>
<polygon fill="none" stroke="black" points="352.12,-333.23 261.88,-333.23 261.88,-275.73 352.12,-275.73 352.12,-333.23"/>
<text text-anchor="middle" x="307" y="-315.93" font-family="Times,serif" font-size="14.00">lambdas1</text>
<text text-anchor="middle" x="307" y="-299.43" font-family="Times,serif" font-size="14.00">~</text>
<text text-anchor="middle" x="307" y="-282.93" font-family="Times,serif" font-size="14.00">Deterministic</text>
</g>
<!-- lambdas_1&#45;&gt;lambdas1 -->
<g id="edge1" class="edge">
<title>lambdas_1&#45;&gt;lambdas1</title>
<path fill="none" stroke="black" d="M304.25,-393.2C304.74,-377.8 305.29,-360.24 305.77,-344.9"/>
<polygon fill="black" stroke="black" points="309.26,-345.3 306.07,-335.19 302.26,-345.08 309.26,-345.3"/>
</g>
<!-- lambdas1&#45;&gt;mu -->
<g id="edge24" class="edge">
<title>lambdas1&#45;&gt;mu</title>
<path fill="none" stroke="black" d="M323.44,-275.33C334.1,-259.73 349.44,-241.49 368,-231.32 412.97,-206.67 555.58,-195.05 636.14,-190.32"/>
<polygon fill="black" stroke="black" points="636.27,-193.82 646.05,-189.76 635.87,-186.83 636.27,-193.82"/>
</g>
<!-- lambdas2 -->
<g id="node5" class="node">
<title>lambdas2</title>
<polygon fill="none" stroke="black" points="482.12,-333.23 391.88,-333.23 391.88,-275.73 482.12,-275.73 482.12,-333.23"/>
<text text-anchor="middle" x="437" y="-315.93" font-family="Times,serif" font-size="14.00">lambdas2</text>
<text text-anchor="middle" x="437" y="-299.43" font-family="Times,serif" font-size="14.00">~</text>
<text text-anchor="middle" x="437" y="-282.93" font-family="Times,serif" font-size="14.00">Deterministic</text>
</g>
<!-- lambdas2&#45;&gt;mu -->
<g id="edge20" class="edge">
<title>lambdas2&#45;&gt;mu</title>
<path fill="none" stroke="black" d="M454.03,-275.56C464.79,-260.24 480.04,-242.2 498,-231.32 540.08,-205.81 595.39,-195.14 636.35,-190.69"/>
<polygon fill="black" stroke="black" points="636.65,-194.18 646.26,-189.72 635.97,-187.21 636.65,-194.18"/>
</g>
<!-- lambdas_2 -->
<g id="node6" class="node">
<title>lambdas_2</title>
<ellipse fill="none" stroke="black" cx="433" cy="-434.29" rx="53.21" ry="40.66"/>
<text text-anchor="middle" x="433" y="-445.74" font-family="Times,serif" font-size="14.00">lambdas_2</text>
<text text-anchor="middle" x="433" y="-429.24" font-family="Times,serif" font-size="14.00">~</text>
<text text-anchor="middle" x="433" y="-412.74" font-family="Times,serif" font-size="14.00">Normal</text>
</g>
<!-- lambdas_2&#45;&gt;lambdas2 -->
<g id="edge2" class="edge">
<title>lambdas_2&#45;&gt;lambdas2</title>
<path fill="none" stroke="black" d="M434.25,-393.2C434.74,-377.8 435.29,-360.24 435.77,-344.9"/>
<polygon fill="black" stroke="black" points="439.26,-345.3 436.07,-335.19 432.26,-345.08 439.26,-345.3"/>
</g>
<!-- lambdas_3 -->
<g id="node7" class="node">
<title>lambdas_3</title>
<ellipse fill="none" stroke="black" cx="563" cy="-434.29" rx="53.21" ry="40.66"/>
<text text-anchor="middle" x="563" y="-445.74" font-family="Times,serif" font-size="14.00">lambdas_3</text>
<text text-anchor="middle" x="563" y="-429.24" font-family="Times,serif" font-size="14.00">~</text>
<text text-anchor="middle" x="563" y="-412.74" font-family="Times,serif" font-size="14.00">Normal</text>
</g>
<!-- lambdas3 -->
<g id="node8" class="node">
<title>lambdas3</title>
<polygon fill="none" stroke="black" points="612.12,-333.23 521.88,-333.23 521.88,-275.73 612.12,-275.73 612.12,-333.23"/>
<text text-anchor="middle" x="567" y="-315.93" font-family="Times,serif" font-size="14.00">lambdas3</text>
<text text-anchor="middle" x="567" y="-299.43" font-family="Times,serif" font-size="14.00">~</text>
<text text-anchor="middle" x="567" y="-282.93" font-family="Times,serif" font-size="14.00">Deterministic</text>
</g>
<!-- lambdas_3&#45;&gt;lambdas3 -->
<g id="edge3" class="edge">
<title>lambdas_3&#45;&gt;lambdas3</title>
<path fill="none" stroke="black" d="M564.25,-393.2C564.74,-377.8 565.29,-360.24 565.77,-344.9"/>
<polygon fill="black" stroke="black" points="569.26,-345.3 566.07,-335.19 562.26,-345.08 569.26,-345.3"/>
</g>
<!-- lambdas3&#45;&gt;mu -->
<g id="edge21" class="edge">
<title>lambdas3&#45;&gt;mu</title>
<path fill="none" stroke="black" d="M587.67,-275.49C598.78,-261.41 613.22,-244.56 628,-231.32 631.32,-228.34 634.86,-225.4 638.51,-222.55"/>
<polygon fill="black" stroke="black" points="640.61,-225.36 646.51,-216.56 636.41,-219.75 640.61,-225.36"/>
</g>
<!-- lambdas4 -->
<g id="node9" class="node">
<title>lambdas4</title>
<polygon fill="none" stroke="black" points="738.12,-333.23 647.88,-333.23 647.88,-275.73 738.12,-275.73 738.12,-333.23"/>
<text text-anchor="middle" x="693" y="-315.93" font-family="Times,serif" font-size="14.00">lambdas4</text>
<text text-anchor="middle" x="693" y="-299.43" font-family="Times,serif" font-size="14.00">~</text>
<text text-anchor="middle" x="693" y="-282.93" font-family="Times,serif" font-size="14.00">Deterministic</text>
</g>
<!-- lambdas4&#45;&gt;mu -->
<g id="edge25" class="edge">
<title>lambdas4&#45;&gt;mu</title>
<path fill="none" stroke="black" d="M693,-275.42C693,-260.86 693,-242.84 693,-226.91"/>
<polygon fill="black" stroke="black" points="696.5,-227.28 693,-217.28 689.5,-227.28 696.5,-227.28"/>
</g>
<!-- lambdas_4 -->
<g id="node10" class="node">
<title>lambdas_4</title>
<ellipse fill="none" stroke="black" cx="693" cy="-434.29" rx="53.21" ry="40.66"/>
<text text-anchor="middle" x="693" y="-445.74" font-family="Times,serif" font-size="14.00">lambdas_4</text>
<text text-anchor="middle" x="693" y="-429.24" font-family="Times,serif" font-size="14.00">~</text>
<text text-anchor="middle" x="693" y="-412.74" font-family="Times,serif" font-size="14.00">Normal</text>
</g>
<!-- lambdas_4&#45;&gt;lambdas4 -->
<g id="edge4" class="edge">
<title>lambdas_4&#45;&gt;lambdas4</title>
<path fill="none" stroke="black" d="M693,-393.2C693,-377.8 693,-360.24 693,-344.9"/>
<polygon fill="black" stroke="black" points="696.5,-345.19 693,-335.19 689.5,-345.19 696.5,-345.19"/>
</g>
<!-- lambdas_5 -->
<g id="node11" class="node">
<title>lambdas_5</title>
<ellipse fill="none" stroke="black" cx="823" cy="-434.29" rx="53.21" ry="40.66"/>
<text text-anchor="middle" x="823" y="-445.74" font-family="Times,serif" font-size="14.00">lambdas_5</text>
<text text-anchor="middle" x="823" y="-429.24" font-family="Times,serif" font-size="14.00">~</text>
<text text-anchor="middle" x="823" y="-412.74" font-family="Times,serif" font-size="14.00">Normal</text>
</g>
<!-- lambdas5 -->
<g id="node12" class="node">
<title>lambdas5</title>
<polygon fill="none" stroke="black" points="864.12,-333.23 773.88,-333.23 773.88,-275.73 864.12,-275.73 864.12,-333.23"/>
<text text-anchor="middle" x="819" y="-315.93" font-family="Times,serif" font-size="14.00">lambdas5</text>
<text text-anchor="middle" x="819" y="-299.43" font-family="Times,serif" font-size="14.00">~</text>
<text text-anchor="middle" x="819" y="-282.93" font-family="Times,serif" font-size="14.00">Deterministic</text>
</g>
<!-- lambdas_5&#45;&gt;lambdas5 -->
<g id="edge5" class="edge">
<title>lambdas_5&#45;&gt;lambdas5</title>
<path fill="none" stroke="black" d="M821.75,-393.2C821.26,-377.8 820.71,-360.24 820.23,-344.9"/>
<polygon fill="black" stroke="black" points="823.74,-345.08 819.93,-335.19 816.74,-345.3 823.74,-345.08"/>
</g>
<!-- lambdas5&#45;&gt;mu -->
<g id="edge18" class="edge">
<title>lambdas5&#45;&gt;mu</title>
<path fill="none" stroke="black" d="M798.33,-275.49C787.22,-261.41 772.78,-244.56 758,-231.32 754.68,-228.34 751.14,-225.4 747.49,-222.55"/>
<polygon fill="black" stroke="black" points="749.59,-219.75 739.49,-216.56 745.39,-225.36 749.59,-219.75"/>
</g>
<!-- chol_cov1 -->
<g id="node13" class="node">
<title>chol_cov1</title>
<ellipse fill="none" stroke="black" cx="1265" cy="-693.93" rx="84.5" ry="40.66"/>
<text text-anchor="middle" x="1265" y="-705.38" font-family="Times,serif" font-size="14.00">chol_cov1</text>
<text text-anchor="middle" x="1265" y="-688.88" font-family="Times,serif" font-size="14.00">~</text>
<text text-anchor="middle" x="1265" y="-672.38" font-family="Times,serif" font-size="14.00">_LKJCholeskyCov</text>
</g>
<!-- chol_cov1_corr -->
<g id="node14" class="node">
<title>chol_cov1_corr</title>
<polygon fill="none" stroke="black" points="1511.38,-592.86 1410.62,-592.86 1410.62,-535.36 1511.38,-535.36 1511.38,-592.86"/>
<text text-anchor="middle" x="1461" y="-575.56" font-family="Times,serif" font-size="14.00">chol_cov1_corr</text>
<text text-anchor="middle" x="1461" y="-559.06" font-family="Times,serif" font-size="14.00">~</text>
<text text-anchor="middle" x="1461" y="-542.56" font-family="Times,serif" font-size="14.00">Deterministic</text>
</g>
<!-- chol_cov1&#45;&gt;chol_cov1_corr -->
<g id="edge6" class="edge">
<title>chol_cov1&#45;&gt;chol_cov1_corr</title>
<path fill="none" stroke="black" d="M1319.36,-662.34C1344.08,-647.94 1373.45,-630.15 1399,-612.77 1404.82,-608.81 1410.83,-604.5 1416.7,-600.15"/>
<polygon fill="black" stroke="black" points="1418.7,-603.03 1424.58,-594.22 1414.48,-597.43 1418.7,-603.03"/>
</g>
<!-- chol_cov1_stds -->
<g id="node15" class="node">
<title>chol_cov1_stds</title>
<polygon fill="none" stroke="black" points="1104,-592.86 1004,-592.86 1004,-535.36 1104,-535.36 1104,-592.86"/>
<text text-anchor="middle" x="1054" y="-575.56" font-family="Times,serif" font-size="14.00">chol_cov1_stds</text>
<text text-anchor="middle" x="1054" y="-559.06" font-family="Times,serif" font-size="14.00">~</text>
<text text-anchor="middle" x="1054" y="-542.56" font-family="Times,serif" font-size="14.00">Deterministic</text>
</g>
<!-- chol_cov1&#45;&gt;chol_cov1_stds -->
<g id="edge7" class="edge">
<title>chol_cov1&#45;&gt;chol_cov1_stds</title>
<path fill="none" stroke="black" d="M1206.44,-664.21C1178.45,-649.79 1144.85,-631.44 1116,-612.77 1110.02,-608.9 1103.88,-604.61 1097.9,-600.24"/>
<polygon fill="black" stroke="black" points="1100.01,-597.44 1089.9,-594.25 1095.82,-603.05 1100.01,-597.44"/>
</g>
<!-- cov -->
<g id="node16" class="node">
<title>cov</title>
<polygon fill="none" stroke="black" points="1248.12,-592.86 1157.88,-592.86 1157.88,-535.36 1248.12,-535.36 1248.12,-592.86"/>
<text text-anchor="middle" x="1203" y="-575.56" font-family="Times,serif" font-size="14.00">cov</text>
<text text-anchor="middle" x="1203" y="-559.06" font-family="Times,serif" font-size="14.00">~</text>
<text text-anchor="middle" x="1203" y="-542.56" font-family="Times,serif" font-size="14.00">Deterministic</text>
</g>
<!-- chol_cov1&#45;&gt;cov -->
<g id="edge8" class="edge">
<title>chol_cov1&#45;&gt;cov</title>
<path fill="none" stroke="black" d="M1246.06,-653.88C1238.23,-637.74 1229.19,-619.1 1221.41,-603.07"/>
<polygon fill="black" stroke="black" points="1224.69,-601.8 1217.18,-594.33 1218.39,-604.86 1224.69,-601.8"/>
</g>
<!-- ksi -->
<g id="node17" class="node">
<title>ksi</title>
<ellipse fill="none" stroke="black" cx="1327" cy="-564.11" rx="54.8" ry="40.66"/>
<text text-anchor="middle" x="1327" y="-575.56" font-family="Times,serif" font-size="14.00">ksi</text>
<text text-anchor="middle" x="1327" y="-559.06" font-family="Times,serif" font-size="14.00">~</text>
<text text-anchor="middle" x="1327" y="-542.56" font-family="Times,serif" font-size="14.00">MvNormal</text>
</g>
<!-- chol_cov1&#45;&gt;ksi -->
<g id="edge9" class="edge">
<title>chol_cov1&#45;&gt;ksi</title>
<path fill="none" stroke="black" d="M1283.94,-653.88C1290.24,-640.9 1297.33,-626.29 1303.9,-612.72"/>
<polygon fill="black" stroke="black" points="1306.94,-614.49 1308.15,-603.96 1300.64,-611.43 1306.94,-614.49"/>
</g>
<!-- regr_se_social -->
<g id="node20" class="node">
<title>regr_se_social</title>
<ellipse fill="none" stroke="black" cx="966" cy="-434.29" rx="66.47" ry="40.66"/>
<text text-anchor="middle" x="966" y="-445.74" font-family="Times,serif" font-size="14.00">regr_se_social</text>
<text text-anchor="middle" x="966" y="-429.24" font-family="Times,serif" font-size="14.00">~</text>
<text text-anchor="middle" x="966" y="-412.74" font-family="Times,serif" font-size="14.00">Normal</text>
</g>
<!-- ksi&#45;&gt;regr_se_social -->
<g id="edge13" class="edge">
<title>ksi&#45;&gt;regr_se_social</title>
<path fill="none" stroke="black" d="M1303.16,-527.11C1291.87,-513.21 1277.1,-498.78 1260,-490.95 1215.72,-470.67 1087.51,-497.4 1041,-482.95 1032.71,-480.38 1024.45,-476.63 1016.59,-472.36"/>
<polygon fill="black" stroke="black" points="1018.6,-469.48 1008.2,-467.47 1015.08,-475.53 1018.6,-469.48"/>
</g>
<!-- regr_se_acad -->
<g id="node21" class="node">
<title>regr_se_acad</title>
<ellipse fill="none" stroke="black" cx="1112" cy="-434.29" rx="61.7" ry="40.66"/>
<text text-anchor="middle" x="1112" y="-445.74" font-family="Times,serif" font-size="14.00">regr_se_acad</text>
<text text-anchor="middle" x="1112" y="-429.24" font-family="Times,serif" font-size="14.00">~</text>
<text text-anchor="middle" x="1112" y="-412.74" font-family="Times,serif" font-size="14.00">Normal</text>
</g>
<!-- ksi&#45;&gt;regr_se_acad -->
<g id="edge11" class="edge">
<title>ksi&#45;&gt;regr_se_acad</title>
<path fill="none" stroke="black" d="M1302.57,-527.32C1291.27,-513.63 1276.65,-499.31 1260,-490.95 1230.43,-476.12 1217.19,-493.98 1186,-482.95 1177.69,-480.01 1169.38,-475.98 1161.47,-471.5"/>
<polygon fill="black" stroke="black" points="1163.38,-468.56 1153.01,-466.41 1159.77,-474.56 1163.38,-468.56"/>
</g>
<!-- regr -->
<g id="node22" class="node">
<title>regr</title>
<ellipse fill="none" stroke="black" cx="1112" cy="-304.48" rx="41.01" ry="40.66"/>
<text text-anchor="middle" x="1112" y="-315.93" font-family="Times,serif" font-size="14.00">regr</text>
<text text-anchor="middle" x="1112" y="-299.43" font-family="Times,serif" font-size="14.00">~</text>
<text text-anchor="middle" x="1112" y="-282.93" font-family="Times,serif" font-size="14.00">Normal</text>
</g>
<!-- ksi&#45;&gt;regr -->
<g id="edge17" class="edge">
<title>ksi&#45;&gt;regr</title>
<path fill="none" stroke="black" d="M1331.46,-523.44C1334.2,-478.55 1331.36,-405.9 1292,-361.13 1260.18,-324.95 1205.38,-311.98 1164.59,-307.49"/>
<polygon fill="black" stroke="black" points="1165.01,-304.01 1154.72,-306.55 1164.35,-310.98 1165.01,-304.01"/>
</g>
<!-- ksi&#45;&gt;mu -->
<g id="edge26" class="edge">
<title>ksi&#45;&gt;mu</title>
<path fill="none" stroke="black" d="M1335.45,-523.61C1342.51,-481.44 1348.1,-413.61 1325,-361.13 1290.94,-283.77 1263.19,-265.78 1186,-231.32 1109.37,-197.11 862.64,-189.63 750.02,-188.01"/>
<polygon fill="black" stroke="black" points="750.14,-184.51 740.09,-187.88 750.05,-191.51 750.14,-184.51"/>
</g>
<!-- beta_r -->
<g id="node18" class="node">
<title>beta_r</title>
<ellipse fill="none" stroke="black" cx="939" cy="-564.11" rx="41.01" ry="40.66"/>
<text text-anchor="middle" x="939" y="-575.56" font-family="Times,serif" font-size="14.00">beta_r</text>
<text text-anchor="middle" x="939" y="-559.06" font-family="Times,serif" font-size="14.00">~</text>
<text text-anchor="middle" x="939" y="-542.56" font-family="Times,serif" font-size="14.00">Normal</text>
</g>
<!-- beta_r&#45;&gt;regr_se_social -->
<g id="edge12" class="edge">
<title>beta_r&#45;&gt;regr_se_social</title>
<path fill="none" stroke="black" d="M947.25,-524.07C949.79,-512.03 952.63,-498.6 955.31,-485.9"/>
<polygon fill="black" stroke="black" points="958.66,-486.97 957.3,-476.46 951.81,-485.52 958.66,-486.97"/>
</g>
<!-- beta_r&#45;&gt;regr_se_acad -->
<g id="edge10" class="edge">
<title>beta_r&#45;&gt;regr_se_acad</title>
<path fill="none" stroke="black" d="M957.31,-527.44C966.02,-513.93 977.68,-499.72 992,-490.95 1010.82,-479.43 1020.48,-491.06 1041,-482.95 1048.5,-479.99 1056.01,-476.14 1063.19,-471.91"/>
<polygon fill="black" stroke="black" points="1064.83,-475.01 1071.47,-466.75 1061.13,-469.07 1064.83,-475.01"/>
</g>
<!-- beta_r2 -->
<g id="node19" class="node">
<title>beta_r2</title>
<ellipse fill="none" stroke="black" cx="1239" cy="-434.29" rx="41.01" ry="40.66"/>
<text text-anchor="middle" x="1239" y="-445.74" font-family="Times,serif" font-size="14.00">beta_r2</text>
<text text-anchor="middle" x="1239" y="-429.24" font-family="Times,serif" font-size="14.00">~</text>
<text text-anchor="middle" x="1239" y="-412.74" font-family="Times,serif" font-size="14.00">Normal</text>
</g>
<!-- beta_r2&#45;&gt;regr -->
<g id="edge16" class="edge">
<title>beta_r2&#45;&gt;regr</title>
<path fill="none" stroke="black" d="M1217.15,-399.34C1208.24,-386.69 1197.37,-372.63 1186,-361.13 1176.73,-351.76 1165.81,-342.68 1155.25,-334.67"/>
<polygon fill="black" stroke="black" points="1157.45,-331.95 1147.32,-328.83 1153.29,-337.58 1157.45,-331.95"/>
</g>
<!-- regr_se_social&#45;&gt;regr -->
<g id="edge14" class="edge">
<title>regr_se_social&#45;&gt;regr</title>
<path fill="none" stroke="black" d="M1000.04,-399.13C1012.65,-386.86 1027.23,-373.11 1041,-361.13 1050.41,-352.95 1060.84,-344.48 1070.74,-336.68"/>
<polygon fill="black" stroke="black" points="1072.71,-339.58 1078.44,-330.67 1068.4,-334.06 1072.71,-339.58"/>
</g>
<!-- regr_se_social&#45;&gt;mu -->
<g id="edge19" class="edge">
<title>regr_se_social&#45;&gt;mu</title>
<path fill="none" stroke="black" d="M961.77,-393.54C954.7,-347.53 936.11,-272.8 888,-231.32 867.52,-213.66 799.7,-201.29 749.77,-194.31"/>
<polygon fill="black" stroke="black" points="750.34,-190.85 739.96,-192.98 749.4,-197.79 750.34,-190.85"/>
</g>
<!-- regr_se_acad&#45;&gt;regr -->
<g id="edge15" class="edge">
<title>regr_se_acad&#45;&gt;regr</title>
<path fill="none" stroke="black" d="M1112,-393.2C1112,-381.66 1112,-368.91 1112,-356.79"/>
<polygon fill="black" stroke="black" points="1115.5,-356.94 1112,-346.94 1108.5,-356.94 1115.5,-356.94"/>
</g>
<!-- regr_se_acad&#45;&gt;mu -->
<g id="edge27" class="edge">
<title>regr_se_acad&#45;&gt;mu</title>
<path fill="none" stroke="black" d="M1090.2,-395.9C1060.95,-349.33 1004.41,-271.07 934,-231.32 876.97,-199.12 801.34,-189.83 750.13,-187.53"/>
<polygon fill="black" stroke="black" points="750.26,-184.04 740.14,-187.17 750,-191.03 750.26,-184.04"/>
</g>
<!-- regr&#45;&gt;mu -->
<g id="edge23" class="edge">
<title>regr&#45;&gt;mu</title>
<path fill="none" stroke="black" d="M1083.9,-274.23C1067.37,-258.87 1045.2,-241.24 1022,-231.32 974.28,-210.92 830.81,-197.56 749.98,-191.44"/>
<polygon fill="black" stroke="black" points="750.26,-187.95 740.03,-190.7 749.74,-194.93 750.26,-187.95"/>
</g>
<!-- mu&#45;&gt;likelihood -->
<g id="edge29" class="edge">
<title>mu&#45;&gt;likelihood</title>
<path fill="none" stroke="black" d="M692.19,-157.58C691.97,-150.1 691.73,-141.77 691.49,-133.45"/>
<polygon fill="black" stroke="black" points="694.99,-133.61 691.21,-123.71 688,-133.81 694.99,-133.61"/>
</g>
</g>
</svg>
