<?xml version="1.0" encoding="UTF-8" standalone="no"?>
<!DOCTYPE svg PUBLIC "-//W3C//DTD SVG 1.1//EN"
 "http://www.w3.org/Graphics/SVG/1.1/DTD/svg11.dtd">
<!-- Generated by graphviz version 9.0.0 (0)
 -->
<!-- Pages: 1 -->
<svg width="1525pt" height="629pt"
 viewBox="0.00 0.00 1525.00 628.77" xmlns="http://www.w3.org/2000/svg" xmlns:xlink="http://www.w3.org/1999/xlink">
<g id="graph0" class="graph" transform="scale(1 1) rotate(0) translate(4 624.77)">
<polygon fill="white" stroke="none" points="-4,4 -4,-624.77 1521,-624.77 1521,4 -4,4"/>
<g id="clust1" class="cluster">
<title>clusterindicators (15)</title>
<path fill="none" stroke="black" d="M20,-231.32C20,-231.32 222,-231.32 222,-231.32 228,-231.32 234,-237.32 234,-243.32 234,-243.32 234,-341.13 234,-341.13 234,-347.13 228,-353.13 222,-353.13 222,-353.13 20,-353.13 20,-353.13 14,-353.13 8,-347.13 8,-341.13 8,-341.13 8,-243.32 8,-243.32 8,-237.32 14,-231.32 20,-231.32"/>
<text text-anchor="middle" x="186.25" y="-238.52" font-family="Times,serif" font-size="14.00">indicators (15)</text>
</g>
<g id="clust2" class="cluster">
<title>clusterindicators_1 (3)</title>
<path fill="none" stroke="black" d="M254,-243.23C254,-243.23 352,-243.23 352,-243.23 358,-243.23 364,-249.23 364,-255.23 364,-255.23 364,-470.95 364,-470.95 364,-476.95 358,-482.95 352,-482.95 352,-482.95 254,-482.95 254,-482.95 248,-482.95 242,-476.95 242,-470.95 242,-470.95 242,-255.23 242,-255.23 242,-249.23 248,-243.23 254,-243.23"/>
<text text-anchor="middle" x="312.88" y="-250.43" font-family="Times,serif" font-size="14.00">indicators_1 (3)</text>
</g>
<g id="clust3" class="cluster">
<title>clusterindicators_2 (3)</title>
<path fill="none" stroke="black" d="M384,-243.23C384,-243.23 482,-243.23 482,-243.23 488,-243.23 494,-249.23 494,-255.23 494,-255.23 494,-470.95 494,-470.95 494,-476.95 488,-482.95 482,-482.95 482,-482.95 384,-482.95 384,-482.95 378,-482.95 372,-476.95 372,-470.95 372,-470.95 372,-255.23 372,-255.23 372,-249.23 378,-243.23 384,-243.23"/>
<text text-anchor="middle" x="442.88" y="-250.43" font-family="Times,serif" font-size="14.00">indicators_2 (3)</text>
</g>
<g id="clust4" class="cluster">
<title>clusterindicators_3 (3)</title>
<path fill="none" stroke="black" d="M514,-243.23C514,-243.23 612,-243.23 612,-243.23 618,-243.23 624,-249.23 624,-255.23 624,-255.23 624,-470.95 624,-470.95 624,-476.95 618,-482.95 612,-482.95 612,-482.95 514,-482.95 514,-482.95 508,-482.95 502,-476.95 502,-470.95 502,-470.95 502,-255.23 502,-255.23 502,-249.23 508,-243.23 514,-243.23"/>
<text text-anchor="middle" x="572.88" y="-250.43" font-family="Times,serif" font-size="14.00">indicators_3 (3)</text>
</g>
<g id="clust5" class="cluster">
<title>clusterindicators_4 (3)</title>
<path fill="none" stroke="black" d="M644,-243.23C644,-243.23 742,-243.23 742,-243.23 748,-243.23 754,-249.23 754,-255.23 754,-255.23 754,-470.95 754,-470.95 754,-476.95 748,-482.95 742,-482.95 742,-482.95 644,-482.95 644,-482.95 638,-482.95 632,-476.95 632,-470.95 632,-470.95 632,-255.23 632,-255.23 632,-249.23 638,-243.23 644,-243.23"/>
<text text-anchor="middle" x="702.88" y="-250.43" font-family="Times,serif" font-size="14.00">indicators_4 (3)</text>
</g>
<g id="clust6" class="cluster">
<title>clusterindicators_5 (3)</title>
<path fill="none" stroke="black" d="M774,-243.23C774,-243.23 872,-243.23 872,-243.23 878,-243.23 884,-249.23 884,-255.23 884,-255.23 884,-470.95 884,-470.95 884,-476.95 878,-482.95 872,-482.95 872,-482.95 774,-482.95 774,-482.95 768,-482.95 762,-476.95 762,-470.95 762,-470.95 762,-255.23 762,-255.23 762,-249.23 768,-243.23 774,-243.23"/>
<text text-anchor="middle" x="832.88" y="-250.43" font-family="Times,serif" font-size="14.00">indicators_5 (3)</text>
</g>
<g id="clust7" class="cluster">
<title>cluster10</title>
<path fill="none" stroke="black" d="M1149,-490.95C1149,-490.95 1309,-490.95 1309,-490.95 1315,-490.95 1321,-496.95 1321,-502.95 1321,-502.95 1321,-600.77 1321,-600.77 1321,-606.77 1315,-612.77 1309,-612.77 1309,-612.77 1149,-612.77 1149,-612.77 1143,-612.77 1137,-606.77 1137,-600.77 1137,-600.77 1137,-502.95 1137,-502.95 1137,-496.95 1143,-490.95 1149,-490.95"/>
<text text-anchor="middle" x="1306.25" y="-498.15" font-family="Times,serif" font-size="14.00">10</text>
</g>
<g id="clust8" class="cluster">
<title>cluster4 x 4</title>
<path fill="none" stroke="black" d="M1010,-373.04C1010,-373.04 1096,-373.04 1096,-373.04 1102,-373.04 1108,-379.04 1108,-385.04 1108,-385.04 1108,-459.04 1108,-459.04 1108,-465.04 1102,-471.04 1096,-471.04 1096,-471.04 1010,-471.04 1010,-471.04 1004,-471.04 998,-465.04 998,-459.04 998,-459.04 998,-385.04 998,-385.04 998,-379.04 1004,-373.04 1010,-373.04"/>
<text text-anchor="middle" x="1086.12" y="-380.24" font-family="Times,serif" font-size="14.00">4 x 4</text>
</g>
<g id="clust9" class="cluster">
<title>cluster4</title>
<path fill="none" stroke="black" d="M1128,-373.04C1128,-373.04 1214,-373.04 1214,-373.04 1220,-373.04 1226,-379.04 1226,-385.04 1226,-385.04 1226,-459.04 1226,-459.04 1226,-465.04 1220,-471.04 1214,-471.04 1214,-471.04 1128,-471.04 1128,-471.04 1122,-471.04 1116,-465.04 1116,-459.04 1116,-459.04 1116,-385.04 1116,-385.04 1116,-379.04 1122,-373.04 1128,-373.04"/>
<text text-anchor="middle" x="1214.62" y="-380.24" font-family="Times,serif" font-size="14.00">4</text>
</g>
<g id="clust10" class="cluster">
<title>clusterlatent (4) x latent1 (4)</title>
<path fill="none" stroke="black" d="M1246,-373.04C1246,-373.04 1358,-373.04 1358,-373.04 1364,-373.04 1370,-379.04 1370,-385.04 1370,-385.04 1370,-459.04 1370,-459.04 1370,-465.04 1364,-471.04 1358,-471.04 1358,-471.04 1246,-471.04 1246,-471.04 1240,-471.04 1234,-465.04 1234,-459.04 1234,-459.04 1234,-385.04 1234,-385.04 1234,-379.04 1240,-373.04 1246,-373.04"/>
<text text-anchor="middle" x="1302" y="-380.24" font-family="Times,serif" font-size="14.00">latent (4) x latent1 (4)</text>
</g>
<g id="clust11" class="cluster">
<title>clusterobs (283) x latent (4)</title>
<path fill="none" stroke="black" d="M1390,-361.13C1390,-361.13 1497,-361.13 1497,-361.13 1503,-361.13 1509,-367.13 1509,-373.13 1509,-373.13 1509,-470.95 1509,-470.95 1509,-476.95 1503,-482.95 1497,-482.95 1497,-482.95 1390,-482.95 1390,-482.95 1384,-482.95 1378,-476.95 1378,-470.95 1378,-470.95 1378,-373.13 1378,-373.13 1378,-367.13 1384,-361.13 1390,-361.13"/>
<text text-anchor="middle" x="1443.25" y="-368.33" font-family="Times,serif" font-size="14.00">obs (283) x latent (4)</text>
</g>
<g id="clust12" class="cluster">
<title>clusterlatent (4)</title>
<path fill="none" stroke="black" d="M904,-361.13C904,-361.13 978,-361.13 978,-361.13 984,-361.13 990,-367.13 990,-373.13 990,-373.13 990,-470.95 990,-470.95 990,-476.95 984,-482.95 978,-482.95 978,-482.95 904,-482.95 904,-482.95 898,-482.95 892,-476.95 892,-470.95 892,-470.95 892,-373.13 892,-373.13 892,-367.13 898,-361.13 904,-361.13"/>
<text text-anchor="middle" x="957.25" y="-368.33" font-family="Times,serif" font-size="14.00">latent (4)</text>
</g>
<g id="clust13" class="cluster">
<title>cluster283</title>
<path fill="none" stroke="black" d="M904,-243.23C904,-243.23 986,-243.23 986,-243.23 992,-243.23 998,-249.23 998,-255.23 998,-255.23 998,-329.23 998,-329.23 998,-335.23 992,-341.23 986,-341.23 986,-341.23 904,-341.23 904,-341.23 898,-341.23 892,-335.23 892,-329.23 892,-329.23 892,-255.23 892,-255.23 892,-249.23 898,-243.23 904,-243.23"/>
<text text-anchor="middle" x="979.88" y="-250.43" font-family="Times,serif" font-size="14.00">283</text>
</g>
<g id="clust14" class="cluster">
<title>cluster283 x 15</title>
<path fill="none" stroke="black" d="M514,-8C514,-8 606,-8 606,-8 612,-8 618,-14 618,-20 618,-20 618,-211.32 618,-211.32 618,-217.32 612,-223.32 606,-223.32 606,-223.32 514,-223.32 514,-223.32 508,-223.32 502,-217.32 502,-211.32 502,-211.32 502,-20 502,-20 502,-14 508,-8 514,-8"/>
<text text-anchor="middle" x="586" y="-15.2" font-family="Times,serif" font-size="14.00">283 x 15</text>
</g>
<!-- Psi -->
<g id="node1" class="node">
<title>Psi</title>
<ellipse fill="none" stroke="black" cx="71" cy="-304.48" rx="55.33" ry="40.66"/>
<text text-anchor="middle" x="71" y="-315.93" font-family="Times,serif" font-size="14.00">Psi</text>
<text text-anchor="middle" x="71" y="-299.43" font-family="Times,serif" font-size="14.00">~</text>
<text text-anchor="middle" x="71" y="-282.93" font-family="Times,serif" font-size="14.00">InvGamma</text>
</g>
<!-- likelihood -->
<g id="node21" class="node">
<title>likelihood</title>
<ellipse fill="lightgrey" stroke="black" cx="560" cy="-81.16" rx="50.03" ry="40.66"/>
<text text-anchor="middle" x="560" y="-92.61" font-family="Times,serif" font-size="14.00">likelihood</text>
<text text-anchor="middle" x="560" y="-76.11" font-family="Times,serif" font-size="14.00">~</text>
<text text-anchor="middle" x="560" y="-59.61" font-family="Times,serif" font-size="14.00">Normal</text>
</g>
<!-- Psi&#45;&gt;likelihood -->
<g id="edge20" class="edge">
<title>Psi&#45;&gt;likelihood</title>
<path fill="none" stroke="black" d="M96.3,-268.01C107.01,-255.02 120.4,-241.12 135,-231.32 251.49,-153.09 413.49,-111.24 499.96,-93.21"/>
<polygon fill="black" stroke="black" points="500.56,-96.66 509.66,-91.23 499.16,-89.8 500.56,-96.66"/>
</g>
<!-- tau -->
<g id="node2" class="node">
<title>tau</title>
<ellipse fill="none" stroke="black" cx="185" cy="-304.48" rx="41.01" ry="40.66"/>
<text text-anchor="middle" x="185" y="-315.93" font-family="Times,serif" font-size="14.00">tau</text>
<text text-anchor="middle" x="185" y="-299.43" font-family="Times,serif" font-size="14.00">~</text>
<text text-anchor="middle" x="185" y="-282.93" font-family="Times,serif" font-size="14.00">Normal</text>
</g>
<!-- mu -->
<g id="node20" class="node">
<title>mu</title>
<polygon fill="none" stroke="black" points="608.12,-215.32 517.88,-215.32 517.88,-157.82 608.12,-157.82 608.12,-215.32"/>
<text text-anchor="middle" x="563" y="-198.02" font-family="Times,serif" font-size="14.00">mu</text>
<text text-anchor="middle" x="563" y="-181.52" font-family="Times,serif" font-size="14.00">~</text>
<text text-anchor="middle" x="563" y="-165.02" font-family="Times,serif" font-size="14.00">Deterministic</text>
</g>
<!-- tau&#45;&gt;mu -->
<g id="edge15" class="edge">
<title>tau&#45;&gt;mu</title>
<path fill="none" stroke="black" d="M203.18,-267.6C211.87,-254.07 223.56,-239.88 238,-231.32 239.44,-230.47 413.43,-207.35 506.21,-195.07"/>
<polygon fill="black" stroke="black" points="506.42,-198.57 515.87,-193.79 505.5,-191.63 506.42,-198.57"/>
</g>
<!-- lambdas1 -->
<g id="node3" class="node">
<title>lambdas1</title>
<polygon fill="none" stroke="black" points="352.12,-333.23 261.88,-333.23 261.88,-275.73 352.12,-275.73 352.12,-333.23"/>
<text text-anchor="middle" x="307" y="-315.93" font-family="Times,serif" font-size="14.00">lambdas1</text>
<text text-anchor="middle" x="307" y="-299.43" font-family="Times,serif" font-size="14.00">~</text>
<text text-anchor="middle" x="307" y="-282.93" font-family="Times,serif" font-size="14.00">Deterministic</text>
</g>
<!-- lambdas1&#45;&gt;mu -->
<g id="edge16" class="edge">
<title>lambdas1&#45;&gt;mu</title>
<path fill="none" stroke="black" d="M324.03,-275.56C334.79,-260.24 350.04,-242.2 368,-231.32 410.08,-205.81 465.39,-195.14 506.35,-190.69"/>
<polygon fill="black" stroke="black" points="506.65,-194.18 516.26,-189.72 505.97,-187.21 506.65,-194.18"/>
</g>
<!-- lambdas_1 -->
<g id="node4" class="node">
<title>lambdas_1</title>
<ellipse fill="none" stroke="black" cx="303" cy="-434.29" rx="53.21" ry="40.66"/>
<text text-anchor="middle" x="303" y="-445.74" font-family="Times,serif" font-size="14.00">lambdas_1</text>
<text text-anchor="middle" x="303" y="-429.24" font-family="Times,serif" font-size="14.00">~</text>
<text text-anchor="middle" x="303" y="-412.74" font-family="Times,serif" font-size="14.00">Normal</text>
</g>
<!-- lambdas_1&#45;&gt;lambdas1 -->
<g id="edge1" class="edge">
<title>lambdas_1&#45;&gt;lambdas1</title>
<path fill="none" stroke="black" d="M304.25,-393.2C304.74,-377.8 305.29,-360.24 305.77,-344.9"/>
<polygon fill="black" stroke="black" points="309.26,-345.3 306.07,-335.19 302.26,-345.08 309.26,-345.3"/>
</g>
<!-- lambdas_2 -->
<g id="node5" class="node">
<title>lambdas_2</title>
<ellipse fill="none" stroke="black" cx="433" cy="-434.29" rx="53.21" ry="40.66"/>
<text text-anchor="middle" x="433" y="-445.74" font-family="Times,serif" font-size="14.00">lambdas_2</text>
<text text-anchor="middle" x="433" y="-429.24" font-family="Times,serif" font-size="14.00">~</text>
<text text-anchor="middle" x="433" y="-412.74" font-family="Times,serif" font-size="14.00">Normal</text>
</g>
<!-- lambdas2 -->
<g id="node6" class="node">
<title>lambdas2</title>
<polygon fill="none" stroke="black" points="482.12,-333.23 391.88,-333.23 391.88,-275.73 482.12,-275.73 482.12,-333.23"/>
<text text-anchor="middle" x="437" y="-315.93" font-family="Times,serif" font-size="14.00">lambdas2</text>
<text text-anchor="middle" x="437" y="-299.43" font-family="Times,serif" font-size="14.00">~</text>
<text text-anchor="middle" x="437" y="-282.93" font-family="Times,serif" font-size="14.00">Deterministic</text>
</g>
<!-- lambdas_2&#45;&gt;lambdas2 -->
<g id="edge2" class="edge">
<title>lambdas_2&#45;&gt;lambdas2</title>
<path fill="none" stroke="black" d="M434.25,-393.2C434.74,-377.8 435.29,-360.24 435.77,-344.9"/>
<polygon fill="black" stroke="black" points="439.26,-345.3 436.07,-335.19 432.26,-345.08 439.26,-345.3"/>
</g>
<!-- lambdas2&#45;&gt;mu -->
<g id="edge19" class="edge">
<title>lambdas2&#45;&gt;mu</title>
<path fill="none" stroke="black" d="M457.67,-275.49C468.78,-261.41 483.22,-244.56 498,-231.32 501.32,-228.34 504.86,-225.4 508.51,-222.55"/>
<polygon fill="black" stroke="black" points="510.61,-225.36 516.51,-216.56 506.41,-219.75 510.61,-225.36"/>
</g>
<!-- lambdas3 -->
<g id="node7" class="node">
<title>lambdas3</title>
<polygon fill="none" stroke="black" points="608.12,-333.23 517.88,-333.23 517.88,-275.73 608.12,-275.73 608.12,-333.23"/>
<text text-anchor="middle" x="563" y="-315.93" font-family="Times,serif" font-size="14.00">lambdas3</text>
<text text-anchor="middle" x="563" y="-299.43" font-family="Times,serif" font-size="14.00">~</text>
<text text-anchor="middle" x="563" y="-282.93" font-family="Times,serif" font-size="14.00">Deterministic</text>
</g>
<!-- lambdas3&#45;&gt;mu -->
<g id="edge18" class="edge">
<title>lambdas3&#45;&gt;mu</title>
<path fill="none" stroke="black" d="M563,-275.42C563,-260.86 563,-242.84 563,-226.91"/>
<polygon fill="black" stroke="black" points="566.5,-227.28 563,-217.28 559.5,-227.28 566.5,-227.28"/>
</g>
<!-- lambdas_3 -->
<g id="node8" class="node">
<title>lambdas_3</title>
<ellipse fill="none" stroke="black" cx="563" cy="-434.29" rx="53.21" ry="40.66"/>
<text text-anchor="middle" x="563" y="-445.74" font-family="Times,serif" font-size="14.00">lambdas_3</text>
<text text-anchor="middle" x="563" y="-429.24" font-family="Times,serif" font-size="14.00">~</text>
<text text-anchor="middle" x="563" y="-412.74" font-family="Times,serif" font-size="14.00">Normal</text>
</g>
<!-- lambdas_3&#45;&gt;lambdas3 -->
<g id="edge3" class="edge">
<title>lambdas_3&#45;&gt;lambdas3</title>
<path fill="none" stroke="black" d="M563,-393.2C563,-377.8 563,-360.24 563,-344.9"/>
<polygon fill="black" stroke="black" points="566.5,-345.19 563,-335.19 559.5,-345.19 566.5,-345.19"/>
</g>
<!-- lambdas4 -->
<g id="node9" class="node">
<title>lambdas4</title>
<polygon fill="none" stroke="black" points="734.12,-333.23 643.88,-333.23 643.88,-275.73 734.12,-275.73 734.12,-333.23"/>
<text text-anchor="middle" x="689" y="-315.93" font-family="Times,serif" font-size="14.00">lambdas4</text>
<text text-anchor="middle" x="689" y="-299.43" font-family="Times,serif" font-size="14.00">~</text>
<text text-anchor="middle" x="689" y="-282.93" font-family="Times,serif" font-size="14.00">Deterministic</text>
</g>
<!-- lambdas4&#45;&gt;mu -->
<g id="edge17" class="edge">
<title>lambdas4&#45;&gt;mu</title>
<path fill="none" stroke="black" d="M668.33,-275.49C657.22,-261.41 642.78,-244.56 628,-231.32 624.68,-228.34 621.14,-225.4 617.49,-222.55"/>
<polygon fill="black" stroke="black" points="619.59,-219.75 609.49,-216.56 615.39,-225.36 619.59,-219.75"/>
</g>
<!-- lambdas_4 -->
<g id="node10" class="node">
<title>lambdas_4</title>
<ellipse fill="none" stroke="black" cx="693" cy="-434.29" rx="53.21" ry="40.66"/>
<text text-anchor="middle" x="693" y="-445.74" font-family="Times,serif" font-size="14.00">lambdas_4</text>
<text text-anchor="middle" x="693" y="-429.24" font-family="Times,serif" font-size="14.00">~</text>
<text text-anchor="middle" x="693" y="-412.74" font-family="Times,serif" font-size="14.00">Normal</text>
</g>
<!-- lambdas_4&#45;&gt;lambdas4 -->
<g id="edge4" class="edge">
<title>lambdas_4&#45;&gt;lambdas4</title>
<path fill="none" stroke="black" d="M691.75,-393.2C691.26,-377.8 690.71,-360.24 690.23,-344.9"/>
<polygon fill="black" stroke="black" points="693.74,-345.08 689.93,-335.19 686.74,-345.3 693.74,-345.08"/>
</g>
<!-- lambdas5 -->
<g id="node11" class="node">
<title>lambdas5</title>
<polygon fill="none" stroke="black" points="864.12,-333.23 773.88,-333.23 773.88,-275.73 864.12,-275.73 864.12,-333.23"/>
<text text-anchor="middle" x="819" y="-315.93" font-family="Times,serif" font-size="14.00">lambdas5</text>
<text text-anchor="middle" x="819" y="-299.43" font-family="Times,serif" font-size="14.00">~</text>
<text text-anchor="middle" x="819" y="-282.93" font-family="Times,serif" font-size="14.00">Deterministic</text>
</g>
<!-- lambdas5&#45;&gt;mu -->
<g id="edge13" class="edge">
<title>lambdas5&#45;&gt;mu</title>
<path fill="none" stroke="black" d="M801.97,-275.56C791.21,-260.24 775.96,-242.2 758,-231.32 715.92,-205.81 660.61,-195.14 619.65,-190.69"/>
<polygon fill="black" stroke="black" points="620.03,-187.21 609.74,-189.72 619.35,-194.18 620.03,-187.21"/>
</g>
<!-- lambdas_5 -->
<g id="node12" class="node">
<title>lambdas_5</title>
<ellipse fill="none" stroke="black" cx="823" cy="-434.29" rx="53.21" ry="40.66"/>
<text text-anchor="middle" x="823" y="-445.74" font-family="Times,serif" font-size="14.00">lambdas_5</text>
<text text-anchor="middle" x="823" y="-429.24" font-family="Times,serif" font-size="14.00">~</text>
<text text-anchor="middle" x="823" y="-412.74" font-family="Times,serif" font-size="14.00">Normal</text>
</g>
<!-- lambdas_5&#45;&gt;lambdas5 -->
<g id="edge5" class="edge">
<title>lambdas_5&#45;&gt;lambdas5</title>
<path fill="none" stroke="black" d="M821.75,-393.2C821.26,-377.8 820.71,-360.24 820.23,-344.9"/>
<polygon fill="black" stroke="black" points="823.74,-345.08 819.93,-335.19 816.74,-345.3 823.74,-345.08"/>
</g>
<!-- chol_cov -->
<g id="node13" class="node">
<title>chol_cov</title>
<ellipse fill="none" stroke="black" cx="1229" cy="-564.11" rx="84.5" ry="40.66"/>
<text text-anchor="middle" x="1229" y="-575.56" font-family="Times,serif" font-size="14.00">chol_cov</text>
<text text-anchor="middle" x="1229" y="-559.06" font-family="Times,serif" font-size="14.00">~</text>
<text text-anchor="middle" x="1229" y="-542.56" font-family="Times,serif" font-size="14.00">_LKJCholeskyCov</text>
</g>
<!-- chol_cov_corr -->
<g id="node14" class="node">
<title>chol_cov_corr</title>
<polygon fill="none" stroke="black" points="1100,-463.04 1006,-463.04 1006,-405.54 1100,-405.54 1100,-463.04"/>
<text text-anchor="middle" x="1053" y="-445.74" font-family="Times,serif" font-size="14.00">chol_cov_corr</text>
<text text-anchor="middle" x="1053" y="-429.24" font-family="Times,serif" font-size="14.00">~</text>
<text text-anchor="middle" x="1053" y="-412.74" font-family="Times,serif" font-size="14.00">Deterministic</text>
</g>
<!-- chol_cov&#45;&gt;chol_cov_corr -->
<g id="edge6" class="edge">
<title>chol_cov&#45;&gt;chol_cov_corr</title>
<path fill="none" stroke="black" d="M1179.73,-530.61C1158.6,-516.36 1133.82,-499.2 1112,-482.95 1106.72,-479.02 1101.26,-474.81 1095.88,-470.58"/>
<polygon fill="black" stroke="black" points="1098.15,-467.91 1088.14,-464.42 1093.79,-473.39 1098.15,-467.91"/>
</g>
<!-- chol_cov_stds -->
<g id="node15" class="node">
<title>chol_cov_stds</title>
<polygon fill="none" stroke="black" points="1217.62,-463.04 1124.38,-463.04 1124.38,-405.54 1217.62,-405.54 1217.62,-463.04"/>
<text text-anchor="middle" x="1171" y="-445.74" font-family="Times,serif" font-size="14.00">chol_cov_stds</text>
<text text-anchor="middle" x="1171" y="-429.24" font-family="Times,serif" font-size="14.00">~</text>
<text text-anchor="middle" x="1171" y="-412.74" font-family="Times,serif" font-size="14.00">Deterministic</text>
</g>
<!-- chol_cov&#45;&gt;chol_cov_stds -->
<g id="edge7" class="edge">
<title>chol_cov&#45;&gt;chol_cov_stds</title>
<path fill="none" stroke="black" d="M1211.28,-524.07C1203.96,-507.93 1195.5,-489.28 1188.23,-473.26"/>
<polygon fill="black" stroke="black" points="1191.59,-472.19 1184.27,-464.53 1185.21,-475.09 1191.59,-472.19"/>
</g>
<!-- cov -->
<g id="node16" class="node">
<title>cov</title>
<polygon fill="none" stroke="black" points="1332.12,-463.04 1241.88,-463.04 1241.88,-405.54 1332.12,-405.54 1332.12,-463.04"/>
<text text-anchor="middle" x="1287" y="-445.74" font-family="Times,serif" font-size="14.00">cov</text>
<text text-anchor="middle" x="1287" y="-429.24" font-family="Times,serif" font-size="14.00">~</text>
<text text-anchor="middle" x="1287" y="-412.74" font-family="Times,serif" font-size="14.00">Deterministic</text>
</g>
<!-- chol_cov&#45;&gt;cov -->
<g id="edge8" class="edge">
<title>chol_cov&#45;&gt;cov</title>
<path fill="none" stroke="black" d="M1246.72,-524.07C1254.04,-507.93 1262.5,-489.28 1269.77,-473.26"/>
<polygon fill="black" stroke="black" points="1272.79,-475.09 1273.73,-464.53 1266.41,-472.19 1272.79,-475.09"/>
</g>
<!-- ksi -->
<g id="node17" class="node">
<title>ksi</title>
<ellipse fill="none" stroke="black" cx="1441" cy="-434.29" rx="54.8" ry="40.66"/>
<text text-anchor="middle" x="1441" y="-445.74" font-family="Times,serif" font-size="14.00">ksi</text>
<text text-anchor="middle" x="1441" y="-429.24" font-family="Times,serif" font-size="14.00">~</text>
<text text-anchor="middle" x="1441" y="-412.74" font-family="Times,serif" font-size="14.00">MvNormal</text>
</g>
<!-- chol_cov&#45;&gt;ksi -->
<g id="edge9" class="edge">
<title>chol_cov&#45;&gt;ksi</title>
<path fill="none" stroke="black" d="M1285.63,-533.73C1312.78,-519.16 1345.52,-500.88 1374,-482.95 1380.33,-478.97 1386.88,-474.62 1393.29,-470.22"/>
<polygon fill="black" stroke="black" points="1395.09,-473.23 1401.3,-464.64 1391.09,-467.48 1395.09,-473.23"/>
</g>
<!-- regr -->
<g id="node19" class="node">
<title>regr</title>
<polygon fill="none" stroke="black" points="990.12,-333.23 899.88,-333.23 899.88,-275.73 990.12,-275.73 990.12,-333.23"/>
<text text-anchor="middle" x="945" y="-315.93" font-family="Times,serif" font-size="14.00">regr</text>
<text text-anchor="middle" x="945" y="-299.43" font-family="Times,serif" font-size="14.00">~</text>
<text text-anchor="middle" x="945" y="-282.93" font-family="Times,serif" font-size="14.00">Deterministic</text>
</g>
<!-- ksi&#45;&gt;regr -->
<g id="edge11" class="edge">
<title>ksi&#45;&gt;regr</title>
<path fill="none" stroke="black" d="M1417.11,-397.41C1405.81,-383.52 1391.04,-369.08 1374,-361.13 1357.97,-353.66 1232.58,-355.12 1215,-353.13 1140.81,-344.75 1056.18,-328.75 1001.75,-317.62"/>
<polygon fill="black" stroke="black" points="1002.59,-314.21 992.09,-315.62 1001.18,-321.07 1002.59,-314.21"/>
</g>
<!-- ksi&#45;&gt;mu -->
<g id="edge14" class="edge">
<title>ksi&#45;&gt;mu</title>
<path fill="none" stroke="black" d="M1414.57,-398.22C1403.26,-385.13 1389.17,-371.05 1374,-361.13 1227.44,-265.3 1172.98,-269.11 1002,-231.32 867,-201.48 704.12,-191.97 619.79,-188.95"/>
<polygon fill="black" stroke="black" points="620.05,-185.46 609.94,-188.62 619.81,-192.46 620.05,-185.46"/>
</g>
<!-- beta_r -->
<g id="node18" class="node">
<title>beta_r</title>
<ellipse fill="none" stroke="black" cx="941" cy="-434.29" rx="41.01" ry="40.66"/>
<text text-anchor="middle" x="941" y="-445.74" font-family="Times,serif" font-size="14.00">beta_r</text>
<text text-anchor="middle" x="941" y="-429.24" font-family="Times,serif" font-size="14.00">~</text>
<text text-anchor="middle" x="941" y="-412.74" font-family="Times,serif" font-size="14.00">Normal</text>
</g>
<!-- beta_r&#45;&gt;regr -->
<g id="edge10" class="edge">
<title>beta_r&#45;&gt;regr</title>
<path fill="none" stroke="black" d="M942.25,-393.2C942.74,-377.8 943.29,-360.24 943.77,-344.9"/>
<polygon fill="black" stroke="black" points="947.26,-345.3 944.07,-335.19 940.26,-345.08 947.26,-345.3"/>
</g>
<!-- regr&#45;&gt;mu -->
<g id="edge12" class="edge">
<title>regr&#45;&gt;mu</title>
<path fill="none" stroke="black" d="M930.04,-275.35C920.23,-259.76 905.89,-241.51 888,-231.32 843.45,-205.93 700.67,-194.61 619.96,-190.13"/>
<polygon fill="black" stroke="black" points="620.21,-186.63 610.04,-189.6 619.84,-193.62 620.21,-186.63"/>
</g>
<!-- mu&#45;&gt;likelihood -->
<g id="edge21" class="edge">
<title>mu&#45;&gt;likelihood</title>
<path fill="none" stroke="black" d="M562.19,-157.58C561.97,-150.1 561.73,-141.77 561.49,-133.45"/>
<polygon fill="black" stroke="black" points="564.99,-133.61 561.21,-123.71 558,-133.81 564.99,-133.61"/>
</g>
</g>
</svg>
