<?xml version="1.0" encoding="UTF-8" standalone="no"?>
<!DOCTYPE svg PUBLIC "-//W3C//DTD SVG 1.1//EN"
 "http://www.w3.org/Graphics/SVG/1.1/DTD/svg11.dtd">
<!-- Generated by graphviz version 12.2.1 (0)
 -->
<!-- Pages: 1 -->
<svg width="1052pt" height="722pt"
 viewBox="0.00 0.00 1051.51 722.27" xmlns="http://www.w3.org/2000/svg" xmlns:xlink="http://www.w3.org/1999/xlink">
<g id="graph0" class="graph" transform="scale(1 1) rotate(0) translate(4 718.27)">
<polygon fill="white" stroke="none" points="-4,4 -4,-718.27 1047.51,-718.27 1047.51,4 -4,4"/>
<g id="clust1" class="cluster">
<title>clusteralts (5)</title>
<path fill="none" stroke="black" d="M455,-479.04C455,-479.04 537,-479.04 537,-479.04 543,-479.04 549,-485.04 549,-491.04 549,-491.04 549,-694.27 549,-694.27 549,-700.27 543,-706.27 537,-706.27 537,-706.27 455,-706.27 455,-706.27 449,-706.27 443,-700.27 443,-694.27 443,-694.27 443,-491.04 443,-491.04 443,-485.04 449,-479.04 455,-479.04"/>
<text text-anchor="middle" x="521.88" y="-486.24" font-family="Times,serif" font-size="14.00">alts (5)</text>
</g>
<g id="clust2" class="cluster">
<title>clusteralt_covariates (2)</title>
<path fill="none" stroke="black" d="M620,-467.13C620,-467.13 706,-467.13 706,-467.13 712,-467.13 718,-473.13 718,-479.13 718,-479.13 718,-576.95 718,-576.95 718,-582.95 712,-588.95 706,-588.95 706,-588.95 620,-588.95 620,-588.95 614,-588.95 608,-582.95 608,-576.95 608,-576.95 608,-479.13 608,-479.13 608,-473.13 614,-467.13 620,-467.13"/>
<text text-anchor="middle" x="662.75" y="-474.33" font-family="Times,serif" font-size="14.00">alt_covariates (2)</text>
</g>
<g id="clust3" class="cluster">
<title>clusternests (2)</title>
<path fill="none" stroke="black" d="M463,-337.32C463,-337.32 591,-337.32 591,-337.32 597,-337.32 603,-343.32 603,-349.32 603,-349.32 603,-447.13 603,-447.13 603,-453.13 597,-459.13 591,-459.13 591,-459.13 463,-459.13 463,-459.13 457,-459.13 451,-453.13 451,-447.13 451,-447.13 451,-349.32 451,-349.32 451,-343.32 457,-337.32 463,-337.32"/>
<text text-anchor="middle" x="571.75" y="-344.52" font-family="Times,serif" font-size="14.00">nests (2)</text>
</g>
<g id="clust4" class="cluster">
<title>clusterobs (900) x fixed_covariates (2)</title>
<path fill="none" stroke="black" d="M20,-349.23C20,-349.23 186,-349.23 186,-349.23 192,-349.23 198,-355.23 198,-361.23 198,-361.23 198,-435.23 198,-435.23 198,-441.23 192,-447.23 186,-447.23 186,-447.23 20,-447.23 20,-447.23 14,-447.23 8,-441.23 8,-435.23 8,-435.23 8,-361.23 8,-361.23 8,-355.23 14,-349.23 20,-349.23"/>
<text text-anchor="middle" x="102.62" y="-356.43" font-family="Times,serif" font-size="14.00">obs (900) x fixed_covariates (2)</text>
</g>
<g id="clust5" class="cluster">
<title>clusterfixed_covariates (2)</title>
<path fill="none" stroke="black" d="M214,-467.13C214,-467.13 326,-467.13 326,-467.13 332,-467.13 338,-473.13 338,-479.13 338,-479.13 338,-576.95 338,-576.95 338,-582.95 332,-588.95 326,-588.95 326,-588.95 214,-588.95 214,-588.95 208,-588.95 202,-582.95 202,-576.95 202,-576.95 202,-479.13 202,-479.13 202,-473.13 208,-467.13 214,-467.13"/>
<text text-anchor="middle" x="275.62" y="-474.33" font-family="Times,serif" font-size="14.00">fixed_covariates (2)</text>
</g>
<g id="clust6" class="cluster">
<title>clusteralts (5) x fixed_covariates (2)</title>
<path fill="none" stroke="black" d="M225,-349.23C225,-349.23 378,-349.23 378,-349.23 384,-349.23 390,-355.23 390,-361.23 390,-361.23 390,-435.23 390,-435.23 390,-441.23 384,-447.23 378,-447.23 378,-447.23 225,-447.23 225,-447.23 219,-447.23 213,-441.23 213,-435.23 213,-435.23 213,-361.23 213,-361.23 213,-355.23 219,-349.23 225,-349.23"/>
<text text-anchor="middle" x="301.38" y="-356.43" font-family="Times,serif" font-size="14.00">alts (5) x fixed_covariates (2)</text>
</g>
<g id="clust7" class="cluster">
<title>cluster900 x 5</title>
<path fill="none" stroke="black" d="M118,-231.32C118,-231.32 200,-231.32 200,-231.32 206,-231.32 212,-237.32 212,-243.32 212,-243.32 212,-317.32 212,-317.32 212,-323.32 206,-329.32 200,-329.32 200,-329.32 118,-329.32 118,-329.32 112,-329.32 106,-323.32 106,-317.32 106,-317.32 106,-243.32 106,-243.32 106,-237.32 112,-231.32 118,-231.32"/>
<text text-anchor="middle" x="183.38" y="-238.52" font-family="Times,serif" font-size="14.00">900 x 5</text>
</g>
<g id="clust8" class="cluster">
<title>clusterobs (900) x alts (5) x alt_covariates (2)</title>
<path fill="none" stroke="black" d="M738,-479.04C738,-479.04 943,-479.04 943,-479.04 949,-479.04 955,-485.04 955,-491.04 955,-491.04 955,-565.04 955,-565.04 955,-571.04 949,-577.04 943,-577.04 943,-577.04 738,-577.04 738,-577.04 732,-577.04 726,-571.04 726,-565.04 726,-565.04 726,-491.04 726,-491.04 726,-485.04 732,-479.04 738,-479.04"/>
<text text-anchor="middle" x="840.5" y="-486.24" font-family="Times,serif" font-size="14.00">obs (900) x alts (5) x alt_covariates (2)</text>
</g>
<g id="clust9" class="cluster">
<title>clusterobs (900)</title>
<path fill="none" stroke="black" d="M375,-8C375,-8 693,-8 693,-8 699,-8 705,-14 705,-20 705,-20 705,-211.32 705,-211.32 705,-217.32 699,-223.32 693,-223.32 693,-223.32 375,-223.32 375,-223.32 369,-223.32 363,-217.32 363,-211.32 363,-211.32 363,-20 363,-20 363,-14 369,-8 375,-8"/>
<text text-anchor="middle" x="671.12" y="-15.2" font-family="Times,serif" font-size="14.00">obs (900)</text>
</g>
<g id="clust10" class="cluster">
<title>clusterobs (900) x alts (5)</title>
<path fill="none" stroke="black" d="M674,-349.23C674,-349.23 864,-349.23 864,-349.23 870,-349.23 876,-355.23 876,-361.23 876,-361.23 876,-435.23 876,-435.23 876,-441.23 870,-447.23 864,-447.23 864,-447.23 674,-447.23 674,-447.23 668,-447.23 662,-441.23 662,-435.23 662,-435.23 662,-361.23 662,-361.23 662,-355.23 668,-349.23 674,-349.23"/>
<text text-anchor="middle" x="815.88" y="-356.43" font-family="Times,serif" font-size="14.00">obs (900) x alts (5)</text>
</g>
<g id="clust11" class="cluster">
<title>cluster900 x 2</title>
<path fill="none" stroke="black" d="M906,-113.41C906,-113.41 1014,-113.41 1014,-113.41 1020,-113.41 1026,-119.41 1026,-125.41 1026,-125.41 1026,-317.32 1026,-317.32 1026,-323.32 1020,-329.32 1014,-329.32 1014,-329.32 906,-329.32 906,-329.32 900,-329.32 894,-323.32 894,-317.32 894,-317.32 894,-125.41 894,-125.41 894,-119.41 900,-113.41 906,-113.41"/>
<text text-anchor="middle" x="997.38" y="-120.61" font-family="Times,serif" font-size="14.00">900 x 2</text>
</g>
<g id="clust12" class="cluster">
<title>cluster900 x 3</title>
<path fill="none" stroke="black" d="M740,-113.41C740,-113.41 842,-113.41 842,-113.41 848,-113.41 854,-119.41 854,-125.41 854,-125.41 854,-317.32 854,-317.32 854,-323.32 848,-329.32 842,-329.32 842,-329.32 740,-329.32 740,-329.32 734,-329.32 728,-323.32 728,-317.32 728,-317.32 728,-125.41 728,-125.41 728,-119.41 734,-113.41 740,-113.41"/>
<text text-anchor="middle" x="825.38" y="-120.61" font-family="Times,serif" font-size="14.00">900 x 3</text>
</g>
<g id="clust13" class="cluster">
<title>cluster900</title>
<path fill="none" stroke="black" d="M302,-231.32C302,-231.32 384,-231.32 384,-231.32 390,-231.32 396,-237.32 396,-243.32 396,-243.32 396,-317.32 396,-317.32 396,-323.32 390,-329.32 384,-329.32 384,-329.32 302,-329.32 302,-329.32 296,-329.32 290,-323.32 290,-317.32 290,-317.32 290,-243.32 290,-243.32 290,-237.32 296,-231.32 302,-231.32"/>
<text text-anchor="middle" x="377.88" y="-238.52" font-family="Times,serif" font-size="14.00">900</text>
</g>
<!-- alphas_ -->
<g id="node1" class="node">
<title>alphas_</title>
<ellipse fill="none" stroke="black" cx="496" cy="-657.61" rx="41.01" ry="40.66"/>
<text text-anchor="middle" x="496" y="-669.06" font-family="Times,serif" font-size="14.00">alphas_</text>
<text text-anchor="middle" x="496" y="-652.56" font-family="Times,serif" font-size="14.00">~</text>
<text text-anchor="middle" x="496" y="-636.06" font-family="Times,serif" font-size="14.00">Normal</text>
</g>
<!-- alphas -->
<g id="node2" class="node">
<title>alphas</title>
<polygon fill="none" stroke="black" points="541.12,-569.04 450.88,-569.04 450.88,-511.54 541.12,-511.54 541.12,-569.04"/>
<text text-anchor="middle" x="496" y="-551.74" font-family="Times,serif" font-size="14.00">alphas</text>
<text text-anchor="middle" x="496" y="-535.24" font-family="Times,serif" font-size="14.00">~</text>
<text text-anchor="middle" x="496" y="-518.74" font-family="Times,serif" font-size="14.00">Deterministic</text>
</g>
<!-- alphas_&#45;&gt;alphas -->
<g id="edge1" class="edge">
<title>alphas_&#45;&gt;alphas</title>
<path fill="none" stroke="black" d="M496,-616.6C496,-604.89 496,-592.11 496,-580.45"/>
<polygon fill="black" stroke="black" points="499.5,-580.77 496,-570.77 492.5,-580.77 499.5,-580.77"/>
</g>
<!-- betas_fixed -->
<g id="node7" class="node">
<title>betas_fixed</title>
<polygon fill="none" stroke="black" points="315.12,-439.23 224.88,-439.23 224.88,-381.73 315.12,-381.73 315.12,-439.23"/>
<text text-anchor="middle" x="270" y="-421.93" font-family="Times,serif" font-size="14.00">betas_fixed</text>
<text text-anchor="middle" x="270" y="-405.43" font-family="Times,serif" font-size="14.00">~</text>
<text text-anchor="middle" x="270" y="-388.93" font-family="Times,serif" font-size="14.00">Deterministic</text>
</g>
<!-- alphas&#45;&gt;betas_fixed -->
<g id="edge2" class="edge">
<title>alphas&#45;&gt;betas_fixed</title>
<path fill="none" stroke="black" d="M450.54,-513.58C414.45,-493.17 363.84,-464.55 325.39,-442.8"/>
<polygon fill="black" stroke="black" points="327.13,-439.77 316.71,-437.89 323.69,-445.86 327.13,-439.77"/>
</g>
<!-- U -->
<g id="node15" class="node">
<title>U</title>
<polygon fill="none" stroke="black" points="760.12,-439.23 669.88,-439.23 669.88,-381.73 760.12,-381.73 760.12,-439.23"/>
<text text-anchor="middle" x="715" y="-421.93" font-family="Times,serif" font-size="14.00">U</text>
<text text-anchor="middle" x="715" y="-405.43" font-family="Times,serif" font-size="14.00">~</text>
<text text-anchor="middle" x="715" y="-388.93" font-family="Times,serif" font-size="14.00">Deterministic</text>
</g>
<!-- alphas&#45;&gt;U -->
<g id="edge8" class="edge">
<title>alphas&#45;&gt;U</title>
<path fill="none" stroke="black" d="M535.5,-511.18C555.63,-497.31 580.71,-480.69 604,-467.13 621.6,-456.89 641.33,-446.63 659.21,-437.76"/>
<polygon fill="black" stroke="black" points="660.71,-440.93 668.14,-433.38 657.62,-434.64 660.71,-440.93"/>
</g>
<!-- betas -->
<g id="node3" class="node">
<title>betas</title>
<ellipse fill="none" stroke="black" cx="669" cy="-540.29" rx="41.01" ry="40.66"/>
<text text-anchor="middle" x="669" y="-551.74" font-family="Times,serif" font-size="14.00">betas</text>
<text text-anchor="middle" x="669" y="-535.24" font-family="Times,serif" font-size="14.00">~</text>
<text text-anchor="middle" x="669" y="-518.74" font-family="Times,serif" font-size="14.00">Normal</text>
</g>
<!-- betas&#45;&gt;U -->
<g id="edge9" class="edge">
<title>betas&#45;&gt;U</title>
<path fill="none" stroke="black" d="M682.55,-501.64C688.37,-485.48 695.16,-466.62 701.02,-450.33"/>
<polygon fill="black" stroke="black" points="704.3,-451.55 704.39,-440.96 697.71,-449.18 704.3,-451.55"/>
</g>
<!-- lambdas_nests -->
<g id="node4" class="node">
<title>lambdas_nests</title>
<ellipse fill="none" stroke="black" cx="527" cy="-410.48" rx="67.53" ry="40.66"/>
<text text-anchor="middle" x="527" y="-421.93" font-family="Times,serif" font-size="14.00">lambdas_nests</text>
<text text-anchor="middle" x="527" y="-405.43" font-family="Times,serif" font-size="14.00">~</text>
<text text-anchor="middle" x="527" y="-388.93" font-family="Times,serif" font-size="14.00">Beta</text>
</g>
<!-- P_room -->
<g id="node10" class="node">
<title>P_room</title>
<polygon fill="none" stroke="black" points="569.12,-203.41 478.88,-203.41 478.88,-145.91 569.12,-145.91 569.12,-203.41"/>
<text text-anchor="middle" x="524" y="-186.11" font-family="Times,serif" font-size="14.00">P_room</text>
<text text-anchor="middle" x="524" y="-169.61" font-family="Times,serif" font-size="14.00">~</text>
<text text-anchor="middle" x="524" y="-153.11" font-family="Times,serif" font-size="14.00">Deterministic</text>
</g>
<!-- lambdas_nests&#45;&gt;P_room -->
<g id="edge28" class="edge">
<title>lambdas_nests&#45;&gt;P_room</title>
<path fill="none" stroke="black" d="M496.46,-373.94C487.03,-360.79 477.85,-345.2 473,-329.32 460.28,-287.66 457.21,-271.91 473,-231.32 475.59,-224.66 479.38,-218.32 483.75,-212.46"/>
<polygon fill="black" stroke="black" points="486.38,-214.78 490.04,-204.84 480.98,-210.32 486.38,-214.78"/>
</g>
<!-- P_central -->
<g id="node11" class="node">
<title>P_central</title>
<polygon fill="none" stroke="black" points="461.12,-203.41 370.88,-203.41 370.88,-145.91 461.12,-145.91 461.12,-203.41"/>
<text text-anchor="middle" x="416" y="-186.11" font-family="Times,serif" font-size="14.00">P_central</text>
<text text-anchor="middle" x="416" y="-169.61" font-family="Times,serif" font-size="14.00">~</text>
<text text-anchor="middle" x="416" y="-153.11" font-family="Times,serif" font-size="14.00">Deterministic</text>
</g>
<!-- lambdas_nests&#45;&gt;P_central -->
<g id="edge23" class="edge">
<title>lambdas_nests&#45;&gt;P_central</title>
<path fill="none" stroke="black" d="M491.68,-375.31C479.53,-361.94 466.79,-345.85 458,-329.32 438.69,-293 427.64,-247.02 421.77,-214.86"/>
<polygon fill="black" stroke="black" points="425.25,-214.42 420.09,-205.17 418.35,-215.62 425.25,-214.42"/>
</g>
<!-- p_y_given_central -->
<g id="node16" class="node">
<title>p_y_given_central</title>
<polygon fill="none" stroke="black" points="1018.25,-321.32 901.75,-321.32 901.75,-263.82 1018.25,-263.82 1018.25,-321.32"/>
<text text-anchor="middle" x="960" y="-304.02" font-family="Times,serif" font-size="14.00">p_y_given_central</text>
<text text-anchor="middle" x="960" y="-287.52" font-family="Times,serif" font-size="14.00">~</text>
<text text-anchor="middle" x="960" y="-271.02" font-family="Times,serif" font-size="14.00">Deterministic</text>
</g>
<!-- lambdas_nests&#45;&gt;p_y_given_central -->
<g id="edge10" class="edge">
<title>lambdas_nests&#45;&gt;p_y_given_central</title>
<path fill="none" stroke="black" d="M570.24,-378.97C594.77,-363.44 626.73,-346.03 658,-337.32 700.85,-325.38 814.31,-337.65 858,-329.32 868.78,-327.26 879.96,-324.28 890.8,-320.9"/>
<polygon fill="black" stroke="black" points="891.63,-324.31 900.05,-317.87 889.46,-317.65 891.63,-324.31"/>
</g>
<!-- I_central -->
<g id="node18" class="node">
<title>I_central</title>
<polygon fill="none" stroke="black" points="572.12,-321.32 481.88,-321.32 481.88,-263.82 572.12,-263.82 572.12,-321.32"/>
<text text-anchor="middle" x="527" y="-304.02" font-family="Times,serif" font-size="14.00">I_central</text>
<text text-anchor="middle" x="527" y="-287.52" font-family="Times,serif" font-size="14.00">~</text>
<text text-anchor="middle" x="527" y="-271.02" font-family="Times,serif" font-size="14.00">Deterministic</text>
</g>
<!-- lambdas_nests&#45;&gt;I_central -->
<g id="edge12" class="edge">
<title>lambdas_nests&#45;&gt;I_central</title>
<path fill="none" stroke="black" d="M527,-369.59C527,-357.7 527,-344.69 527,-332.84"/>
<polygon fill="black" stroke="black" points="530.5,-332.98 527,-322.98 523.5,-332.98 530.5,-332.98"/>
</g>
<!-- I_room -->
<g id="node19" class="node">
<title>I_room</title>
<polygon fill="none" stroke="black" points="680.12,-321.32 589.88,-321.32 589.88,-263.82 680.12,-263.82 680.12,-321.32"/>
<text text-anchor="middle" x="635" y="-304.02" font-family="Times,serif" font-size="14.00">I_room</text>
<text text-anchor="middle" x="635" y="-287.52" font-family="Times,serif" font-size="14.00">~</text>
<text text-anchor="middle" x="635" y="-271.02" font-family="Times,serif" font-size="14.00">Deterministic</text>
</g>
<!-- lambdas_nests&#45;&gt;I_room -->
<g id="edge16" class="edge">
<title>lambdas_nests&#45;&gt;I_room</title>
<path fill="none" stroke="black" d="M559.7,-374.38C572.88,-360.24 588.08,-343.92 601.35,-329.68"/>
<polygon fill="black" stroke="black" points="603.63,-332.37 607.89,-322.66 598.51,-327.6 603.63,-332.37"/>
</g>
<!-- p_y_given_room -->
<g id="node21" class="node">
<title>p_y_given_room</title>
<polygon fill="none" stroke="black" points="845.5,-321.32 736.5,-321.32 736.5,-263.82 845.5,-263.82 845.5,-321.32"/>
<text text-anchor="middle" x="791" y="-304.02" font-family="Times,serif" font-size="14.00">p_y_given_room</text>
<text text-anchor="middle" x="791" y="-287.52" font-family="Times,serif" font-size="14.00">~</text>
<text text-anchor="middle" x="791" y="-271.02" font-family="Times,serif" font-size="14.00">Deterministic</text>
</g>
<!-- lambdas_nests&#45;&gt;p_y_given_room -->
<g id="edge14" class="edge">
<title>lambdas_nests&#45;&gt;p_y_given_room</title>
<path fill="none" stroke="black" d="M573.2,-380.29C597.68,-365.81 628.68,-348.96 658,-337.32 671.22,-332.07 675.38,-333.45 689,-329.32 700.94,-325.69 713.57,-321.53 725.71,-317.37"/>
<polygon fill="black" stroke="black" points="726.5,-320.8 734.8,-314.22 724.2,-314.19 726.5,-320.8"/>
</g>
<!-- denom_top -->
<g id="node22" class="node">
<title>denom_top</title>
<polygon fill="none" stroke="black" points="388.12,-321.32 297.88,-321.32 297.88,-263.82 388.12,-263.82 388.12,-321.32"/>
<text text-anchor="middle" x="343" y="-304.02" font-family="Times,serif" font-size="14.00">denom_top</text>
<text text-anchor="middle" x="343" y="-287.52" font-family="Times,serif" font-size="14.00">~</text>
<text text-anchor="middle" x="343" y="-271.02" font-family="Times,serif" font-size="14.00">Deterministic</text>
</g>
<!-- lambdas_nests&#45;&gt;denom_top -->
<g id="edge18" class="edge">
<title>lambdas_nests&#45;&gt;denom_top</title>
<path fill="none" stroke="black" d="M481.04,-380.53C455.64,-364.52 423.92,-344.54 397.29,-327.77"/>
<polygon fill="black" stroke="black" points="399.34,-324.92 389.02,-322.55 395.61,-330.85 399.34,-324.92"/>
</g>
<!-- W -->
<g id="node5" class="node">
<title>W</title>
<path fill="lightgrey" stroke="black" d="M174,-439.23C174,-439.23 144,-439.23 144,-439.23 138,-439.23 132,-433.23 132,-427.23 132,-427.23 132,-393.73 132,-393.73 132,-387.73 138,-381.73 144,-381.73 144,-381.73 174,-381.73 174,-381.73 180,-381.73 186,-387.73 186,-393.73 186,-393.73 186,-427.23 186,-427.23 186,-433.23 180,-439.23 174,-439.23"/>
<text text-anchor="middle" x="159" y="-421.93" font-family="Times,serif" font-size="14.00">W</text>
<text text-anchor="middle" x="159" y="-405.43" font-family="Times,serif" font-size="14.00">~</text>
<text text-anchor="middle" x="159" y="-388.93" font-family="Times,serif" font-size="14.00">Data</text>
</g>
<!-- w_nest -->
<g id="node8" class="node">
<title>w_nest</title>
<polygon fill="none" stroke="black" points="204.12,-321.32 113.88,-321.32 113.88,-263.82 204.12,-263.82 204.12,-321.32"/>
<text text-anchor="middle" x="159" y="-304.02" font-family="Times,serif" font-size="14.00">w_nest</text>
<text text-anchor="middle" x="159" y="-287.52" font-family="Times,serif" font-size="14.00">~</text>
<text text-anchor="middle" x="159" y="-271.02" font-family="Times,serif" font-size="14.00">Deterministic</text>
</g>
<!-- W&#45;&gt;w_nest -->
<g id="edge5" class="edge">
<title>W&#45;&gt;w_nest</title>
<path fill="none" stroke="black" d="M159,-381.42C159,-366.86 159,-348.84 159,-332.91"/>
<polygon fill="black" stroke="black" points="162.5,-333.28 159,-323.28 155.5,-333.28 162.5,-333.28"/>
</g>
<!-- betas_fixed_ -->
<g id="node6" class="node">
<title>betas_fixed_</title>
<ellipse fill="none" stroke="black" cx="270" cy="-540.29" rx="60.1" ry="40.66"/>
<text text-anchor="middle" x="270" y="-551.74" font-family="Times,serif" font-size="14.00">betas_fixed_</text>
<text text-anchor="middle" x="270" y="-535.24" font-family="Times,serif" font-size="14.00">~</text>
<text text-anchor="middle" x="270" y="-518.74" font-family="Times,serif" font-size="14.00">Normal</text>
</g>
<!-- betas_fixed_&#45;&gt;betas_fixed -->
<g id="edge3" class="edge">
<title>betas_fixed_&#45;&gt;betas_fixed</title>
<path fill="none" stroke="black" d="M270,-499.2C270,-483.8 270,-466.24 270,-450.9"/>
<polygon fill="black" stroke="black" points="273.5,-451.19 270,-441.19 266.5,-451.19 273.5,-451.19"/>
</g>
<!-- betas_fixed&#45;&gt;w_nest -->
<g id="edge4" class="edge">
<title>betas_fixed&#45;&gt;w_nest</title>
<path fill="none" stroke="black" d="M243.66,-381.25C231.11,-367.87 215.85,-351.7 202,-337.32 199.56,-334.79 197.04,-332.18 194.49,-329.56"/>
<polygon fill="black" stroke="black" points="197.39,-327.52 187.9,-322.81 192.38,-332.41 197.39,-327.52"/>
</g>
<!-- betas_fixed&#45;&gt;P_room -->
<g id="edge27" class="edge">
<title>betas_fixed&#45;&gt;P_room</title>
<path fill="none" stroke="black" d="M268.25,-381.27C266.13,-336.27 265.11,-251.26 286,-231.32 300.8,-217.18 451.02,-230.97 470,-223.32 477.41,-220.33 484.49,-215.86 490.94,-210.84"/>
<polygon fill="black" stroke="black" points="492.8,-213.85 498.16,-204.71 488.28,-208.51 492.8,-213.85"/>
</g>
<!-- betas_fixed&#45;&gt;P_central -->
<g id="edge25" class="edge">
<title>betas_fixed&#45;&gt;P_central</title>
<path fill="none" stroke="black" d="M257.61,-381.52C242.95,-343.72 224.27,-275.95 256,-231.32 279.3,-198.55 323.34,-184.91 359.32,-179.31"/>
<polygon fill="black" stroke="black" points="359.75,-182.78 369.19,-177.96 358.81,-175.84 359.75,-182.78"/>
</g>
<!-- betas_fixed&#45;&gt;denom_top -->
<g id="edge20" class="edge">
<title>betas_fixed&#45;&gt;denom_top</title>
<path fill="none" stroke="black" d="M287.67,-381.42C297.2,-366.3 309.07,-347.43 319.38,-331.07"/>
<polygon fill="black" stroke="black" points="322.06,-333.38 324.43,-323.05 316.14,-329.65 322.06,-333.38"/>
</g>
<!-- X -->
<g id="node9" class="node">
<title>X</title>
<path fill="lightgrey" stroke="black" d="M776,-569.04C776,-569.04 746,-569.04 746,-569.04 740,-569.04 734,-563.04 734,-557.04 734,-557.04 734,-523.54 734,-523.54 734,-517.54 740,-511.54 746,-511.54 746,-511.54 776,-511.54 776,-511.54 782,-511.54 788,-517.54 788,-523.54 788,-523.54 788,-557.04 788,-557.04 788,-563.04 782,-569.04 776,-569.04"/>
<text text-anchor="middle" x="761" y="-551.74" font-family="Times,serif" font-size="14.00">X</text>
<text text-anchor="middle" x="761" y="-535.24" font-family="Times,serif" font-size="14.00">~</text>
<text text-anchor="middle" x="761" y="-518.74" font-family="Times,serif" font-size="14.00">Data</text>
</g>
<!-- X&#45;&gt;U -->
<g id="edge7" class="edge">
<title>X&#45;&gt;U</title>
<path fill="none" stroke="black" d="M750.91,-511.24C744.46,-493.35 736.03,-469.9 728.95,-450.23"/>
<polygon fill="black" stroke="black" points="732.26,-449.11 725.58,-440.88 725.68,-451.48 732.26,-449.11"/>
</g>
<!-- prod_room_t -->
<g id="node20" class="node">
<title>prod_room_t</title>
<polygon fill="none" stroke="black" points="836.12,-203.41 745.88,-203.41 745.88,-145.91 836.12,-145.91 836.12,-203.41"/>
<text text-anchor="middle" x="791" y="-186.11" font-family="Times,serif" font-size="14.00">prod_room_t</text>
<text text-anchor="middle" x="791" y="-169.61" font-family="Times,serif" font-size="14.00">~</text>
<text text-anchor="middle" x="791" y="-153.11" font-family="Times,serif" font-size="14.00">Deterministic</text>
</g>
<!-- P_room&#45;&gt;prod_room_t -->
<g id="edge32" class="edge">
<title>P_room&#45;&gt;prod_room_t</title>
<path fill="none" stroke="black" d="M552.9,-203.73C560.66,-210.67 569.32,-217.68 578,-223.32 581.67,-225.7 582.72,-226.41 587,-227.32 611.56,-232.53 675.44,-232.53 700,-227.32 714.94,-224.15 729.84,-217.42 743.12,-209.81"/>
<polygon fill="black" stroke="black" points="744.91,-212.82 751.64,-204.64 741.28,-206.83 744.91,-212.82"/>
</g>
<!-- prod_central_t -->
<g id="node17" class="node">
<title>prod_central_t</title>
<polygon fill="none" stroke="black" points="1007.38,-203.41 912.62,-203.41 912.62,-145.91 1007.38,-145.91 1007.38,-203.41"/>
<text text-anchor="middle" x="960" y="-186.11" font-family="Times,serif" font-size="14.00">prod_central_t</text>
<text text-anchor="middle" x="960" y="-169.61" font-family="Times,serif" font-size="14.00">~</text>
<text text-anchor="middle" x="960" y="-153.11" font-family="Times,serif" font-size="14.00">Deterministic</text>
</g>
<!-- P_central&#45;&gt;prod_central_t -->
<g id="edge31" class="edge">
<title>P_central&#45;&gt;prod_central_t</title>
<path fill="none" stroke="black" d="M439.72,-203.9C450.37,-214.25 463.94,-224.12 479,-227.32 499.11,-231.58 828.89,-231.58 849,-227.32 867.06,-223.49 885.59,-216.23 902.21,-208.3"/>
<polygon fill="black" stroke="black" points="903.54,-211.55 910.94,-203.97 900.43,-205.28 903.54,-211.55"/>
</g>
<!-- likelihood -->
<g id="node12" class="node">
<title>likelihood</title>
<ellipse fill="lightgrey" stroke="black" cx="642" cy="-174.66" rx="55.33" ry="40.66"/>
<text text-anchor="middle" x="642" y="-186.11" font-family="Times,serif" font-size="14.00">likelihood</text>
<text text-anchor="middle" x="642" y="-169.61" font-family="Times,serif" font-size="14.00">~</text>
<text text-anchor="middle" x="642" y="-153.11" font-family="Times,serif" font-size="14.00">Categorical</text>
</g>
<!-- y -->
<g id="node13" class="node">
<title>y</title>
<path fill="lightgrey" stroke="black" d="M657,-98C657,-98 627,-98 627,-98 621,-98 615,-92 615,-86 615,-86 615,-52.5 615,-52.5 615,-46.5 621,-40.5 627,-40.5 627,-40.5 657,-40.5 657,-40.5 663,-40.5 669,-46.5 669,-52.5 669,-52.5 669,-86 669,-86 669,-92 663,-98 657,-98"/>
<text text-anchor="middle" x="642" y="-80.7" font-family="Times,serif" font-size="14.00">y</text>
<text text-anchor="middle" x="642" y="-64.2" font-family="Times,serif" font-size="14.00">~</text>
<text text-anchor="middle" x="642" y="-47.7" font-family="Times,serif" font-size="14.00">Data</text>
</g>
<!-- likelihood&#45;&gt;y -->
<g id="edge6" class="edge">
<title>likelihood&#45;&gt;y</title>
<path fill="none" stroke="black" d="M642,-133.68C642,-125.83 642,-117.6 642,-109.76"/>
<polygon fill="black" stroke="black" points="645.5,-109.79 642,-99.79 638.5,-109.79 645.5,-109.79"/>
</g>
<!-- p -->
<g id="node14" class="node">
<title>p</title>
<polygon fill="none" stroke="black" points="868.12,-439.23 777.88,-439.23 777.88,-381.73 868.12,-381.73 868.12,-439.23"/>
<text text-anchor="middle" x="823" y="-421.93" font-family="Times,serif" font-size="14.00">p</text>
<text text-anchor="middle" x="823" y="-405.43" font-family="Times,serif" font-size="14.00">~</text>
<text text-anchor="middle" x="823" y="-388.93" font-family="Times,serif" font-size="14.00">Deterministic</text>
</g>
<!-- p&#45;&gt;likelihood -->
<g id="edge36" class="edge">
<title>p&#45;&gt;likelihood</title>
<path fill="none" stroke="black" d="M808.79,-381.28C799.55,-365.86 786.05,-347.82 769,-337.32 751.7,-326.66 739.51,-342.43 724,-329.32 688.68,-299.46 712.07,-271.4 689,-231.32 686.34,-226.7 683.28,-222.09 680.03,-217.61"/>
<polygon fill="black" stroke="black" points="682.94,-215.65 674.07,-209.85 677.39,-219.92 682.94,-215.65"/>
</g>
<!-- U&#45;&gt;p_y_given_central -->
<g id="edge11" class="edge">
<title>U&#45;&gt;p_y_given_central</title>
<path fill="none" stroke="black" d="M728.46,-381.45C737.59,-365.68 751.24,-347.23 769,-337.32 786.34,-327.64 838.59,-333.52 858,-329.32 868.73,-326.99 879.88,-323.86 890.7,-320.42"/>
<polygon fill="black" stroke="black" points="891.55,-323.82 899.95,-317.36 889.35,-317.18 891.55,-323.82"/>
</g>
<!-- U&#45;&gt;I_central -->
<g id="edge13" class="edge">
<title>U&#45;&gt;I_central</title>
<path fill="none" stroke="black" d="M678.61,-381.28C658.38,-366.63 632.25,-349.32 607,-337.32 596.08,-332.13 591.93,-334.48 581,-329.32 579.54,-328.63 578.07,-327.9 576.6,-327.15"/>
<polygon fill="black" stroke="black" points="578.73,-324.32 568.28,-322.54 575.34,-330.44 578.73,-324.32"/>
</g>
<!-- U&#45;&gt;I_room -->
<g id="edge17" class="edge">
<title>U&#45;&gt;I_room</title>
<path fill="none" stroke="black" d="M695.63,-381.42C685.2,-366.3 672.18,-347.43 660.88,-331.07"/>
<polygon fill="black" stroke="black" points="663.89,-329.26 655.32,-323.01 658.12,-333.23 663.89,-329.26"/>
</g>
<!-- U&#45;&gt;p_y_given_room -->
<g id="edge15" class="edge">
<title>U&#45;&gt;p_y_given_room</title>
<path fill="none" stroke="black" d="M733.4,-381.42C743.31,-366.3 755.68,-347.43 766.41,-331.07"/>
<polygon fill="black" stroke="black" points="769.12,-333.32 771.68,-323.03 763.27,-329.48 769.12,-333.32"/>
</g>
<!-- p_y_given_central&#45;&gt;prod_central_t -->
<g id="edge30" class="edge">
<title>p_y_given_central&#45;&gt;prod_central_t</title>
<path fill="none" stroke="black" d="M960,-263.51C960,-248.95 960,-230.93 960,-215.01"/>
<polygon fill="black" stroke="black" points="963.5,-215.37 960,-205.37 956.5,-215.37 963.5,-215.37"/>
</g>
<!-- prod_central_t&#45;&gt;p -->
<g id="edge35" class="edge">
<title>prod_central_t&#45;&gt;p</title>
<path fill="none" stroke="black" d="M1005.21,-203.78C1014.02,-211.54 1022.05,-220.78 1027,-231.32 1045.5,-270.75 1051.53,-293.33 1027,-329.32 994.27,-377.35 927.96,-396.6 879.81,-404.32"/>
<polygon fill="black" stroke="black" points="879.49,-400.83 870.1,-405.74 880.5,-407.75 879.49,-400.83"/>
</g>
<!-- I_central&#45;&gt;P_central -->
<g id="edge24" class="edge">
<title>I_central&#45;&gt;P_central</title>
<path fill="none" stroke="black" d="M500.13,-263.51C485.24,-247.96 466.57,-228.47 450.6,-211.79"/>
<polygon fill="black" stroke="black" points="453.5,-209.75 444.05,-204.95 448.44,-214.6 453.5,-209.75"/>
</g>
<!-- I_central&#45;&gt;denom_top -->
<g id="edge19" class="edge">
<title>I_central&#45;&gt;denom_top</title>
<path fill="none" stroke="black" d="M481.48,-292.57C454.18,-292.57 426.87,-292.57 399.57,-292.57"/>
<polygon fill="black" stroke="black" points="399.79,-289.07 389.79,-292.57 399.79,-296.07 399.79,-289.07"/>
</g>
<!-- I_room&#45;&gt;P_room -->
<g id="edge29" class="edge">
<title>I_room&#45;&gt;P_room</title>
<path fill="none" stroke="black" d="M610.38,-263.32C601.29,-253.1 590.82,-241.56 581,-231.32 574.88,-224.93 568.25,-218.25 561.76,-211.84"/>
<polygon fill="black" stroke="black" points="564.33,-209.46 554.74,-204.95 559.43,-214.45 564.33,-209.46"/>
</g>
<!-- I_room&#45;&gt;denom_top -->
<g id="edge21" class="edge">
<title>I_room&#45;&gt;denom_top</title>
<path fill="none" stroke="black" d="M599.72,-321.63C591.17,-326.84 581.68,-331.26 572,-333.32 552.44,-337.47 501.8,-336.16 482,-333.32 454.24,-329.33 424.3,-321.09 399.34,-313.05"/>
<polygon fill="black" stroke="black" points="400.63,-309.79 390.04,-309.99 398.44,-316.44 400.63,-309.79"/>
</g>
<!-- prod_room_t&#45;&gt;p -->
<g id="edge34" class="edge">
<title>prod_room_t&#45;&gt;p</title>
<path fill="none" stroke="black" d="M833.89,-203.81C842.44,-211.62 850.24,-220.87 855,-231.32 875.57,-276.48 858.59,-333.71 842.55,-370.94"/>
<polygon fill="black" stroke="black" points="839.4,-369.42 838.49,-379.97 845.79,-372.29 839.4,-369.42"/>
</g>
<!-- p_y_given_room&#45;&gt;prod_room_t -->
<g id="edge33" class="edge">
<title>p_y_given_room&#45;&gt;prod_room_t</title>
<path fill="none" stroke="black" d="M791,-263.51C791,-248.95 791,-230.93 791,-215.01"/>
<polygon fill="black" stroke="black" points="794.5,-215.37 791,-205.37 787.5,-215.37 794.5,-215.37"/>
</g>
<!-- denom_top&#45;&gt;P_room -->
<g id="edge26" class="edge">
<title>denom_top&#45;&gt;P_room</title>
<path fill="none" stroke="black" d="M382.13,-263.58C399.26,-252.32 419.98,-239.97 440,-231.32 452.67,-225.84 457.84,-229.83 470,-223.32 476.29,-219.95 482.46,-215.71 488.26,-211.16"/>
<polygon fill="black" stroke="black" points="490.43,-213.9 495.85,-204.8 485.93,-208.54 490.43,-213.9"/>
</g>
<!-- denom_top&#45;&gt;P_central -->
<g id="edge22" class="edge">
<title>denom_top&#45;&gt;P_central</title>
<path fill="none" stroke="black" d="M360.67,-263.51C370.2,-248.39 382.07,-229.53 392.38,-213.16"/>
<polygon fill="black" stroke="black" points="395.06,-215.47 397.43,-205.14 389.14,-211.74 395.06,-215.47"/>
</g>
</g>
</svg>