<?xml version="1.0" encoding="UTF-8" standalone="no"?>
<!DOCTYPE svg PUBLIC "-//W3C//DTD SVG 1.1//EN"
 "http://www.w3.org/Graphics/SVG/1.1/DTD/svg11.dtd">
<!-- Generated by graphviz version 7.1.0 (0)
 -->
<!-- Pages: 1 -->
<svg width="323pt" height="360pt"
 viewBox="0.00 0.00 322.72 359.91" xmlns="http://www.w3.org/2000/svg" xmlns:xlink="http://www.w3.org/1999/xlink">
<g id="graph0" class="graph" transform="scale(1 1) rotate(0) translate(4 355.91)">
<polygon fill="white" stroke="none" points="-4,4 -4,-355.91 318.72,-355.91 318.72,4 -4,4"/>
<g id="clust1" class="cluster">
<title>clusteralts_intercepts (4)</title>
<path fill="none" stroke="black" d="M204.72,-229.95C204.72,-229.95 294.72,-229.95 294.72,-229.95 300.72,-229.95 306.72,-235.95 306.72,-241.95 306.72,-241.95 306.72,-331.91 306.72,-331.91 306.72,-337.91 300.72,-343.91 294.72,-343.91 294.72,-343.91 204.72,-343.91 204.72,-343.91 198.72,-343.91 192.72,-337.91 192.72,-331.91 192.72,-331.91 192.72,-241.95 192.72,-241.95 192.72,-235.95 198.72,-229.95 204.72,-229.95"/>
<text text-anchor="middle" x="249.72" y="-237.75" font-family="Times,serif" font-size="14.00">alts_intercepts (4)</text>
</g>
<g id="clust2" class="cluster">
<title>clusterobs (900) x alts_probs (5)</title>
<path fill="none" stroke="black" d="M95.72,-129.95C95.72,-129.95 229.72,-129.95 229.72,-129.95 235.72,-129.95 241.72,-135.95 241.72,-141.95 241.72,-141.95 241.72,-209.95 241.72,-209.95 241.72,-215.95 235.72,-221.95 229.72,-221.95 229.72,-221.95 95.72,-221.95 95.72,-221.95 89.72,-221.95 83.72,-215.95 83.72,-209.95 83.72,-209.95 83.72,-141.95 83.72,-141.95 83.72,-135.95 89.72,-129.95 95.72,-129.95"/>
<text text-anchor="middle" x="162.72" y="-137.75" font-family="Times,serif" font-size="14.00">obs (900) x alts_probs (5)</text>
</g>
<g id="clust3" class="cluster">
<title>clusterobs (900)</title>
<path fill="none" stroke="black" d="M90.72,-8C90.72,-8 194.72,-8 194.72,-8 200.72,-8 206.72,-14 206.72,-20 206.72,-20 206.72,-109.95 206.72,-109.95 206.72,-115.95 200.72,-121.95 194.72,-121.95 194.72,-121.95 90.72,-121.95 90.72,-121.95 84.72,-121.95 78.72,-115.95 78.72,-109.95 78.72,-109.95 78.72,-20 78.72,-20 78.72,-14 84.72,-8 90.72,-8"/>
<text text-anchor="middle" x="172.72" y="-15.8" font-family="Times,serif" font-size="14.00">obs (900)</text>
</g>
<!-- beta_oc -->
<g id="node1" class="node">
<title>beta_oc</title>
<ellipse fill="none" stroke="black" cx="41.72" cy="-298.43" rx="41.94" ry="37.45"/>
<text text-anchor="middle" x="41.72" y="-309.73" font-family="Times,serif" font-size="14.00">beta_oc</text>
<text text-anchor="middle" x="41.72" y="-294.73" font-family="Times,serif" font-size="14.00">~</text>
<text text-anchor="middle" x="41.72" y="-279.73" font-family="Times,serif" font-size="14.00">Normal</text>
</g>
<!-- p -->
<g id="node4" class="node">
<title>p</title>
<polygon fill="none" stroke="black" points="188.22,-213.95 97.22,-213.95 97.22,-160.95 188.22,-160.95 188.22,-213.95"/>
<text text-anchor="middle" x="142.72" y="-198.75" font-family="Times,serif" font-size="14.00">p</text>
<text text-anchor="middle" x="142.72" y="-183.75" font-family="Times,serif" font-size="14.00">~</text>
<text text-anchor="middle" x="142.72" y="-168.75" font-family="Times,serif" font-size="14.00">Deterministic</text>
</g>
<!-- beta_oc&#45;&gt;p -->
<g id="edge2" class="edge">
<title>beta_oc&#45;&gt;p</title>
<path fill="none" stroke="black" d="M62.83,-265.57C71.22,-253.85 81.34,-240.81 91.72,-229.95 94.36,-227.19 97.19,-224.43 100.1,-221.74"/>
<polygon fill="black" stroke="black" points="102.17,-224.58 107.34,-215.33 97.53,-219.34 102.17,-224.58"/>
</g>
<!-- beta_ic -->
<g id="node2" class="node">
<title>beta_ic</title>
<ellipse fill="none" stroke="black" cx="142.72" cy="-298.43" rx="41.94" ry="37.45"/>
<text text-anchor="middle" x="142.72" y="-309.73" font-family="Times,serif" font-size="14.00">beta_ic</text>
<text text-anchor="middle" x="142.72" y="-294.73" font-family="Times,serif" font-size="14.00">~</text>
<text text-anchor="middle" x="142.72" y="-279.73" font-family="Times,serif" font-size="14.00">Normal</text>
</g>
<!-- beta_ic&#45;&gt;p -->
<g id="edge3" class="edge">
<title>beta_ic&#45;&gt;p</title>
<path fill="none" stroke="black" d="M142.72,-260.54C142.72,-249.26 142.72,-236.86 142.72,-225.57"/>
<polygon fill="black" stroke="black" points="146.22,-225.82 142.72,-215.82 139.22,-225.82 146.22,-225.82"/>
</g>
<!-- alpha -->
<g id="node3" class="node">
<title>alpha</title>
<ellipse fill="none" stroke="black" cx="243.72" cy="-298.43" rx="41.94" ry="37.45"/>
<text text-anchor="middle" x="243.72" y="-309.73" font-family="Times,serif" font-size="14.00">alpha</text>
<text text-anchor="middle" x="243.72" y="-294.73" font-family="Times,serif" font-size="14.00">~</text>
<text text-anchor="middle" x="243.72" y="-279.73" font-family="Times,serif" font-size="14.00">Normal</text>
</g>
<!-- alpha&#45;&gt;p -->
<g id="edge1" class="edge">
<title>alpha&#45;&gt;p</title>
<path fill="none" stroke="black" d="M222.61,-265.57C214.22,-253.85 204.1,-240.81 193.72,-229.95 191.08,-227.19 188.25,-224.43 185.34,-221.74"/>
<polygon fill="black" stroke="black" points="187.91,-219.34 178.1,-215.33 183.27,-224.58 187.91,-219.34"/>
</g>
<!-- y_cat -->
<g id="node5" class="node">
<title>y_cat</title>
<ellipse fill="lightgrey" stroke="black" cx="142.72" cy="-76.48" rx="55.72" ry="37.45"/>
<text text-anchor="middle" x="142.72" y="-87.78" font-family="Times,serif" font-size="14.00">y_cat</text>
<text text-anchor="middle" x="142.72" y="-72.78" font-family="Times,serif" font-size="14.00">~</text>
<text text-anchor="middle" x="142.72" y="-57.78" font-family="Times,serif" font-size="14.00">Categorical</text>
</g>
<!-- p&#45;&gt;y_cat -->
<g id="edge4" class="edge">
<title>p&#45;&gt;y_cat</title>
<path fill="none" stroke="black" d="M142.72,-160.63C142.72,-150.13 142.72,-137.66 142.72,-125.6"/>
<polygon fill="black" stroke="black" points="146.22,-125.77 142.72,-115.77 139.22,-125.77 146.22,-125.77"/>
</g>
</g>
</svg>