<?xml version="1.0" encoding="UTF-8" standalone="no"?>
<!DOCTYPE svg PUBLIC "-//W3C//DTD SVG 1.1//EN"
 "http://www.w3.org/Graphics/SVG/1.1/DTD/svg11.dtd">
<!-- Generated by graphviz version 13.1.1 (0)
 -->
<!-- Pages: 1 -->
<svg width="1189pt" height="621pt"
 viewBox="0.00 0.00 1189.00 621.00" xmlns="http://www.w3.org/2000/svg" xmlns:xlink="http://www.w3.org/1999/xlink">
<g id="graph0" class="graph" transform="scale(1 1) rotate(0) translate(4 616.77)">
<polygon fill="white" stroke="none" points="-4,4 -4,-616.77 1185,-616.77 1185,4 -4,4"/>
<g id="clust1" class="cluster">
<title>clusterindicators_1 (3)</title>
<path fill="none" stroke="black" d="M298,-377.54C298,-377.54 396,-377.54 396,-377.54 402,-377.54 408,-383.54 408,-389.54 408,-389.54 408,-592.77 408,-592.77 408,-598.77 402,-604.77 396,-604.77 396,-604.77 298,-604.77 298,-604.77 292,-604.77 286,-598.77 286,-592.77 286,-592.77 286,-389.54 286,-389.54 286,-383.54 292,-377.54 298,-377.54"/>
<text xml:space="preserve" text-anchor="middle" x="356.88" y="-384.74" font-family="Times,serif" font-size="14.00">indicators_1 (3)</text>
</g>
<g id="clust2" class="cluster">
<title>clusterindicators_2 (3)</title>
<path fill="none" stroke="black" d="M428,-377.54C428,-377.54 526,-377.54 526,-377.54 532,-377.54 538,-383.54 538,-389.54 538,-389.54 538,-592.77 538,-592.77 538,-598.77 532,-604.77 526,-604.77 526,-604.77 428,-604.77 428,-604.77 422,-604.77 416,-598.77 416,-592.77 416,-592.77 416,-389.54 416,-389.54 416,-383.54 422,-377.54 428,-377.54"/>
<text xml:space="preserve" text-anchor="middle" x="486.88" y="-384.74" font-family="Times,serif" font-size="14.00">indicators_2 (3)</text>
</g>
<g id="clust3" class="cluster">
<title>clusterindicators_3 (3)</title>
<path fill="none" stroke="black" d="M558,-377.54C558,-377.54 656,-377.54 656,-377.54 662,-377.54 668,-383.54 668,-389.54 668,-389.54 668,-592.77 668,-592.77 668,-598.77 662,-604.77 656,-604.77 656,-604.77 558,-604.77 558,-604.77 552,-604.77 546,-598.77 546,-592.77 546,-592.77 546,-389.54 546,-389.54 546,-383.54 552,-377.54 558,-377.54"/>
<text xml:space="preserve" text-anchor="middle" x="616.88" y="-384.74" font-family="Times,serif" font-size="14.00">indicators_3 (3)</text>
</g>
<g id="clust4" class="cluster">
<title>clusterindicators_4 (3)</title>
<path fill="none" stroke="black" d="M688,-377.54C688,-377.54 786,-377.54 786,-377.54 792,-377.54 798,-383.54 798,-389.54 798,-389.54 798,-592.77 798,-592.77 798,-598.77 792,-604.77 786,-604.77 786,-604.77 688,-604.77 688,-604.77 682,-604.77 676,-598.77 676,-592.77 676,-592.77 676,-389.54 676,-389.54 676,-383.54 682,-377.54 688,-377.54"/>
<text xml:space="preserve" text-anchor="middle" x="746.88" y="-384.74" font-family="Times,serif" font-size="14.00">indicators_4 (3)</text>
</g>
<g id="clust5" class="cluster">
<title>cluster12 x 4</title>
<path fill="none" stroke="black" d="M389,-247.73C389,-247.73 471,-247.73 471,-247.73 477,-247.73 483,-253.73 483,-259.73 483,-259.73 483,-333.73 483,-333.73 483,-339.73 477,-345.73 471,-345.73 471,-345.73 389,-345.73 389,-345.73 383,-345.73 377,-339.73 377,-333.73 377,-333.73 377,-259.73 377,-259.73 377,-253.73 383,-247.73 389,-247.73"/>
<text xml:space="preserve" text-anchor="middle" x="457.75" y="-254.93" font-family="Times,serif" font-size="14.00">12 x 4</text>
</g>
<g id="clust6" class="cluster">
<title>clusterpaths (6)</title>
<path fill="none" stroke="black" d="M739,-235.82C739,-235.82 827,-235.82 827,-235.82 833,-235.82 839,-241.82 839,-247.82 839,-247.82 839,-345.63 839,-345.63 839,-351.63 833,-357.63 827,-357.63 827,-357.63 739,-357.63 739,-357.63 733,-357.63 727,-351.63 727,-345.63 727,-345.63 727,-247.82 727,-247.82 727,-241.82 733,-235.82 739,-235.82"/>
<text xml:space="preserve" text-anchor="middle" x="807" y="-243.02" font-family="Times,serif" font-size="14.00">paths (6)</text>
</g>
<g id="clust7" class="cluster">
<title>cluster10</title>
<path fill="none" stroke="black" d="M842,-365.63C842,-365.63 1002,-365.63 1002,-365.63 1008,-365.63 1014,-371.63 1014,-377.63 1014,-377.63 1014,-475.45 1014,-475.45 1014,-481.45 1008,-487.45 1002,-487.45 1002,-487.45 842,-487.45 842,-487.45 836,-487.45 830,-481.45 830,-475.45 830,-475.45 830,-377.63 830,-377.63 830,-371.63 836,-365.63 842,-365.63"/>
<text xml:space="preserve" text-anchor="middle" x="999.25" y="-372.83" font-family="Times,serif" font-size="14.00">10</text>
</g>
<g id="clust8" class="cluster">
<title>cluster4 x 4</title>
<path fill="none" stroke="black" d="M503,-247.73C503,-247.73 707,-247.73 707,-247.73 713,-247.73 719,-253.73 719,-259.73 719,-259.73 719,-333.73 719,-333.73 719,-339.73 713,-345.73 707,-345.73 707,-345.73 503,-345.73 503,-345.73 497,-345.73 491,-339.73 491,-333.73 491,-333.73 491,-259.73 491,-259.73 491,-253.73 497,-247.73 503,-247.73"/>
<text xml:space="preserve" text-anchor="middle" x="697.12" y="-254.93" font-family="Times,serif" font-size="14.00">4 x 4</text>
</g>
<g id="clust9" class="cluster">
<title>cluster4</title>
<path fill="none" stroke="black" d="M1065,-247.73C1065,-247.73 1161,-247.73 1161,-247.73 1167,-247.73 1173,-253.73 1173,-259.73 1173,-259.73 1173,-333.73 1173,-333.73 1173,-339.73 1167,-345.73 1161,-345.73 1161,-345.73 1065,-345.73 1065,-345.73 1059,-345.73 1053,-339.73 1053,-333.73 1053,-333.73 1053,-259.73 1053,-259.73 1053,-253.73 1059,-247.73 1065,-247.73"/>
<text xml:space="preserve" text-anchor="middle" x="1161.62" y="-254.93" font-family="Times,serif" font-size="14.00">4</text>
</g>
<g id="clust10" class="cluster">
<title>cluster263 x 4</title>
<path fill="none" stroke="black" d="M859,-137.82C859,-137.82 1033,-137.82 1033,-137.82 1039,-137.82 1045,-143.82 1045,-149.82 1045,-149.82 1045,-345.63 1045,-345.63 1045,-351.63 1039,-357.63 1033,-357.63 1033,-357.63 859,-357.63 859,-357.63 853,-357.63 847,-351.63 847,-345.63 847,-345.63 847,-149.82 847,-149.82 847,-143.82 853,-137.82 859,-137.82"/>
<text xml:space="preserve" text-anchor="middle" x="1016.38" y="-145.02" font-family="Times,serif" font-size="14.00">263 x 4</text>
</g>
<g id="clust11" class="cluster">
<title>clustersd_params (12)</title>
<path fill="none" stroke="black" d="M20,-365.63C20,-365.63 118,-365.63 118,-365.63 124,-365.63 130,-371.63 130,-377.63 130,-377.63 130,-475.45 130,-475.45 130,-481.45 124,-487.45 118,-487.45 118,-487.45 20,-487.45 20,-487.45 14,-487.45 8,-481.45 8,-475.45 8,-475.45 8,-377.63 8,-377.63 8,-371.63 14,-365.63 20,-365.63"/>
<text xml:space="preserve" text-anchor="middle" x="79.62" y="-372.83" font-family="Times,serif" font-size="14.00">sd_params (12)</text>
</g>
<g id="clust12" class="cluster">
<title>clustercorr_params (1)</title>
<path fill="none" stroke="black" d="M150,-365.63C150,-365.63 266,-365.63 266,-365.63 272,-365.63 278,-371.63 278,-377.63 278,-377.63 278,-475.45 278,-475.45 278,-481.45 272,-487.45 266,-487.45 266,-487.45 150,-487.45 150,-487.45 144,-487.45 138,-481.45 138,-475.45 138,-475.45 138,-377.63 138,-377.63 138,-371.63 144,-365.63 150,-365.63"/>
<text xml:space="preserve" text-anchor="middle" x="226.12" y="-372.83" font-family="Times,serif" font-size="14.00">corr_params (1)</text>
</g>
<g id="clust13" class="cluster">
<title>cluster12 x 12</title>
<path fill="none" stroke="black" d="M167,-137.82C167,-137.82 357,-137.82 357,-137.82 363,-137.82 369,-143.82 369,-149.82 369,-149.82 369,-333.73 369,-333.73 369,-339.73 363,-345.73 357,-345.73 357,-345.73 167,-345.73 167,-345.73 161,-345.73 155,-339.73 155,-333.73 155,-333.73 155,-149.82 155,-149.82 155,-143.82 161,-137.82 167,-137.82"/>
<text xml:space="preserve" text-anchor="middle" x="340.38" y="-145.02" font-family="Times,serif" font-size="14.00">12 x 12</text>
</g>
<g id="clust14" class="cluster">
<title>cluster263 x 12</title>
<path fill="none" stroke="black" d="M229,-8C229,-8 403,-8 403,-8 409,-8 415,-14 415,-20 415,-20 415,-117.82 415,-117.82 415,-123.82 409,-129.82 403,-129.82 403,-129.82 229,-129.82 229,-129.82 223,-129.82 217,-123.82 217,-117.82 217,-117.82 217,-20 217,-20 217,-14 223,-8 229,-8"/>
<text xml:space="preserve" text-anchor="middle" x="383" y="-15.2" font-family="Times,serif" font-size="14.00">263 x 12</text>
</g>
<!-- lambdas1 -->
<g id="node1" class="node">
<title>lambdas1</title>
<polygon fill="none" stroke="black" points="396.12,-467.54 305.88,-467.54 305.88,-410.04 396.12,-410.04 396.12,-467.54"/>
<text xml:space="preserve" text-anchor="middle" x="351" y="-450.24" font-family="Times,serif" font-size="14.00">lambdas1</text>
<text xml:space="preserve" text-anchor="middle" x="351" y="-433.74" font-family="Times,serif" font-size="14.00">~</text>
<text xml:space="preserve" text-anchor="middle" x="351" y="-417.24" font-family="Times,serif" font-size="14.00">Deterministic</text>
</g>
<!-- Lambda -->
<g id="node9" class="node">
<title>Lambda</title>
<polygon fill="none" stroke="black" points="475.12,-337.73 384.88,-337.73 384.88,-280.23 475.12,-280.23 475.12,-337.73"/>
<text xml:space="preserve" text-anchor="middle" x="430" y="-320.43" font-family="Times,serif" font-size="14.00">Lambda</text>
<text xml:space="preserve" text-anchor="middle" x="430" y="-303.93" font-family="Times,serif" font-size="14.00">~</text>
<text xml:space="preserve" text-anchor="middle" x="430" y="-287.43" font-family="Times,serif" font-size="14.00">Deterministic</text>
</g>
<!-- lambdas1&#45;&gt;Lambda -->
<g id="edge5" class="edge">
<title>lambdas1&#45;&gt;Lambda</title>
<path fill="none" stroke="black" d="M368.34,-409.74C379.6,-391.51 394.43,-367.53 406.72,-347.64"/>
<polygon fill="black" stroke="black" points="409.63,-349.59 411.91,-339.25 403.67,-345.91 409.63,-349.59"/>
</g>
<!-- lambdas1_ -->
<g id="node2" class="node">
<title>lambdas1_</title>
<ellipse fill="none" stroke="black" cx="347" cy="-556.11" rx="53.21" ry="40.66"/>
<text xml:space="preserve" text-anchor="middle" x="347" y="-567.56" font-family="Times,serif" font-size="14.00">lambdas1_</text>
<text xml:space="preserve" text-anchor="middle" x="347" y="-551.06" font-family="Times,serif" font-size="14.00">~</text>
<text xml:space="preserve" text-anchor="middle" x="347" y="-534.56" font-family="Times,serif" font-size="14.00">Normal</text>
</g>
<!-- lambdas1_&#45;&gt;lambdas1 -->
<g id="edge1" class="edge">
<title>lambdas1_&#45;&gt;lambdas1</title>
<path fill="none" stroke="black" d="M348.39,-515.1C348.79,-503.39 349.24,-490.61 349.64,-478.95"/>
<polygon fill="black" stroke="black" points="353.13,-479.38 349.98,-469.27 346.13,-479.14 353.13,-479.38"/>
</g>
<!-- lambdas2_ -->
<g id="node3" class="node">
<title>lambdas2_</title>
<ellipse fill="none" stroke="black" cx="477" cy="-556.11" rx="53.21" ry="40.66"/>
<text xml:space="preserve" text-anchor="middle" x="477" y="-567.56" font-family="Times,serif" font-size="14.00">lambdas2_</text>
<text xml:space="preserve" text-anchor="middle" x="477" y="-551.06" font-family="Times,serif" font-size="14.00">~</text>
<text xml:space="preserve" text-anchor="middle" x="477" y="-534.56" font-family="Times,serif" font-size="14.00">Normal</text>
</g>
<!-- lambdas2 -->
<g id="node4" class="node">
<title>lambdas2</title>
<polygon fill="none" stroke="black" points="518.12,-467.54 427.88,-467.54 427.88,-410.04 518.12,-410.04 518.12,-467.54"/>
<text xml:space="preserve" text-anchor="middle" x="473" y="-450.24" font-family="Times,serif" font-size="14.00">lambdas2</text>
<text xml:space="preserve" text-anchor="middle" x="473" y="-433.74" font-family="Times,serif" font-size="14.00">~</text>
<text xml:space="preserve" text-anchor="middle" x="473" y="-417.24" font-family="Times,serif" font-size="14.00">Deterministic</text>
</g>
<!-- lambdas2_&#45;&gt;lambdas2 -->
<g id="edge2" class="edge">
<title>lambdas2_&#45;&gt;lambdas2</title>
<path fill="none" stroke="black" d="M475.61,-515.1C475.21,-503.39 474.76,-490.61 474.36,-478.95"/>
<polygon fill="black" stroke="black" points="477.87,-479.14 474.02,-469.27 470.87,-479.38 477.87,-479.14"/>
</g>
<!-- lambdas2&#45;&gt;Lambda -->
<g id="edge7" class="edge">
<title>lambdas2&#45;&gt;Lambda</title>
<path fill="none" stroke="black" d="M463.56,-409.74C457.54,-391.85 449.65,-368.4 443.04,-348.73"/>
<polygon fill="black" stroke="black" points="446.4,-347.76 439.9,-339.4 439.77,-349.99 446.4,-347.76"/>
</g>
<!-- lambdas3_ -->
<g id="node5" class="node">
<title>lambdas3_</title>
<ellipse fill="none" stroke="black" cx="607" cy="-556.11" rx="53.21" ry="40.66"/>
<text xml:space="preserve" text-anchor="middle" x="607" y="-567.56" font-family="Times,serif" font-size="14.00">lambdas3_</text>
<text xml:space="preserve" text-anchor="middle" x="607" y="-551.06" font-family="Times,serif" font-size="14.00">~</text>
<text xml:space="preserve" text-anchor="middle" x="607" y="-534.56" font-family="Times,serif" font-size="14.00">Normal</text>
</g>
<!-- lambdas3 -->
<g id="node6" class="node">
<title>lambdas3</title>
<polygon fill="none" stroke="black" points="648.12,-467.54 557.88,-467.54 557.88,-410.04 648.12,-410.04 648.12,-467.54"/>
<text xml:space="preserve" text-anchor="middle" x="603" y="-450.24" font-family="Times,serif" font-size="14.00">lambdas3</text>
<text xml:space="preserve" text-anchor="middle" x="603" y="-433.74" font-family="Times,serif" font-size="14.00">~</text>
<text xml:space="preserve" text-anchor="middle" x="603" y="-417.24" font-family="Times,serif" font-size="14.00">Deterministic</text>
</g>
<!-- lambdas3_&#45;&gt;lambdas3 -->
<g id="edge3" class="edge">
<title>lambdas3_&#45;&gt;lambdas3</title>
<path fill="none" stroke="black" d="M605.61,-515.1C605.21,-503.39 604.76,-490.61 604.36,-478.95"/>
<polygon fill="black" stroke="black" points="607.87,-479.14 604.02,-469.27 600.87,-479.38 607.87,-479.14"/>
</g>
<!-- lambdas3&#45;&gt;Lambda -->
<g id="edge6" class="edge">
<title>lambdas3&#45;&gt;Lambda</title>
<path fill="none" stroke="black" d="M586.52,-409.72C575.85,-394.15 560.5,-375.9 542,-365.63 520.4,-353.65 509.55,-367.72 487,-357.63 479.71,-354.38 472.62,-349.91 466.05,-345.01"/>
<polygon fill="black" stroke="black" points="468.63,-342.59 458.63,-339.07 464.25,-348.05 468.63,-342.59"/>
</g>
<!-- lambdas4_ -->
<g id="node7" class="node">
<title>lambdas4_</title>
<ellipse fill="none" stroke="black" cx="737" cy="-556.11" rx="53.21" ry="40.66"/>
<text xml:space="preserve" text-anchor="middle" x="737" y="-567.56" font-family="Times,serif" font-size="14.00">lambdas4_</text>
<text xml:space="preserve" text-anchor="middle" x="737" y="-551.06" font-family="Times,serif" font-size="14.00">~</text>
<text xml:space="preserve" text-anchor="middle" x="737" y="-534.56" font-family="Times,serif" font-size="14.00">Normal</text>
</g>
<!-- lambdas4 -->
<g id="node8" class="node">
<title>lambdas4</title>
<polygon fill="none" stroke="black" points="778.12,-467.54 687.88,-467.54 687.88,-410.04 778.12,-410.04 778.12,-467.54"/>
<text xml:space="preserve" text-anchor="middle" x="733" y="-450.24" font-family="Times,serif" font-size="14.00">lambdas4</text>
<text xml:space="preserve" text-anchor="middle" x="733" y="-433.74" font-family="Times,serif" font-size="14.00">~</text>
<text xml:space="preserve" text-anchor="middle" x="733" y="-417.24" font-family="Times,serif" font-size="14.00">Deterministic</text>
</g>
<!-- lambdas4_&#45;&gt;lambdas4 -->
<g id="edge4" class="edge">
<title>lambdas4_&#45;&gt;lambdas4</title>
<path fill="none" stroke="black" d="M735.61,-515.1C735.21,-503.39 734.76,-490.61 734.36,-478.95"/>
<polygon fill="black" stroke="black" points="737.87,-479.14 734.02,-469.27 730.87,-479.38 737.87,-479.14"/>
</g>
<!-- lambdas4&#45;&gt;Lambda -->
<g id="edge8" class="edge">
<title>lambdas4&#45;&gt;Lambda</title>
<path fill="none" stroke="black" d="M717.37,-409.75C706.81,-393.77 691.29,-375.1 672,-365.63 635.06,-347.51 525.37,-372.51 487,-357.63 479.31,-354.65 471.91,-350.19 465.12,-345.17"/>
<polygon fill="black" stroke="black" points="467.46,-342.55 457.47,-339.01 463.07,-348.01 467.46,-342.55"/>
</g>
<!-- Sigma_y -->
<g id="node20" class="node">
<title>Sigma_y</title>
<polygon fill="none" stroke="black" points="361.12,-227.82 270.88,-227.82 270.88,-170.32 361.12,-170.32 361.12,-227.82"/>
<text xml:space="preserve" text-anchor="middle" x="316" y="-210.52" font-family="Times,serif" font-size="14.00">Sigma_y</text>
<text xml:space="preserve" text-anchor="middle" x="316" y="-194.02" font-family="Times,serif" font-size="14.00">~</text>
<text xml:space="preserve" text-anchor="middle" x="316" y="-177.52" font-family="Times,serif" font-size="14.00">Deterministic</text>
</g>
<!-- Lambda&#45;&gt;Sigma_y -->
<g id="edge20" class="edge">
<title>Lambda&#45;&gt;Sigma_y</title>
<path fill="none" stroke="black" d="M411.41,-280.05C401.12,-265.82 387.5,-248.82 373,-235.82 372.11,-235.02 371.2,-234.22 370.27,-233.44"/>
<polygon fill="black" stroke="black" points="372.76,-230.94 362.73,-227.53 368.44,-236.45 372.76,-230.94"/>
</g>
<!-- mu_betas -->
<g id="node10" class="node">
<title>mu_betas</title>
<ellipse fill="none" stroke="black" cx="783" cy="-308.98" rx="48.44" ry="40.66"/>
<text xml:space="preserve" text-anchor="middle" x="783" y="-320.43" font-family="Times,serif" font-size="14.00">mu_betas</text>
<text xml:space="preserve" text-anchor="middle" x="783" y="-303.93" font-family="Times,serif" font-size="14.00">~</text>
<text xml:space="preserve" text-anchor="middle" x="783" y="-287.43" font-family="Times,serif" font-size="14.00">Normal</text>
</g>
<!-- ksi -->
<g id="node16" class="node">
<title>ksi</title>
<polygon fill="none" stroke="black" points="968.12,-227.82 877.88,-227.82 877.88,-170.32 968.12,-170.32 968.12,-227.82"/>
<text xml:space="preserve" text-anchor="middle" x="923" y="-210.52" font-family="Times,serif" font-size="14.00">ksi</text>
<text xml:space="preserve" text-anchor="middle" x="923" y="-194.02" font-family="Times,serif" font-size="14.00">~</text>
<text xml:space="preserve" text-anchor="middle" x="923" y="-177.52" font-family="Times,serif" font-size="14.00">Deterministic</text>
</g>
<!-- mu_betas&#45;&gt;ksi -->
<g id="edge14" class="edge">
<title>mu_betas&#45;&gt;ksi</title>
<path fill="none" stroke="black" d="M806.77,-273.06C816.82,-260.15 829.37,-246.15 843,-235.82 850.33,-230.26 858.65,-225.34 867.09,-221.06"/>
<polygon fill="black" stroke="black" points="868.5,-224.26 876.03,-216.8 865.49,-217.94 868.5,-224.26"/>
</g>
<!-- mu_betas&#45;&gt;Sigma_y -->
<g id="edge19" class="edge">
<title>mu_betas&#45;&gt;Sigma_y</title>
<path fill="none" stroke="black" d="M761.93,-272.07C751.95,-258.36 738.73,-244.06 723,-235.82 663.6,-204.71 469.95,-200.05 372.74,-199.74"/>
<polygon fill="black" stroke="black" points="372.9,-196.24 362.89,-199.73 372.89,-203.24 372.9,-196.24"/>
</g>
<!-- chol_latent -->
<g id="node11" class="node">
<title>chol_latent</title>
<ellipse fill="none" stroke="black" cx="922" cy="-438.79" rx="84.5" ry="40.66"/>
<text xml:space="preserve" text-anchor="middle" x="922" y="-450.24" font-family="Times,serif" font-size="14.00">chol_latent</text>
<text xml:space="preserve" text-anchor="middle" x="922" y="-433.74" font-family="Times,serif" font-size="14.00">~</text>
<text xml:space="preserve" text-anchor="middle" x="922" y="-417.24" font-family="Times,serif" font-size="14.00">_LKJCholeskyCov</text>
</g>
<!-- Psi_zeta -->
<g id="node12" class="node">
<title>Psi_zeta</title>
<polygon fill="none" stroke="black" points="589.12,-337.73 498.88,-337.73 498.88,-280.23 589.12,-280.23 589.12,-337.73"/>
<text xml:space="preserve" text-anchor="middle" x="544" y="-320.43" font-family="Times,serif" font-size="14.00">Psi_zeta</text>
<text xml:space="preserve" text-anchor="middle" x="544" y="-303.93" font-family="Times,serif" font-size="14.00">~</text>
<text xml:space="preserve" text-anchor="middle" x="544" y="-287.43" font-family="Times,serif" font-size="14.00">Deterministic</text>
</g>
<!-- chol_latent&#45;&gt;Psi_zeta -->
<g id="edge11" class="edge">
<title>chol_latent&#45;&gt;Psi_zeta</title>
<path fill="none" stroke="black" d="M877.83,-403.9C856.19,-389.28 829.02,-373.71 802,-365.63 758.53,-352.65 640.11,-374.51 598,-357.63 590.58,-354.66 583.5,-350.2 577.05,-345.18"/>
<polygon fill="black" stroke="black" points="579.71,-342.85 569.82,-339.05 575.19,-348.19 579.71,-342.85"/>
</g>
<!-- chol_latent_corr -->
<g id="node13" class="node">
<title>chol_latent_corr</title>
<polygon fill="none" stroke="black" points="711.25,-337.73 606.75,-337.73 606.75,-280.23 711.25,-280.23 711.25,-337.73"/>
<text xml:space="preserve" text-anchor="middle" x="659" y="-320.43" font-family="Times,serif" font-size="14.00">chol_latent_corr</text>
<text xml:space="preserve" text-anchor="middle" x="659" y="-303.93" font-family="Times,serif" font-size="14.00">~</text>
<text xml:space="preserve" text-anchor="middle" x="659" y="-287.43" font-family="Times,serif" font-size="14.00">Deterministic</text>
</g>
<!-- chol_latent&#45;&gt;chol_latent_corr -->
<g id="edge9" class="edge">
<title>chol_latent&#45;&gt;chol_latent_corr</title>
<path fill="none" stroke="black" d="M876.75,-404.08C855.2,-389.78 828.41,-374.42 802,-365.63 768.51,-354.49 755.9,-370.41 723,-357.63 714.74,-354.43 706.61,-349.84 699.06,-344.77"/>
<polygon fill="black" stroke="black" points="701.24,-342.03 691.07,-339.04 697.16,-347.72 701.24,-342.03"/>
</g>
<!-- chol_latent_stds -->
<g id="node14" class="node">
<title>chol_latent_stds</title>
<polygon fill="none" stroke="black" points="1164.88,-337.73 1061.12,-337.73 1061.12,-280.23 1164.88,-280.23 1164.88,-337.73"/>
<text xml:space="preserve" text-anchor="middle" x="1113" y="-320.43" font-family="Times,serif" font-size="14.00">chol_latent_stds</text>
<text xml:space="preserve" text-anchor="middle" x="1113" y="-303.93" font-family="Times,serif" font-size="14.00">~</text>
<text xml:space="preserve" text-anchor="middle" x="1113" y="-287.43" font-family="Times,serif" font-size="14.00">Deterministic</text>
</g>
<!-- chol_latent&#45;&gt;chol_latent_stds -->
<g id="edge10" class="edge">
<title>chol_latent&#45;&gt;chol_latent_stds</title>
<path fill="none" stroke="black" d="M973.87,-406.31C997.12,-391.88 1024.71,-374.31 1049,-357.63 1054.85,-353.62 1060.91,-349.31 1066.88,-344.97"/>
<polygon fill="black" stroke="black" points="1068.91,-347.82 1074.9,-339.08 1064.77,-342.18 1068.91,-347.82"/>
</g>
<!-- zeta -->
<g id="node15" class="node">
<title>zeta</title>
<ellipse fill="none" stroke="black" cx="946" cy="-308.98" rx="91.39" ry="40.66"/>
<text xml:space="preserve" text-anchor="middle" x="946" y="-320.43" font-family="Times,serif" font-size="14.00">zeta</text>
<text xml:space="preserve" text-anchor="middle" x="946" y="-303.93" font-family="Times,serif" font-size="14.00">~</text>
<text xml:space="preserve" text-anchor="middle" x="946" y="-287.43" font-family="Times,serif" font-size="14.00">Multivariate_normal</text>
</g>
<!-- chol_latent&#45;&gt;zeta -->
<g id="edge12" class="edge">
<title>chol_latent&#45;&gt;zeta</title>
<path fill="none" stroke="black" d="M929.46,-398.05C931.67,-386.27 934.13,-373.2 936.45,-360.82"/>
<polygon fill="black" stroke="black" points="939.86,-361.65 938.26,-351.18 932.98,-360.36 939.86,-361.65"/>
</g>
<!-- Psi_zeta&#45;&gt;Sigma_y -->
<g id="edge21" class="edge">
<title>Psi_zeta&#45;&gt;Sigma_y</title>
<path fill="none" stroke="black" d="M528.53,-279.96C518.63,-264.61 504.38,-246.57 487,-235.82 452.67,-214.57 407.82,-205.76 372.66,-202.19"/>
<polygon fill="black" stroke="black" points="373.39,-198.74 363.12,-201.34 372.77,-205.71 373.39,-198.74"/>
</g>
<!-- zeta&#45;&gt;ksi -->
<g id="edge13" class="edge">
<title>zeta&#45;&gt;ksi</title>
<path fill="none" stroke="black" d="M937.5,-268.1C935.48,-258.63 933.33,-248.53 931.32,-239.09"/>
<polygon fill="black" stroke="black" points="934.78,-238.52 929.27,-229.47 927.93,-239.98 934.78,-238.52"/>
</g>
<!-- Psi_cov_ -->
<g id="node17" class="node">
<title>Psi_cov_</title>
<ellipse fill="none" stroke="black" cx="69" cy="-438.79" rx="53.21" ry="40.66"/>
<text xml:space="preserve" text-anchor="middle" x="69" y="-450.24" font-family="Times,serif" font-size="14.00">Psi_cov_</text>
<text xml:space="preserve" text-anchor="middle" x="69" y="-433.74" font-family="Times,serif" font-size="14.00">~</text>
<text xml:space="preserve" text-anchor="middle" x="69" y="-417.24" font-family="Times,serif" font-size="14.00">Invgamma</text>
</g>
<!-- Psi_cov -->
<g id="node19" class="node">
<title>Psi_cov</title>
<polygon fill="none" stroke="black" points="253.12,-337.73 162.88,-337.73 162.88,-280.23 253.12,-280.23 253.12,-337.73"/>
<text xml:space="preserve" text-anchor="middle" x="208" y="-320.43" font-family="Times,serif" font-size="14.00">Psi_cov</text>
<text xml:space="preserve" text-anchor="middle" x="208" y="-303.93" font-family="Times,serif" font-size="14.00">~</text>
<text xml:space="preserve" text-anchor="middle" x="208" y="-287.43" font-family="Times,serif" font-size="14.00">Deterministic</text>
</g>
<!-- Psi_cov_&#45;&gt;Psi_cov -->
<g id="edge17" class="edge">
<title>Psi_cov_&#45;&gt;Psi_cov</title>
<path fill="none" stroke="black" d="M97.17,-403.84C108.17,-391.33 121.19,-377.36 134,-365.63 141.66,-358.62 150.17,-351.6 158.61,-345.02"/>
<polygon fill="black" stroke="black" points="160.68,-347.85 166.5,-339 156.43,-342.29 160.68,-347.85"/>
</g>
<!-- Psi_cov_beta -->
<g id="node18" class="node">
<title>Psi_cov_beta</title>
<ellipse fill="none" stroke="black" cx="208" cy="-438.79" rx="62.23" ry="40.66"/>
<text xml:space="preserve" text-anchor="middle" x="208" y="-450.24" font-family="Times,serif" font-size="14.00">Psi_cov_beta</text>
<text xml:space="preserve" text-anchor="middle" x="208" y="-433.74" font-family="Times,serif" font-size="14.00">~</text>
<text xml:space="preserve" text-anchor="middle" x="208" y="-417.24" font-family="Times,serif" font-size="14.00">Beta</text>
</g>
<!-- Psi_cov_beta&#45;&gt;Psi_cov -->
<g id="edge16" class="edge">
<title>Psi_cov_beta&#45;&gt;Psi_cov</title>
<path fill="none" stroke="black" d="M208,-397.7C208,-382.3 208,-364.74 208,-349.4"/>
<polygon fill="black" stroke="black" points="211.5,-349.69 208,-339.69 204.5,-349.69 211.5,-349.69"/>
</g>
<!-- Psi_corr -->
<g id="node21" class="node">
<title>Psi_corr</title>
<polygon fill="none" stroke="black" points="361.12,-337.73 270.88,-337.73 270.88,-280.23 361.12,-280.23 361.12,-337.73"/>
<text xml:space="preserve" text-anchor="middle" x="316" y="-320.43" font-family="Times,serif" font-size="14.00">Psi_corr</text>
<text xml:space="preserve" text-anchor="middle" x="316" y="-303.93" font-family="Times,serif" font-size="14.00">~</text>
<text xml:space="preserve" text-anchor="middle" x="316" y="-287.43" font-family="Times,serif" font-size="14.00">Deterministic</text>
</g>
<!-- Psi_cov_beta&#45;&gt;Psi_corr -->
<g id="edge15" class="edge">
<title>Psi_cov_beta&#45;&gt;Psi_corr</title>
<path fill="none" stroke="black" d="M237.51,-402.87C252.32,-385.33 270.26,-364.11 285.24,-346.38"/>
<polygon fill="black" stroke="black" points="287.57,-349.04 291.36,-339.14 282.23,-344.52 287.57,-349.04"/>
</g>
<!-- Psi_cov&#45;&gt;Sigma_y -->
<g id="edge18" class="edge">
<title>Psi_cov&#45;&gt;Sigma_y</title>
<path fill="none" stroke="black" d="M225.73,-279.78C235.42,-265.64 248.23,-248.81 262,-235.82 262.09,-235.74 262.17,-235.65 262.26,-235.57"/>
<polygon fill="black" stroke="black" points="264.42,-238.33 269.73,-229.16 259.86,-233.02 264.42,-238.33"/>
</g>
<!-- likelihood -->
<g id="node22" class="node">
<title>likelihood</title>
<ellipse fill="lightgrey" stroke="black" cx="316" cy="-81.16" rx="91.39" ry="40.66"/>
<text xml:space="preserve" text-anchor="middle" x="316" y="-92.61" font-family="Times,serif" font-size="14.00">likelihood</text>
<text xml:space="preserve" text-anchor="middle" x="316" y="-76.11" font-family="Times,serif" font-size="14.00">~</text>
<text xml:space="preserve" text-anchor="middle" x="316" y="-59.61" font-family="Times,serif" font-size="14.00">Multivariate_normal</text>
</g>
<!-- Sigma_y&#45;&gt;likelihood -->
<g id="edge22" class="edge">
<title>Sigma_y&#45;&gt;likelihood</title>
<path fill="none" stroke="black" d="M316,-170.01C316,-159.03 316,-146.08 316,-133.55"/>
<polygon fill="black" stroke="black" points="319.5,-133.74 316,-123.74 312.5,-133.74 319.5,-133.74"/>
</g>
</g>
</svg>
