<?xml version="1.0" encoding="UTF-8" standalone="no"?>
<!DOCTYPE svg PUBLIC "-//W3C//DTD SVG 1.1//EN"
 "http://www.w3.org/Graphics/SVG/1.1/DTD/svg11.dtd">
<!-- Generated by graphviz version 12.0.0 (0)
 -->
<!-- Pages: 1 -->
<svg width="881pt" height="633pt"
 viewBox="0.00 0.00 881.00 633.27" xmlns="http://www.w3.org/2000/svg" xmlns:xlink="http://www.w3.org/1999/xlink">
<g id="graph0" class="graph" transform="scale(1 1) rotate(0) translate(4 629.27)">
<polygon fill="white" stroke="none" points="-4,4 -4,-629.27 877,-629.27 877,4 -4,4"/>
<g id="clust1" class="cluster">
<title>clusterindicators_1 (3)</title>
<path fill="none" stroke="black" d="M755,-259.63C755,-259.63 853,-259.63 853,-259.63 859,-259.63 865,-265.63 865,-271.63 865,-271.63 865,-475.45 865,-475.45 865,-481.45 859,-487.45 853,-487.45 853,-487.45 755,-487.45 755,-487.45 749,-487.45 743,-481.45 743,-475.45 743,-475.45 743,-271.63 743,-271.63 743,-265.63 749,-259.63 755,-259.63"/>
<text text-anchor="middle" x="813.88" y="-266.83" font-family="Times,serif" font-size="14.00">indicators_1 (3)</text>
</g>
<g id="clust2" class="cluster">
<title>clusterindicators_2 (3)</title>
<path fill="none" stroke="black" d="M20,-259.63C20,-259.63 118,-259.63 118,-259.63 124,-259.63 130,-265.63 130,-271.63 130,-271.63 130,-475.45 130,-475.45 130,-481.45 124,-487.45 118,-487.45 118,-487.45 20,-487.45 20,-487.45 14,-487.45 8,-481.45 8,-475.45 8,-475.45 8,-271.63 8,-271.63 8,-265.63 14,-259.63 20,-259.63"/>
<text text-anchor="middle" x="78.88" y="-266.83" font-family="Times,serif" font-size="14.00">indicators_2 (3)</text>
</g>
<g id="clust3" class="cluster">
<title>clusterindicators_3 (3)</title>
<path fill="none" stroke="black" d="M150,-259.63C150,-259.63 248,-259.63 248,-259.63 254,-259.63 260,-265.63 260,-271.63 260,-271.63 260,-475.45 260,-475.45 260,-481.45 254,-487.45 248,-487.45 248,-487.45 150,-487.45 150,-487.45 144,-487.45 138,-481.45 138,-475.45 138,-475.45 138,-271.63 138,-271.63 138,-265.63 144,-259.63 150,-259.63"/>
<text text-anchor="middle" x="208.88" y="-266.83" font-family="Times,serif" font-size="14.00">indicators_3 (3)</text>
</g>
<g id="clust4" class="cluster">
<title>cluster6</title>
<path fill="none" stroke="black" d="M461,-495.45C461,-495.45 621,-495.45 621,-495.45 627,-495.45 633,-501.45 633,-507.45 633,-507.45 633,-605.27 633,-605.27 633,-611.27 627,-617.27 621,-617.27 621,-617.27 461,-617.27 461,-617.27 455,-617.27 449,-611.27 449,-605.27 449,-605.27 449,-507.45 449,-507.45 449,-501.45 455,-495.45 461,-495.45"/>
<text text-anchor="middle" x="621.62" y="-502.65" font-family="Times,serif" font-size="14.00">6</text>
</g>
<g id="clust5" class="cluster">
<title>cluster3 x 3</title>
<path fill="none" stroke="black" d="M280,-377.54C280,-377.54 366,-377.54 366,-377.54 372,-377.54 378,-383.54 378,-389.54 378,-389.54 378,-463.54 378,-463.54 378,-469.54 372,-475.54 366,-475.54 366,-475.54 280,-475.54 280,-475.54 274,-475.54 268,-469.54 268,-463.54 268,-463.54 268,-389.54 268,-389.54 268,-383.54 274,-377.54 280,-377.54"/>
<text text-anchor="middle" x="356.12" y="-384.74" font-family="Times,serif" font-size="14.00">3 x 3</text>
</g>
<g id="clust6" class="cluster">
<title>cluster3</title>
<path fill="none" stroke="black" d="M398,-365.63C398,-365.63 584,-365.63 584,-365.63 590,-365.63 596,-371.63 596,-377.63 596,-377.63 596,-475.45 596,-475.45 596,-481.45 590,-487.45 584,-487.45 584,-487.45 398,-487.45 398,-487.45 392,-487.45 386,-481.45 386,-475.45 386,-475.45 386,-377.63 386,-377.63 386,-371.63 392,-365.63 398,-365.63"/>
<text text-anchor="middle" x="584.62" y="-372.83" font-family="Times,serif" font-size="14.00">3</text>
</g>
<g id="clust7" class="cluster">
<title>clusterobs (500) x latent (3)</title>
<path fill="none" stroke="black" d="M616,-365.63C616,-365.63 723,-365.63 723,-365.63 729,-365.63 735,-371.63 735,-377.63 735,-377.63 735,-475.45 735,-475.45 735,-481.45 729,-487.45 723,-487.45 723,-487.45 616,-487.45 616,-487.45 610,-487.45 604,-481.45 604,-475.45 604,-475.45 604,-377.63 604,-377.63 604,-371.63 610,-365.63 616,-365.63"/>
<text text-anchor="middle" x="669.25" y="-372.83" font-family="Times,serif" font-size="14.00">obs (500) x latent (3)</text>
</g>
<g id="clust8" class="cluster">
<title>cluster500 x 3</title>
<path fill="none" stroke="black" d="M381,-259.63C381,-259.63 547,-259.63 547,-259.63 553,-259.63 559,-265.63 559,-271.63 559,-271.63 559,-345.63 559,-345.63 559,-351.63 553,-357.63 547,-357.63 547,-357.63 381,-357.63 381,-357.63 375,-357.63 369,-351.63 369,-345.63 369,-345.63 369,-271.63 369,-271.63 369,-265.63 375,-259.63 381,-259.63"/>
<text text-anchor="middle" x="530.38" y="-266.83" font-family="Times,serif" font-size="14.00">500 x 3</text>
</g>
<g id="clust9" class="cluster">
<title>cluster500 x 9</title>
<path fill="none" stroke="black" d="M418,-8C418,-8 510,-8 510,-8 516,-8 522,-14 522,-20 522,-20 522,-227.73 522,-227.73 522,-233.73 516,-239.73 510,-239.73 510,-239.73 418,-239.73 418,-239.73 412,-239.73 406,-233.73 406,-227.73 406,-227.73 406,-20 406,-20 406,-14 412,-8 418,-8"/>
<text text-anchor="middle" x="493.38" y="-15.2" font-family="Times,serif" font-size="14.00">500 x 9</text>
</g>
<g id="clust10" class="cluster">
<title>clusterindicators (9)</title>
<path fill="none" stroke="black" d="M284,-129.82C284,-129.82 386,-129.82 386,-129.82 392,-129.82 398,-135.82 398,-141.82 398,-141.82 398,-239.63 398,-239.63 398,-245.63 392,-251.63 386,-251.63 386,-251.63 284,-251.63 284,-251.63 278,-251.63 272,-245.63 272,-239.63 272,-239.63 272,-141.82 272,-141.82 272,-135.82 278,-129.82 284,-129.82"/>
<text text-anchor="middle" x="353.62" y="-137.02" font-family="Times,serif" font-size="14.00">indicators (9)</text>
</g>
<!-- lambdas1 -->
<g id="node1" class="node">
<title>lambdas1</title>
<polygon fill="none" stroke="black" points="845.12,-349.63 754.88,-349.63 754.88,-292.13 845.12,-292.13 845.12,-349.63"/>
<text text-anchor="middle" x="800" y="-332.33" font-family="Times,serif" font-size="14.00">lambdas1</text>
<text text-anchor="middle" x="800" y="-315.83" font-family="Times,serif" font-size="14.00">~</text>
<text text-anchor="middle" x="800" y="-299.33" font-family="Times,serif" font-size="14.00">Deterministic</text>
</g>
<!-- mu -->
<g id="node13" class="node">
<title>mu</title>
<polygon fill="none" stroke="black" points="509.12,-231.73 418.88,-231.73 418.88,-174.23 509.12,-174.23 509.12,-231.73"/>
<text text-anchor="middle" x="464" y="-214.43" font-family="Times,serif" font-size="14.00">mu</text>
<text text-anchor="middle" x="464" y="-197.93" font-family="Times,serif" font-size="14.00">~</text>
<text text-anchor="middle" x="464" y="-181.43" font-family="Times,serif" font-size="14.00">Deterministic</text>
</g>
<!-- lambdas1&#45;&gt;mu -->
<g id="edge12" class="edge">
<title>lambdas1&#45;&gt;mu</title>
<path fill="none" stroke="black" d="M754.45,-300.16C725.17,-287.8 686.16,-271.94 651,-259.63 607.5,-244.4 557.41,-229.64 520.03,-219.15"/>
<polygon fill="black" stroke="black" points="521.38,-215.89 510.81,-216.58 519.5,-222.64 521.38,-215.89"/>
</g>
<!-- lambdas1_ -->
<g id="node2" class="node">
<title>lambdas1_</title>
<ellipse fill="none" stroke="black" cx="804" cy="-438.79" rx="53.21" ry="40.66"/>
<text text-anchor="middle" x="804" y="-450.24" font-family="Times,serif" font-size="14.00">lambdas1_</text>
<text text-anchor="middle" x="804" y="-433.74" font-family="Times,serif" font-size="14.00">~</text>
<text text-anchor="middle" x="804" y="-417.24" font-family="Times,serif" font-size="14.00">Normal</text>
</g>
<!-- lambdas1_&#45;&gt;lambdas1 -->
<g id="edge1" class="edge">
<title>lambdas1_&#45;&gt;lambdas1</title>
<path fill="none" stroke="black" d="M802.62,-397.9C802.21,-386.02 801.76,-373.01 801.36,-361.16"/>
<polygon fill="black" stroke="black" points="804.86,-361.17 801.02,-351.3 797.86,-361.42 804.86,-361.17"/>
</g>
<!-- lambdas2 -->
<g id="node3" class="node">
<title>lambdas2</title>
<polygon fill="none" stroke="black" points="118.12,-349.63 27.88,-349.63 27.88,-292.13 118.12,-292.13 118.12,-349.63"/>
<text text-anchor="middle" x="73" y="-332.33" font-family="Times,serif" font-size="14.00">lambdas2</text>
<text text-anchor="middle" x="73" y="-315.83" font-family="Times,serif" font-size="14.00">~</text>
<text text-anchor="middle" x="73" y="-299.33" font-family="Times,serif" font-size="14.00">Deterministic</text>
</g>
<!-- lambdas2&#45;&gt;mu -->
<g id="edge11" class="edge">
<title>lambdas2&#45;&gt;mu</title>
<path fill="none" stroke="black" d="M93.26,-291.95C103.87,-279.66 117.99,-266.49 134,-259.63 161.39,-247.91 373.94,-261.64 402,-251.63 410.36,-248.65 418.5,-244.08 425.98,-238.93"/>
<polygon fill="black" stroke="black" points="427.91,-241.85 433.85,-233.08 423.74,-236.24 427.91,-241.85"/>
</g>
<!-- lambdas2_ -->
<g id="node4" class="node">
<title>lambdas2_</title>
<ellipse fill="none" stroke="black" cx="69" cy="-438.79" rx="53.21" ry="40.66"/>
<text text-anchor="middle" x="69" y="-450.24" font-family="Times,serif" font-size="14.00">lambdas2_</text>
<text text-anchor="middle" x="69" y="-433.74" font-family="Times,serif" font-size="14.00">~</text>
<text text-anchor="middle" x="69" y="-417.24" font-family="Times,serif" font-size="14.00">Normal</text>
</g>
<!-- lambdas2_&#45;&gt;lambdas2 -->
<g id="edge2" class="edge">
<title>lambdas2_&#45;&gt;lambdas2</title>
<path fill="none" stroke="black" d="M70.38,-397.9C70.79,-386.02 71.24,-373.01 71.64,-361.16"/>
<polygon fill="black" stroke="black" points="75.14,-361.42 71.98,-351.3 68.14,-361.17 75.14,-361.42"/>
</g>
<!-- lambdas3 -->
<g id="node5" class="node">
<title>lambdas3</title>
<polygon fill="none" stroke="black" points="248.12,-349.63 157.88,-349.63 157.88,-292.13 248.12,-292.13 248.12,-349.63"/>
<text text-anchor="middle" x="203" y="-332.33" font-family="Times,serif" font-size="14.00">lambdas3</text>
<text text-anchor="middle" x="203" y="-315.83" font-family="Times,serif" font-size="14.00">~</text>
<text text-anchor="middle" x="203" y="-299.33" font-family="Times,serif" font-size="14.00">Deterministic</text>
</g>
<!-- lambdas3&#45;&gt;mu -->
<g id="edge13" class="edge">
<title>lambdas3&#45;&gt;mu</title>
<path fill="none" stroke="black" d="M248.5,-300.97C280.65,-288.1 324.97,-271.34 365,-259.63 381.15,-254.91 386.74,-258.71 402,-251.63 409.45,-248.18 416.84,-243.7 423.79,-238.86"/>
<polygon fill="black" stroke="black" points="425.75,-241.76 431.73,-233.02 421.6,-236.13 425.75,-241.76"/>
</g>
<!-- lambdas3_ -->
<g id="node6" class="node">
<title>lambdas3_</title>
<ellipse fill="none" stroke="black" cx="199" cy="-438.79" rx="53.21" ry="40.66"/>
<text text-anchor="middle" x="199" y="-450.24" font-family="Times,serif" font-size="14.00">lambdas3_</text>
<text text-anchor="middle" x="199" y="-433.74" font-family="Times,serif" font-size="14.00">~</text>
<text text-anchor="middle" x="199" y="-417.24" font-family="Times,serif" font-size="14.00">Normal</text>
</g>
<!-- lambdas3_&#45;&gt;lambdas3 -->
<g id="edge3" class="edge">
<title>lambdas3_&#45;&gt;lambdas3</title>
<path fill="none" stroke="black" d="M200.38,-397.9C200.79,-386.02 201.24,-373.01 201.64,-361.16"/>
<polygon fill="black" stroke="black" points="205.14,-361.42 201.98,-351.3 198.14,-361.17 205.14,-361.42"/>
</g>
<!-- chol_cov -->
<g id="node7" class="node">
<title>chol_cov</title>
<ellipse fill="none" stroke="black" cx="541" cy="-568.61" rx="84.5" ry="40.66"/>
<text text-anchor="middle" x="541" y="-580.06" font-family="Times,serif" font-size="14.00">chol_cov</text>
<text text-anchor="middle" x="541" y="-563.56" font-family="Times,serif" font-size="14.00">~</text>
<text text-anchor="middle" x="541" y="-547.06" font-family="Times,serif" font-size="14.00">_LKJCholeskyCov</text>
</g>
<!-- chol_cov_corr -->
<g id="node8" class="node">
<title>chol_cov_corr</title>
<polygon fill="none" stroke="black" points="370,-467.54 276,-467.54 276,-410.04 370,-410.04 370,-467.54"/>
<text text-anchor="middle" x="323" y="-450.24" font-family="Times,serif" font-size="14.00">chol_cov_corr</text>
<text text-anchor="middle" x="323" y="-433.74" font-family="Times,serif" font-size="14.00">~</text>
<text text-anchor="middle" x="323" y="-417.24" font-family="Times,serif" font-size="14.00">Deterministic</text>
</g>
<!-- chol_cov&#45;&gt;chol_cov_corr -->
<g id="edge4" class="edge">
<title>chol_cov&#45;&gt;chol_cov_corr</title>
<path fill="none" stroke="black" d="M479.68,-540.45C449.44,-526.13 412.91,-507.4 382,-487.45 376.05,-483.61 369.99,-479.28 364.13,-474.83"/>
<polygon fill="black" stroke="black" points="366.37,-472.13 356.34,-468.73 362.06,-477.65 366.37,-472.13"/>
</g>
<!-- chol_cov_stds -->
<g id="node10" class="node">
<title>chol_cov_stds</title>
<polygon fill="none" stroke="black" points="587.62,-467.54 494.38,-467.54 494.38,-410.04 587.62,-410.04 587.62,-467.54"/>
<text text-anchor="middle" x="541" y="-450.24" font-family="Times,serif" font-size="14.00">chol_cov_stds</text>
<text text-anchor="middle" x="541" y="-433.74" font-family="Times,serif" font-size="14.00">~</text>
<text text-anchor="middle" x="541" y="-417.24" font-family="Times,serif" font-size="14.00">Deterministic</text>
</g>
<!-- chol_cov&#45;&gt;chol_cov_stds -->
<g id="edge5" class="edge">
<title>chol_cov&#45;&gt;chol_cov_stds</title>
<path fill="none" stroke="black" d="M541,-527.52C541,-512.12 541,-494.56 541,-479.22"/>
<polygon fill="black" stroke="black" points="544.5,-479.51 541,-469.51 537.5,-479.51 544.5,-479.51"/>
</g>
<!-- ksi -->
<g id="node11" class="node">
<title>ksi</title>
<ellipse fill="none" stroke="black" cx="667" cy="-438.79" rx="54.8" ry="40.66"/>
<text text-anchor="middle" x="667" y="-450.24" font-family="Times,serif" font-size="14.00">ksi</text>
<text text-anchor="middle" x="667" y="-433.74" font-family="Times,serif" font-size="14.00">~</text>
<text text-anchor="middle" x="667" y="-417.24" font-family="Times,serif" font-size="14.00">MvNormal</text>
</g>
<!-- chol_cov&#45;&gt;ksi -->
<g id="edge6" class="edge">
<title>chol_cov&#45;&gt;ksi</title>
<path fill="none" stroke="black" d="M576.77,-531.33C592.53,-515.34 611.1,-496.5 627.28,-480.09"/>
<polygon fill="black" stroke="black" points="629.42,-482.9 633.95,-473.32 624.44,-477.99 629.42,-482.9"/>
</g>
<!-- betas -->
<g id="node9" class="node">
<title>betas</title>
<ellipse fill="none" stroke="black" cx="435" cy="-438.79" rx="41.01" ry="40.66"/>
<text text-anchor="middle" x="435" y="-450.24" font-family="Times,serif" font-size="14.00">betas</text>
<text text-anchor="middle" x="435" y="-433.74" font-family="Times,serif" font-size="14.00">~</text>
<text text-anchor="middle" x="435" y="-417.24" font-family="Times,serif" font-size="14.00">Normal</text>
</g>
<!-- endogenous_structural_paths -->
<g id="node12" class="node">
<title>endogenous_structural_paths</title>
<polygon fill="none" stroke="black" points="550.75,-349.63 377.25,-349.63 377.25,-292.13 550.75,-292.13 550.75,-349.63"/>
<text text-anchor="middle" x="464" y="-332.33" font-family="Times,serif" font-size="14.00">endogenous_structural_paths</text>
<text text-anchor="middle" x="464" y="-315.83" font-family="Times,serif" font-size="14.00">~</text>
<text text-anchor="middle" x="464" y="-299.33" font-family="Times,serif" font-size="14.00">Deterministic</text>
</g>
<!-- betas&#45;&gt;endogenous_structural_paths -->
<g id="edge7" class="edge">
<title>betas&#45;&gt;endogenous_structural_paths</title>
<path fill="none" stroke="black" d="M444.74,-398.87C447.81,-386.59 451.21,-373.02 454.28,-360.74"/>
<polygon fill="black" stroke="black" points="457.59,-361.91 456.62,-351.36 450.8,-360.21 457.59,-361.91"/>
</g>
<!-- ksi&#45;&gt;endogenous_structural_paths -->
<g id="edge8" class="edge">
<title>ksi&#45;&gt;endogenous_structural_paths</title>
<path fill="none" stroke="black" d="M641.01,-402.9C629.67,-389.67 615.43,-375.46 600,-365.63 588.28,-358.17 575.17,-351.88 561.85,-346.61"/>
<polygon fill="black" stroke="black" points="563.15,-343.36 552.56,-343.12 560.7,-349.91 563.15,-343.36"/>
</g>
<!-- ksi&#45;&gt;mu -->
<g id="edge10" class="edge">
<title>ksi&#45;&gt;mu</title>
<path fill="none" stroke="black" d="M651.8,-399.47C634.83,-360.49 604.23,-300.2 563,-259.63 550.43,-247.27 534.57,-236.75 519.24,-228.3"/>
<polygon fill="black" stroke="black" points="521.1,-225.33 510.62,-223.75 517.83,-231.52 521.1,-225.33"/>
</g>
<!-- endogenous_structural_paths&#45;&gt;mu -->
<g id="edge9" class="edge">
<title>endogenous_structural_paths&#45;&gt;mu</title>
<path fill="none" stroke="black" d="M464,-291.83C464,-277.27 464,-259.25 464,-243.32"/>
<polygon fill="black" stroke="black" points="467.5,-243.69 464,-233.69 460.5,-243.69 467.5,-243.69"/>
</g>
<!-- likelihood -->
<g id="node14" class="node">
<title>likelihood</title>
<ellipse fill="lightgrey" stroke="black" cx="464" cy="-81.16" rx="50.03" ry="40.66"/>
<text text-anchor="middle" x="464" y="-92.61" font-family="Times,serif" font-size="14.00">likelihood</text>
<text text-anchor="middle" x="464" y="-76.11" font-family="Times,serif" font-size="14.00">~</text>
<text text-anchor="middle" x="464" y="-59.61" font-family="Times,serif" font-size="14.00">Normal</text>
</g>
<!-- mu&#45;&gt;likelihood -->
<g id="edge14" class="edge">
<title>mu&#45;&gt;likelihood</title>
<path fill="none" stroke="black" d="M464,-173.88C464,-161.78 464,-147.23 464,-133.33"/>
<polygon fill="black" stroke="black" points="467.5,-133.38 464,-123.38 460.5,-133.38 467.5,-133.38"/>
</g>
<!-- Psi -->
<g id="node15" class="node">
<title>Psi</title>
<ellipse fill="none" stroke="black" cx="335" cy="-202.98" rx="55.33" ry="40.66"/>
<text text-anchor="middle" x="335" y="-214.43" font-family="Times,serif" font-size="14.00">Psi</text>
<text text-anchor="middle" x="335" y="-197.93" font-family="Times,serif" font-size="14.00">~</text>
<text text-anchor="middle" x="335" y="-181.43" font-family="Times,serif" font-size="14.00">InvGamma</text>
</g>
<!-- Psi&#45;&gt;likelihood -->
<g id="edge15" class="edge">
<title>Psi&#45;&gt;likelihood</title>
<path fill="none" stroke="black" d="M364.24,-168.17C375.6,-155.67 388.98,-141.68 402,-129.82 407.14,-125.14 412.7,-120.42 418.31,-115.88"/>
<polygon fill="black" stroke="black" points="420.27,-118.79 425.93,-109.84 415.92,-113.31 420.27,-118.79"/>
</g>
</g>
</svg>
