<?xml version="1.0" encoding="UTF-8" standalone="no"?>
<!DOCTYPE svg PUBLIC "-//W3C//DTD SVG 1.1//EN"
 "http://www.w3.org/Graphics/SVG/1.1/DTD/svg11.dtd">
<!-- Generated by graphviz version 12.0.0 (0)
 -->
<!-- Pages: 1 -->
<svg width="782pt" height="527pt"
 viewBox="0.00 0.00 782.00 527.27" xmlns="http://www.w3.org/2000/svg" xmlns:xlink="http://www.w3.org/1999/xlink">
<g id="graph0" class="graph" transform="scale(1 1) rotate(0) translate(4 523.27)">
<polygon fill="white" stroke="none" points="-4,4 -4,-523.27 778,-523.27 778,4 -4,4"/>
<g id="clust1" class="cluster">
<title>clusterindicators_1 (3)</title>
<path fill="none" stroke="black" d="M656,-271.54C656,-271.54 754,-271.54 754,-271.54 760,-271.54 766,-277.54 766,-283.54 766,-283.54 766,-499.27 766,-499.27 766,-505.27 760,-511.27 754,-511.27 754,-511.27 656,-511.27 656,-511.27 650,-511.27 644,-505.27 644,-499.27 644,-499.27 644,-283.54 644,-283.54 644,-277.54 650,-271.54 656,-271.54"/>
<text text-anchor="middle" x="714.88" y="-278.74" font-family="Times,serif" font-size="14.00">indicators_1 (3)</text>
</g>
<g id="clust2" class="cluster">
<title>clusterindicators_2 (3)</title>
<path fill="none" stroke="black" d="M21,-271.54C21,-271.54 119,-271.54 119,-271.54 125,-271.54 131,-277.54 131,-283.54 131,-283.54 131,-499.27 131,-499.27 131,-505.27 125,-511.27 119,-511.27 119,-511.27 21,-511.27 21,-511.27 15,-511.27 9,-505.27 9,-499.27 9,-499.27 9,-283.54 9,-283.54 9,-277.54 15,-271.54 21,-271.54"/>
<text text-anchor="middle" x="79.88" y="-278.74" font-family="Times,serif" font-size="14.00">indicators_2 (3)</text>
</g>
<g id="clust3" class="cluster">
<title>clusterindicators_3 (3)</title>
<path fill="none" stroke="black" d="M151,-271.54C151,-271.54 249,-271.54 249,-271.54 255,-271.54 261,-277.54 261,-283.54 261,-283.54 261,-499.27 261,-499.27 261,-505.27 255,-511.27 249,-511.27 249,-511.27 151,-511.27 151,-511.27 145,-511.27 139,-505.27 139,-499.27 139,-499.27 139,-283.54 139,-283.54 139,-277.54 145,-271.54 151,-271.54"/>
<text text-anchor="middle" x="209.88" y="-278.74" font-family="Times,serif" font-size="14.00">indicators_3 (3)</text>
</g>
<g id="clust4" class="cluster">
<title>cluster6</title>
<path fill="none" stroke="black" d="M362,-389.45C362,-389.45 522,-389.45 522,-389.45 528,-389.45 534,-395.45 534,-401.45 534,-401.45 534,-499.27 534,-499.27 534,-505.27 528,-511.27 522,-511.27 522,-511.27 362,-511.27 362,-511.27 356,-511.27 350,-505.27 350,-499.27 350,-499.27 350,-401.45 350,-401.45 350,-395.45 356,-389.45 362,-389.45"/>
<text text-anchor="middle" x="522.62" y="-396.65" font-family="Times,serif" font-size="14.00">6</text>
</g>
<g id="clust5" class="cluster">
<title>cluster3 x 3</title>
<path fill="none" stroke="black" d="M281,-271.54C281,-271.54 367,-271.54 367,-271.54 373,-271.54 379,-277.54 379,-283.54 379,-283.54 379,-357.54 379,-357.54 379,-363.54 373,-369.54 367,-369.54 367,-369.54 281,-369.54 281,-369.54 275,-369.54 269,-363.54 269,-357.54 269,-357.54 269,-283.54 269,-283.54 269,-277.54 275,-271.54 281,-271.54"/>
<text text-anchor="middle" x="357.12" y="-278.74" font-family="Times,serif" font-size="14.00">3 x 3</text>
</g>
<g id="clust6" class="cluster">
<title>cluster3</title>
<path fill="none" stroke="black" d="M399,-271.54C399,-271.54 485,-271.54 485,-271.54 491,-271.54 497,-277.54 497,-283.54 497,-283.54 497,-357.54 497,-357.54 497,-363.54 491,-369.54 485,-369.54 485,-369.54 399,-369.54 399,-369.54 393,-369.54 387,-363.54 387,-357.54 387,-357.54 387,-283.54 387,-283.54 387,-277.54 393,-271.54 399,-271.54"/>
<text text-anchor="middle" x="485.62" y="-278.74" font-family="Times,serif" font-size="14.00">3</text>
</g>
<g id="clust7" class="cluster">
<title>clusterobs (500) x latent (3)</title>
<path fill="none" stroke="black" d="M517,-259.63C517,-259.63 624,-259.63 624,-259.63 630,-259.63 636,-265.63 636,-271.63 636,-271.63 636,-369.45 636,-369.45 636,-375.45 630,-381.45 624,-381.45 624,-381.45 517,-381.45 517,-381.45 511,-381.45 505,-375.45 505,-369.45 505,-369.45 505,-271.63 505,-271.63 505,-265.63 511,-259.63 517,-259.63"/>
<text text-anchor="middle" x="570.25" y="-266.83" font-family="Times,serif" font-size="14.00">obs (500) x latent (3)</text>
</g>
<g id="clust8" class="cluster">
<title>cluster500 x 9</title>
<path fill="none" stroke="black" d="M154,-8C154,-8 246,-8 246,-8 252,-8 258,-14 258,-20 258,-20 258,-227.73 258,-227.73 258,-233.73 252,-239.73 246,-239.73 246,-239.73 154,-239.73 154,-239.73 148,-239.73 142,-233.73 142,-227.73 142,-227.73 142,-20 142,-20 142,-14 148,-8 154,-8"/>
<text text-anchor="middle" x="229.38" y="-15.2" font-family="Times,serif" font-size="14.00">500 x 9</text>
</g>
<g id="clust9" class="cluster">
<title>clusterindicators (9)</title>
<path fill="none" stroke="black" d="M20,-129.82C20,-129.82 122,-129.82 122,-129.82 128,-129.82 134,-135.82 134,-141.82 134,-141.82 134,-239.63 134,-239.63 134,-245.63 128,-251.63 122,-251.63 122,-251.63 20,-251.63 20,-251.63 14,-251.63 8,-245.63 8,-239.63 8,-239.63 8,-141.82 8,-141.82 8,-135.82 14,-129.82 20,-129.82"/>
<text text-anchor="middle" x="89.62" y="-137.02" font-family="Times,serif" font-size="14.00">indicators (9)</text>
</g>
<!-- lambdas1 -->
<g id="node1" class="node">
<title>lambdas1</title>
<polygon fill="none" stroke="black" points="746.12,-361.54 655.88,-361.54 655.88,-304.04 746.12,-304.04 746.12,-361.54"/>
<text text-anchor="middle" x="701" y="-344.24" font-family="Times,serif" font-size="14.00">lambdas1</text>
<text text-anchor="middle" x="701" y="-327.74" font-family="Times,serif" font-size="14.00">~</text>
<text text-anchor="middle" x="701" y="-311.24" font-family="Times,serif" font-size="14.00">Deterministic</text>
</g>
<!-- mu -->
<g id="node11" class="node">
<title>mu</title>
<polygon fill="none" stroke="black" points="245.12,-231.73 154.88,-231.73 154.88,-174.23 245.12,-174.23 245.12,-231.73"/>
<text text-anchor="middle" x="200" y="-214.43" font-family="Times,serif" font-size="14.00">mu</text>
<text text-anchor="middle" x="200" y="-197.93" font-family="Times,serif" font-size="14.00">~</text>
<text text-anchor="middle" x="200" y="-181.43" font-family="Times,serif" font-size="14.00">Deterministic</text>
</g>
<!-- lambdas1&#45;&gt;mu -->
<g id="edge8" class="edge">
<title>lambdas1&#45;&gt;mu</title>
<path fill="none" stroke="black" d="M684.59,-303.59C673.94,-287.98 658.6,-269.73 640,-259.63 575.09,-224.39 360.34,-210.71 256.8,-206.07"/>
<polygon fill="black" stroke="black" points="257,-202.58 246.85,-205.64 256.69,-209.57 257,-202.58"/>
</g>
<!-- lambdas1_ -->
<g id="node2" class="node">
<title>lambdas1_</title>
<ellipse fill="none" stroke="black" cx="705" cy="-462.61" rx="53.21" ry="40.66"/>
<text text-anchor="middle" x="705" y="-474.06" font-family="Times,serif" font-size="14.00">lambdas1_</text>
<text text-anchor="middle" x="705" y="-457.56" font-family="Times,serif" font-size="14.00">~</text>
<text text-anchor="middle" x="705" y="-441.06" font-family="Times,serif" font-size="14.00">Normal</text>
</g>
<!-- lambdas1_&#45;&gt;lambdas1 -->
<g id="edge1" class="edge">
<title>lambdas1_&#45;&gt;lambdas1</title>
<path fill="none" stroke="black" d="M703.75,-421.52C703.26,-406.12 702.71,-388.56 702.23,-373.22"/>
<polygon fill="black" stroke="black" points="705.74,-373.39 701.93,-363.51 698.74,-373.61 705.74,-373.39"/>
</g>
<!-- lambdas2 -->
<g id="node3" class="node">
<title>lambdas2</title>
<polygon fill="none" stroke="black" points="119.12,-361.54 28.88,-361.54 28.88,-304.04 119.12,-304.04 119.12,-361.54"/>
<text text-anchor="middle" x="74" y="-344.24" font-family="Times,serif" font-size="14.00">lambdas2</text>
<text text-anchor="middle" x="74" y="-327.74" font-family="Times,serif" font-size="14.00">~</text>
<text text-anchor="middle" x="74" y="-311.24" font-family="Times,serif" font-size="14.00">Deterministic</text>
</g>
<!-- lambdas2&#45;&gt;mu -->
<g id="edge7" class="edge">
<title>lambdas2&#45;&gt;mu</title>
<path fill="none" stroke="black" d="M95.89,-303.81C107.09,-290.05 121.24,-273.48 135,-259.63 141.7,-252.89 149.11,-246.05 156.46,-239.57"/>
<polygon fill="black" stroke="black" points="158.6,-242.34 163.86,-233.15 154.01,-237.05 158.6,-242.34"/>
</g>
<!-- lambdas2_ -->
<g id="node4" class="node">
<title>lambdas2_</title>
<ellipse fill="none" stroke="black" cx="70" cy="-462.61" rx="53.21" ry="40.66"/>
<text text-anchor="middle" x="70" y="-474.06" font-family="Times,serif" font-size="14.00">lambdas2_</text>
<text text-anchor="middle" x="70" y="-457.56" font-family="Times,serif" font-size="14.00">~</text>
<text text-anchor="middle" x="70" y="-441.06" font-family="Times,serif" font-size="14.00">Normal</text>
</g>
<!-- lambdas2_&#45;&gt;lambdas2 -->
<g id="edge2" class="edge">
<title>lambdas2_&#45;&gt;lambdas2</title>
<path fill="none" stroke="black" d="M71.25,-421.52C71.74,-406.12 72.29,-388.56 72.77,-373.22"/>
<polygon fill="black" stroke="black" points="76.26,-373.61 73.07,-363.51 69.26,-373.39 76.26,-373.61"/>
</g>
<!-- lambdas3 -->
<g id="node5" class="node">
<title>lambdas3</title>
<polygon fill="none" stroke="black" points="245.12,-361.54 154.88,-361.54 154.88,-304.04 245.12,-304.04 245.12,-361.54"/>
<text text-anchor="middle" x="200" y="-344.24" font-family="Times,serif" font-size="14.00">lambdas3</text>
<text text-anchor="middle" x="200" y="-327.74" font-family="Times,serif" font-size="14.00">~</text>
<text text-anchor="middle" x="200" y="-311.24" font-family="Times,serif" font-size="14.00">Deterministic</text>
</g>
<!-- lambdas3&#45;&gt;mu -->
<g id="edge10" class="edge">
<title>lambdas3&#45;&gt;mu</title>
<path fill="none" stroke="black" d="M200,-303.74C200,-286.01 200,-262.84 200,-243.28"/>
<polygon fill="black" stroke="black" points="203.5,-243.47 200,-233.47 196.5,-243.47 203.5,-243.47"/>
</g>
<!-- lambdas3_ -->
<g id="node6" class="node">
<title>lambdas3_</title>
<ellipse fill="none" stroke="black" cx="200" cy="-462.61" rx="53.21" ry="40.66"/>
<text text-anchor="middle" x="200" y="-474.06" font-family="Times,serif" font-size="14.00">lambdas3_</text>
<text text-anchor="middle" x="200" y="-457.56" font-family="Times,serif" font-size="14.00">~</text>
<text text-anchor="middle" x="200" y="-441.06" font-family="Times,serif" font-size="14.00">Normal</text>
</g>
<!-- lambdas3_&#45;&gt;lambdas3 -->
<g id="edge3" class="edge">
<title>lambdas3_&#45;&gt;lambdas3</title>
<path fill="none" stroke="black" d="M200,-421.52C200,-406.12 200,-388.56 200,-373.22"/>
<polygon fill="black" stroke="black" points="203.5,-373.51 200,-363.51 196.5,-373.51 203.5,-373.51"/>
</g>
<!-- chol_cov -->
<g id="node7" class="node">
<title>chol_cov</title>
<ellipse fill="none" stroke="black" cx="442" cy="-462.61" rx="84.5" ry="40.66"/>
<text text-anchor="middle" x="442" y="-474.06" font-family="Times,serif" font-size="14.00">chol_cov</text>
<text text-anchor="middle" x="442" y="-457.56" font-family="Times,serif" font-size="14.00">~</text>
<text text-anchor="middle" x="442" y="-441.06" font-family="Times,serif" font-size="14.00">_LKJCholeskyCov</text>
</g>
<!-- chol_cov_corr -->
<g id="node8" class="node">
<title>chol_cov_corr</title>
<polygon fill="none" stroke="black" points="371,-361.54 277,-361.54 277,-304.04 371,-304.04 371,-361.54"/>
<text text-anchor="middle" x="324" y="-344.24" font-family="Times,serif" font-size="14.00">chol_cov_corr</text>
<text text-anchor="middle" x="324" y="-327.74" font-family="Times,serif" font-size="14.00">~</text>
<text text-anchor="middle" x="324" y="-311.24" font-family="Times,serif" font-size="14.00">Deterministic</text>
</g>
<!-- chol_cov&#45;&gt;chol_cov_corr -->
<g id="edge4" class="edge">
<title>chol_cov&#45;&gt;chol_cov_corr</title>
<path fill="none" stroke="black" d="M408.19,-424.98C392.27,-407.74 373.34,-387.23 357.46,-370.04"/>
<polygon fill="black" stroke="black" points="360.32,-367.98 350.97,-363 355.18,-372.73 360.32,-367.98"/>
</g>
<!-- chol_cov_stds -->
<g id="node9" class="node">
<title>chol_cov_stds</title>
<polygon fill="none" stroke="black" points="488.62,-361.54 395.38,-361.54 395.38,-304.04 488.62,-304.04 488.62,-361.54"/>
<text text-anchor="middle" x="442" y="-344.24" font-family="Times,serif" font-size="14.00">chol_cov_stds</text>
<text text-anchor="middle" x="442" y="-327.74" font-family="Times,serif" font-size="14.00">~</text>
<text text-anchor="middle" x="442" y="-311.24" font-family="Times,serif" font-size="14.00">Deterministic</text>
</g>
<!-- chol_cov&#45;&gt;chol_cov_stds -->
<g id="edge5" class="edge">
<title>chol_cov&#45;&gt;chol_cov_stds</title>
<path fill="none" stroke="black" d="M442,-421.52C442,-406.12 442,-388.56 442,-373.22"/>
<polygon fill="black" stroke="black" points="445.5,-373.51 442,-363.51 438.5,-373.51 445.5,-373.51"/>
</g>
<!-- ksi -->
<g id="node10" class="node">
<title>ksi</title>
<ellipse fill="none" stroke="black" cx="568" cy="-332.79" rx="54.8" ry="40.66"/>
<text text-anchor="middle" x="568" y="-344.24" font-family="Times,serif" font-size="14.00">ksi</text>
<text text-anchor="middle" x="568" y="-327.74" font-family="Times,serif" font-size="14.00">~</text>
<text text-anchor="middle" x="568" y="-311.24" font-family="Times,serif" font-size="14.00">MvNormal</text>
</g>
<!-- chol_cov&#45;&gt;ksi -->
<g id="edge6" class="edge">
<title>chol_cov&#45;&gt;ksi</title>
<path fill="none" stroke="black" d="M477.77,-425.33C493.53,-409.34 512.1,-390.5 528.28,-374.09"/>
<polygon fill="black" stroke="black" points="530.42,-376.9 534.95,-367.32 525.44,-371.99 530.42,-376.9"/>
</g>
<!-- ksi&#45;&gt;mu -->
<g id="edge9" class="edge">
<title>ksi&#45;&gt;mu</title>
<path fill="none" stroke="black" d="M542.93,-296.24C531.63,-282.76 517.18,-268.53 501,-259.63 423.73,-217.16 320.18,-206.36 256.87,-204.02"/>
<polygon fill="black" stroke="black" points="257.15,-200.53 247.05,-203.72 256.94,-207.53 257.15,-200.53"/>
</g>
<!-- likelihood -->
<g id="node12" class="node">
<title>likelihood</title>
<ellipse fill="lightgrey" stroke="black" cx="200" cy="-81.16" rx="50.03" ry="40.66"/>
<text text-anchor="middle" x="200" y="-92.61" font-family="Times,serif" font-size="14.00">likelihood</text>
<text text-anchor="middle" x="200" y="-76.11" font-family="Times,serif" font-size="14.00">~</text>
<text text-anchor="middle" x="200" y="-59.61" font-family="Times,serif" font-size="14.00">Normal</text>
</g>
<!-- mu&#45;&gt;likelihood -->
<g id="edge11" class="edge">
<title>mu&#45;&gt;likelihood</title>
<path fill="none" stroke="black" d="M200,-173.88C200,-161.78 200,-147.23 200,-133.33"/>
<polygon fill="black" stroke="black" points="203.5,-133.38 200,-123.38 196.5,-133.38 203.5,-133.38"/>
</g>
<!-- Psi -->
<g id="node13" class="node">
<title>Psi</title>
<ellipse fill="none" stroke="black" cx="71" cy="-202.98" rx="55.33" ry="40.66"/>
<text text-anchor="middle" x="71" y="-214.43" font-family="Times,serif" font-size="14.00">Psi</text>
<text text-anchor="middle" x="71" y="-197.93" font-family="Times,serif" font-size="14.00">~</text>
<text text-anchor="middle" x="71" y="-181.43" font-family="Times,serif" font-size="14.00">InvGamma</text>
</g>
<!-- Psi&#45;&gt;likelihood -->
<g id="edge12" class="edge">
<title>Psi&#45;&gt;likelihood</title>
<path fill="none" stroke="black" d="M100.24,-168.17C111.6,-155.67 124.98,-141.68 138,-129.82 143.14,-125.14 148.7,-120.42 154.31,-115.88"/>
<polygon fill="black" stroke="black" points="156.27,-118.79 161.93,-109.84 151.92,-113.31 156.27,-118.79"/>
</g>
</g>
</svg>
