<?xml version="1.0" encoding="UTF-8" standalone="no"?>
<!DOCTYPE svg PUBLIC "-//W3C//DTD SVG 1.1//EN"
 "http://www.w3.org/Graphics/SVG/1.1/DTD/svg11.dtd">
<!-- Generated by graphviz version 7.1.0 (0)
 -->
<!-- Pages: 1 -->
<svg width="859pt" height="560pt"
 viewBox="0.00 0.00 859.33 559.86" xmlns="http://www.w3.org/2000/svg" xmlns:xlink="http://www.w3.org/1999/xlink">
<g id="graph0" class="graph" transform="scale(1 1) rotate(0) translate(4 555.86)">
<polygon fill="white" stroke="none" points="-4,4 -4,-555.86 855.33,-555.86 855.33,4 -4,4"/>
<g id="clust1" class="cluster">
<title>clustermen (2603) x preds (9)</title>
<path fill="none" stroke="black" d="M268.33,-440.88C268.33,-440.88 387.33,-440.88 387.33,-440.88 393.33,-440.88 399.33,-446.88 399.33,-452.88 399.33,-452.88 399.33,-520.88 399.33,-520.88 399.33,-526.88 393.33,-532.88 387.33,-532.88 387.33,-532.88 268.33,-532.88 268.33,-532.88 262.33,-532.88 256.33,-526.88 256.33,-520.88 256.33,-520.88 256.33,-452.88 256.33,-452.88 256.33,-446.88 262.33,-440.88 268.33,-440.88"/>
<text text-anchor="middle" x="327.83" y="-448.68" font-family="Times,serif" font-size="14.00">men (2603) x preds (9)</text>
</g>
<g id="clust2" class="cluster">
<title>clusterwomen (1167) x preds (9)</title>
<path fill="none" stroke="black" d="M695.33,-440.88C695.33,-440.88 831.33,-440.88 831.33,-440.88 837.33,-440.88 843.33,-446.88 843.33,-452.88 843.33,-452.88 843.33,-520.88 843.33,-520.88 843.33,-526.88 837.33,-532.88 831.33,-532.88 831.33,-532.88 695.33,-532.88 695.33,-532.88 689.33,-532.88 683.33,-526.88 683.33,-520.88 683.33,-520.88 683.33,-452.88 683.33,-452.88 683.33,-446.88 689.33,-440.88 695.33,-440.88"/>
<text text-anchor="middle" x="763.33" y="-448.68" font-family="Times,serif" font-size="14.00">women (1167) x preds (9)</text>
</g>
<g id="clust3" class="cluster">
<title>clusterintervals (12) x gender (2)</title>
<path fill="none" stroke="black" d="M419.33,-429.91C419.33,-429.91 555.33,-429.91 555.33,-429.91 561.33,-429.91 567.33,-435.91 567.33,-441.91 567.33,-441.91 567.33,-531.86 567.33,-531.86 567.33,-537.86 561.33,-543.86 555.33,-543.86 555.33,-543.86 419.33,-543.86 419.33,-543.86 413.33,-543.86 407.33,-537.86 407.33,-531.86 407.33,-531.86 407.33,-441.91 407.33,-441.91 407.33,-435.91 413.33,-429.91 419.33,-429.91"/>
<text text-anchor="middle" x="487.33" y="-437.71" font-family="Times,serif" font-size="14.00">intervals (12) x gender (2)</text>
</g>
<g id="clust4" class="cluster">
<title>clusterfrailty_id (3770)</title>
<path fill="none" stroke="black" d="M144.33,-307.95C144.33,-307.95 227.33,-307.95 227.33,-307.95 233.33,-307.95 239.33,-313.95 239.33,-319.95 239.33,-319.95 239.33,-409.91 239.33,-409.91 239.33,-415.91 233.33,-421.91 227.33,-421.91 227.33,-421.91 144.33,-421.91 144.33,-421.91 138.33,-421.91 132.33,-415.91 132.33,-409.91 132.33,-409.91 132.33,-319.95 132.33,-319.95 132.33,-313.95 138.33,-307.95 144.33,-307.95"/>
<text text-anchor="middle" x="185.83" y="-315.75" font-family="Times,serif" font-size="14.00">frailty_id (3770)</text>
</g>
<g id="clust5" class="cluster">
<title>clusterpreds (9)</title>
<path fill="none" stroke="black" d="M587.33,-429.91C587.33,-429.91 663.33,-429.91 663.33,-429.91 669.33,-429.91 675.33,-435.91 675.33,-441.91 675.33,-441.91 675.33,-531.86 675.33,-531.86 675.33,-537.86 669.33,-543.86 663.33,-543.86 663.33,-543.86 587.33,-543.86 587.33,-543.86 581.33,-543.86 575.33,-537.86 575.33,-531.86 575.33,-531.86 575.33,-441.91 575.33,-441.91 575.33,-435.91 581.33,-429.91 587.33,-429.91"/>
<text text-anchor="middle" x="642.83" y="-437.71" font-family="Times,serif" font-size="14.00">preds (9)</text>
</g>
<g id="clust6" class="cluster">
<title>clustermen (2603) x intervals (12)</title>
<path fill="none" stroke="black" d="M408.33,-318.93C408.33,-318.93 551.33,-318.93 551.33,-318.93 557.33,-318.93 563.33,-324.93 563.33,-330.93 563.33,-330.93 563.33,-398.93 563.33,-398.93 563.33,-404.93 557.33,-410.93 551.33,-410.93 551.33,-410.93 408.33,-410.93 408.33,-410.93 402.33,-410.93 396.33,-404.93 396.33,-398.93 396.33,-398.93 396.33,-330.93 396.33,-330.93 396.33,-324.93 402.33,-318.93 408.33,-318.93"/>
<text text-anchor="middle" x="479.83" y="-326.73" font-family="Times,serif" font-size="14.00">men (2603) x intervals (12)</text>
</g>
<g id="clust7" class="cluster">
<title>clusterwomen (1167) x intervals (12)</title>
<path fill="none" stroke="black" d="M583.33,-318.93C583.33,-318.93 743.33,-318.93 743.33,-318.93 749.33,-318.93 755.33,-324.93 755.33,-330.93 755.33,-330.93 755.33,-398.93 755.33,-398.93 755.33,-404.93 749.33,-410.93 743.33,-410.93 743.33,-410.93 583.33,-410.93 583.33,-410.93 577.33,-410.93 571.33,-404.93 571.33,-398.93 571.33,-398.93 571.33,-330.93 571.33,-330.93 571.33,-324.93 577.33,-318.93 583.33,-318.93"/>
<text text-anchor="middle" x="663.33" y="-326.73" font-family="Times,serif" font-size="14.00">women (1167) x intervals (12)</text>
</g>
<g id="clust8" class="cluster">
<title>clusterobs (3770) x intervals (12)</title>
<path fill="none" stroke="black" d="M440.33,-8C440.33,-8 578.33,-8 578.33,-8 584.33,-8 590.33,-14 590.33,-20 590.33,-20 590.33,-287.95 590.33,-287.95 590.33,-293.95 584.33,-299.95 578.33,-299.95 578.33,-299.95 440.33,-299.95 440.33,-299.95 434.33,-299.95 428.33,-293.95 428.33,-287.95 428.33,-287.95 428.33,-20 428.33,-20 428.33,-14 434.33,-8 440.33,-8"/>
<text text-anchor="middle" x="509.33" y="-15.8" font-family="Times,serif" font-size="14.00">obs (3770) x intervals (12)</text>
</g>
<!-- X_data_m -->
<g id="node1" class="node">
<title>X_data_m</title>
<path fill="lightgrey" stroke="black" d="M379.33,-524.88C379.33,-524.88 315.33,-524.88 315.33,-524.88 309.33,-524.88 303.33,-518.88 303.33,-512.88 303.33,-512.88 303.33,-483.88 303.33,-483.88 303.33,-477.88 309.33,-471.88 315.33,-471.88 315.33,-471.88 379.33,-471.88 379.33,-471.88 385.33,-471.88 391.33,-477.88 391.33,-483.88 391.33,-483.88 391.33,-512.88 391.33,-512.88 391.33,-518.88 385.33,-524.88 379.33,-524.88"/>
<text text-anchor="middle" x="347.33" y="-509.68" font-family="Times,serif" font-size="14.00">X_data_m</text>
<text text-anchor="middle" x="347.33" y="-494.68" font-family="Times,serif" font-size="14.00">~</text>
<text text-anchor="middle" x="347.33" y="-479.68" font-family="Times,serif" font-size="14.00">MutableData</text>
</g>
<!-- lambda_m -->
<g id="node8" class="node">
<title>lambda_m</title>
<polygon fill="none" stroke="black" points="554.83,-402.93 463.83,-402.93 463.83,-349.93 554.83,-349.93 554.83,-402.93"/>
<text text-anchor="middle" x="509.33" y="-387.73" font-family="Times,serif" font-size="14.00">lambda_m</text>
<text text-anchor="middle" x="509.33" y="-372.73" font-family="Times,serif" font-size="14.00">~</text>
<text text-anchor="middle" x="509.33" y="-357.73" font-family="Times,serif" font-size="14.00">Deterministic</text>
</g>
<!-- X_data_m&#45;&gt;lambda_m -->
<g id="edge5" class="edge">
<title>X_data_m&#45;&gt;lambda_m</title>
<path fill="none" stroke="black" d="M364.83,-471.4C374.92,-457.81 388.52,-441.61 403.33,-429.91 418.27,-418.1 436.3,-407.96 453.21,-399.82"/>
<polygon fill="black" stroke="black" points="454.59,-403.04 462.19,-395.66 451.65,-396.69 454.59,-403.04"/>
</g>
<!-- X_data_f -->
<g id="node2" class="node">
<title>X_data_f</title>
<path fill="lightgrey" stroke="black" d="M767.33,-524.88C767.33,-524.88 703.33,-524.88 703.33,-524.88 697.33,-524.88 691.33,-518.88 691.33,-512.88 691.33,-512.88 691.33,-483.88 691.33,-483.88 691.33,-477.88 697.33,-471.88 703.33,-471.88 703.33,-471.88 767.33,-471.88 767.33,-471.88 773.33,-471.88 779.33,-477.88 779.33,-483.88 779.33,-483.88 779.33,-512.88 779.33,-512.88 779.33,-518.88 773.33,-524.88 767.33,-524.88"/>
<text text-anchor="middle" x="735.33" y="-509.68" font-family="Times,serif" font-size="14.00">X_data_f</text>
<text text-anchor="middle" x="735.33" y="-494.68" font-family="Times,serif" font-size="14.00">~</text>
<text text-anchor="middle" x="735.33" y="-479.68" font-family="Times,serif" font-size="14.00">MutableData</text>
</g>
<!-- lambda_f -->
<g id="node9" class="node">
<title>lambda_f</title>
<polygon fill="none" stroke="black" points="670.83,-402.93 579.83,-402.93 579.83,-349.93 670.83,-349.93 670.83,-402.93"/>
<text text-anchor="middle" x="625.33" y="-387.73" font-family="Times,serif" font-size="14.00">lambda_f</text>
<text text-anchor="middle" x="625.33" y="-372.73" font-family="Times,serif" font-size="14.00">~</text>
<text text-anchor="middle" x="625.33" y="-357.73" font-family="Times,serif" font-size="14.00">Deterministic</text>
</g>
<!-- X_data_f&#45;&gt;lambda_f -->
<g id="edge8" class="edge">
<title>X_data_f&#45;&gt;lambda_f</title>
<path fill="none" stroke="black" d="M714.94,-471.52C704.59,-458.72 691.62,-443.21 679.33,-429.91 673.52,-423.63 667.16,-417.14 660.9,-410.95"/>
<polygon fill="black" stroke="black" points="663.77,-408.85 654.17,-404.36 658.87,-413.86 663.77,-408.85"/>
</g>
<!-- lambda0 -->
<g id="node3" class="node">
<title>lambda0</title>
<ellipse fill="none" stroke="black" cx="512.33" cy="-498.38" rx="45.01" ry="37.45"/>
<text text-anchor="middle" x="512.33" y="-509.68" font-family="Times,serif" font-size="14.00">lambda0</text>
<text text-anchor="middle" x="512.33" y="-494.68" font-family="Times,serif" font-size="14.00">~</text>
<text text-anchor="middle" x="512.33" y="-479.68" font-family="Times,serif" font-size="14.00">Gamma</text>
</g>
<!-- lambda0&#45;&gt;lambda_m -->
<g id="edge4" class="edge">
<title>lambda0&#45;&gt;lambda_m</title>
<path fill="none" stroke="black" d="M511.41,-460.74C511.04,-446.06 510.62,-429.18 510.25,-414.46"/>
<polygon fill="black" stroke="black" points="513.76,-414.63 510.01,-404.72 506.76,-414.8 513.76,-414.63"/>
</g>
<!-- lambda0&#45;&gt;lambda_f -->
<g id="edge7" class="edge">
<title>lambda0&#45;&gt;lambda_f</title>
<path fill="none" stroke="black" d="M537.95,-467.02C548.13,-455.24 560.08,-441.76 571.33,-429.91 577.27,-423.64 583.75,-417.11 590.08,-410.87"/>
<polygon fill="black" stroke="black" points="592.18,-413.71 596.9,-404.22 587.3,-408.7 592.18,-413.71"/>
</g>
<!-- mu_frailty -->
<g id="node4" class="node">
<title>mu_frailty</title>
<ellipse fill="none" stroke="black" cx="52.33" cy="-498.38" rx="52.15" ry="37.45"/>
<text text-anchor="middle" x="52.33" y="-509.68" font-family="Times,serif" font-size="14.00">mu_frailty</text>
<text text-anchor="middle" x="52.33" y="-494.68" font-family="Times,serif" font-size="14.00">~</text>
<text text-anchor="middle" x="52.33" y="-479.68" font-family="Times,serif" font-size="14.00">Normal</text>
</g>
<!-- frailty -->
<g id="node6" class="node">
<title>frailty</title>
<ellipse fill="none" stroke="black" cx="185.33" cy="-376.43" rx="43.27" ry="37.45"/>
<text text-anchor="middle" x="185.33" y="-387.73" font-family="Times,serif" font-size="14.00">frailty</text>
<text text-anchor="middle" x="185.33" y="-372.73" font-family="Times,serif" font-size="14.00">~</text>
<text text-anchor="middle" x="185.33" y="-357.73" font-family="Times,serif" font-size="14.00">Gamma</text>
</g>
<!-- mu_frailty&#45;&gt;frailty -->
<g id="edge1" class="edge">
<title>mu_frailty&#45;&gt;frailty</title>
<path fill="none" stroke="black" d="M78.69,-465.55C89,-453.84 101.24,-440.79 113.33,-429.91 122.21,-421.91 132.3,-413.96 142.05,-406.75"/>
<polygon fill="black" stroke="black" points="143.97,-409.68 150.01,-400.98 139.86,-404.01 143.97,-409.68"/>
</g>
<!-- sigma_frailty -->
<g id="node5" class="node">
<title>sigma_frailty</title>
<ellipse fill="none" stroke="black" cx="185.33" cy="-498.38" rx="62.87" ry="37.45"/>
<text text-anchor="middle" x="185.33" y="-509.68" font-family="Times,serif" font-size="14.00">sigma_frailty</text>
<text text-anchor="middle" x="185.33" y="-494.68" font-family="Times,serif" font-size="14.00">~</text>
<text text-anchor="middle" x="185.33" y="-479.68" font-family="Times,serif" font-size="14.00">Normal</text>
</g>
<!-- sigma_frailty&#45;&gt;frailty -->
<g id="edge2" class="edge">
<title>sigma_frailty&#45;&gt;frailty</title>
<path fill="none" stroke="black" d="M185.33,-460.74C185.33,-449.68 185.33,-437.37 185.33,-425.68"/>
<polygon fill="black" stroke="black" points="188.83,-425.77 185.33,-415.77 181.83,-425.77 188.83,-425.77"/>
</g>
<!-- lambda_ -->
<g id="node11" class="node">
<title>lambda_</title>
<polygon fill="none" stroke="black" points="554.83,-291.95 463.83,-291.95 463.83,-238.95 554.83,-238.95 554.83,-291.95"/>
<text text-anchor="middle" x="509.33" y="-276.75" font-family="Times,serif" font-size="14.00">lambda_</text>
<text text-anchor="middle" x="509.33" y="-261.75" font-family="Times,serif" font-size="14.00">~</text>
<text text-anchor="middle" x="509.33" y="-246.75" font-family="Times,serif" font-size="14.00">Deterministic</text>
</g>
<!-- frailty&#45;&gt;lambda_ -->
<g id="edge10" class="edge">
<title>frailty&#45;&gt;lambda_</title>
<path fill="none" stroke="black" d="M225.71,-361.85C282.87,-342.62 387.66,-307.38 452.61,-285.53"/>
<polygon fill="black" stroke="black" points="453.67,-288.87 462.03,-282.36 451.44,-282.23 453.67,-288.87"/>
</g>
<!-- beta -->
<g id="node7" class="node">
<title>beta</title>
<ellipse fill="none" stroke="black" cx="625.33" cy="-498.38" rx="41.94" ry="37.45"/>
<text text-anchor="middle" x="625.33" y="-509.68" font-family="Times,serif" font-size="14.00">beta</text>
<text text-anchor="middle" x="625.33" y="-494.68" font-family="Times,serif" font-size="14.00">~</text>
<text text-anchor="middle" x="625.33" y="-479.68" font-family="Times,serif" font-size="14.00">Normal</text>
</g>
<!-- beta&#45;&gt;lambda_m -->
<g id="edge3" class="edge">
<title>beta&#45;&gt;lambda_m</title>
<path fill="none" stroke="black" d="M602.59,-466.44C593.37,-454.58 582.31,-441.2 571.33,-429.91 564.89,-423.3 557.7,-416.64 550.56,-410.39"/>
<polygon fill="black" stroke="black" points="553.26,-408.1 543.39,-404.25 548.71,-413.41 553.26,-408.1"/>
</g>
<!-- beta&#45;&gt;lambda_f -->
<g id="edge6" class="edge">
<title>beta&#45;&gt;lambda_f</title>
<path fill="none" stroke="black" d="M625.33,-460.74C625.33,-446.06 625.33,-429.18 625.33,-414.46"/>
<polygon fill="black" stroke="black" points="628.83,-414.72 625.33,-404.72 621.83,-414.72 628.83,-414.72"/>
</g>
<!-- lambda_m&#45;&gt;lambda_ -->
<g id="edge11" class="edge">
<title>lambda_m&#45;&gt;lambda_</title>
<path fill="none" stroke="black" d="M509.33,-349.6C509.33,-335.76 509.33,-318.47 509.33,-303.24"/>
<polygon fill="black" stroke="black" points="512.83,-303.61 509.33,-293.61 505.83,-303.61 512.83,-303.61"/>
</g>
<!-- lambda_f&#45;&gt;lambda_ -->
<g id="edge9" class="edge">
<title>lambda_f&#45;&gt;lambda_</title>
<path fill="none" stroke="black" d="M605.46,-349.45C594.83,-336.33 581.12,-320.57 567.33,-307.95 564.13,-305.03 560.72,-302.13 557.22,-299.3"/>
<polygon fill="black" stroke="black" points="559.64,-296.74 549.59,-293.37 555.34,-302.27 559.64,-296.74"/>
</g>
<!-- mu -->
<g id="node10" class="node">
<title>mu</title>
<polygon fill="none" stroke="black" points="554.83,-202.95 463.83,-202.95 463.83,-149.95 554.83,-149.95 554.83,-202.95"/>
<text text-anchor="middle" x="509.33" y="-187.75" font-family="Times,serif" font-size="14.00">mu</text>
<text text-anchor="middle" x="509.33" y="-172.75" font-family="Times,serif" font-size="14.00">~</text>
<text text-anchor="middle" x="509.33" y="-157.75" font-family="Times,serif" font-size="14.00">Deterministic</text>
</g>
<!-- outcome -->
<g id="node12" class="node">
<title>outcome</title>
<ellipse fill="lightgrey" stroke="black" cx="509.33" cy="-76.48" rx="45.01" ry="37.45"/>
<text text-anchor="middle" x="509.33" y="-87.78" font-family="Times,serif" font-size="14.00">outcome</text>
<text text-anchor="middle" x="509.33" y="-72.78" font-family="Times,serif" font-size="14.00">~</text>
<text text-anchor="middle" x="509.33" y="-57.78" font-family="Times,serif" font-size="14.00">Poisson</text>
</g>
<!-- mu&#45;&gt;outcome -->
<g id="edge13" class="edge">
<title>mu&#45;&gt;outcome</title>
<path fill="none" stroke="black" d="M509.33,-149.45C509.33,-142.13 509.33,-133.93 509.33,-125.75"/>
<polygon fill="black" stroke="black" points="512.83,-125.81 509.33,-115.81 505.83,-125.81 512.83,-125.81"/>
</g>
<!-- lambda_&#45;&gt;mu -->
<g id="edge12" class="edge">
<title>lambda_&#45;&gt;mu</title>
<path fill="none" stroke="black" d="M509.33,-238.82C509.33,-231.19 509.33,-222.67 509.33,-214.47"/>
<polygon fill="black" stroke="black" points="512.83,-214.72 509.33,-204.72 505.83,-214.72 512.83,-214.72"/>
</g>
</g>
</svg>