<?xml version="1.0" encoding="UTF-8" standalone="no"?>
<!DOCTYPE svg PUBLIC "-//W3C//DTD SVG 1.1//EN"
 "http://www.w3.org/Graphics/SVG/1.1/DTD/svg11.dtd">
<!-- Generated by graphviz version 13.1.0 (0)
 -->
<!-- Pages: 1 -->
<svg width="983pt" height="591pt"
 viewBox="0.00 0.00 983.00 591.00" xmlns="http://www.w3.org/2000/svg" xmlns:xlink="http://www.w3.org/1999/xlink">
<g id="graph0" class="graph" transform="scale(1 1) rotate(0) translate(4 587.27)">
<polygon fill="white" stroke="none" points="-4,4 -4,-587.27 979.18,-587.27 979.18,4 -4,4"/>
<g id="clust1" class="cluster">
<title>clusterobs (4000) x beta_trt (3)</title>
<path fill="none" stroke="black" d="M20,-348.04C20,-348.04 145,-348.04 145,-348.04 151,-348.04 157,-354.04 157,-360.04 157,-360.04 157,-434.04 157,-434.04 157,-440.04 151,-446.04 145,-446.04 145,-446.04 20,-446.04 20,-446.04 14,-446.04 8,-440.04 8,-434.04 8,-434.04 8,-360.04 8,-360.04 8,-354.04 14,-348.04 20,-348.04"/>
<text xml:space="preserve" text-anchor="middle" x="82.25" y="-355.24" font-family="Times,serif" font-size="14.00">obs (4000) x beta_trt (3)</text>
</g>
<g id="clust2" class="cluster">
<title>clusterobs (4000) x betas (2)</title>
<path fill="none" stroke="black" d="M353,-230.73C353,-230.73 465,-230.73 465,-230.73 471,-230.73 477,-236.73 477,-242.73 477,-242.73 477,-316.73 477,-316.73 477,-322.73 471,-328.73 465,-328.73 465,-328.73 353,-328.73 353,-328.73 347,-328.73 341,-322.73 341,-316.73 341,-316.73 341,-242.73 341,-242.73 341,-236.73 347,-230.73 353,-230.73"/>
<text xml:space="preserve" text-anchor="middle" x="409" y="-237.93" font-family="Times,serif" font-size="14.00">obs (4000) x betas (2)</text>
</g>
<g id="clust3" class="cluster">
<title>clusterobs (4000)</title>
<path fill="none" stroke="black" d="M135,-8C135,-8 321,-8 321,-8 327,-8 333,-14 333,-20 333,-20 333,-316.73 333,-316.73 333,-322.73 327,-328.73 321,-328.73 321,-328.73 135,-328.73 135,-328.73 129,-328.73 123,-322.73 123,-316.73 123,-316.73 123,-20 123,-20 123,-14 129,-8 135,-8"/>
<text xml:space="preserve" text-anchor="middle" x="295.75" y="-15.2" font-family="Times,serif" font-size="14.00">obs (4000)</text>
</g>
<g id="clust4" class="cluster">
<title>clusterbetas_trt (3)</title>
<path fill="none" stroke="black" d="M177,-348.04C177,-348.04 281,-348.04 281,-348.04 287,-348.04 293,-354.04 293,-360.04 293,-360.04 293,-563.27 293,-563.27 293,-569.27 287,-575.27 281,-575.27 281,-575.27 177,-575.27 177,-575.27 171,-575.27 165,-569.27 165,-563.27 165,-563.27 165,-360.04 165,-360.04 165,-354.04 171,-348.04 177,-348.04"/>
<text xml:space="preserve" text-anchor="middle" x="252" y="-355.24" font-family="Times,serif" font-size="14.00">betas_trt (3)</text>
</g>
<g id="clust5" class="cluster">
<title>clusterbetas (2)</title>
<path fill="none" stroke="black" d="M497,-230.73C497,-230.73 579,-230.73 579,-230.73 585,-230.73 591,-236.73 591,-242.73 591,-242.73 591,-445.95 591,-445.95 591,-451.95 585,-457.95 579,-457.95 579,-457.95 497,-457.95 497,-457.95 491,-457.95 485,-451.95 485,-445.95 485,-445.95 485,-242.73 485,-242.73 485,-236.73 491,-230.73 497,-230.73"/>
<text xml:space="preserve" text-anchor="middle" x="559.38" y="-237.93" font-family="Times,serif" font-size="14.00">betas (2)</text>
</g>
<!-- X -->
<g id="node1" class="node">
<title>X</title>
<path fill="lightgrey" stroke="black" d="M137,-438.04C137,-438.04 107,-438.04 107,-438.04 101,-438.04 95,-432.04 95,-426.04 95,-426.04 95,-392.54 95,-392.54 95,-386.54 101,-380.54 107,-380.54 107,-380.54 137,-380.54 137,-380.54 143,-380.54 149,-386.54 149,-392.54 149,-392.54 149,-426.04 149,-426.04 149,-432.04 143,-438.04 137,-438.04"/>
<text xml:space="preserve" text-anchor="middle" x="122" y="-420.74" font-family="Times,serif" font-size="14.00">X</text>
<text xml:space="preserve" text-anchor="middle" x="122" y="-404.24" font-family="Times,serif" font-size="14.00">~</text>
<text xml:space="preserve" text-anchor="middle" x="122" y="-387.74" font-family="Times,serif" font-size="14.00">Data</text>
</g>
<!-- p -->
<g id="node6" class="node">
<title>p</title>
<polygon fill="none" stroke="black" points="274.12,-320.73 183.88,-320.73 183.88,-263.23 274.12,-263.23 274.12,-320.73"/>
<text xml:space="preserve" text-anchor="middle" x="229" y="-303.43" font-family="Times,serif" font-size="14.00">p</text>
<text xml:space="preserve" text-anchor="middle" x="229" y="-286.93" font-family="Times,serif" font-size="14.00">~</text>
<text xml:space="preserve" text-anchor="middle" x="229" y="-270.43" font-family="Times,serif" font-size="14.00">Deterministic</text>
</g>
<!-- X&#45;&gt;p -->
<g id="edge5" class="edge">
<title>X&#45;&gt;p</title>
<path fill="none" stroke="black" d="M137.57,-380.29C144.12,-369.66 152.25,-357.77 161,-348.04 167.2,-341.14 174.32,-334.4 181.56,-328.13"/>
<polygon fill="black" stroke="black" points="183.48,-331.08 188.91,-321.98 178.99,-325.72 183.48,-331.08"/>
</g>
<!-- X_outcome -->
<g id="node2" class="node">
<title>X_outcome</title>
<path fill="lightgrey" stroke="black" d="M416.88,-320.73C416.88,-320.73 361.12,-320.73 361.12,-320.73 355.12,-320.73 349.12,-314.73 349.12,-308.73 349.12,-308.73 349.12,-275.23 349.12,-275.23 349.12,-269.23 355.12,-263.23 361.12,-263.23 361.12,-263.23 416.88,-263.23 416.88,-263.23 422.88,-263.23 428.88,-269.23 428.88,-275.23 428.88,-275.23 428.88,-308.73 428.88,-308.73 428.88,-314.73 422.88,-320.73 416.88,-320.73"/>
<text xml:space="preserve" text-anchor="middle" x="389" y="-303.43" font-family="Times,serif" font-size="14.00">X_outcome</text>
<text xml:space="preserve" text-anchor="middle" x="389" y="-286.93" font-family="Times,serif" font-size="14.00">~</text>
<text xml:space="preserve" text-anchor="middle" x="389" y="-270.43" font-family="Times,serif" font-size="14.00">Data</text>
</g>
<!-- like -->
<g id="node5" class="node">
<title>like</title>
<ellipse fill="lightgrey" stroke="black" cx="284" cy="-174.66" rx="41.01" ry="40.66"/>
<text xml:space="preserve" text-anchor="middle" x="284" y="-186.11" font-family="Times,serif" font-size="14.00">like</text>
<text xml:space="preserve" text-anchor="middle" x="284" y="-169.61" font-family="Times,serif" font-size="14.00">~</text>
<text xml:space="preserve" text-anchor="middle" x="284" y="-153.11" font-family="Times,serif" font-size="14.00">Normal</text>
</g>
<!-- X_outcome&#45;&gt;like -->
<g id="edge9" class="edge">
<title>X_outcome&#45;&gt;like</title>
<path fill="none" stroke="black" d="M365.23,-262.8C356.48,-252.59 346.4,-241.04 337,-230.73 331.59,-224.79 325.78,-218.59 320.06,-212.57"/>
<polygon fill="black" stroke="black" points="322.85,-210.42 313.4,-205.62 317.79,-215.27 322.85,-210.42"/>
</g>
<!-- Y -->
<g id="node3" class="node">
<title>Y</title>
<path fill="lightgrey" stroke="black" d="M299,-98C299,-98 269,-98 269,-98 263,-98 257,-92 257,-86 257,-86 257,-52.5 257,-52.5 257,-46.5 263,-40.5 269,-40.5 269,-40.5 299,-40.5 299,-40.5 305,-40.5 311,-46.5 311,-52.5 311,-52.5 311,-86 311,-86 311,-92 305,-98 299,-98"/>
<text xml:space="preserve" text-anchor="middle" x="284" y="-80.7" font-family="Times,serif" font-size="14.00">Y</text>
<text xml:space="preserve" text-anchor="middle" x="284" y="-64.2" font-family="Times,serif" font-size="14.00">~</text>
<text xml:space="preserve" text-anchor="middle" x="284" y="-47.7" font-family="Times,serif" font-size="14.00">Data</text>
</g>
<!-- t_pred -->
<g id="node4" class="node">
<title>t_pred</title>
<ellipse fill="lightgrey" stroke="black" cx="178" cy="-174.66" rx="47.38" ry="40.66"/>
<text xml:space="preserve" text-anchor="middle" x="178" y="-186.11" font-family="Times,serif" font-size="14.00">t_pred</text>
<text xml:space="preserve" text-anchor="middle" x="178" y="-169.61" font-family="Times,serif" font-size="14.00">~</text>
<text xml:space="preserve" text-anchor="middle" x="178" y="-153.11" font-family="Times,serif" font-size="14.00">Bernoulli</text>
</g>
<!-- T -->
<g id="node7" class="node">
<title>T</title>
<path fill="lightgrey" stroke="black" d="M193,-98C193,-98 163,-98 163,-98 157,-98 151,-92 151,-86 151,-86 151,-52.5 151,-52.5 151,-46.5 157,-40.5 163,-40.5 163,-40.5 193,-40.5 193,-40.5 199,-40.5 205,-46.5 205,-52.5 205,-52.5 205,-86 205,-86 205,-92 199,-98 193,-98"/>
<text xml:space="preserve" text-anchor="middle" x="178" y="-80.7" font-family="Times,serif" font-size="14.00">T</text>
<text xml:space="preserve" text-anchor="middle" x="178" y="-64.2" font-family="Times,serif" font-size="14.00">~</text>
<text xml:space="preserve" text-anchor="middle" x="178" y="-47.7" font-family="Times,serif" font-size="14.00">Data</text>
</g>
<!-- t_pred&#45;&gt;T -->
<g id="edge1" class="edge">
<title>t_pred&#45;&gt;T</title>
<path fill="none" stroke="black" d="M178,-133.68C178,-125.83 178,-117.6 178,-109.76"/>
<polygon fill="black" stroke="black" points="181.5,-109.79 178,-99.79 174.5,-109.79 181.5,-109.79"/>
</g>
<!-- like&#45;&gt;Y -->
<g id="edge2" class="edge">
<title>like&#45;&gt;Y</title>
<path fill="none" stroke="black" d="M284,-133.68C284,-125.83 284,-117.6 284,-109.76"/>
<polygon fill="black" stroke="black" points="287.5,-109.79 284,-99.79 280.5,-109.79 287.5,-109.79"/>
</g>
<!-- p&#45;&gt;t_pred -->
<g id="edge8" class="edge">
<title>p&#45;&gt;t_pred</title>
<path fill="none" stroke="black" d="M216.52,-262.77C211.31,-250.98 205.11,-236.95 199.22,-223.63"/>
<polygon fill="black" stroke="black" points="202.44,-222.27 195.2,-214.54 196.04,-225.1 202.44,-222.27"/>
</g>
<!-- p&#45;&gt;like -->
<g id="edge11" class="edge">
<title>p&#45;&gt;like</title>
<path fill="none" stroke="black" d="M242.45,-262.77C248.28,-250.55 255.26,-235.91 261.82,-222.16"/>
<polygon fill="black" stroke="black" points="264.93,-223.77 266.08,-213.23 258.61,-220.75 264.93,-223.77"/>
</g>
<!-- beta_trt_std -->
<g id="node8" class="node">
<title>beta_trt_std</title>
<ellipse fill="none" stroke="black" cx="229" cy="-526.61" rx="56.39" ry="40.66"/>
<text xml:space="preserve" text-anchor="middle" x="229" y="-538.06" font-family="Times,serif" font-size="14.00">beta_trt_std</text>
<text xml:space="preserve" text-anchor="middle" x="229" y="-521.56" font-family="Times,serif" font-size="14.00">~</text>
<text xml:space="preserve" text-anchor="middle" x="229" y="-505.06" font-family="Times,serif" font-size="14.00">Normal</text>
</g>
<!-- beta_trt_ -->
<g id="node9" class="node">
<title>beta_trt_</title>
<polygon fill="none" stroke="black" points="274.12,-438.04 183.88,-438.04 183.88,-380.54 274.12,-380.54 274.12,-438.04"/>
<text xml:space="preserve" text-anchor="middle" x="229" y="-420.74" font-family="Times,serif" font-size="14.00">beta_trt_</text>
<text xml:space="preserve" text-anchor="middle" x="229" y="-404.24" font-family="Times,serif" font-size="14.00">~</text>
<text xml:space="preserve" text-anchor="middle" x="229" y="-387.74" font-family="Times,serif" font-size="14.00">Deterministic</text>
</g>
<!-- beta_trt_std&#45;&gt;beta_trt_ -->
<g id="edge3" class="edge">
<title>beta_trt_std&#45;&gt;beta_trt_</title>
<path fill="none" stroke="black" d="M229,-485.6C229,-473.89 229,-461.11 229,-449.45"/>
<polygon fill="black" stroke="black" points="232.5,-449.77 229,-439.77 225.5,-449.77 232.5,-449.77"/>
</g>
<!-- beta_trt_&#45;&gt;p -->
<g id="edge6" class="edge">
<title>beta_trt_&#45;&gt;p</title>
<path fill="none" stroke="black" d="M229,-380.08C229,-365.74 229,-348.07 229,-332.4"/>
<polygon fill="black" stroke="black" points="232.5,-332.41 229,-322.41 225.5,-332.41 232.5,-332.41"/>
</g>
<!-- beta_ -->
<g id="node10" class="node">
<title>beta_</title>
<polygon fill="none" stroke="black" points="583.12,-320.73 492.88,-320.73 492.88,-263.23 583.12,-263.23 583.12,-320.73"/>
<text xml:space="preserve" text-anchor="middle" x="538" y="-303.43" font-family="Times,serif" font-size="14.00">beta_</text>
<text xml:space="preserve" text-anchor="middle" x="538" y="-286.93" font-family="Times,serif" font-size="14.00">~</text>
<text xml:space="preserve" text-anchor="middle" x="538" y="-270.43" font-family="Times,serif" font-size="14.00">Deterministic</text>
</g>
<!-- beta_&#45;&gt;like -->
<g id="edge12" class="edge">
<title>beta_&#45;&gt;like</title>
<path fill="none" stroke="black" d="M517.03,-262.83C507.22,-251.41 494.69,-238.98 481,-230.73 436.25,-203.73 377.85,-189.57 336.28,-182.42"/>
<polygon fill="black" stroke="black" points="336.95,-178.98 326.52,-180.82 335.83,-185.89 336.95,-178.98"/>
</g>
<!-- beta_std -->
<g id="node11" class="node">
<title>beta_std</title>
<ellipse fill="none" stroke="black" cx="538" cy="-409.29" rx="43.13" ry="40.66"/>
<text xml:space="preserve" text-anchor="middle" x="538" y="-420.74" font-family="Times,serif" font-size="14.00">beta_std</text>
<text xml:space="preserve" text-anchor="middle" x="538" y="-404.24" font-family="Times,serif" font-size="14.00">~</text>
<text xml:space="preserve" text-anchor="middle" x="538" y="-387.74" font-family="Times,serif" font-size="14.00">Normal</text>
</g>
<!-- beta_std&#45;&gt;beta_ -->
<g id="edge4" class="edge">
<title>beta_std&#45;&gt;beta_</title>
<path fill="none" stroke="black" d="M538,-368.28C538,-356.58 538,-343.79 538,-332.14"/>
<polygon fill="black" stroke="black" points="541.5,-332.45 538,-322.45 534.5,-332.45 541.5,-332.45"/>
</g>
<!-- sigma -->
<g id="node12" class="node">
<title>sigma</title>
<ellipse fill="none" stroke="black" cx="659" cy="-291.98" rx="57.98" ry="40.66"/>
<text xml:space="preserve" text-anchor="middle" x="659" y="-303.43" font-family="Times,serif" font-size="14.00">sigma</text>
<text xml:space="preserve" text-anchor="middle" x="659" y="-286.93" font-family="Times,serif" font-size="14.00">~</text>
<text xml:space="preserve" text-anchor="middle" x="659" y="-270.43" font-family="Times,serif" font-size="14.00">HalfNormal</text>
</g>
<!-- sigma&#45;&gt;like -->
<g id="edge14" class="edge">
<title>sigma&#45;&gt;like</title>
<path fill="none" stroke="black" d="M629.63,-256.55C619.6,-246.79 607.68,-237.09 595,-230.73 511.38,-188.75 401.07,-178.27 336.79,-175.94"/>
<polygon fill="black" stroke="black" points="336.96,-172.45 326.86,-175.64 336.75,-179.44 336.96,-172.45"/>
</g>
<!-- alpha_trt -->
<g id="node13" class="node">
<title>alpha_trt</title>
<ellipse fill="none" stroke="black" cx="346" cy="-409.29" rx="45.25" ry="40.66"/>
<text xml:space="preserve" text-anchor="middle" x="346" y="-420.74" font-family="Times,serif" font-size="14.00">alpha_trt</text>
<text xml:space="preserve" text-anchor="middle" x="346" y="-404.24" font-family="Times,serif" font-size="14.00">~</text>
<text xml:space="preserve" text-anchor="middle" x="346" y="-387.74" font-family="Times,serif" font-size="14.00">Normal</text>
</g>
<!-- alpha_trt&#45;&gt;p -->
<g id="edge7" class="edge">
<title>alpha_trt&#45;&gt;p</title>
<path fill="none" stroke="black" d="M320.99,-375.02C313.62,-365.94 305.3,-356.33 297,-348.04 290.28,-341.33 282.78,-334.62 275.29,-328.29"/>
<polygon fill="black" stroke="black" points="277.65,-325.71 267.71,-322.04 273.2,-331.11 277.65,-325.71"/>
</g>
<!-- beta_ps -->
<g id="node14" class="node">
<title>beta_ps</title>
<ellipse fill="none" stroke="black" cx="776" cy="-291.98" rx="41.01" ry="40.66"/>
<text xml:space="preserve" text-anchor="middle" x="776" y="-303.43" font-family="Times,serif" font-size="14.00">beta_ps</text>
<text xml:space="preserve" text-anchor="middle" x="776" y="-286.93" font-family="Times,serif" font-size="14.00">~</text>
<text xml:space="preserve" text-anchor="middle" x="776" y="-270.43" font-family="Times,serif" font-size="14.00">Normal</text>
</g>
<!-- beta_ps&#45;&gt;like -->
<g id="edge10" class="edge">
<title>beta_ps&#45;&gt;like</title>
<path fill="none" stroke="black" d="M754.99,-256.82C747.13,-246.82 737.33,-236.93 726,-230.73 659.96,-194.56 438.61,-181.55 336.46,-177.4"/>
<polygon fill="black" stroke="black" points="336.84,-173.91 326.71,-177.01 336.57,-180.9 336.84,-173.91"/>
</g>
<!-- alpha_outcome -->
<g id="node15" class="node">
<title>alpha_outcome</title>
<ellipse fill="none" stroke="black" cx="905" cy="-291.98" rx="70.18" ry="40.66"/>
<text xml:space="preserve" text-anchor="middle" x="905" y="-303.43" font-family="Times,serif" font-size="14.00">alpha_outcome</text>
<text xml:space="preserve" text-anchor="middle" x="905" y="-286.93" font-family="Times,serif" font-size="14.00">~</text>
<text xml:space="preserve" text-anchor="middle" x="905" y="-270.43" font-family="Times,serif" font-size="14.00">Normal</text>
</g>
<!-- alpha_outcome&#45;&gt;like -->
<g id="edge13" class="edge">
<title>alpha_outcome&#45;&gt;like</title>
<path fill="none" stroke="black" d="M869.04,-256.92C856.36,-246.81 841.4,-236.81 826,-230.73 737.68,-195.82 454.42,-181.79 336.39,-177.37"/>
<polygon fill="black" stroke="black" points="336.8,-173.88 326.68,-177.01 336.54,-180.87 336.8,-173.88"/>
</g>
</g>
</svg>