<?xml version="1.0" encoding="UTF-8" standalone="no"?>
<!DOCTYPE svg PUBLIC "-//W3C//DTD SVG 1.1//EN"
 "http://www.w3.org/Graphics/SVG/1.1/DTD/svg11.dtd">
<!-- Generated by graphviz version 13.1.2 (0)
 -->
<!-- Pages: 1 -->
<svg width="1168pt" height="709pt"
 viewBox="0.00 0.00 1168.00 709.00" xmlns="http://www.w3.org/2000/svg" xmlns:xlink="http://www.w3.org/1999/xlink">
<g id="graph0" class="graph" transform="scale(1 1) rotate(0) translate(4 705.18)">
<polygon fill="white" stroke="none" points="-4,4 -4,-705.18 1164.12,-705.18 1164.12,4 -4,4"/>
<g id="clust1" class="cluster">
<title>clusterbeta_outcome (9)</title>
<path fill="none" stroke="black" d="M532.12,-348.63C532.12,-348.63 782.12,-348.63 782.12,-348.63 788.12,-348.63 794.12,-354.63 794.12,-360.63 794.12,-360.63 794.12,-563.86 794.12,-563.86 794.12,-569.86 788.12,-575.86 782.12,-575.86 782.12,-575.86 532.12,-575.86 532.12,-575.86 526.12,-575.86 520.12,-569.86 520.12,-563.86 520.12,-563.86 520.12,-360.63 520.12,-360.63 520.12,-354.63 526.12,-348.63 532.12,-348.63"/>
<text xml:space="preserve" text-anchor="middle" x="738.12" y="-355.83" font-family="Times,serif" font-size="14.00">beta_outcome (9)</text>
</g>
<g id="clust2" class="cluster">
<title>cluster9</title>
<path fill="none" stroke="black" d="M310.12,-465.95C310.12,-465.95 500.12,-465.95 500.12,-465.95 506.12,-465.95 512.12,-471.95 512.12,-477.95 512.12,-477.95 512.12,-551.95 512.12,-551.95 512.12,-557.95 506.12,-563.95 500.12,-563.95 500.12,-563.95 310.12,-563.95 310.12,-563.95 304.12,-563.95 298.12,-557.95 298.12,-551.95 298.12,-551.95 298.12,-477.95 298.12,-477.95 298.12,-471.95 304.12,-465.95 310.12,-465.95"/>
<text xml:space="preserve" text-anchor="middle" x="500.75" y="-473.15" font-family="Times,serif" font-size="14.00">9</text>
</g>
<g id="clust3" class="cluster">
<title>clusterbeta_treatment (9)</title>
<path fill="none" stroke="black" d="M894.12,-465.95C894.12,-465.95 1140.12,-465.95 1140.12,-465.95 1146.12,-465.95 1152.12,-471.95 1152.12,-477.95 1152.12,-477.95 1152.12,-681.18 1152.12,-681.18 1152.12,-687.18 1146.12,-693.18 1140.12,-693.18 1140.12,-693.18 894.12,-693.18 894.12,-693.18 888.12,-693.18 882.12,-687.18 882.12,-681.18 882.12,-681.18 882.12,-477.95 882.12,-477.95 882.12,-471.95 888.12,-465.95 894.12,-465.95"/>
<text xml:space="preserve" text-anchor="middle" x="1093.88" y="-473.15" font-family="Times,serif" font-size="14.00">beta_treatment (9)</text>
</g>
<g id="clust4" class="cluster">
<title>cluster2500 x 9</title>
<path fill="none" stroke="black" d="M814.12,-465.95C814.12,-465.95 862.12,-465.95 862.12,-465.95 868.12,-465.95 874.12,-471.95 874.12,-477.95 874.12,-477.95 874.12,-551.95 874.12,-551.95 874.12,-557.95 868.12,-563.95 862.12,-563.95 862.12,-563.95 814.12,-563.95 814.12,-563.95 808.12,-563.95 802.12,-557.95 802.12,-551.95 802.12,-551.95 802.12,-477.95 802.12,-477.95 802.12,-471.95 808.12,-465.95 814.12,-465.95"/>
<text xml:space="preserve" text-anchor="middle" x="842.12" y="-473.15" font-family="Times,serif" font-size="14.00">2500 x 9</text>
</g>
<g id="clust5" class="cluster">
<title>cluster2500 x 2</title>
<path fill="none" stroke="black" d="M437.12,-8C437.12,-8 611.12,-8 611.12,-8 617.12,-8 623.12,-14 623.12,-20 623.12,-20 623.12,-211.32 623.12,-211.32 623.12,-217.32 617.12,-223.32 611.12,-223.32 611.12,-223.32 437.12,-223.32 437.12,-223.32 431.12,-223.32 425.12,-217.32 425.12,-211.32 425.12,-211.32 425.12,-20 425.12,-20 425.12,-14 431.12,-8 437.12,-8"/>
<text xml:space="preserve" text-anchor="middle" x="591.12" y="-15.2" font-family="Times,serif" font-size="14.00">2500 x 2</text>
</g>
<g id="clust6" class="cluster">
<title>cluster2500</title>
<path fill="none" stroke="black" d="M844.12,-231.32C844.12,-231.32 928.12,-231.32 928.12,-231.32 934.12,-231.32 940.12,-237.32 940.12,-243.32 940.12,-243.32 940.12,-434.63 940.12,-434.63 940.12,-440.63 934.12,-446.63 928.12,-446.63 928.12,-446.63 844.12,-446.63 844.12,-446.63 838.12,-446.63 832.12,-440.63 832.12,-434.63 832.12,-434.63 832.12,-243.32 832.12,-243.32 832.12,-237.32 838.12,-231.32 844.12,-231.32"/>
<text xml:space="preserve" text-anchor="middle" x="918.62" y="-238.52" font-family="Times,serif" font-size="14.00">2500</text>
</g>
<!-- upper -->
<g id="node1" class="node">
<title>upper</title>
<polygon fill="none" stroke="black" points="192.25,-438.63 102,-438.63 102,-381.13 192.25,-381.13 192.25,-438.63"/>
<text xml:space="preserve" text-anchor="middle" x="147.12" y="-421.33" font-family="Times,serif" font-size="14.00">upper</text>
<text xml:space="preserve" text-anchor="middle" x="147.12" y="-404.83" font-family="Times,serif" font-size="14.00">~</text>
<text xml:space="preserve" text-anchor="middle" x="147.12" y="-388.33" font-family="Times,serif" font-size="14.00">Deterministic</text>
</g>
<!-- rho -->
<g id="node4" class="node">
<title>rho</title>
<ellipse fill="none" stroke="black" cx="266.12" cy="-292.57" rx="44.72" ry="40.66"/>
<text xml:space="preserve" text-anchor="middle" x="266.12" y="-304.02" font-family="Times,serif" font-size="14.00">rho</text>
<text xml:space="preserve" text-anchor="middle" x="266.12" y="-287.52" font-family="Times,serif" font-size="14.00">~</text>
<text xml:space="preserve" text-anchor="middle" x="266.12" y="-271.02" font-family="Times,serif" font-size="14.00">Uniform</text>
</g>
<!-- upper&#45;&gt;rho -->
<g id="edge17" class="edge">
<title>upper&#45;&gt;rho</title>
<path fill="none" stroke="black" d="M170.82,-380.85C179.99,-370.44 190.75,-358.72 201.12,-348.63 208.37,-341.59 216.37,-334.39 224.21,-327.61"/>
<polygon fill="black" stroke="black" points="226.46,-330.3 231.8,-321.15 221.92,-324.97 226.46,-330.3"/>
</g>
<!-- cov_YD -->
<g id="node2" class="node">
<title>cov_YD</title>
<polygon fill="none" stroke="black" points="198.25,-203.41 108,-203.41 108,-145.91 198.25,-145.91 198.25,-203.41"/>
<text xml:space="preserve" text-anchor="middle" x="153.12" y="-186.11" font-family="Times,serif" font-size="14.00">cov_YD</text>
<text xml:space="preserve" text-anchor="middle" x="153.12" y="-169.61" font-family="Times,serif" font-size="14.00">~</text>
<text xml:space="preserve" text-anchor="middle" x="153.12" y="-153.11" font-family="Times,serif" font-size="14.00">Deterministic</text>
</g>
<!-- pi_O -->
<g id="node3" class="node">
<title>pi_O</title>
<ellipse fill="none" stroke="black" cx="351.12" cy="-644.52" rx="30.41" ry="40.66"/>
<text xml:space="preserve" text-anchor="middle" x="351.12" y="-655.97" font-family="Times,serif" font-size="14.00">pi_O</text>
<text xml:space="preserve" text-anchor="middle" x="351.12" y="-639.47" font-family="Times,serif" font-size="14.00">~</text>
<text xml:space="preserve" text-anchor="middle" x="351.12" y="-622.97" font-family="Times,serif" font-size="14.00">Beta</text>
</g>
<!-- gamma_O -->
<g id="node19" class="node">
<title>gamma_O</title>
<polygon fill="none" stroke="black" points="396.25,-555.95 306,-555.95 306,-498.45 396.25,-498.45 396.25,-555.95"/>
<text xml:space="preserve" text-anchor="middle" x="351.12" y="-538.65" font-family="Times,serif" font-size="14.00">gamma_O</text>
<text xml:space="preserve" text-anchor="middle" x="351.12" y="-522.15" font-family="Times,serif" font-size="14.00">~</text>
<text xml:space="preserve" text-anchor="middle" x="351.12" y="-505.65" font-family="Times,serif" font-size="14.00">Deterministic</text>
</g>
<!-- pi_O&#45;&gt;gamma_O -->
<g id="edge2" class="edge">
<title>pi_O&#45;&gt;gamma_O</title>
<path fill="none" stroke="black" d="M351.12,-603.51C351.12,-591.8 351.12,-579.02 351.12,-567.36"/>
<polygon fill="black" stroke="black" points="354.63,-567.68 351.13,-557.68 347.63,-567.68 354.63,-567.68"/>
</g>
<!-- rho&#45;&gt;cov_YD -->
<g id="edge32" class="edge">
<title>rho&#45;&gt;cov_YD</title>
<path fill="none" stroke="black" d="M238.86,-260.15C230.45,-250.73 221.05,-240.47 212.12,-231.32 205.7,-224.72 198.7,-217.86 191.85,-211.31"/>
<polygon fill="black" stroke="black" points="194.68,-209.16 185.01,-204.82 189.86,-214.24 194.68,-209.16"/>
</g>
<!-- var_Y -->
<g id="node5" class="node">
<title>var_Y</title>
<polygon fill="none" stroke="black" points="414.25,-203.41 324,-203.41 324,-145.91 414.25,-145.91 414.25,-203.41"/>
<text xml:space="preserve" text-anchor="middle" x="369.12" y="-186.11" font-family="Times,serif" font-size="14.00">var_Y</text>
<text xml:space="preserve" text-anchor="middle" x="369.12" y="-169.61" font-family="Times,serif" font-size="14.00">~</text>
<text xml:space="preserve" text-anchor="middle" x="369.12" y="-153.11" font-family="Times,serif" font-size="14.00">Deterministic</text>
</g>
<!-- rho&#45;&gt;var_Y -->
<g id="edge27" class="edge">
<title>rho&#45;&gt;var_Y</title>
<path fill="none" stroke="black" d="M294,-260.2C307.17,-245.38 322.97,-227.6 336.68,-212.17"/>
<polygon fill="black" stroke="black" points="339.02,-214.81 343.04,-205.01 333.78,-210.16 339.02,-214.81"/>
</g>
<!-- cov_UV -->
<g id="node7" class="node">
<title>cov_UV</title>
<polygon fill="none" stroke="black" points="306.25,-203.41 216,-203.41 216,-145.91 306.25,-145.91 306.25,-203.41"/>
<text xml:space="preserve" text-anchor="middle" x="261.12" y="-186.11" font-family="Times,serif" font-size="14.00">cov_UV</text>
<text xml:space="preserve" text-anchor="middle" x="261.12" y="-169.61" font-family="Times,serif" font-size="14.00">~</text>
<text xml:space="preserve" text-anchor="middle" x="261.12" y="-153.11" font-family="Times,serif" font-size="14.00">Deterministic</text>
</g>
<!-- rho&#45;&gt;cov_UV -->
<g id="edge35" class="edge">
<title>rho&#45;&gt;cov_UV</title>
<path fill="none" stroke="black" d="M264.4,-251.68C263.89,-239.79 263.33,-226.78 262.82,-214.93"/>
<polygon fill="black" stroke="black" points="266.32,-214.91 262.39,-205.07 259.33,-215.22 266.32,-214.91"/>
</g>
<!-- likelihood -->
<g id="node26" class="node">
<title>likelihood</title>
<ellipse fill="lightgrey" stroke="black" cx="524.12" cy="-174.66" rx="91.39" ry="40.66"/>
<text xml:space="preserve" text-anchor="middle" x="524.12" y="-186.11" font-family="Times,serif" font-size="14.00">likelihood</text>
<text xml:space="preserve" text-anchor="middle" x="524.12" y="-169.61" font-family="Times,serif" font-size="14.00">~</text>
<text xml:space="preserve" text-anchor="middle" x="524.12" y="-153.11" font-family="Times,serif" font-size="14.00">Multivariate_normal</text>
</g>
<!-- rho&#45;&gt;likelihood -->
<g id="edge38" class="edge">
<title>rho&#45;&gt;likelihood</title>
<path fill="none" stroke="black" d="M288.87,-257.38C297.42,-247.25 308.03,-237.29 320.12,-231.32 340.71,-221.15 400.93,-229.2 423.12,-223.32 434.34,-220.34 445.84,-216.15 456.87,-211.48"/>
<polygon fill="black" stroke="black" points="458.16,-214.73 465.89,-207.49 455.33,-208.33 458.16,-214.73"/>
</g>
<!-- lower -->
<g id="node6" class="node">
<title>lower</title>
<polygon fill="none" stroke="black" points="300.25,-438.63 210,-438.63 210,-381.13 300.25,-381.13 300.25,-438.63"/>
<text xml:space="preserve" text-anchor="middle" x="255.12" y="-421.33" font-family="Times,serif" font-size="14.00">lower</text>
<text xml:space="preserve" text-anchor="middle" x="255.12" y="-404.83" font-family="Times,serif" font-size="14.00">~</text>
<text xml:space="preserve" text-anchor="middle" x="255.12" y="-388.33" font-family="Times,serif" font-size="14.00">Deterministic</text>
</g>
<!-- lower&#45;&gt;rho -->
<g id="edge16" class="edge">
<title>lower&#45;&gt;rho</title>
<path fill="none" stroke="black" d="M257.82,-380.67C258.86,-369.75 260.08,-356.9 261.27,-344.47"/>
<polygon fill="black" stroke="black" points="264.73,-345.04 262.2,-334.75 257.76,-344.37 264.73,-345.04"/>
</g>
<!-- s -->
<g id="node8" class="node">
<title>s</title>
<ellipse fill="none" stroke="black" cx="268.12" cy="-644.52" rx="28.81" ry="40.66"/>
<text xml:space="preserve" text-anchor="middle" x="268.12" y="-655.97" font-family="Times,serif" font-size="14.00">s</text>
<text xml:space="preserve" text-anchor="middle" x="268.12" y="-639.47" font-family="Times,serif" font-size="14.00">~</text>
<text xml:space="preserve" text-anchor="middle" x="268.12" y="-622.97" font-family="Times,serif" font-size="14.00">Beta</text>
</g>
<!-- h -->
<g id="node12" class="node">
<title>h</title>
<polygon fill="none" stroke="black" points="288.25,-555.95 198,-555.95 198,-498.45 288.25,-498.45 288.25,-555.95"/>
<text xml:space="preserve" text-anchor="middle" x="243.12" y="-538.65" font-family="Times,serif" font-size="14.00">h</text>
<text xml:space="preserve" text-anchor="middle" x="243.12" y="-522.15" font-family="Times,serif" font-size="14.00">~</text>
<text xml:space="preserve" text-anchor="middle" x="243.12" y="-505.65" font-family="Times,serif" font-size="14.00">Deterministic</text>
</g>
<!-- s&#45;&gt;h -->
<g id="edge11" class="edge">
<title>s&#45;&gt;h</title>
<path fill="none" stroke="black" d="M259.8,-605.12C257.17,-593.01 254.27,-579.61 251.63,-567.44"/>
<polygon fill="black" stroke="black" points="255.06,-566.73 249.52,-557.7 248.22,-568.22 255.06,-566.73"/>
</g>
<!-- var_D -->
<g id="node9" class="node">
<title>var_D</title>
<polygon fill="none" stroke="black" points="90.25,-203.41 0,-203.41 0,-145.91 90.25,-145.91 90.25,-203.41"/>
<text xml:space="preserve" text-anchor="middle" x="45.12" y="-186.11" font-family="Times,serif" font-size="14.00">var_D</text>
<text xml:space="preserve" text-anchor="middle" x="45.12" y="-169.61" font-family="Times,serif" font-size="14.00">~</text>
<text xml:space="preserve" text-anchor="middle" x="45.12" y="-153.11" font-family="Times,serif" font-size="14.00">Deterministic</text>
</g>
<!-- sigma_V -->
<g id="node10" class="node">
<title>sigma_V</title>
<ellipse fill="none" stroke="black" cx="146.12" cy="-292.57" rx="57.45" ry="40.66"/>
<text xml:space="preserve" text-anchor="middle" x="146.12" y="-304.02" font-family="Times,serif" font-size="14.00">sigma_V</text>
<text xml:space="preserve" text-anchor="middle" x="146.12" y="-287.52" font-family="Times,serif" font-size="14.00">~</text>
<text xml:space="preserve" text-anchor="middle" x="146.12" y="-271.02" font-family="Times,serif" font-size="14.00">Exponential</text>
</g>
<!-- sigma_V&#45;&gt;cov_YD -->
<g id="edge29" class="edge">
<title>sigma_V&#45;&gt;cov_YD</title>
<path fill="none" stroke="black" d="M148.53,-251.68C149.25,-239.79 150.04,-226.78 150.75,-214.93"/>
<polygon fill="black" stroke="black" points="154.24,-215.27 151.35,-205.07 147.25,-214.84 154.24,-215.27"/>
</g>
<!-- sigma_V&#45;&gt;var_Y -->
<g id="edge24" class="edge">
<title>sigma_V&#45;&gt;var_Y</title>
<path fill="none" stroke="black" d="M175.23,-257.32C185.76,-247.19 198.46,-237.24 212.12,-231.32 254.26,-213.07 272.84,-241.21 315.12,-223.32 322.24,-220.31 329.07,-215.97 335.34,-211.12"/>
<polygon fill="black" stroke="black" points="337.53,-213.85 342.92,-204.73 333.02,-208.5 337.53,-213.85"/>
</g>
<!-- sigma_V&#45;&gt;cov_UV -->
<g id="edge33" class="edge">
<title>sigma_V&#45;&gt;cov_UV</title>
<path fill="none" stroke="black" d="M178.77,-258.66C193.34,-243.98 210.54,-226.64 225.45,-211.62"/>
<polygon fill="black" stroke="black" points="227.84,-214.18 232.39,-204.62 222.87,-209.25 227.84,-214.18"/>
</g>
<!-- sigma_V&#45;&gt;var_D -->
<g id="edge28" class="edge">
<title>sigma_V&#45;&gt;var_D</title>
<path fill="none" stroke="black" d="M116.37,-257.42C104.03,-243.26 89.7,-226.81 77.13,-212.39"/>
<polygon fill="black" stroke="black" points="79.78,-210.1 70.57,-204.86 74.5,-214.7 79.78,-210.1"/>
</g>
<!-- sigma_V&#45;&gt;likelihood -->
<g id="edge36" class="edge">
<title>sigma_V&#45;&gt;likelihood</title>
<path fill="none" stroke="black" d="M175.09,-257C185.62,-246.85 198.34,-236.96 212.12,-231.32 255.54,-213.53 377.54,-234.44 423.12,-223.32 434.54,-220.53 446.22,-216.39 457.39,-211.69"/>
<polygon fill="black" stroke="black" points="458.8,-214.9 466.53,-207.66 455.97,-208.49 458.8,-214.9"/>
</g>
<!-- sigma_U -->
<g id="node11" class="node">
<title>sigma_U</title>
<ellipse fill="none" stroke="black" cx="386.12" cy="-292.57" rx="57.45" ry="40.66"/>
<text xml:space="preserve" text-anchor="middle" x="386.12" y="-304.02" font-family="Times,serif" font-size="14.00">sigma_U</text>
<text xml:space="preserve" text-anchor="middle" x="386.12" y="-287.52" font-family="Times,serif" font-size="14.00">~</text>
<text xml:space="preserve" text-anchor="middle" x="386.12" y="-271.02" font-family="Times,serif" font-size="14.00">Exponential</text>
</g>
<!-- sigma_U&#45;&gt;cov_YD -->
<g id="edge31" class="edge">
<title>sigma_U&#45;&gt;cov_YD</title>
<path fill="none" stroke="black" d="M357.05,-257.26C346.52,-247.13 333.81,-237.19 320.12,-231.32 273.86,-211.47 253.56,-242.78 207.12,-223.32 200,-220.33 193.16,-216.01 186.9,-211.17"/>
<polygon fill="black" stroke="black" points="189.21,-208.54 179.31,-204.78 184.7,-213.9 189.21,-208.54"/>
</g>
<!-- sigma_U&#45;&gt;var_Y -->
<g id="edge26" class="edge">
<title>sigma_U&#45;&gt;var_Y</title>
<path fill="none" stroke="black" d="M380.27,-251.68C378.53,-239.79 376.62,-226.78 374.89,-214.93"/>
<polygon fill="black" stroke="black" points="378.35,-214.45 373.44,-205.06 371.43,-215.46 378.35,-214.45"/>
</g>
<!-- sigma_U&#45;&gt;cov_UV -->
<g id="edge34" class="edge">
<title>sigma_U&#45;&gt;cov_UV</title>
<path fill="none" stroke="black" d="M351.64,-259.59C335.51,-244.64 316.26,-226.78 299.66,-211.39"/>
<polygon fill="black" stroke="black" points="302.07,-208.85 292.36,-204.62 297.31,-213.99 302.07,-208.85"/>
</g>
<!-- sigma_U&#45;&gt;likelihood -->
<g id="edge37" class="edge">
<title>sigma_U&#45;&gt;likelihood</title>
<path fill="none" stroke="black" d="M422.74,-260.81C438.25,-247.79 456.57,-232.4 473.35,-218.31"/>
<polygon fill="black" stroke="black" points="475.39,-221.16 480.8,-212.05 470.89,-215.8 475.39,-221.16"/>
</g>
<!-- h&#45;&gt;upper -->
<g id="edge15" class="edge">
<title>h&#45;&gt;upper</title>
<path fill="none" stroke="black" d="M219.64,-497.99C207,-482.8 191.25,-463.88 177.66,-447.56"/>
<polygon fill="black" stroke="black" points="180.42,-445.41 171.34,-439.97 175.04,-449.89 180.42,-445.41"/>
</g>
<!-- h&#45;&gt;lower -->
<g id="edge13" class="edge">
<title>h&#45;&gt;lower</title>
<path fill="none" stroke="black" d="M246.06,-497.99C247.57,-483.51 249.43,-465.63 251.07,-449.85"/>
<polygon fill="black" stroke="black" points="254.51,-450.62 252.06,-440.31 247.55,-449.89 254.51,-450.62"/>
</g>
<!-- m -->
<g id="node13" class="node">
<title>m</title>
<ellipse fill="none" stroke="black" cx="139.12" cy="-644.52" rx="82.38" ry="40.66"/>
<text xml:space="preserve" text-anchor="middle" x="139.12" y="-655.97" font-family="Times,serif" font-size="14.00">m</text>
<text xml:space="preserve" text-anchor="middle" x="139.12" y="-639.47" font-family="Times,serif" font-size="14.00">~</text>
<text xml:space="preserve" text-anchor="middle" x="139.12" y="-622.97" font-family="Times,serif" font-size="14.00">Truncated_normal</text>
</g>
<!-- m&#45;&gt;upper -->
<g id="edge14" class="edge">
<title>m&#45;&gt;upper</title>
<path fill="none" stroke="black" d="M140.5,-603.53C141.97,-560.66 144.3,-493.03 145.77,-450.36"/>
<polygon fill="black" stroke="black" points="149.26,-450.66 146.11,-440.54 142.26,-450.42 149.26,-450.66"/>
</g>
<!-- m&#45;&gt;lower -->
<g id="edge12" class="edge">
<title>m&#45;&gt;lower</title>
<path fill="none" stroke="black" d="M149,-603.71C161.29,-555.03 181.57,-477.61 189.12,-465.95 193.59,-459.06 199.18,-452.59 205.21,-446.68"/>
<polygon fill="black" stroke="black" points="207.5,-449.33 212.52,-439.99 202.78,-444.16 207.5,-449.33"/>
</g>
<!-- m&#45;&gt;h -->
<g id="edge10" class="edge">
<title>m&#45;&gt;h</title>
<path fill="none" stroke="black" d="M172.03,-607.03C184.14,-593.61 197.85,-578.41 209.98,-564.96"/>
<polygon fill="black" stroke="black" points="212.57,-567.31 216.67,-557.54 207.37,-562.62 212.57,-567.31"/>
</g>
<!-- alpha -->
<g id="node14" class="node">
<title>alpha</title>
<ellipse fill="none" stroke="black" cx="471.12" cy="-409.88" rx="41.01" ry="40.66"/>
<text xml:space="preserve" text-anchor="middle" x="471.12" y="-421.33" font-family="Times,serif" font-size="14.00">alpha</text>
<text xml:space="preserve" text-anchor="middle" x="471.12" y="-404.83" font-family="Times,serif" font-size="14.00">~</text>
<text xml:space="preserve" text-anchor="middle" x="471.12" y="-388.33" font-family="Times,serif" font-size="14.00">Normal</text>
</g>
<!-- alpha&#45;&gt;cov_YD -->
<g id="edge30" class="edge">
<title>alpha&#45;&gt;cov_YD</title>
<path fill="none" stroke="black" d="M434.08,-391.6C401.83,-377.4 353.42,-358.15 309.12,-348.63 284.19,-343.28 97.54,-351.85 80.12,-333.23 49.19,-300.14 55.07,-269.05 80.12,-231.32 85.19,-223.68 91.37,-228.19 99.12,-223.32 104.96,-219.65 110.79,-215.35 116.34,-210.87"/>
<polygon fill="black" stroke="black" points="118.26,-213.83 123.64,-204.7 113.74,-208.48 118.26,-213.83"/>
</g>
<!-- alpha&#45;&gt;var_Y -->
<g id="edge25" class="edge">
<title>alpha&#45;&gt;var_Y</title>
<path fill="none" stroke="black" d="M478.65,-369.65C483.85,-329.96 484.85,-269.21 452.12,-231.32 442.82,-220.55 433.63,-230.1 421.12,-223.32 414.98,-219.98 408.99,-215.76 403.39,-211.22"/>
<polygon fill="black" stroke="black" points="405.94,-208.8 396.09,-204.89 401.35,-214.09 405.94,-208.8"/>
</g>
<!-- alpha&#45;&gt;likelihood -->
<g id="edge40" class="edge">
<title>alpha&#45;&gt;likelihood</title>
<path fill="none" stroke="black" d="M480,-369.85C488.92,-330.57 502.73,-269.79 512.53,-226.7"/>
<polygon fill="black" stroke="black" points="515.91,-227.61 514.71,-217.08 509.08,-226.06 515.91,-227.61"/>
</g>
<!-- mu_outcome -->
<g id="node27" class="node">
<title>mu_outcome</title>
<polygon fill="none" stroke="black" points="930.25,-321.32 840,-321.32 840,-263.82 930.25,-263.82 930.25,-321.32"/>
<text xml:space="preserve" text-anchor="middle" x="885.12" y="-304.02" font-family="Times,serif" font-size="14.00">mu_outcome</text>
<text xml:space="preserve" text-anchor="middle" x="885.12" y="-287.52" font-family="Times,serif" font-size="14.00">~</text>
<text xml:space="preserve" text-anchor="middle" x="885.12" y="-271.02" font-family="Times,serif" font-size="14.00">Deterministic</text>
</g>
<!-- alpha&#45;&gt;mu_outcome -->
<g id="edge23" class="edge">
<title>alpha&#45;&gt;mu_outcome</title>
<path fill="none" stroke="black" d="M490.4,-373.66C497.29,-364.1 505.93,-354.73 516.12,-348.63 567.66,-317.83 738.04,-302.77 828.13,-296.8"/>
<polygon fill="black" stroke="black" points="828.24,-300.3 837.99,-296.16 827.79,-293.31 828.24,-300.3"/>
</g>
<!-- pi_T -->
<g id="node15" class="node">
<title>pi_T</title>
<ellipse fill="none" stroke="black" cx="459.12" cy="-644.52" rx="29.34" ry="40.66"/>
<text xml:space="preserve" text-anchor="middle" x="459.12" y="-655.97" font-family="Times,serif" font-size="14.00">pi_T</text>
<text xml:space="preserve" text-anchor="middle" x="459.12" y="-639.47" font-family="Times,serif" font-size="14.00">~</text>
<text xml:space="preserve" text-anchor="middle" x="459.12" y="-622.97" font-family="Times,serif" font-size="14.00">Beta</text>
</g>
<!-- gamma_T -->
<g id="node20" class="node">
<title>gamma_T</title>
<polygon fill="none" stroke="black" points="504.25,-555.95 414,-555.95 414,-498.45 504.25,-498.45 504.25,-555.95"/>
<text xml:space="preserve" text-anchor="middle" x="459.12" y="-538.65" font-family="Times,serif" font-size="14.00">gamma_T</text>
<text xml:space="preserve" text-anchor="middle" x="459.12" y="-522.15" font-family="Times,serif" font-size="14.00">~</text>
<text xml:space="preserve" text-anchor="middle" x="459.12" y="-505.65" font-family="Times,serif" font-size="14.00">Deterministic</text>
</g>
<!-- pi_T&#45;&gt;gamma_T -->
<g id="edge6" class="edge">
<title>pi_T&#45;&gt;gamma_T</title>
<path fill="none" stroke="black" d="M459.12,-603.51C459.12,-591.8 459.12,-579.02 459.12,-567.36"/>
<polygon fill="black" stroke="black" points="462.63,-567.68 459.13,-557.68 455.63,-567.68 462.63,-567.68"/>
</g>
<!-- beta_O -->
<g id="node16" class="node">
<title>beta_O</title>
<polygon fill="none" stroke="black" points="631.25,-438.63 541,-438.63 541,-381.13 631.25,-381.13 631.25,-438.63"/>
<text xml:space="preserve" text-anchor="middle" x="586.12" y="-421.33" font-family="Times,serif" font-size="14.00">beta_O</text>
<text xml:space="preserve" text-anchor="middle" x="586.12" y="-404.83" font-family="Times,serif" font-size="14.00">~</text>
<text xml:space="preserve" text-anchor="middle" x="586.12" y="-388.33" font-family="Times,serif" font-size="14.00">Deterministic</text>
</g>
<!-- beta_O&#45;&gt;mu_outcome -->
<g id="edge20" class="edge">
<title>beta_O&#45;&gt;mu_outcome</title>
<path fill="none" stroke="black" d="M631.54,-391.37C684.49,-370.95 772.02,-337.19 829.13,-315.16"/>
<polygon fill="black" stroke="black" points="830.29,-318.47 838.36,-311.6 827.78,-311.93 830.29,-318.47"/>
</g>
<!-- beta_O_raw -->
<g id="node17" class="node">
<title>beta_O_raw</title>
<ellipse fill="none" stroke="black" cx="586.12" cy="-527.2" rx="57.98" ry="40.66"/>
<text xml:space="preserve" text-anchor="middle" x="586.12" y="-538.65" font-family="Times,serif" font-size="14.00">beta_O_raw</text>
<text xml:space="preserve" text-anchor="middle" x="586.12" y="-522.15" font-family="Times,serif" font-size="14.00">~</text>
<text xml:space="preserve" text-anchor="middle" x="586.12" y="-505.65" font-family="Times,serif" font-size="14.00">Normal</text>
</g>
<!-- beta_O_raw&#45;&gt;beta_O -->
<g id="edge3" class="edge">
<title>beta_O_raw&#45;&gt;beta_O</title>
<path fill="none" stroke="black" d="M586.12,-486.19C586.12,-474.48 586.12,-461.7 586.12,-450.04"/>
<polygon fill="black" stroke="black" points="589.63,-450.36 586.13,-440.36 582.63,-450.36 589.63,-450.36"/>
</g>
<!-- gamma_O_u -->
<g id="node18" class="node">
<title>gamma_O_u</title>
<ellipse fill="none" stroke="black" cx="724.12" cy="-527.2" rx="61.7" ry="40.66"/>
<text xml:space="preserve" text-anchor="middle" x="724.12" y="-538.65" font-family="Times,serif" font-size="14.00">gamma_O_u</text>
<text xml:space="preserve" text-anchor="middle" x="724.12" y="-522.15" font-family="Times,serif" font-size="14.00">~</text>
<text xml:space="preserve" text-anchor="middle" x="724.12" y="-505.65" font-family="Times,serif" font-size="14.00">Uniform</text>
</g>
<!-- gamma_O_u&#45;&gt;gamma_O -->
<g id="edge1" class="edge">
<title>gamma_O_u&#45;&gt;gamma_O</title>
<path fill="none" stroke="black" d="M690.57,-561.57C677.29,-572.85 661.14,-583.99 644.12,-589.86 595.81,-606.53 461.37,-609.36 414.12,-589.86 400.98,-584.44 389.13,-574.79 379.35,-564.67"/>
<polygon fill="black" stroke="black" points="381.96,-562.34 372.65,-557.27 376.76,-567.03 381.96,-562.34"/>
</g>
<!-- gamma_O&#45;&gt;beta_O -->
<g id="edge4" class="edge">
<title>gamma_O&#45;&gt;beta_O</title>
<path fill="none" stroke="black" d="M369.47,-498.06C378.71,-486.2 390.97,-473.43 405.12,-465.95 451.11,-441.66 472.09,-467.88 521.12,-450.54 526.08,-448.79 531.07,-446.62 535.96,-444.22"/>
<polygon fill="black" stroke="black" points="537.28,-447.48 544.47,-439.7 533.99,-441.29 537.28,-447.48"/>
</g>
<!-- beta_T -->
<g id="node23" class="node">
<title>beta_T</title>
<polygon fill="none" stroke="black" points="980.25,-555.95 890,-555.95 890,-498.45 980.25,-498.45 980.25,-555.95"/>
<text xml:space="preserve" text-anchor="middle" x="935.12" y="-538.65" font-family="Times,serif" font-size="14.00">beta_T</text>
<text xml:space="preserve" text-anchor="middle" x="935.12" y="-522.15" font-family="Times,serif" font-size="14.00">~</text>
<text xml:space="preserve" text-anchor="middle" x="935.12" y="-505.65" font-family="Times,serif" font-size="14.00">Deterministic</text>
</g>
<!-- gamma_T&#45;&gt;beta_T -->
<g id="edge8" class="edge">
<title>gamma_T&#45;&gt;beta_T</title>
<path fill="none" stroke="black" d="M480.89,-556.17C492.43,-569.1 507.81,-582.95 525.12,-589.86 560.62,-604.03 833.63,-604.03 869.12,-589.86 882.79,-584.41 895.24,-574.63 905.56,-564.4"/>
<polygon fill="black" stroke="black" points="907.98,-566.94 912.32,-557.27 902.9,-562.12 907.98,-566.94"/>
</g>
<!-- gamma_T_u -->
<g id="node21" class="node">
<title>gamma_T_u</title>
<ellipse fill="none" stroke="black" cx="951.12" cy="-644.52" rx="60.63" ry="40.66"/>
<text xml:space="preserve" text-anchor="middle" x="951.12" y="-655.97" font-family="Times,serif" font-size="14.00">gamma_T_u</text>
<text xml:space="preserve" text-anchor="middle" x="951.12" y="-639.47" font-family="Times,serif" font-size="14.00">~</text>
<text xml:space="preserve" text-anchor="middle" x="951.12" y="-622.97" font-family="Times,serif" font-size="14.00">Uniform</text>
</g>
<!-- gamma_T_u&#45;&gt;gamma_T -->
<g id="edge5" class="edge">
<title>gamma_T_u&#45;&gt;gamma_T</title>
<path fill="none" stroke="black" d="M890.19,-644.15C803.31,-642.87 640.57,-632.23 516.12,-575.86 508.85,-572.57 501.77,-568.08 495.2,-563.17"/>
<polygon fill="black" stroke="black" points="497.78,-560.75 487.79,-557.23 493.4,-566.22 497.78,-560.75"/>
</g>
<!-- beta_T_raw -->
<g id="node22" class="node">
<title>beta_T_raw</title>
<ellipse fill="none" stroke="black" cx="1087.12" cy="-644.52" rx="56.92" ry="40.66"/>
<text xml:space="preserve" text-anchor="middle" x="1087.12" y="-655.97" font-family="Times,serif" font-size="14.00">beta_T_raw</text>
<text xml:space="preserve" text-anchor="middle" x="1087.12" y="-639.47" font-family="Times,serif" font-size="14.00">~</text>
<text xml:space="preserve" text-anchor="middle" x="1087.12" y="-622.97" font-family="Times,serif" font-size="14.00">Normal</text>
</g>
<!-- beta_T_raw&#45;&gt;beta_T -->
<g id="edge7" class="edge">
<title>beta_T_raw&#45;&gt;beta_T</title>
<path fill="none" stroke="black" d="M1048.77,-614.42C1028.22,-598.83 1002.76,-579.52 981.16,-563.12"/>
<polygon fill="black" stroke="black" points="983.44,-560.47 973.36,-557.21 979.21,-566.04 983.44,-560.47"/>
</g>
<!-- mu_treatment -->
<g id="node28" class="node">
<title>mu_treatment</title>
<polygon fill="none" stroke="black" points="932.38,-438.63 839.88,-438.63 839.88,-381.13 932.38,-381.13 932.38,-438.63"/>
<text xml:space="preserve" text-anchor="middle" x="886.12" y="-421.33" font-family="Times,serif" font-size="14.00">mu_treatment</text>
<text xml:space="preserve" text-anchor="middle" x="886.12" y="-404.83" font-family="Times,serif" font-size="14.00">~</text>
<text xml:space="preserve" text-anchor="middle" x="886.12" y="-388.33" font-family="Times,serif" font-size="14.00">Deterministic</text>
</g>
<!-- beta_T&#45;&gt;mu_treatment -->
<g id="edge19" class="edge">
<title>beta_T&#45;&gt;mu_treatment</title>
<path fill="none" stroke="black" d="M923.14,-497.99C916.92,-483.36 909.24,-465.28 902.49,-449.39"/>
<polygon fill="black" stroke="black" points="905.71,-448.03 898.58,-440.2 899.27,-450.77 905.71,-448.03"/>
</g>
<!-- X_data -->
<g id="node24" class="node">
<title>X_data</title>
<path fill="lightgrey" stroke="black" d="M853.62,-555.95C853.62,-555.95 822.62,-555.95 822.62,-555.95 816.62,-555.95 810.62,-549.95 810.62,-543.95 810.62,-543.95 810.62,-510.45 810.62,-510.45 810.62,-504.45 816.62,-498.45 822.62,-498.45 822.62,-498.45 853.62,-498.45 853.62,-498.45 859.62,-498.45 865.62,-504.45 865.62,-510.45 865.62,-510.45 865.62,-543.95 865.62,-543.95 865.62,-549.95 859.62,-555.95 853.62,-555.95"/>
<text xml:space="preserve" text-anchor="middle" x="838.12" y="-538.65" font-family="Times,serif" font-size="14.00">X_data</text>
<text xml:space="preserve" text-anchor="middle" x="838.12" y="-522.15" font-family="Times,serif" font-size="14.00">~</text>
<text xml:space="preserve" text-anchor="middle" x="838.12" y="-505.65" font-family="Times,serif" font-size="14.00">Data</text>
</g>
<!-- X_data&#45;&gt;mu_outcome -->
<g id="edge21" class="edge">
<title>X_data&#45;&gt;mu_outcome</title>
<path fill="none" stroke="black" d="M830.11,-498.2C821.29,-462.13 810.88,-398.19 831.12,-348.63 833.78,-342.13 837.62,-335.97 842.05,-330.3"/>
<polygon fill="black" stroke="black" points="844.51,-332.8 848.4,-322.95 839.22,-328.22 844.51,-332.8"/>
</g>
<!-- X_data&#45;&gt;mu_treatment -->
<g id="edge18" class="edge">
<title>X_data&#45;&gt;mu_treatment</title>
<path fill="none" stroke="black" d="M849.87,-497.99C855.96,-483.36 863.48,-465.28 870.1,-449.39"/>
<polygon fill="black" stroke="black" points="873.31,-450.78 873.92,-440.2 866.85,-448.09 873.31,-450.78"/>
</g>
<!-- observed -->
<g id="node25" class="node">
<title>observed</title>
<path fill="lightgrey" stroke="black" d="M544.5,-98C544.5,-98 503.75,-98 503.75,-98 497.75,-98 491.75,-92 491.75,-86 491.75,-86 491.75,-52.5 491.75,-52.5 491.75,-46.5 497.75,-40.5 503.75,-40.5 503.75,-40.5 544.5,-40.5 544.5,-40.5 550.5,-40.5 556.5,-46.5 556.5,-52.5 556.5,-52.5 556.5,-86 556.5,-86 556.5,-92 550.5,-98 544.5,-98"/>
<text xml:space="preserve" text-anchor="middle" x="524.12" y="-80.7" font-family="Times,serif" font-size="14.00">observed</text>
<text xml:space="preserve" text-anchor="middle" x="524.12" y="-64.2" font-family="Times,serif" font-size="14.00">~</text>
<text xml:space="preserve" text-anchor="middle" x="524.12" y="-47.7" font-family="Times,serif" font-size="14.00">Data</text>
</g>
<!-- likelihood&#45;&gt;observed -->
<g id="edge9" class="edge">
<title>likelihood&#45;&gt;observed</title>
<path fill="none" stroke="black" d="M524.12,-133.68C524.12,-125.83 524.12,-117.6 524.12,-109.76"/>
<polygon fill="black" stroke="black" points="527.63,-109.79 524.13,-99.79 520.63,-109.79 527.63,-109.79"/>
</g>
<!-- mu_outcome&#45;&gt;likelihood -->
<g id="edge39" class="edge">
<title>mu_outcome&#45;&gt;likelihood</title>
<path fill="none" stroke="black" d="M839.77,-277C781.86,-258.41 680.53,-225.88 608.3,-202.68"/>
<polygon fill="black" stroke="black" points="609.45,-199.38 598.85,-199.65 607.31,-206.04 609.45,-199.38"/>
</g>
<!-- mu_treatment&#45;&gt;likelihood -->
<g id="edge41" class="edge">
<title>mu_treatment&#45;&gt;likelihood</title>
<path fill="none" stroke="black" d="M911.88,-380.97C922.51,-367.57 933.63,-350.66 939.12,-333.23 952.75,-290.03 968.95,-265.41 939.12,-231.32 918.77,-208.05 742.27,-191.13 626.1,-182.4"/>
<polygon fill="black" stroke="black" points="626.44,-178.91 616.21,-181.66 625.92,-185.89 626.44,-178.91"/>
</g>
<!-- mu_treatment&#45;&gt;mu_outcome -->
<g id="edge22" class="edge">
<title>mu_treatment&#45;&gt;mu_outcome</title>
<path fill="none" stroke="black" d="M885.88,-380.67C885.76,-366.33 885.6,-348.66 885.47,-332.99"/>
<polygon fill="black" stroke="black" points="888.97,-332.97 885.38,-323 881.97,-333.03 888.97,-332.97"/>
</g>
</g>
</svg>