<?xml version="1.0" encoding="UTF-8" standalone="no"?>
<!DOCTYPE svg PUBLIC "-//W3C//DTD SVG 1.1//EN"
 "http://www.w3.org/Graphics/SVG/1.1/DTD/svg11.dtd">
<!-- Generated by graphviz version 13.1.2 (0)
 -->
<!-- Pages: 1 -->
<svg width="759pt" height="733pt"
 viewBox="0.00 0.00 759.00 733.00" xmlns="http://www.w3.org/2000/svg" xmlns:xlink="http://www.w3.org/1999/xlink">
<g id="graph0" class="graph" transform="scale(1 1) rotate(0) translate(4 729.4)">
<polygon fill="white" stroke="none" points="-4,4 -4,-729.4 755.42,-729.4 755.42,4 -4,4"/>
<g id="clust1" class="cluster">
<title>cluster1566 x 14</title>
<path fill="none" stroke="black" d="M560.86,-388.86C560.86,-388.86 608.86,-388.86 608.86,-388.86 614.86,-388.86 620.86,-394.86 620.86,-400.86 620.86,-400.86 620.86,-474.86 620.86,-474.86 620.86,-480.86 614.86,-486.86 608.86,-486.86 608.86,-486.86 560.86,-486.86 560.86,-486.86 554.86,-486.86 548.86,-480.86 548.86,-474.86 548.86,-474.86 548.86,-400.86 548.86,-400.86 548.86,-394.86 554.86,-388.86 560.86,-388.86"/>
<text xml:space="preserve" text-anchor="middle" x="585.49" y="-396.06" font-family="Times,serif" font-size="14.00">1566 x 14</text>
</g>
<g id="clust2" class="cluster">
<title>cluster1566</title>
<path fill="none" stroke="black" d="M212.86,-8C212.86,-8 495.86,-8 495.86,-8 501.86,-8 507.86,-14 507.86,-20 507.86,-20 507.86,-345.04 507.86,-345.04 507.86,-351.04 501.86,-357.04 495.86,-357.04 495.86,-357.04 212.86,-357.04 212.86,-357.04 206.86,-357.04 200.86,-351.04 200.86,-345.04 200.86,-345.04 200.86,-20 200.86,-20 200.86,-14 206.86,-8 212.86,-8"/>
<text xml:space="preserve" text-anchor="middle" x="486.36" y="-15.2" font-family="Times,serif" font-size="14.00">1566</text>
</g>
<g id="clust3" class="cluster">
<title>cluster1566 x 2</title>
<path fill="none" stroke="black" d="M239.86,-388.86C239.86,-388.86 321.86,-388.86 321.86,-388.86 327.86,-388.86 333.86,-394.86 333.86,-400.86 333.86,-400.86 333.86,-604.09 333.86,-604.09 333.86,-610.09 327.86,-616.09 321.86,-616.09 321.86,-616.09 239.86,-616.09 239.86,-616.09 233.86,-616.09 227.86,-610.09 227.86,-604.09 227.86,-604.09 227.86,-400.86 227.86,-400.86 227.86,-394.86 233.86,-388.86 239.86,-388.86"/>
<text xml:space="preserve" text-anchor="middle" x="301.86" y="-396.06" font-family="Times,serif" font-size="14.00">1566 x 2</text>
</g>
<g id="clust4" class="cluster">
<title>clusterbeta_treatment (14)</title>
<path fill="none" stroke="black" d="M353.86,-376.95C353.86,-376.95 452.86,-376.95 452.86,-376.95 458.86,-376.95 464.86,-382.95 464.86,-388.95 464.86,-388.95 464.86,-486.77 464.86,-486.77 464.86,-492.77 458.86,-498.77 452.86,-498.77 452.86,-498.77 353.86,-498.77 353.86,-498.77 347.86,-498.77 341.86,-492.77 341.86,-486.77 341.86,-486.77 341.86,-388.95 341.86,-388.95 341.86,-382.95 347.86,-376.95 353.86,-376.95"/>
<text xml:space="preserve" text-anchor="middle" x="403.24" y="-384.15" font-family="Times,serif" font-size="14.00">beta_treatment (14)</text>
</g>
<g id="clust5" class="cluster">
<title>clusterbeta_outcome (14)</title>
<path fill="none" stroke="black" d="M617.86,-247.13C617.86,-247.13 711.86,-247.13 711.86,-247.13 717.86,-247.13 723.86,-253.13 723.86,-259.13 723.86,-259.13 723.86,-356.95 723.86,-356.95 723.86,-362.95 717.86,-368.95 711.86,-368.95 711.86,-368.95 617.86,-368.95 617.86,-368.95 611.86,-368.95 605.86,-362.95 605.86,-356.95 605.86,-356.95 605.86,-259.13 605.86,-259.13 605.86,-253.13 611.86,-247.13 617.86,-247.13"/>
<text xml:space="preserve" text-anchor="middle" x="664.49" y="-254.33" font-family="Times,serif" font-size="14.00">beta_outcome (14)</text>
</g>
<!-- X_data -->
<g id="node1" class="node">
<title>X_data</title>
<path fill="lightgrey" stroke="black" d="M600.36,-478.86C600.36,-478.86 569.36,-478.86 569.36,-478.86 563.36,-478.86 557.36,-472.86 557.36,-466.86 557.36,-466.86 557.36,-433.36 557.36,-433.36 557.36,-427.36 563.36,-421.36 569.36,-421.36 569.36,-421.36 600.36,-421.36 600.36,-421.36 606.36,-421.36 612.36,-427.36 612.36,-433.36 612.36,-433.36 612.36,-466.86 612.36,-466.86 612.36,-472.86 606.36,-478.86 600.36,-478.86"/>
<text xml:space="preserve" text-anchor="middle" x="584.86" y="-461.56" font-family="Times,serif" font-size="14.00">X_data</text>
<text xml:space="preserve" text-anchor="middle" x="584.86" y="-445.06" font-family="Times,serif" font-size="14.00">~</text>
<text xml:space="preserve" text-anchor="middle" x="584.86" y="-428.56" font-family="Times,serif" font-size="14.00">Data</text>
</g>
<!-- mu_outcome -->
<g id="node3" class="node">
<title>mu_outcome</title>
<polygon fill="none" stroke="black" points="499.99,-227.23 409.74,-227.23 409.74,-169.73 499.99,-169.73 499.99,-227.23"/>
<text xml:space="preserve" text-anchor="middle" x="454.86" y="-209.93" font-family="Times,serif" font-size="14.00">mu_outcome</text>
<text xml:space="preserve" text-anchor="middle" x="454.86" y="-193.43" font-family="Times,serif" font-size="14.00">~</text>
<text xml:space="preserve" text-anchor="middle" x="454.86" y="-176.93" font-family="Times,serif" font-size="14.00">Deterministic</text>
</g>
<!-- X_data&#45;&gt;mu_outcome -->
<g id="edge13" class="edge">
<title>X_data&#45;&gt;mu_outcome</title>
<path fill="none" stroke="black" d="M612.66,-442.61C646.74,-432.98 703.04,-411.31 727.86,-368.95 755.23,-322.24 762.7,-288.58 727.86,-247.13 700.79,-214.93 583.29,-204.48 511.55,-201.1"/>
<polygon fill="black" stroke="black" points="512.11,-197.62 501.97,-200.68 511.8,-204.61 512.11,-197.62"/>
</g>
<!-- mu_treatment -->
<g id="node4" class="node">
<title>mu_treatment</title>
<polygon fill="none" stroke="black" points="354.11,-349.04 261.61,-349.04 261.61,-291.54 354.11,-291.54 354.11,-349.04"/>
<text xml:space="preserve" text-anchor="middle" x="307.86" y="-331.74" font-family="Times,serif" font-size="14.00">mu_treatment</text>
<text xml:space="preserve" text-anchor="middle" x="307.86" y="-315.24" font-family="Times,serif" font-size="14.00">~</text>
<text xml:space="preserve" text-anchor="middle" x="307.86" y="-298.74" font-family="Times,serif" font-size="14.00">Deterministic</text>
</g>
<!-- X_data&#45;&gt;mu_treatment -->
<g id="edge6" class="edge">
<title>X_data&#45;&gt;mu_treatment</title>
<path fill="none" stroke="black" d="M557.25,-426.55C534.88,-409.67 501.78,-387.71 468.86,-376.95 423.95,-362.27 406.47,-387.12 362.86,-368.95 355.48,-365.88 348.4,-361.42 341.9,-356.44"/>
<polygon fill="black" stroke="black" points="344.54,-354.08 334.61,-350.38 340.06,-359.46 344.54,-354.08"/>
</g>
<!-- likelihood_treatment -->
<g id="node2" class="node">
<title>likelihood_treatment</title>
<ellipse fill="none" stroke="black" cx="299.86" cy="-198.48" rx="91.39" ry="40.66"/>
<text xml:space="preserve" text-anchor="middle" x="299.86" y="-209.93" font-family="Times,serif" font-size="14.00">likelihood_treatment</text>
<text xml:space="preserve" text-anchor="middle" x="299.86" y="-193.43" font-family="Times,serif" font-size="14.00">~</text>
<text xml:space="preserve" text-anchor="middle" x="299.86" y="-176.93" font-family="Times,serif" font-size="14.00">Bernoulli</text>
</g>
<!-- likelihood_outcome -->
<g id="node6" class="node">
<title>likelihood_outcome</title>
<ellipse fill="none" stroke="black" cx="353.86" cy="-81.16" rx="88.21" ry="40.66"/>
<text xml:space="preserve" text-anchor="middle" x="353.86" y="-92.61" font-family="Times,serif" font-size="14.00">likelihood_outcome</text>
<text xml:space="preserve" text-anchor="middle" x="353.86" y="-76.11" font-family="Times,serif" font-size="14.00">~</text>
<text xml:space="preserve" text-anchor="middle" x="353.86" y="-59.61" font-family="Times,serif" font-size="14.00">Normal</text>
</g>
<!-- mu_outcome&#45;&gt;likelihood_outcome -->
<g id="edge14" class="edge">
<title>mu_outcome&#45;&gt;likelihood_outcome</title>
<path fill="none" stroke="black" d="M430.15,-169.27C419.22,-156.79 406.09,-141.79 393.83,-127.79"/>
<polygon fill="black" stroke="black" points="396.55,-125.58 387.32,-120.37 391.28,-130.19 396.55,-125.58"/>
</g>
<!-- mu_treatment&#45;&gt;likelihood_treatment -->
<g id="edge8" class="edge">
<title>mu_treatment&#45;&gt;likelihood_treatment</title>
<path fill="none" stroke="black" d="M305.99,-291.2C305.18,-279.1 304.21,-264.55 303.28,-250.65"/>
<polygon fill="black" stroke="black" points="306.77,-250.44 302.61,-240.7 299.79,-250.91 306.77,-250.44"/>
</g>
<!-- t_data -->
<g id="node5" class="node">
<title>t_data</title>
<path fill="lightgrey" stroke="black" d="M413.86,-349.04C413.86,-349.04 383.86,-349.04 383.86,-349.04 377.86,-349.04 371.86,-343.04 371.86,-337.04 371.86,-337.04 371.86,-303.54 371.86,-303.54 371.86,-297.54 377.86,-291.54 383.86,-291.54 383.86,-291.54 413.86,-291.54 413.86,-291.54 419.86,-291.54 425.86,-297.54 425.86,-303.54 425.86,-303.54 425.86,-337.04 425.86,-337.04 425.86,-343.04 419.86,-349.04 413.86,-349.04"/>
<text xml:space="preserve" text-anchor="middle" x="398.86" y="-331.74" font-family="Times,serif" font-size="14.00">t_data</text>
<text xml:space="preserve" text-anchor="middle" x="398.86" y="-315.24" font-family="Times,serif" font-size="14.00">~</text>
<text xml:space="preserve" text-anchor="middle" x="398.86" y="-298.74" font-family="Times,serif" font-size="14.00">Data</text>
</g>
<!-- t_data&#45;&gt;mu_outcome -->
<g id="edge10" class="edge">
<title>t_data&#45;&gt;mu_outcome</title>
<path fill="none" stroke="black" d="M411.99,-291.2C419.43,-275.28 428.85,-255.13 436.96,-237.77"/>
<polygon fill="black" stroke="black" points="440.11,-239.3 441.17,-228.76 433.77,-236.34 440.11,-239.3"/>
</g>
<!-- y_data -->
<g id="node7" class="node">
<title>y_data</title>
<path fill="lightgrey" stroke="black" d="M485.86,-349.04C485.86,-349.04 455.86,-349.04 455.86,-349.04 449.86,-349.04 443.86,-343.04 443.86,-337.04 443.86,-337.04 443.86,-303.54 443.86,-303.54 443.86,-297.54 449.86,-291.54 455.86,-291.54 455.86,-291.54 485.86,-291.54 485.86,-291.54 491.86,-291.54 497.86,-297.54 497.86,-303.54 497.86,-303.54 497.86,-337.04 497.86,-337.04 497.86,-343.04 491.86,-349.04 485.86,-349.04"/>
<text xml:space="preserve" text-anchor="middle" x="470.86" y="-331.74" font-family="Times,serif" font-size="14.00">y_data</text>
<text xml:space="preserve" text-anchor="middle" x="470.86" y="-315.24" font-family="Times,serif" font-size="14.00">~</text>
<text xml:space="preserve" text-anchor="middle" x="470.86" y="-298.74" font-family="Times,serif" font-size="14.00">Data</text>
</g>
<!-- rho_unconstr -->
<g id="node8" class="node">
<title>rho_unconstr</title>
<ellipse fill="none" stroke="black" cx="174.86" cy="-684.75" rx="61.7" ry="40.66"/>
<text xml:space="preserve" text-anchor="middle" x="174.86" y="-696.2" font-family="Times,serif" font-size="14.00">rho_unconstr</text>
<text xml:space="preserve" text-anchor="middle" x="174.86" y="-679.7" font-family="Times,serif" font-size="14.00">~</text>
<text xml:space="preserve" text-anchor="middle" x="174.86" y="-663.2" font-family="Times,serif" font-size="14.00">Normal</text>
</g>
<!-- rho -->
<g id="node11" class="node">
<title>rho</title>
<polygon fill="none" stroke="black" points="219.99,-596.18 129.74,-596.18 129.74,-538.68 219.99,-538.68 219.99,-596.18"/>
<text xml:space="preserve" text-anchor="middle" x="174.86" y="-578.88" font-family="Times,serif" font-size="14.00">rho</text>
<text xml:space="preserve" text-anchor="middle" x="174.86" y="-562.38" font-family="Times,serif" font-size="14.00">~</text>
<text xml:space="preserve" text-anchor="middle" x="174.86" y="-545.88" font-family="Times,serif" font-size="14.00">Deterministic</text>
</g>
<!-- rho_unconstr&#45;&gt;rho -->
<g id="edge1" class="edge">
<title>rho_unconstr&#45;&gt;rho</title>
<path fill="none" stroke="black" d="M174.86,-643.74C174.86,-632.03 174.86,-619.24 174.86,-607.59"/>
<polygon fill="black" stroke="black" points="178.36,-607.9 174.86,-597.9 171.36,-607.9 178.36,-607.9"/>
</g>
<!-- alpha -->
<g id="node9" class="node">
<title>alpha</title>
<ellipse fill="none" stroke="black" cx="556.86" cy="-320.29" rx="41.01" ry="40.66"/>
<text xml:space="preserve" text-anchor="middle" x="556.86" y="-331.74" font-family="Times,serif" font-size="14.00">alpha</text>
<text xml:space="preserve" text-anchor="middle" x="556.86" y="-315.24" font-family="Times,serif" font-size="14.00">~</text>
<text xml:space="preserve" text-anchor="middle" x="556.86" y="-298.74" font-family="Times,serif" font-size="14.00">Normal</text>
</g>
<!-- alpha&#45;&gt;mu_outcome -->
<g id="edge12" class="edge">
<title>alpha&#45;&gt;mu_outcome</title>
<path fill="none" stroke="black" d="M537.89,-283.97C530.54,-271.72 521.55,-258.27 511.86,-247.13 508.34,-243.09 504.46,-239.1 500.43,-235.26"/>
<polygon fill="black" stroke="black" points="502.89,-232.76 493.14,-228.62 498.18,-237.94 502.89,-232.76"/>
</g>
<!-- sigma_U -->
<g id="node10" class="node">
<title>sigma_U</title>
<ellipse fill="none" stroke="black" cx="55.86" cy="-567.43" rx="55.86" ry="40.66"/>
<text xml:space="preserve" text-anchor="middle" x="55.86" y="-578.88" font-family="Times,serif" font-size="14.00">sigma_U</text>
<text xml:space="preserve" text-anchor="middle" x="55.86" y="-562.38" font-family="Times,serif" font-size="14.00">~</text>
<text xml:space="preserve" text-anchor="middle" x="55.86" y="-545.88" font-family="Times,serif" font-size="14.00">Halfnormal</text>
</g>
<!-- sigma_U&#45;&gt;likelihood_outcome -->
<g id="edge15" class="edge">
<title>sigma_U&#45;&gt;likelihood_outcome</title>
<path fill="none" stroke="black" d="M59.9,-526.56C69.88,-447.15 102.44,-267.46 199.86,-157.82 218.82,-136.48 245.15,-120.52 270.69,-108.9"/>
<polygon fill="black" stroke="black" points="272.01,-112.14 279.79,-104.94 269.22,-105.72 272.01,-112.14"/>
</g>
<!-- eps -->
<g id="node12" class="node">
<title>eps</title>
<polygon fill="none" stroke="black" points="325.99,-478.86 235.74,-478.86 235.74,-421.36 325.99,-421.36 325.99,-478.86"/>
<text xml:space="preserve" text-anchor="middle" x="280.86" y="-461.56" font-family="Times,serif" font-size="14.00">eps</text>
<text xml:space="preserve" text-anchor="middle" x="280.86" y="-445.06" font-family="Times,serif" font-size="14.00">~</text>
<text xml:space="preserve" text-anchor="middle" x="280.86" y="-428.56" font-family="Times,serif" font-size="14.00">Deterministic</text>
</g>
<!-- sigma_U&#45;&gt;eps -->
<g id="edge2" class="edge">
<title>sigma_U&#45;&gt;eps</title>
<path fill="none" stroke="black" d="M97.79,-539.95C105.39,-535.41 113.3,-530.85 120.86,-526.77 154.88,-508.42 194.09,-489.83 225.18,-475.68"/>
<polygon fill="black" stroke="black" points="226.35,-478.99 234.02,-471.68 223.47,-472.61 226.35,-478.99"/>
</g>
<!-- rho&#45;&gt;eps -->
<g id="edge4" class="edge">
<title>rho&#45;&gt;eps</title>
<path fill="none" stroke="black" d="M200.79,-538.22C214.88,-522.89 232.47,-503.76 247.56,-487.34"/>
<polygon fill="black" stroke="black" points="249.98,-489.87 254.17,-480.14 244.83,-485.14 249.98,-489.87"/>
</g>
<!-- eps&#45;&gt;mu_outcome -->
<g id="edge11" class="edge">
<title>eps&#45;&gt;mu_outcome</title>
<path fill="none" stroke="black" d="M264.65,-421.04C241.95,-377.62 208.19,-294.3 252.86,-247.13 264.11,-235.26 384.44,-244.58 399.86,-239.13 404.05,-237.66 408.2,-235.75 412.23,-233.58"/>
<polygon fill="black" stroke="black" points="413.9,-236.66 420.66,-228.5 410.29,-230.66 413.9,-236.66"/>
</g>
<!-- eps&#45;&gt;mu_treatment -->
<g id="edge5" class="edge">
<title>eps&#45;&gt;mu_treatment</title>
<path fill="none" stroke="black" d="M286.79,-421.06C290.55,-403.25 295.47,-379.93 299.62,-360.33"/>
<polygon fill="black" stroke="black" points="302.99,-361.27 301.64,-350.76 296.15,-359.82 302.99,-361.27"/>
</g>
<!-- eps_raw -->
<g id="node13" class="node">
<title>eps_raw</title>
<ellipse fill="none" stroke="black" cx="280.86" cy="-567.43" rx="43.13" ry="40.66"/>
<text xml:space="preserve" text-anchor="middle" x="280.86" y="-578.88" font-family="Times,serif" font-size="14.00">eps_raw</text>
<text xml:space="preserve" text-anchor="middle" x="280.86" y="-562.38" font-family="Times,serif" font-size="14.00">~</text>
<text xml:space="preserve" text-anchor="middle" x="280.86" y="-545.88" font-family="Times,serif" font-size="14.00">Normal</text>
</g>
<!-- eps_raw&#45;&gt;eps -->
<g id="edge3" class="edge">
<title>eps_raw&#45;&gt;eps</title>
<path fill="none" stroke="black" d="M280.86,-526.42C280.86,-514.71 280.86,-501.93 280.86,-490.27"/>
<polygon fill="black" stroke="black" points="284.36,-490.59 280.86,-480.59 277.36,-490.59 284.36,-490.59"/>
</g>
<!-- beta_T -->
<g id="node14" class="node">
<title>beta_T</title>
<ellipse fill="none" stroke="black" cx="390.86" cy="-450.11" rx="41.01" ry="40.66"/>
<text xml:space="preserve" text-anchor="middle" x="390.86" y="-461.56" font-family="Times,serif" font-size="14.00">beta_T</text>
<text xml:space="preserve" text-anchor="middle" x="390.86" y="-445.06" font-family="Times,serif" font-size="14.00">~</text>
<text xml:space="preserve" text-anchor="middle" x="390.86" y="-428.56" font-family="Times,serif" font-size="14.00">Normal</text>
</g>
<!-- beta_T&#45;&gt;mu_treatment -->
<g id="edge7" class="edge">
<title>beta_T&#45;&gt;mu_treatment</title>
<path fill="none" stroke="black" d="M369.05,-415.53C357.79,-398.18 344,-376.95 332.37,-359.03"/>
<polygon fill="black" stroke="black" points="335.36,-357.22 326.98,-350.74 329.49,-361.03 335.36,-357.22"/>
</g>
<!-- beta_O -->
<g id="node15" class="node">
<title>beta_O</title>
<ellipse fill="none" stroke="black" cx="656.86" cy="-320.29" rx="41.01" ry="40.66"/>
<text xml:space="preserve" text-anchor="middle" x="656.86" y="-331.74" font-family="Times,serif" font-size="14.00">beta_O</text>
<text xml:space="preserve" text-anchor="middle" x="656.86" y="-315.24" font-family="Times,serif" font-size="14.00">~</text>
<text xml:space="preserve" text-anchor="middle" x="656.86" y="-298.74" font-family="Times,serif" font-size="14.00">Normal</text>
</g>
<!-- beta_O&#45;&gt;mu_outcome -->
<g id="edge9" class="edge">
<title>beta_O&#45;&gt;mu_outcome</title>
<path fill="none" stroke="black" d="M638.65,-283.49C630.48,-270.46 619.75,-256.62 606.86,-247.13 578.89,-226.55 541.78,-214.69 511.24,-207.96"/>
<polygon fill="black" stroke="black" points="512.29,-204.6 501.79,-206 510.88,-211.45 512.29,-204.6"/>
</g>
</g>
</svg>