<?xml version="1.0" encoding="UTF-8" standalone="no"?>
<!DOCTYPE svg PUBLIC "-//W3C//DTD SVG 1.1//EN"
 "http://www.w3.org/Graphics/SVG/1.1/DTD/svg11.dtd">
<!-- Generated by graphviz version 2.50.0 (0)
 -->
<!-- Pages: 1 -->
<svg width="650pt" height="427pt"
 viewBox="0.00 0.00 650.00 426.91" xmlns="http://www.w3.org/2000/svg" xmlns:xlink="http://www.w3.org/1999/xlink">
<g id="graph0" class="graph" transform="scale(1 1) rotate(0) translate(4 422.91)">
<polygon fill="white" stroke="transparent" points="-4,4 -4,-422.91 646,-422.91 646,4 -4,4"/>
<g id="clust1" class="cluster">
<title>cluster12</title>
<path fill="none" stroke="black" d="M542,-307.93C542,-307.93 622,-307.93 622,-307.93 628,-307.93 634,-313.93 634,-319.93 634,-319.93 634,-387.93 634,-387.93 634,-393.93 628,-399.93 622,-399.93 622,-399.93 542,-399.93 542,-399.93 536,-399.93 530,-393.93 530,-387.93 530,-387.93 530,-319.93 530,-319.93 530,-313.93 536,-307.93 542,-307.93"/>
<text text-anchor="middle" x="619" y="-315.73" font-family="Times,serif" font-size="14.00">12</text>
</g>
<g id="clust2" class="cluster">
<title>clusterexp_id (12)</title>
<path fill="none" stroke="black" d="M20,-8C20,-8 258,-8 258,-8 264,-8 270,-14 270,-20 270,-20 270,-398.91 270,-398.91 270,-404.91 264,-410.91 258,-410.91 258,-410.91 20,-410.91 20,-410.91 14,-410.91 8,-404.91 8,-398.91 8,-398.91 8,-20 8,-20 8,-14 14,-8 20,-8"/>
<text text-anchor="middle" x="230" y="-15.8" font-family="Times,serif" font-size="14.00">exp_id (12)</text>
</g>
<!-- exp -->
<g id="node1" class="node">
<title>exp</title>
<path fill="lightgrey" stroke="black" d="M614,-391.93C614,-391.93 550,-391.93 550,-391.93 544,-391.93 538,-385.93 538,-379.93 538,-379.93 538,-350.93 538,-350.93 538,-344.93 544,-338.93 550,-338.93 550,-338.93 614,-338.93 614,-338.93 620,-338.93 626,-344.93 626,-350.93 626,-350.93 626,-379.93 626,-379.93 626,-385.93 620,-391.93 614,-391.93"/>
<text text-anchor="middle" x="582" y="-376.73" font-family="Times,serif" font-size="14.00">exp</text>
<text text-anchor="middle" x="582" y="-361.73" font-family="Times,serif" font-size="14.00">~</text>
<text text-anchor="middle" x="582" y="-346.73" font-family="Times,serif" font-size="14.00">MutableData</text>
</g>
<!-- true_log_rr -->
<g id="node5" class="node">
<title>true_log_rr</title>
<polygon fill="none" stroke="black" points="155.5,-291.95 64.5,-291.95 64.5,-238.95 155.5,-238.95 155.5,-291.95"/>
<text text-anchor="middle" x="110" y="-276.75" font-family="Times,serif" font-size="14.00">true_log_rr</text>
<text text-anchor="middle" x="110" y="-261.75" font-family="Times,serif" font-size="14.00">~</text>
<text text-anchor="middle" x="110" y="-246.75" font-family="Times,serif" font-size="14.00">Deterministic</text>
</g>
<!-- exp&#45;&gt;true_log_rr -->
<g id="edge5" class="edge">
<title>exp&#45;&gt;true_log_rr</title>
<path fill="none" stroke="black" d="M564.97,-338.65C555.81,-327.08 543.42,-314.55 529,-307.93 458.08,-275.35 258.79,-308.54 165.74,-291.38"/>
<polygon fill="black" stroke="black" points="166.25,-287.91 155.74,-289.24 164.78,-294.76 166.25,-287.91"/>
</g>
<!-- estimated_log_relative_lift -->
<g id="node8" class="node">
<title>estimated_log_relative_lift</title>
<ellipse fill="lightgrey" stroke="black" cx="147" cy="-165.48" rx="115.02" ry="37.45"/>
<text text-anchor="middle" x="147" y="-176.78" font-family="Times,serif" font-size="14.00">estimated_log_relative_lift</text>
<text text-anchor="middle" x="147" y="-161.78" font-family="Times,serif" font-size="14.00">~</text>
<text text-anchor="middle" x="147" y="-146.78" font-family="Times,serif" font-size="14.00">Normal</text>
</g>
<!-- exp&#45;&gt;estimated_log_relative_lift -->
<g id="edge8" class="edge">
<title>exp&#45;&gt;estimated_log_relative_lift</title>
<path fill="none" stroke="black" d="M562.47,-338.82C553.26,-328.12 541.55,-316.26 529,-307.93 442.65,-250.62 329.99,-212.57 249.43,-190.51"/>
<polygon fill="black" stroke="black" points="250.34,-187.13 239.77,-187.9 248.51,-193.89 250.34,-187.13"/>
</g>
<!-- estimated_relative_lift -->
<g id="node9" class="node">
<title>estimated_relative_lift</title>
<polygon fill="none" stroke="black" points="261.5,-92 122.5,-92 122.5,-39 261.5,-39 261.5,-92"/>
<text text-anchor="middle" x="192" y="-76.8" font-family="Times,serif" font-size="14.00">estimated_relative_lift</text>
<text text-anchor="middle" x="192" y="-61.8" font-family="Times,serif" font-size="14.00">~</text>
<text text-anchor="middle" x="192" y="-46.8" font-family="Times,serif" font-size="14.00">Deterministic</text>
</g>
<!-- exp&#45;&gt;estimated_relative_lift -->
<g id="edge10" class="edge">
<title>exp&#45;&gt;estimated_relative_lift</title>
<path fill="none" stroke="black" d="M558,-338.82C548.92,-329.14 538.49,-318.02 529,-307.93 500.15,-277.24 496.49,-265.77 464,-238.95 394.93,-181.94 305.8,-128.76 248.76,-96.93"/>
<polygon fill="black" stroke="black" points="250.33,-93.8 239.89,-92.01 246.94,-99.92 250.33,-93.8"/>
</g>
<!-- mu_metric -->
<g id="node2" class="node">
<title>mu_metric</title>
<ellipse fill="none" stroke="black" cx="332" cy="-365.43" rx="54.39" ry="37.45"/>
<text text-anchor="middle" x="332" y="-376.73" font-family="Times,serif" font-size="14.00">mu_metric</text>
<text text-anchor="middle" x="332" y="-361.73" font-family="Times,serif" font-size="14.00">~</text>
<text text-anchor="middle" x="332" y="-346.73" font-family="Times,serif" font-size="14.00">StudentT</text>
</g>
<!-- mu_metric&#45;&gt;true_log_rr -->
<g id="edge3" class="edge">
<title>mu_metric&#45;&gt;true_log_rr</title>
<path fill="none" stroke="black" d="M305.95,-332.22C296.81,-322.96 285.85,-313.78 274,-307.93 232.76,-287.55 214.22,-303.71 165.37,-291.49"/>
<polygon fill="black" stroke="black" points="166.1,-288.07 155.53,-288.76 164.23,-294.81 166.1,-288.07"/>
</g>
<!-- sig_ex -->
<g id="node3" class="node">
<title>sig_ex</title>
<ellipse fill="none" stroke="black" cx="462" cy="-365.43" rx="57.97" ry="37.45"/>
<text text-anchor="middle" x="462" y="-376.73" font-family="Times,serif" font-size="14.00">sig_ex</text>
<text text-anchor="middle" x="462" y="-361.73" font-family="Times,serif" font-size="14.00">~</text>
<text text-anchor="middle" x="462" y="-346.73" font-family="Times,serif" font-size="14.00">HalfCauchy</text>
</g>
<!-- sig_ex&#45;&gt;true_log_rr -->
<g id="edge4" class="edge">
<title>sig_ex&#45;&gt;true_log_rr</title>
<path fill="none" stroke="black" d="M432.73,-332.83C421.88,-323.12 408.82,-313.53 395,-307.93 303,-270.65 266.53,-314.56 165.72,-291.58"/>
<polygon fill="black" stroke="black" points="166.31,-288.12 155.76,-289.15 164.64,-294.92 166.31,-288.12"/>
</g>
<!-- est_lift_sd -->
<g id="node4" class="node">
<title>est_lift_sd</title>
<path fill="lightgrey" stroke="black" d="M250,-291.95C250,-291.95 186,-291.95 186,-291.95 180,-291.95 174,-285.95 174,-279.95 174,-279.95 174,-250.95 174,-250.95 174,-244.95 180,-238.95 186,-238.95 186,-238.95 250,-238.95 250,-238.95 256,-238.95 262,-244.95 262,-250.95 262,-250.95 262,-279.95 262,-279.95 262,-285.95 256,-291.95 250,-291.95"/>
<text text-anchor="middle" x="218" y="-276.75" font-family="Times,serif" font-size="14.00">est_lift_sd</text>
<text text-anchor="middle" x="218" y="-261.75" font-family="Times,serif" font-size="14.00">~</text>
<text text-anchor="middle" x="218" y="-246.75" font-family="Times,serif" font-size="14.00">MutableData</text>
</g>
<!-- est_lift_sd&#45;&gt;estimated_log_relative_lift -->
<g id="edge6" class="edge">
<title>est_lift_sd&#45;&gt;estimated_log_relative_lift</title>
<path fill="none" stroke="black" d="M199.35,-238.71C193.12,-230.12 185.99,-220.28 179.04,-210.69"/>
<polygon fill="black" stroke="black" points="181.71,-208.4 173,-202.36 176.04,-212.51 181.71,-208.4"/>
</g>
<!-- true_log_rr&#45;&gt;estimated_log_relative_lift -->
<g id="edge7" class="edge">
<title>true_log_rr&#45;&gt;estimated_log_relative_lift</title>
<path fill="none" stroke="black" d="M119.72,-238.71C122.8,-230.55 126.31,-221.26 129.76,-212.13"/>
<polygon fill="black" stroke="black" points="133.05,-213.32 133.31,-202.73 126.5,-210.85 133.05,-213.32"/>
</g>
<!-- est_log_lift -->
<g id="node6" class="node">
<title>est_log_lift</title>
<path fill="lightgrey" stroke="black" d="M92,-92C92,-92 28,-92 28,-92 22,-92 16,-86 16,-80 16,-80 16,-51 16,-51 16,-45 22,-39 28,-39 28,-39 92,-39 92,-39 98,-39 104,-45 104,-51 104,-51 104,-80 104,-80 104,-86 98,-92 92,-92"/>
<text text-anchor="middle" x="60" y="-76.8" font-family="Times,serif" font-size="14.00">est_log_lift</text>
<text text-anchor="middle" x="60" y="-61.8" font-family="Times,serif" font-size="14.00">~</text>
<text text-anchor="middle" x="60" y="-46.8" font-family="Times,serif" font-size="14.00">MutableData</text>
</g>
<!-- z_ex -->
<g id="node7" class="node">
<title>z_ex</title>
<ellipse fill="none" stroke="black" cx="110" cy="-365.43" rx="41.94" ry="37.45"/>
<text text-anchor="middle" x="110" y="-376.73" font-family="Times,serif" font-size="14.00">z_ex</text>
<text text-anchor="middle" x="110" y="-361.73" font-family="Times,serif" font-size="14.00">~</text>
<text text-anchor="middle" x="110" y="-346.73" font-family="Times,serif" font-size="14.00">Normal</text>
</g>
<!-- z_ex&#45;&gt;true_log_rr -->
<g id="edge2" class="edge">
<title>z_ex&#45;&gt;true_log_rr</title>
<path fill="none" stroke="black" d="M110,-327.95C110,-319.53 110,-310.59 110,-302.2"/>
<polygon fill="black" stroke="black" points="113.5,-301.96 110,-291.96 106.5,-301.96 113.5,-301.96"/>
</g>
<!-- estimated_log_relative_lift&#45;&gt;est_log_lift -->
<g id="edge1" class="edge">
<title>estimated_log_relative_lift&#45;&gt;est_log_lift</title>
<path fill="none" stroke="black" d="M115.84,-129.38C107.3,-119.77 98.08,-109.39 89.64,-99.88"/>
<polygon fill="black" stroke="black" points="92.02,-97.28 82.76,-92.13 86.78,-101.93 92.02,-97.28"/>
</g>
<!-- estimated_log_relative_lift&#45;&gt;estimated_relative_lift -->
<g id="edge9" class="edge">
<title>estimated_log_relative_lift&#45;&gt;estimated_relative_lift</title>
<path fill="none" stroke="black" d="M163.63,-128.27C167.67,-119.47 171.99,-110.07 176.01,-101.32"/>
<polygon fill="black" stroke="black" points="179.22,-102.7 180.22,-92.16 172.86,-99.78 179.22,-102.7"/>
</g>
</g>
</svg>
