<?xml version="1.0" encoding="UTF-8" standalone="no"?>
<!DOCTYPE svg PUBLIC "-//W3C//DTD SVG 1.1//EN"
 "http://www.w3.org/Graphics/SVG/1.1/DTD/svg11.dtd">
<!-- Generated by graphviz version 7.1.0 (0)
 -->
<!-- Pages: 1 -->
<svg width="1149pt" height="482pt"
 viewBox="0.00 0.00 1149.00 481.86" xmlns="http://www.w3.org/2000/svg" xmlns:xlink="http://www.w3.org/1999/xlink">
<g id="graph0" class="graph" transform="scale(1 1) rotate(0) translate(4 477.86)">
<polygon fill="white" stroke="none" points="-4,4 -4,-477.86 1145,-477.86 1145,4 -4,4"/>
<g id="clust1" class="cluster">
<title>cluster900</title>
<path fill="none" stroke="black" d="M20,-240.93C20,-240.93 418,-240.93 418,-240.93 424,-240.93 430,-246.93 430,-252.93 430,-252.93 430,-320.93 430,-320.93 430,-326.93 424,-332.93 418,-332.93 418,-332.93 20,-332.93 20,-332.93 14,-332.93 8,-326.93 8,-320.93 8,-320.93 8,-252.93 8,-252.93 8,-246.93 14,-240.93 20,-240.93"/>
<text text-anchor="middle" x="411.5" y="-248.73" font-family="Times,serif" font-size="14.00">900</text>
</g>
<g id="clust2" class="cluster">
<title>clusteralts_intercepts (4)</title>
<path fill="none" stroke="black" d="M647,-229.95C647,-229.95 889,-229.95 889,-229.95 895,-229.95 901,-235.95 901,-241.95 901,-241.95 901,-331.91 901,-331.91 901,-337.91 895,-343.91 889,-343.91 889,-343.91 647,-343.91 647,-343.91 641,-343.91 635,-337.91 635,-331.91 635,-331.91 635,-241.95 635,-241.95 635,-235.95 641,-229.95 647,-229.95"/>
<text text-anchor="middle" x="844" y="-237.75" font-family="Times,serif" font-size="14.00">alts_intercepts (4)</text>
</g>
<g id="clust3" class="cluster">
<title>cluster10</title>
<path fill="none" stroke="black" d="M882,-351.91C882,-351.91 1044,-351.91 1044,-351.91 1050,-351.91 1056,-357.91 1056,-363.91 1056,-363.91 1056,-453.86 1056,-453.86 1056,-459.86 1050,-465.86 1044,-465.86 1044,-465.86 882,-465.86 882,-465.86 876,-465.86 870,-459.86 870,-453.86 870,-453.86 870,-363.91 870,-363.91 870,-357.91 876,-351.91 882,-351.91"/>
<text text-anchor="middle" x="1041" y="-359.71" font-family="Times,serif" font-size="14.00">10</text>
</g>
<g id="clust4" class="cluster">
<title>cluster4 x 4</title>
<path fill="none" stroke="black" d="M921,-240.93C921,-240.93 1005,-240.93 1005,-240.93 1011,-240.93 1017,-246.93 1017,-252.93 1017,-252.93 1017,-320.93 1017,-320.93 1017,-326.93 1011,-332.93 1005,-332.93 1005,-332.93 921,-332.93 921,-332.93 915,-332.93 909,-326.93 909,-320.93 909,-320.93 909,-252.93 909,-252.93 909,-246.93 915,-240.93 921,-240.93"/>
<text text-anchor="middle" x="995" y="-248.73" font-family="Times,serif" font-size="14.00">4 x 4</text>
</g>
<g id="clust5" class="cluster">
<title>cluster4</title>
<path fill="none" stroke="black" d="M1037,-240.93C1037,-240.93 1121,-240.93 1121,-240.93 1127,-240.93 1133,-246.93 1133,-252.93 1133,-252.93 1133,-320.93 1133,-320.93 1133,-326.93 1127,-332.93 1121,-332.93 1121,-332.93 1037,-332.93 1037,-332.93 1031,-332.93 1025,-326.93 1025,-320.93 1025,-320.93 1025,-252.93 1025,-252.93 1025,-246.93 1031,-240.93 1037,-240.93"/>
<text text-anchor="middle" x="1121.5" y="-248.73" font-family="Times,serif" font-size="14.00">4</text>
</g>
<g id="clust6" class="cluster">
<title>clusterobs (900) x alts_probs (5)</title>
<path fill="none" stroke="black" d="M363,-129.95C363,-129.95 497,-129.95 497,-129.95 503,-129.95 509,-135.95 509,-141.95 509,-141.95 509,-209.95 509,-209.95 509,-215.95 503,-221.95 497,-221.95 497,-221.95 363,-221.95 363,-221.95 357,-221.95 351,-215.95 351,-209.95 351,-209.95 351,-141.95 351,-141.95 351,-135.95 357,-129.95 363,-129.95"/>
<text text-anchor="middle" x="430" y="-137.75" font-family="Times,serif" font-size="14.00">obs (900) x alts_probs (5)</text>
</g>
<g id="clust7" class="cluster">
<title>clusterobs (900)</title>
<path fill="none" stroke="black" d="M378,-8C378,-8 482,-8 482,-8 488,-8 494,-14 494,-20 494,-20 494,-109.95 494,-109.95 494,-115.95 488,-121.95 482,-121.95 482,-121.95 378,-121.95 378,-121.95 372,-121.95 366,-115.95 366,-109.95 366,-109.95 366,-20 366,-20 366,-14 372,-8 378,-8"/>
<text text-anchor="middle" x="460" y="-15.8" font-family="Times,serif" font-size="14.00">obs (900)</text>
</g>
<!-- oc_ec -->
<g id="node1" class="node">
<title>oc_ec</title>
<path fill="lightgrey" stroke="black" d="M410,-324.93C410,-324.93 346,-324.93 346,-324.93 340,-324.93 334,-318.93 334,-312.93 334,-312.93 334,-283.93 334,-283.93 334,-277.93 340,-271.93 346,-271.93 346,-271.93 410,-271.93 410,-271.93 416,-271.93 422,-277.93 422,-283.93 422,-283.93 422,-312.93 422,-312.93 422,-318.93 416,-324.93 410,-324.93"/>
<text text-anchor="middle" x="378" y="-309.73" font-family="Times,serif" font-size="14.00">oc_ec</text>
<text text-anchor="middle" x="378" y="-294.73" font-family="Times,serif" font-size="14.00">~</text>
<text text-anchor="middle" x="378" y="-279.73" font-family="Times,serif" font-size="14.00">MutableData</text>
</g>
<!-- p -->
<g id="node12" class="node">
<title>p</title>
<polygon fill="none" stroke="black" points="475.5,-213.95 384.5,-213.95 384.5,-160.95 475.5,-160.95 475.5,-213.95"/>
<text text-anchor="middle" x="430" y="-198.75" font-family="Times,serif" font-size="14.00">p</text>
<text text-anchor="middle" x="430" y="-183.75" font-family="Times,serif" font-size="14.00">~</text>
<text text-anchor="middle" x="430" y="-168.75" font-family="Times,serif" font-size="14.00">Deterministic</text>
</g>
<!-- oc_ec&#45;&gt;p -->
<g id="edge10" class="edge">
<title>oc_ec&#45;&gt;p</title>
<path fill="none" stroke="black" d="M390.32,-271.6C397.06,-257.49 405.5,-239.79 412.87,-224.35"/>
<polygon fill="black" stroke="black" points="415.97,-225.99 417.11,-215.46 409.65,-222.98 415.97,-225.99"/>
</g>
<!-- ic_ec -->
<g id="node2" class="node">
<title>ic_ec</title>
<path fill="lightgrey" stroke="black" d="M304,-324.93C304,-324.93 240,-324.93 240,-324.93 234,-324.93 228,-318.93 228,-312.93 228,-312.93 228,-283.93 228,-283.93 228,-277.93 234,-271.93 240,-271.93 240,-271.93 304,-271.93 304,-271.93 310,-271.93 316,-277.93 316,-283.93 316,-283.93 316,-312.93 316,-312.93 316,-318.93 310,-324.93 304,-324.93"/>
<text text-anchor="middle" x="272" y="-309.73" font-family="Times,serif" font-size="14.00">ic_ec</text>
<text text-anchor="middle" x="272" y="-294.73" font-family="Times,serif" font-size="14.00">~</text>
<text text-anchor="middle" x="272" y="-279.73" font-family="Times,serif" font-size="14.00">MutableData</text>
</g>
<!-- ic_ec&#45;&gt;p -->
<g id="edge4" class="edge">
<title>ic_ec&#45;&gt;p</title>
<path fill="none" stroke="black" d="M287.48,-271.58C296.88,-257.69 309.95,-241.17 325,-229.95 339.37,-219.24 356.88,-210.88 373.44,-204.57"/>
<polygon fill="black" stroke="black" points="374.51,-207.9 382.73,-201.22 372.13,-201.32 374.51,-207.9"/>
</g>
<!-- oc_er -->
<g id="node3" class="node">
<title>oc_er</title>
<path fill="lightgrey" stroke="black" d="M198,-324.93C198,-324.93 134,-324.93 134,-324.93 128,-324.93 122,-318.93 122,-312.93 122,-312.93 122,-283.93 122,-283.93 122,-277.93 128,-271.93 134,-271.93 134,-271.93 198,-271.93 198,-271.93 204,-271.93 210,-277.93 210,-283.93 210,-283.93 210,-312.93 210,-312.93 210,-318.93 204,-324.93 198,-324.93"/>
<text text-anchor="middle" x="166" y="-309.73" font-family="Times,serif" font-size="14.00">oc_er</text>
<text text-anchor="middle" x="166" y="-294.73" font-family="Times,serif" font-size="14.00">~</text>
<text text-anchor="middle" x="166" y="-279.73" font-family="Times,serif" font-size="14.00">MutableData</text>
</g>
<!-- oc_er&#45;&gt;p -->
<g id="edge6" class="edge">
<title>oc_er&#45;&gt;p</title>
<path fill="none" stroke="black" d="M180.09,-271.5C189.28,-257.05 202.61,-239.99 219,-229.95 265.71,-201.34 328.19,-191.89 373.02,-189.04"/>
<polygon fill="black" stroke="black" points="372.99,-192.55 382.79,-188.52 372.62,-185.56 372.99,-192.55"/>
</g>
<!-- ic_er -->
<g id="node4" class="node">
<title>ic_er</title>
<path fill="lightgrey" stroke="black" d="M92,-324.93C92,-324.93 28,-324.93 28,-324.93 22,-324.93 16,-318.93 16,-312.93 16,-312.93 16,-283.93 16,-283.93 16,-277.93 22,-271.93 28,-271.93 28,-271.93 92,-271.93 92,-271.93 98,-271.93 104,-277.93 104,-283.93 104,-283.93 104,-312.93 104,-312.93 104,-318.93 98,-324.93 92,-324.93"/>
<text text-anchor="middle" x="60" y="-309.73" font-family="Times,serif" font-size="14.00">ic_er</text>
<text text-anchor="middle" x="60" y="-294.73" font-family="Times,serif" font-size="14.00">~</text>
<text text-anchor="middle" x="60" y="-279.73" font-family="Times,serif" font-size="14.00">MutableData</text>
</g>
<!-- ic_er&#45;&gt;p -->
<g id="edge8" class="edge">
<title>ic_er&#45;&gt;p</title>
<path fill="none" stroke="black" d="M73.65,-271.45C82.77,-256.79 96.17,-239.53 113,-229.95 156.16,-205.38 293.87,-194.88 372.87,-190.79"/>
<polygon fill="black" stroke="black" points="372.75,-194.3 382.56,-190.31 372.4,-187.31 372.75,-194.3"/>
</g>
<!-- beta_oc -->
<g id="node5" class="node">
<title>beta_oc</title>
<ellipse fill="none" stroke="black" cx="482" cy="-298.43" rx="41.94" ry="37.45"/>
<text text-anchor="middle" x="482" y="-309.73" font-family="Times,serif" font-size="14.00">beta_oc</text>
<text text-anchor="middle" x="482" y="-294.73" font-family="Times,serif" font-size="14.00">~</text>
<text text-anchor="middle" x="482" y="-279.73" font-family="Times,serif" font-size="14.00">Normal</text>
</g>
<!-- beta_oc&#45;&gt;p -->
<g id="edge5" class="edge">
<title>beta_oc&#45;&gt;p</title>
<path fill="none" stroke="black" d="M465.83,-263.55C459.92,-251.15 453.2,-237.08 447.2,-224.5"/>
<polygon fill="black" stroke="black" points="450.47,-223.23 443.01,-215.72 444.16,-226.25 450.47,-223.23"/>
</g>
<!-- beta_ic -->
<g id="node6" class="node">
<title>beta_ic</title>
<ellipse fill="none" stroke="black" cx="583" cy="-298.43" rx="41.94" ry="37.45"/>
<text text-anchor="middle" x="583" y="-309.73" font-family="Times,serif" font-size="14.00">beta_ic</text>
<text text-anchor="middle" x="583" y="-294.73" font-family="Times,serif" font-size="14.00">~</text>
<text text-anchor="middle" x="583" y="-279.73" font-family="Times,serif" font-size="14.00">Normal</text>
</g>
<!-- beta_ic&#45;&gt;p -->
<g id="edge9" class="edge">
<title>beta_ic&#45;&gt;p</title>
<path fill="none" stroke="black" d="M564.21,-264.81C555.9,-252.6 545.23,-239.41 533,-229.95 519.24,-219.31 502.38,-211.02 486.32,-204.74"/>
<polygon fill="black" stroke="black" points="487.93,-201.6 477.34,-201.42 485.51,-208.17 487.93,-201.6"/>
</g>
<!-- alpha -->
<g id="node7" class="node">
<title>alpha</title>
<ellipse fill="none" stroke="black" cx="838" cy="-298.43" rx="55.31" ry="37.45"/>
<text text-anchor="middle" x="838" y="-309.73" font-family="Times,serif" font-size="14.00">alpha</text>
<text text-anchor="middle" x="838" y="-294.73" font-family="Times,serif" font-size="14.00">~</text>
<text text-anchor="middle" x="838" y="-279.73" font-family="Times,serif" font-size="14.00">MvNormal</text>
</g>
<!-- alpha&#45;&gt;p -->
<g id="edge7" class="edge">
<title>alpha&#45;&gt;p</title>
<path fill="none" stroke="black" d="M814.48,-264.06C803.66,-251.27 789.72,-237.86 774,-229.95 725.11,-205.37 571.95,-194.77 487.43,-190.69"/>
<polygon fill="black" stroke="black" points="487.65,-187.2 477.49,-190.23 487.32,-194.19 487.65,-187.2"/>
</g>
<!-- beta_income -->
<g id="node8" class="node">
<title>beta_income</title>
<ellipse fill="none" stroke="black" cx="704" cy="-298.43" rx="60.62" ry="37.45"/>
<text text-anchor="middle" x="704" y="-309.73" font-family="Times,serif" font-size="14.00">beta_income</text>
<text text-anchor="middle" x="704" y="-294.73" font-family="Times,serif" font-size="14.00">~</text>
<text text-anchor="middle" x="704" y="-279.73" font-family="Times,serif" font-size="14.00">Normal</text>
</g>
<!-- beta_income&#45;&gt;p -->
<g id="edge11" class="edge">
<title>beta_income&#45;&gt;p</title>
<path fill="none" stroke="black" d="M677.37,-264.7C665.39,-252.02 650.29,-238.51 634,-229.95 588.14,-205.85 529.67,-195.73 487.09,-191.49"/>
<polygon fill="black" stroke="black" points="487.59,-188.02 477.31,-190.6 486.96,-194.99 487.59,-188.02"/>
</g>
<!-- chol -->
<g id="node9" class="node">
<title>chol</title>
<ellipse fill="none" stroke="black" cx="963" cy="-420.38" rx="84.71" ry="37.45"/>
<text text-anchor="middle" x="963" y="-431.68" font-family="Times,serif" font-size="14.00">chol</text>
<text text-anchor="middle" x="963" y="-416.68" font-family="Times,serif" font-size="14.00">~</text>
<text text-anchor="middle" x="963" y="-401.68" font-family="Times,serif" font-size="14.00">_LKJCholeskyCov</text>
</g>
<!-- chol&#45;&gt;alpha -->
<g id="edge3" class="edge">
<title>chol&#45;&gt;alpha</title>
<path fill="none" stroke="black" d="M928.18,-385.97C912.43,-370.86 893.75,-352.93 877.48,-337.31"/>
<polygon fill="black" stroke="black" points="879.95,-334.84 870.31,-330.44 875.1,-339.89 879.95,-334.84"/>
</g>
<!-- chol_corr -->
<g id="node10" class="node">
<title>chol_corr</title>
<polygon fill="none" stroke="black" points="1008.5,-324.93 917.5,-324.93 917.5,-271.93 1008.5,-271.93 1008.5,-324.93"/>
<text text-anchor="middle" x="963" y="-309.73" font-family="Times,serif" font-size="14.00">chol_corr</text>
<text text-anchor="middle" x="963" y="-294.73" font-family="Times,serif" font-size="14.00">~</text>
<text text-anchor="middle" x="963" y="-279.73" font-family="Times,serif" font-size="14.00">Deterministic</text>
</g>
<!-- chol&#45;&gt;chol_corr -->
<g id="edge1" class="edge">
<title>chol&#45;&gt;chol_corr</title>
<path fill="none" stroke="black" d="M963,-382.74C963,-368.06 963,-351.18 963,-336.46"/>
<polygon fill="black" stroke="black" points="966.5,-336.72 963,-326.72 959.5,-336.72 966.5,-336.72"/>
</g>
<!-- chol_stds -->
<g id="node11" class="node">
<title>chol_stds</title>
<polygon fill="none" stroke="black" points="1124.5,-324.93 1033.5,-324.93 1033.5,-271.93 1124.5,-271.93 1124.5,-324.93"/>
<text text-anchor="middle" x="1079" y="-309.73" font-family="Times,serif" font-size="14.00">chol_stds</text>
<text text-anchor="middle" x="1079" y="-294.73" font-family="Times,serif" font-size="14.00">~</text>
<text text-anchor="middle" x="1079" y="-279.73" font-family="Times,serif" font-size="14.00">Deterministic</text>
</g>
<!-- chol&#45;&gt;chol_stds -->
<g id="edge2" class="edge">
<title>chol&#45;&gt;chol_stds</title>
<path fill="none" stroke="black" d="M995.62,-385.65C1011.37,-369.36 1030.23,-349.86 1046.03,-333.53"/>
<polygon fill="black" stroke="black" points="1048.49,-336.02 1052.92,-326.4 1043.45,-331.15 1048.49,-336.02"/>
</g>
<!-- y_cat -->
<g id="node13" class="node">
<title>y_cat</title>
<ellipse fill="lightgrey" stroke="black" cx="430" cy="-76.48" rx="55.72" ry="37.45"/>
<text text-anchor="middle" x="430" y="-87.78" font-family="Times,serif" font-size="14.00">y_cat</text>
<text text-anchor="middle" x="430" y="-72.78" font-family="Times,serif" font-size="14.00">~</text>
<text text-anchor="middle" x="430" y="-57.78" font-family="Times,serif" font-size="14.00">Categorical</text>
</g>
<!-- p&#45;&gt;y_cat -->
<g id="edge12" class="edge">
<title>p&#45;&gt;y_cat</title>
<path fill="none" stroke="black" d="M430,-160.63C430,-150.13 430,-137.66 430,-125.6"/>
<polygon fill="black" stroke="black" points="433.5,-125.77 430,-115.77 426.5,-125.77 433.5,-125.77"/>
</g>
</g>
</svg>