<?xml version="1.0" encoding="UTF-8" standalone="no"?>
<!DOCTYPE svg PUBLIC "-//W3C//DTD SVG 1.1//EN"
 "http://www.w3.org/Graphics/SVG/1.1/DTD/svg11.dtd">
<!-- Generated by graphviz version 2.38.0 (20140413.2041)
 -->
<!-- Title: %3 Pages: 1 -->
<svg width="435pt" height="116pt"
 viewBox="0.00 0.00 434.71 116.00" xmlns="http://www.w3.org/2000/svg" xmlns:xlink="http://www.w3.org/1999/xlink">
<g id="graph0" class="graph" transform="scale(1 1) rotate(0) translate(4 112)">
<title>%3</title>
<polygon fill="white" stroke="none" points="-4,4 -4,-112 430.71,-112 430.71,4 -4,4"/>
<!-- Echo -->
<g id="node1" class="node"><title>Echo</title>
<ellipse fill="none" stroke="black" cx="39.0726" cy="-90" rx="28.0565" ry="18"/>
<text text-anchor="middle" x="39.0726" y="-85.8" font-family="Times,serif" font-size="14.00">Echo</text>
</g>
<!-- Panacea -->
<g id="node3" class="node"><title>Panacea</title>
<ellipse fill="none" stroke="black" cx="39.0726" cy="-18" rx="39.1454" ry="18"/>
<text text-anchor="middle" x="39.0726" y="-13.8" font-family="Times,serif" font-size="14.00">Panacea</text>
</g>
<!-- Echo&#45;&gt;Panacea -->
<g id="edge1" class="edge"><title>Echo&#45;&gt;Panacea</title>
<path fill="none" stroke="black" d="M39.0726,-71.6966C39.0726,-63.9827 39.0726,-54.7125 39.0726,-46.1124"/>
<polygon fill="black" stroke="black" points="42.5727,-46.1043 39.0726,-36.1043 35.5727,-46.1044 42.5727,-46.1043"/>
</g>
<!-- Severen -->
<g id="node2" class="node"><title>Severen</title>
<ellipse fill="none" stroke="black" cx="124.073" cy="-90" rx="38.6782" ry="18"/>
<text text-anchor="middle" x="124.073" y="-85.8" font-family="Times,serif" font-size="14.00">Severen</text>
</g>
<!-- ACDC -->
<g id="node4" class="node"><title>ACDC</title>
<ellipse fill="none" stroke="black" cx="258.073" cy="-90" rx="77.81" ry="18"/>
<text text-anchor="middle" x="258.073" y="-85.8" font-family="Times,serif" font-size="14.00">ACDC Framework</text>
</g>
<!-- Jenkins -->
<g id="node5" class="node"><title>Jenkins</title>
<ellipse fill="none" stroke="black" cx="390.073" cy="-90" rx="36.775" ry="18"/>
<text text-anchor="middle" x="390.073" y="-85.8" font-family="Times,serif" font-size="14.00">Jenkins</text>
</g>
</g>
</svg>
