<?xml version="1.0" encoding="UTF-8" standalone="no"?>
<!DOCTYPE svg PUBLIC "-//W3C//DTD SVG 1.1//EN"
 "http://www.w3.org/Graphics/SVG/1.1/DTD/svg11.dtd">
<!-- Generated by graphviz version 2.38.0 (20140413.2041)
 -->
<!-- Title: %3 Pages: 1 -->
<svg width="927pt" height="525pt"
 viewBox="0.00 0.00 926.60 524.84" xmlns="http://www.w3.org/2000/svg" xmlns:xlink="http://www.w3.org/1999/xlink">
<g id="graph0" class="graph" transform="scale(1 1) rotate(0) translate(4 520.843)">
<title>%3</title>
<polygon fill="white" stroke="none" points="-4,4 -4,-520.843 922.601,-520.843 922.601,4 -4,4"/>
<g id="clust1" class="cluster"><title>cluster10</title>
<path fill="none" stroke="black" d="M261.301,-223.421C261.301,-223.421 520.301,-223.421 520.301,-223.421 526.301,-223.421 532.301,-229.421 532.301,-235.421 532.301,-235.421 532.301,-406.132 532.301,-406.132 532.301,-412.132 526.301,-418.132 520.301,-418.132 520.301,-418.132 261.301,-418.132 261.301,-418.132 255.301,-418.132 249.301,-412.132 249.301,-406.132 249.301,-406.132 249.301,-235.421 249.301,-235.421 249.301,-229.421 255.301,-223.421 261.301,-223.421"/>
<text text-anchor="middle" x="517.301" y="-230.221" font-family="Times,serif" font-size="14.00">10</text>
</g>
<g id="clust2" class="cluster"><title>cluster55</title>
<path fill="none" stroke="black" d="M552.301,-8C552.301,-8 748.301,-8 748.301,-8 754.301,-8 760.301,-14 760.301,-20 760.301,-20 760.301,-299.421 760.301,-299.421 760.301,-305.421 754.301,-311.421 748.301,-311.421 748.301,-311.421 552.301,-311.421 552.301,-311.421 546.301,-311.421 540.301,-305.421 540.301,-299.421 540.301,-299.421 540.301,-20 540.301,-20 540.301,-14 546.301,-8 552.301,-8"/>
<text text-anchor="middle" x="745.301" y="-14.8" font-family="Times,serif" font-size="14.00">55</text>
</g>
<!-- theta -->
<g id="node1" class="node"><title>theta</title>
<ellipse fill="none" stroke="black" cx="184.301" cy="-374.777" rx="55.1022" ry="35.2113"/>
<text text-anchor="middle" x="184.301" y="-384.577" font-family="Times,serif" font-size="14.00">theta</text>
<text text-anchor="middle" x="184.301" y="-370.577" font-family="Times,serif" font-size="14.00">~</text>
<text text-anchor="middle" x="184.301" y="-356.577" font-family="Times,serif" font-size="14.00">Lognormal</text>
</g>
<!-- gf -->
<g id="node6" class="node"><title>gf</title>
<polygon fill="none" stroke="black" points="349.501,-303.421 257.1,-303.421 257.1,-253.421 349.501,-253.421 349.501,-303.421"/>
<text text-anchor="middle" x="303.301" y="-288.221" font-family="Times,serif" font-size="14.00">gf</text>
<text text-anchor="middle" x="303.301" y="-274.221" font-family="Times,serif" font-size="14.00">~</text>
<text text-anchor="middle" x="303.301" y="-260.221" font-family="Times,serif" font-size="14.00">Deterministic</text>
</g>
<!-- theta&#45;&gt;gf -->
<g id="edge3" class="edge"><title>theta&#45;&gt;gf</title>
<path fill="none" stroke="black" d="M218.401,-346.738C232.889,-335.251 249.849,-321.803 264.786,-309.96"/>
<polygon fill="black" stroke="black" points="267.186,-312.524 272.847,-303.568 262.837,-307.039 267.186,-312.524"/>
</g>
<!-- mu_LR -->
<g id="node2" class="node"><title>mu_LR</title>
<ellipse fill="none" stroke="black" cx="327.301" cy="-481.487" rx="41.6266" ry="35.2113"/>
<text text-anchor="middle" x="327.301" y="-491.287" font-family="Times,serif" font-size="14.00">mu_LR</text>
<text text-anchor="middle" x="327.301" y="-477.287" font-family="Times,serif" font-size="14.00">~</text>
<text text-anchor="middle" x="327.301" y="-463.287" font-family="Times,serif" font-size="14.00">Normal</text>
</g>
<!-- LR -->
<g id="node9" class="node"><title>LR</title>
<ellipse fill="none" stroke="black" cx="384.301" cy="-374.777" rx="55.1022" ry="35.2113"/>
<text text-anchor="middle" x="384.301" y="-384.577" font-family="Times,serif" font-size="14.00">LR</text>
<text text-anchor="middle" x="384.301" y="-370.577" font-family="Times,serif" font-size="14.00">~</text>
<text text-anchor="middle" x="384.301" y="-356.577" font-family="Times,serif" font-size="14.00">Lognormal</text>
</g>
<!-- mu_LR&#45;&gt;LR -->
<g id="edge2" class="edge"><title>mu_LR&#45;&gt;LR</title>
<path fill="none" stroke="black" d="M344.403,-449.071C349.78,-439.193 355.805,-428.125 361.511,-417.642"/>
<polygon fill="black" stroke="black" points="364.712,-419.081 366.42,-408.625 358.564,-415.735 364.712,-419.081"/>
</g>
<!-- loss_sd -->
<g id="node3" class="node"><title>loss_sd</title>
<ellipse fill="none" stroke="black" cx="863.301" cy="-180.066" rx="55.1022" ry="35.2113"/>
<text text-anchor="middle" x="863.301" y="-189.866" font-family="Times,serif" font-size="14.00">loss_sd</text>
<text text-anchor="middle" x="863.301" y="-175.866" font-family="Times,serif" font-size="14.00">~</text>
<text text-anchor="middle" x="863.301" y="-161.866" font-family="Times,serif" font-size="14.00">Lognormal</text>
</g>
<!-- loss -->
<g id="node10" class="node"><title>loss</title>
<ellipse fill="lightgrey" stroke="black" cx="697.301" cy="-73.3553" rx="41.6072" ry="35.2113"/>
<text text-anchor="middle" x="697.301" y="-83.1553" font-family="Times,serif" font-size="14.00">loss</text>
<text text-anchor="middle" x="697.301" y="-69.1553" font-family="Times,serif" font-size="14.00">~</text>
<text text-anchor="middle" x="697.301" y="-55.1553" font-family="Times,serif" font-size="14.00">Normal</text>
</g>
<!-- loss_sd&#45;&gt;loss -->
<g id="edge14" class="edge"><title>loss_sd&#45;&gt;loss</title>
<path fill="none" stroke="black" d="M824.381,-154.516C798.724,-138.332 765.151,-117.154 738.956,-100.631"/>
<polygon fill="black" stroke="black" points="740.703,-97.5948 730.378,-95.2199 736.968,-103.515 740.703,-97.5948"/>
</g>
<!-- omega -->
<g id="node4" class="node"><title>omega</title>
<ellipse fill="none" stroke="black" cx="55.3007" cy="-374.777" rx="55.1022" ry="35.2113"/>
<text text-anchor="middle" x="55.3007" y="-384.577" font-family="Times,serif" font-size="14.00">omega</text>
<text text-anchor="middle" x="55.3007" y="-370.577" font-family="Times,serif" font-size="14.00">~</text>
<text text-anchor="middle" x="55.3007" y="-356.577" font-family="Times,serif" font-size="14.00">Lognormal</text>
</g>
<!-- omega&#45;&gt;gf -->
<g id="edge4" class="edge"><title>omega&#45;&gt;gf</title>
<path fill="none" stroke="black" d="M96.4027,-350.714C104.225,-346.71 112.429,-342.764 120.301,-339.421 161.794,-321.804 210.34,-306.101 247.001,-295.183"/>
<polygon fill="black" stroke="black" points="248.408,-298.417 257.011,-292.232 246.429,-291.702 248.408,-298.417"/>
</g>
<!-- sd_LR -->
<g id="node5" class="node"><title>sd_LR</title>
<ellipse fill="none" stroke="black" cx="442.301" cy="-481.487" rx="55.1022" ry="35.2113"/>
<text text-anchor="middle" x="442.301" y="-491.287" font-family="Times,serif" font-size="14.00">sd_LR</text>
<text text-anchor="middle" x="442.301" y="-477.287" font-family="Times,serif" font-size="14.00">~</text>
<text text-anchor="middle" x="442.301" y="-463.287" font-family="Times,serif" font-size="14.00">Lognormal</text>
</g>
<!-- sd_LR&#45;&gt;LR -->
<g id="edge1" class="edge"><title>sd_LR&#45;&gt;LR</title>
<path fill="none" stroke="black" d="M424.267,-447.93C418.866,-438.179 412.87,-427.354 407.199,-417.117"/>
<polygon fill="black" stroke="black" points="410.23,-415.365 402.323,-408.314 404.107,-418.757 410.23,-415.365"/>
</g>
<!-- lm -->
<g id="node13" class="node"><title>lm</title>
<polygon fill="none" stroke="black" points="640.501,-205.066 548.1,-205.066 548.1,-155.066 640.501,-155.066 640.501,-205.066"/>
<text text-anchor="middle" x="594.301" y="-189.866" font-family="Times,serif" font-size="14.00">lm</text>
<text text-anchor="middle" x="594.301" y="-175.866" font-family="Times,serif" font-size="14.00">~</text>
<text text-anchor="middle" x="594.301" y="-161.866" font-family="Times,serif" font-size="14.00">Deterministic</text>
</g>
<!-- gf&#45;&gt;lm -->
<g id="edge10" class="edge"><title>gf&#45;&gt;lm</title>
<path fill="none" stroke="black" d="M345.628,-253.344C365.149,-243.008 388.914,-231.48 411.301,-223.421 452.669,-208.529 501.222,-197.575 537.917,-190.542"/>
<polygon fill="black" stroke="black" points="538.754,-193.946 547.937,-188.662 537.463,-187.066 538.754,-193.946"/>
</g>
<!-- t -->
<g id="node7" class="node"><title>t</title>
<path fill="lightgrey" stroke="black" d="M299.301,-399.777C299.301,-399.777 269.301,-399.777 269.301,-399.777 263.301,-399.777 257.301,-393.777 257.301,-387.777 257.301,-387.777 257.301,-361.777 257.301,-361.777 257.301,-355.777 263.301,-349.777 269.301,-349.777 269.301,-349.777 299.301,-349.777 299.301,-349.777 305.301,-349.777 311.301,-355.777 311.301,-361.777 311.301,-361.777 311.301,-387.777 311.301,-387.777 311.301,-393.777 305.301,-399.777 299.301,-399.777"/>
<text text-anchor="middle" x="284.301" y="-384.577" font-family="Times,serif" font-size="14.00">t</text>
<text text-anchor="middle" x="284.301" y="-370.577" font-family="Times,serif" font-size="14.00">~</text>
<text text-anchor="middle" x="284.301" y="-356.577" font-family="Times,serif" font-size="14.00">Data</text>
</g>
<!-- t&#45;&gt;gf -->
<g id="edge5" class="edge"><title>t&#45;&gt;gf</title>
<path fill="none" stroke="black" d="M289.194,-349.478C291.388,-338.582 294.014,-325.538 296.403,-313.675"/>
<polygon fill="black" stroke="black" points="299.881,-314.132 298.424,-303.638 293.019,-312.75 299.881,-314.132"/>
</g>
<!-- premium -->
<g id="node8" class="node"><title>premium</title>
<path fill="lightgrey" stroke="black" d="M512.347,-399.777C512.347,-399.777 470.254,-399.777 470.254,-399.777 464.254,-399.777 458.254,-393.777 458.254,-387.777 458.254,-387.777 458.254,-361.777 458.254,-361.777 458.254,-355.777 464.254,-349.777 470.254,-349.777 470.254,-349.777 512.347,-349.777 512.347,-349.777 518.347,-349.777 524.347,-355.777 524.347,-361.777 524.347,-361.777 524.347,-387.777 524.347,-387.777 524.347,-393.777 518.347,-399.777 512.347,-399.777"/>
<text text-anchor="middle" x="491.301" y="-384.577" font-family="Times,serif" font-size="14.00">premium</text>
<text text-anchor="middle" x="491.301" y="-370.577" font-family="Times,serif" font-size="14.00">~</text>
<text text-anchor="middle" x="491.301" y="-356.577" font-family="Times,serif" font-size="14.00">Data</text>
</g>
<!-- premium&#45;&gt;loss -->
<g id="edge13" class="edge"><title>premium&#45;&gt;loss</title>
<path fill="none" stroke="black" d="M524.508,-371.142C590.002,-365.182 732.027,-348.226 761.301,-311.421 808.086,-252.6 760.078,-162.362 725.651,-111.877"/>
<polygon fill="black" stroke="black" points="728.422,-109.731 719.834,-103.528 722.679,-113.733 728.422,-109.731"/>
</g>
<!-- premium&#45;&gt;lm -->
<g id="edge8" class="edge"><title>premium&#45;&gt;lm</title>
<path fill="none" stroke="black" d="M494.448,-349.664C499.513,-318.204 511.839,-262.564 539.301,-223.421 542.095,-219.438 545.377,-215.658 548.921,-212.115"/>
<polygon fill="black" stroke="black" points="551.478,-214.52 556.496,-205.189 546.754,-209.354 551.478,-214.52"/>
</g>
<!-- LR&#45;&gt;lm -->
<g id="edge7" class="edge"><title>LR&#45;&gt;lm</title>
<path fill="none" stroke="black" d="M402.532,-341.197C422.57,-307.868 457.526,-256.424 499.301,-223.421 510.929,-214.235 524.864,-206.586 538.432,-200.432"/>
<polygon fill="black" stroke="black" points="539.944,-203.592 547.734,-196.411 537.166,-197.167 539.944,-203.592"/>
</g>
<!-- obs_idx -->
<g id="node11" class="node"><title>obs_idx</title>
<path fill="lightgrey" stroke="black" d="M740.64,-303.421C740.64,-303.421 703.962,-303.421 703.962,-303.421 697.962,-303.421 691.962,-297.421 691.962,-291.421 691.962,-291.421 691.962,-265.421 691.962,-265.421 691.962,-259.421 697.962,-253.421 703.962,-253.421 703.962,-253.421 740.64,-253.421 740.64,-253.421 746.64,-253.421 752.64,-259.421 752.64,-265.421 752.64,-265.421 752.64,-291.421 752.64,-291.421 752.64,-297.421 746.64,-303.421 740.64,-303.421"/>
<text text-anchor="middle" x="722.301" y="-288.221" font-family="Times,serif" font-size="14.00">obs_idx</text>
<text text-anchor="middle" x="722.301" y="-274.221" font-family="Times,serif" font-size="14.00">~</text>
<text text-anchor="middle" x="722.301" y="-260.221" font-family="Times,serif" font-size="14.00">Data</text>
</g>
<!-- t_idx -->
<g id="node12" class="node"><title>t_idx</title>
<path fill="lightgrey" stroke="black" d="M590.301,-303.421C590.301,-303.421 560.301,-303.421 560.301,-303.421 554.301,-303.421 548.301,-297.421 548.301,-291.421 548.301,-291.421 548.301,-265.421 548.301,-265.421 548.301,-259.421 554.301,-253.421 560.301,-253.421 560.301,-253.421 590.301,-253.421 590.301,-253.421 596.301,-253.421 602.301,-259.421 602.301,-265.421 602.301,-265.421 602.301,-291.421 602.301,-291.421 602.301,-297.421 596.301,-303.421 590.301,-303.421"/>
<text text-anchor="middle" x="575.301" y="-288.221" font-family="Times,serif" font-size="14.00">t_idx</text>
<text text-anchor="middle" x="575.301" y="-274.221" font-family="Times,serif" font-size="14.00">~</text>
<text text-anchor="middle" x="575.301" y="-260.221" font-family="Times,serif" font-size="14.00">Data</text>
</g>
<!-- t_idx&#45;&gt;lm -->
<g id="edge6" class="edge"><title>t_idx&#45;&gt;lm</title>
<path fill="none" stroke="black" d="M580.095,-253.107C582.345,-241.695 585.067,-227.894 587.523,-215.438"/>
<polygon fill="black" stroke="black" points="591.007,-215.861 589.508,-205.373 584.139,-214.507 591.007,-215.861"/>
</g>
<!-- lm&#45;&gt;loss -->
<g id="edge11" class="edge"><title>lm&#45;&gt;loss</title>
<path fill="none" stroke="black" d="M617.931,-155.043C631.508,-141.241 648.783,-123.679 663.747,-108.466"/>
<polygon fill="black" stroke="black" points="666.364,-110.797 670.881,-101.214 661.373,-105.888 666.364,-110.797"/>
</g>
<!-- c_idx -->
<g id="node14" class="node"><title>c_idx</title>
<path fill="lightgrey" stroke="black" d="M662.301,-303.421C662.301,-303.421 632.301,-303.421 632.301,-303.421 626.301,-303.421 620.301,-297.421 620.301,-291.421 620.301,-291.421 620.301,-265.421 620.301,-265.421 620.301,-259.421 626.301,-253.421 632.301,-253.421 632.301,-253.421 662.301,-253.421 662.301,-253.421 668.301,-253.421 674.301,-259.421 674.301,-265.421 674.301,-265.421 674.301,-291.421 674.301,-291.421 674.301,-297.421 668.301,-303.421 662.301,-303.421"/>
<text text-anchor="middle" x="647.301" y="-288.221" font-family="Times,serif" font-size="14.00">c_idx</text>
<text text-anchor="middle" x="647.301" y="-274.221" font-family="Times,serif" font-size="14.00">~</text>
<text text-anchor="middle" x="647.301" y="-260.221" font-family="Times,serif" font-size="14.00">Data</text>
</g>
<!-- c_idx&#45;&gt;loss -->
<g id="edge12" class="edge"><title>c_idx&#45;&gt;loss</title>
<path fill="none" stroke="black" d="M653.233,-253.33C661.43,-220.039 676.36,-159.403 686.549,-118.02"/>
<polygon fill="black" stroke="black" points="689.974,-118.75 688.967,-108.203 683.177,-117.076 689.974,-118.75"/>
</g>
<!-- c_idx&#45;&gt;lm -->
<g id="edge9" class="edge"><title>c_idx&#45;&gt;lm</title>
<path fill="none" stroke="black" d="M633.927,-253.107C627.461,-241.353 619.602,-227.064 612.592,-214.32"/>
<polygon fill="black" stroke="black" points="615.557,-212.448 607.671,-205.373 609.423,-215.822 615.557,-212.448"/>
</g>
</g>
</svg>
