<?xml version="1.0" encoding="UTF-8" standalone="no"?>
<!DOCTYPE svg PUBLIC "-//W3C//DTD SVG 1.1//EN"
 "http://www.w3.org/Graphics/SVG/1.1/DTD/svg11.dtd">
<!-- Generated by graphviz version 2.38.0 (20140413.2041)
 -->
<!-- Title: G Pages: 1 -->
<svg width="423pt" height="220pt"
 viewBox="0.00 0.00 422.75 220.00" xmlns="http://www.w3.org/2000/svg" xmlns:xlink="http://www.w3.org/1999/xlink">
<g id="graph0" class="graph" transform="scale(1 1) rotate(0) translate(4 216)">
<title>G</title>
<polygon fill="white" stroke="none" points="-4,4 -4,-216 418.754,-216 418.754,4 -4,4"/>
<g id="clust1" class="cluster"><title>cluster0</title>
<polygon fill="none" stroke="black" points="184,-8 184,-204 346,-204 346,-8 184,-8"/>
</g>
<g id="clust2" class="cluster"><title>cluster1</title>
<polygon fill="none" stroke="black" points="8,-80 8,-204 176,-204 176,-80 8,-80"/>
</g>
<!-- e -->
<g id="node1" class="node"><title>e</title>
<ellipse fill="none" stroke="black" cx="44" cy="-106" rx="28.0565" ry="18"/>
<text text-anchor="middle" x="44" y="-101.8" font-family="Times,serif" font-size="14.00">Echo</text>
</g>
<!-- s -->
<g id="node2" class="node"><title>s</title>
<ellipse fill="none" stroke="black" cx="129" cy="-106" rx="38.6782" ry="18"/>
<text text-anchor="middle" x="129" y="-101.8" font-family="Times,serif" font-size="14.00">Severen</text>
</g>
<!-- p -->
<g id="node3" class="node"><title>p</title>
<ellipse fill="none" stroke="black" cx="92" cy="-178" rx="39.1454" ry="18"/>
<text text-anchor="middle" x="92" y="-173.8" font-family="Times,serif" font-size="14.00">Panacea</text>
</g>
<!-- p&#45;&gt;e -->
<g id="edge6" class="edge"><title>p&#45;&gt;e</title>
<path fill="none" stroke="black" d="M80.6247,-160.411C74.6815,-151.744 67.2945,-140.971 60.7146,-131.375"/>
<polygon fill="black" stroke="black" points="63.5052,-129.256 54.9633,-122.988 57.732,-133.215 63.5052,-129.256"/>
</g>
<!-- p&#45;&gt;s -->
<g id="edge5" class="edge"><title>p&#45;&gt;s</title>
<path fill="none" stroke="black" d="M100.768,-160.411C105.083,-152.249 110.384,-142.22 115.223,-133.065"/>
<polygon fill="black" stroke="black" points="118.459,-134.433 120.037,-123.956 112.27,-131.162 118.459,-134.433"/>
</g>
<!-- j -->
<g id="node4" class="node"><title>j</title>
<ellipse fill="none" stroke="black" cx="301" cy="-178" rx="36.775" ry="18"/>
<text text-anchor="middle" x="301" y="-173.8" font-family="Times,serif" font-size="14.00">Jenkins</text>
</g>
<!-- b -->
<g id="node6" class="node"><title>b</title>
<ellipse fill="none" stroke="black" cx="298" cy="-106" rx="27" ry="18"/>
<text text-anchor="middle" x="298" y="-101.8" font-family="Times,serif" font-size="14.00">b</text>
</g>
<!-- j&#45;&gt;b -->
<g id="edge1" class="edge"><title>j&#45;&gt;b</title>
<path fill="none" stroke="black" d="M300.258,-159.697C299.928,-151.983 299.531,-142.712 299.162,-134.112"/>
<polygon fill="black" stroke="black" points="302.658,-133.945 298.733,-124.104 295.665,-134.245 302.658,-133.945"/>
</g>
<!-- slack -->
<g id="node5" class="node"><title>slack</title>
<ellipse fill="none" stroke="black" cx="385" cy="-178" rx="29.5104" ry="18"/>
<text text-anchor="middle" x="385" y="-173.8" font-family="Times,serif" font-size="14.00">Slack</text>
</g>
<!-- d -->
<g id="node9" class="node"><title>d</title>
<ellipse fill="none" stroke="black" cx="221" cy="-34" rx="27" ry="18"/>
<text text-anchor="middle" x="221" y="-29.8" font-family="Times,serif" font-size="14.00">d</text>
</g>
<!-- b&#45;&gt;d -->
<g id="edge3" class="edge"><title>b&#45;&gt;d</title>
<path fill="none" stroke="black" d="M282.418,-90.8345C271.387,-80.8065 256.41,-67.1909 244.007,-55.9158"/>
<polygon fill="black" stroke="black" points="246.05,-53.0425 236.296,-48.9056 241.341,-58.2221 246.05,-53.0425"/>
</g>
<!-- a -->
<g id="node7" class="node"><title>a</title>
<ellipse fill="none" stroke="black" cx="219" cy="-178" rx="27" ry="18"/>
<text text-anchor="middle" x="219" y="-173.8" font-family="Times,serif" font-size="14.00">a</text>
</g>
<!-- c -->
<g id="node8" class="node"><title>c</title>
<ellipse fill="none" stroke="black" cx="221" cy="-106" rx="27" ry="18"/>
<text text-anchor="middle" x="221" y="-101.8" font-family="Times,serif" font-size="14.00">c</text>
</g>
<!-- a&#45;&gt;c -->
<g id="edge2" class="edge"><title>a&#45;&gt;c</title>
<path fill="none" stroke="black" d="M219.494,-159.697C219.715,-151.983 219.98,-142.712 220.225,-134.112"/>
<polygon fill="black" stroke="black" points="223.724,-134.2 220.511,-124.104 216.727,-134 223.724,-134.2"/>
</g>
<!-- c&#45;&gt;d -->
<g id="edge4" class="edge"><title>c&#45;&gt;d</title>
<path fill="none" stroke="black" d="M221,-87.6966C221,-79.9827 221,-70.7125 221,-62.1124"/>
<polygon fill="black" stroke="black" points="224.5,-62.1043 221,-52.1043 217.5,-62.1044 224.5,-62.1043"/>
</g>
</g>
</svg>
