<?xml version="1.0" encoding="UTF-8" standalone="no"?>
<!DOCTYPE svg PUBLIC "-//W3C//DTD SVG 1.1//EN"
 "http://www.w3.org/Graphics/SVG/1.1/DTD/svg11.dtd">
<!-- Generated by graphviz version 12.0.0 (0)
 -->
<!-- Pages: 1 -->
<svg width="635pt" height="633pt"
 viewBox="0.00 0.00 635.00 633.27" xmlns="http://www.w3.org/2000/svg" xmlns:xlink="http://www.w3.org/1999/xlink">
<g id="graph0" class="graph" transform="scale(1 1) rotate(0) translate(4 629.27)">
<polygon fill="white" stroke="none" points="-4,4 -4,-629.27 631,-629.27 631,4 -4,4"/>
<g id="clust1" class="cluster">
<title>clusterindicators_1 (3)</title>
<path fill="none" stroke="black" d="M509,-259.63C509,-259.63 607,-259.63 607,-259.63 613,-259.63 619,-265.63 619,-271.63 619,-271.63 619,-475.45 619,-475.45 619,-481.45 613,-487.45 607,-487.45 607,-487.45 509,-487.45 509,-487.45 503,-487.45 497,-481.45 497,-475.45 497,-475.45 497,-271.63 497,-271.63 497,-265.63 503,-259.63 509,-259.63"/>
<text text-anchor="middle" x="567.88" y="-266.83" font-family="Times,serif" font-size="14.00">indicators_1 (3)</text>
</g>
<g id="clust2" class="cluster">
<title>clusterindicators_2 (3)</title>
<path fill="none" stroke="black" d="M20,-259.63C20,-259.63 118,-259.63 118,-259.63 124,-259.63 130,-265.63 130,-271.63 130,-271.63 130,-475.45 130,-475.45 130,-481.45 124,-487.45 118,-487.45 118,-487.45 20,-487.45 20,-487.45 14,-487.45 8,-481.45 8,-475.45 8,-475.45 8,-271.63 8,-271.63 8,-265.63 14,-259.63 20,-259.63"/>
<text text-anchor="middle" x="78.88" y="-266.83" font-family="Times,serif" font-size="14.00">indicators_2 (3)</text>
</g>
<g id="clust3" class="cluster">
<title>clusterindicators_3 (3)</title>
<path fill="none" stroke="black" d="M150,-259.63C150,-259.63 248,-259.63 248,-259.63 254,-259.63 260,-265.63 260,-271.63 260,-271.63 260,-475.45 260,-475.45 260,-481.45 254,-487.45 248,-487.45 248,-487.45 150,-487.45 150,-487.45 144,-487.45 138,-481.45 138,-475.45 138,-475.45 138,-271.63 138,-271.63 138,-265.63 144,-259.63 150,-259.63"/>
<text text-anchor="middle" x="208.88" y="-266.83" font-family="Times,serif" font-size="14.00">indicators_3 (3)</text>
</g>
<g id="clust4" class="cluster">
<title>cluster6</title>
<path fill="none" stroke="black" d="M343,-495.45C343,-495.45 503,-495.45 503,-495.45 509,-495.45 515,-501.45 515,-507.45 515,-507.45 515,-605.27 515,-605.27 515,-611.27 509,-617.27 503,-617.27 503,-617.27 343,-617.27 343,-617.27 337,-617.27 331,-611.27 331,-605.27 331,-605.27 331,-507.45 331,-507.45 331,-501.45 337,-495.45 343,-495.45"/>
<text text-anchor="middle" x="503.62" y="-502.65" font-family="Times,serif" font-size="14.00">6</text>
</g>
<g id="clust5" class="cluster">
<title>clusterobs (500) x latent (3)</title>
<path fill="none" stroke="black" d="M370,-365.63C370,-365.63 477,-365.63 477,-365.63 483,-365.63 489,-371.63 489,-377.63 489,-377.63 489,-475.45 489,-475.45 489,-481.45 483,-487.45 477,-487.45 477,-487.45 370,-487.45 370,-487.45 364,-487.45 358,-481.45 358,-475.45 358,-475.45 358,-377.63 358,-377.63 358,-371.63 364,-365.63 370,-365.63"/>
<text text-anchor="middle" x="423.25" y="-372.83" font-family="Times,serif" font-size="14.00">obs (500) x latent (3)</text>
</g>
<g id="clust6" class="cluster">
<title>clusterindicators (9)</title>
<path fill="none" stroke="black" d="M183,-129.82C183,-129.82 285,-129.82 285,-129.82 291,-129.82 297,-135.82 297,-141.82 297,-141.82 297,-239.63 297,-239.63 297,-245.63 291,-251.63 285,-251.63 285,-251.63 183,-251.63 183,-251.63 177,-251.63 171,-245.63 171,-239.63 171,-239.63 171,-141.82 171,-141.82 171,-135.82 177,-129.82 183,-129.82"/>
<text text-anchor="middle" x="252.62" y="-137.02" font-family="Times,serif" font-size="14.00">indicators (9)</text>
</g>
<g id="clust7" class="cluster">
<title>clusterpaths (3)</title>
<path fill="none" stroke="black" d="M292,-377.54C292,-377.54 338,-377.54 338,-377.54 344,-377.54 350,-383.54 350,-389.54 350,-389.54 350,-463.54 350,-463.54 350,-469.54 344,-475.54 338,-475.54 338,-475.54 292,-475.54 292,-475.54 286,-475.54 280,-469.54 280,-463.54 280,-463.54 280,-389.54 280,-389.54 280,-383.54 286,-377.54 292,-377.54"/>
<text text-anchor="middle" x="318" y="-384.74" font-family="Times,serif" font-size="14.00">paths (3)</text>
</g>
<g id="clust8" class="cluster">
<title>cluster500 x 3</title>
<path fill="none" stroke="black" d="M280,-259.63C280,-259.63 446,-259.63 446,-259.63 452,-259.63 458,-265.63 458,-271.63 458,-271.63 458,-345.63 458,-345.63 458,-351.63 452,-357.63 446,-357.63 446,-357.63 280,-357.63 280,-357.63 274,-357.63 268,-351.63 268,-345.63 268,-345.63 268,-271.63 268,-271.63 268,-265.63 274,-259.63 280,-259.63"/>
<text text-anchor="middle" x="429.38" y="-266.83" font-family="Times,serif" font-size="14.00">500 x 3</text>
</g>
<g id="clust9" class="cluster">
<title>cluster500 x 9</title>
<path fill="none" stroke="black" d="M317,-8C317,-8 409,-8 409,-8 415,-8 421,-14 421,-20 421,-20 421,-227.73 421,-227.73 421,-233.73 415,-239.73 409,-239.73 409,-239.73 317,-239.73 317,-239.73 311,-239.73 305,-233.73 305,-227.73 305,-227.73 305,-20 305,-20 305,-14 311,-8 317,-8"/>
<text text-anchor="middle" x="392.38" y="-15.2" font-family="Times,serif" font-size="14.00">500 x 9</text>
</g>
<!-- lambdas1 -->
<g id="node1" class="node">
<title>lambdas1</title>
<polygon fill="none" stroke="black" points="599.12,-349.63 508.88,-349.63 508.88,-292.13 599.12,-292.13 599.12,-349.63"/>
<text text-anchor="middle" x="554" y="-332.33" font-family="Times,serif" font-size="14.00">lambdas1</text>
<text text-anchor="middle" x="554" y="-315.83" font-family="Times,serif" font-size="14.00">~</text>
<text text-anchor="middle" x="554" y="-299.33" font-family="Times,serif" font-size="14.00">Deterministic</text>
</g>
<!-- mu -->
<g id="node13" class="node">
<title>mu</title>
<polygon fill="none" stroke="black" points="408.12,-231.73 317.88,-231.73 317.88,-174.23 408.12,-174.23 408.12,-231.73"/>
<text text-anchor="middle" x="363" y="-214.43" font-family="Times,serif" font-size="14.00">mu</text>
<text text-anchor="middle" x="363" y="-197.93" font-family="Times,serif" font-size="14.00">~</text>
<text text-anchor="middle" x="363" y="-181.43" font-family="Times,serif" font-size="14.00">Deterministic</text>
</g>
<!-- lambdas1&#45;&gt;mu -->
<g id="edge11" class="edge">
<title>lambdas1&#45;&gt;mu</title>
<path fill="none" stroke="black" d="M529.31,-291.79C518.62,-280.77 505.48,-268.64 492,-259.63 469.58,-244.65 442.46,-232.22 418.89,-222.95"/>
<polygon fill="black" stroke="black" points="420.34,-219.75 409.75,-219.45 417.84,-226.29 420.34,-219.75"/>
</g>
<!-- lambdas1_ -->
<g id="node2" class="node">
<title>lambdas1_</title>
<ellipse fill="none" stroke="black" cx="558" cy="-438.79" rx="53.21" ry="40.66"/>
<text text-anchor="middle" x="558" y="-450.24" font-family="Times,serif" font-size="14.00">lambdas1_</text>
<text text-anchor="middle" x="558" y="-433.74" font-family="Times,serif" font-size="14.00">~</text>
<text text-anchor="middle" x="558" y="-417.24" font-family="Times,serif" font-size="14.00">Normal</text>
</g>
<!-- lambdas1_&#45;&gt;lambdas1 -->
<g id="edge6" class="edge">
<title>lambdas1_&#45;&gt;lambdas1</title>
<path fill="none" stroke="black" d="M556.62,-397.9C556.21,-386.02 555.76,-373.01 555.36,-361.16"/>
<polygon fill="black" stroke="black" points="558.86,-361.17 555.02,-351.3 551.86,-361.42 558.86,-361.17"/>
</g>
<!-- lambdas2_ -->
<g id="node3" class="node">
<title>lambdas2_</title>
<ellipse fill="none" stroke="black" cx="69" cy="-438.79" rx="53.21" ry="40.66"/>
<text text-anchor="middle" x="69" y="-450.24" font-family="Times,serif" font-size="14.00">lambdas2_</text>
<text text-anchor="middle" x="69" y="-433.74" font-family="Times,serif" font-size="14.00">~</text>
<text text-anchor="middle" x="69" y="-417.24" font-family="Times,serif" font-size="14.00">Normal</text>
</g>
<!-- lambdas2 -->
<g id="node4" class="node">
<title>lambdas2</title>
<polygon fill="none" stroke="black" points="118.12,-349.63 27.88,-349.63 27.88,-292.13 118.12,-292.13 118.12,-349.63"/>
<text text-anchor="middle" x="73" y="-332.33" font-family="Times,serif" font-size="14.00">lambdas2</text>
<text text-anchor="middle" x="73" y="-315.83" font-family="Times,serif" font-size="14.00">~</text>
<text text-anchor="middle" x="73" y="-299.33" font-family="Times,serif" font-size="14.00">Deterministic</text>
</g>
<!-- lambdas2_&#45;&gt;lambdas2 -->
<g id="edge5" class="edge">
<title>lambdas2_&#45;&gt;lambdas2</title>
<path fill="none" stroke="black" d="M70.38,-397.9C70.79,-386.02 71.24,-373.01 71.64,-361.16"/>
<polygon fill="black" stroke="black" points="75.14,-361.42 71.98,-351.3 68.14,-361.17 75.14,-361.42"/>
</g>
<!-- lambdas2&#45;&gt;mu -->
<g id="edge9" class="edge">
<title>lambdas2&#45;&gt;mu</title>
<path fill="none" stroke="black" d="M93.59,-291.76C104.18,-279.59 118.19,-266.57 134,-259.63 168.02,-244.7 266.12,-264.43 301,-251.63 309.33,-248.58 317.46,-243.97 324.93,-238.81"/>
<polygon fill="black" stroke="black" points="326.87,-241.73 332.8,-232.95 322.69,-236.11 326.87,-241.73"/>
</g>
<!-- lambdas3_ -->
<g id="node5" class="node">
<title>lambdas3_</title>
<ellipse fill="none" stroke="black" cx="199" cy="-438.79" rx="53.21" ry="40.66"/>
<text text-anchor="middle" x="199" y="-450.24" font-family="Times,serif" font-size="14.00">lambdas3_</text>
<text text-anchor="middle" x="199" y="-433.74" font-family="Times,serif" font-size="14.00">~</text>
<text text-anchor="middle" x="199" y="-417.24" font-family="Times,serif" font-size="14.00">Normal</text>
</g>
<!-- lambdas3 -->
<g id="node6" class="node">
<title>lambdas3</title>
<polygon fill="none" stroke="black" points="248.12,-349.63 157.88,-349.63 157.88,-292.13 248.12,-292.13 248.12,-349.63"/>
<text text-anchor="middle" x="203" y="-332.33" font-family="Times,serif" font-size="14.00">lambdas3</text>
<text text-anchor="middle" x="203" y="-315.83" font-family="Times,serif" font-size="14.00">~</text>
<text text-anchor="middle" x="203" y="-299.33" font-family="Times,serif" font-size="14.00">Deterministic</text>
</g>
<!-- lambdas3_&#45;&gt;lambdas3 -->
<g id="edge4" class="edge">
<title>lambdas3_&#45;&gt;lambdas3</title>
<path fill="none" stroke="black" d="M200.38,-397.9C200.79,-386.02 201.24,-373.01 201.64,-361.16"/>
<polygon fill="black" stroke="black" points="205.14,-361.42 201.98,-351.3 198.14,-361.17 205.14,-361.42"/>
</g>
<!-- lambdas3&#45;&gt;mu -->
<g id="edge8" class="edge">
<title>lambdas3&#45;&gt;mu</title>
<path fill="none" stroke="black" d="M225.27,-291.67C235.83,-280.09 249.34,-267.57 264,-259.63 278.8,-251.63 285.74,-258.71 301,-251.63 308.45,-248.18 315.84,-243.7 322.79,-238.86"/>
<polygon fill="black" stroke="black" points="324.75,-241.76 330.73,-233.02 320.6,-236.13 324.75,-241.76"/>
</g>
<!-- chol_cov -->
<g id="node7" class="node">
<title>chol_cov</title>
<ellipse fill="none" stroke="black" cx="423" cy="-568.61" rx="84.5" ry="40.66"/>
<text text-anchor="middle" x="423" y="-580.06" font-family="Times,serif" font-size="14.00">chol_cov</text>
<text text-anchor="middle" x="423" y="-563.56" font-family="Times,serif" font-size="14.00">~</text>
<text text-anchor="middle" x="423" y="-547.06" font-family="Times,serif" font-size="14.00">_LKJCholeskyCov</text>
</g>
<!-- ksi -->
<g id="node8" class="node">
<title>ksi</title>
<ellipse fill="none" stroke="black" cx="423" cy="-438.79" rx="54.8" ry="40.66"/>
<text text-anchor="middle" x="423" y="-450.24" font-family="Times,serif" font-size="14.00">ksi</text>
<text text-anchor="middle" x="423" y="-433.74" font-family="Times,serif" font-size="14.00">~</text>
<text text-anchor="middle" x="423" y="-417.24" font-family="Times,serif" font-size="14.00">MvNormal</text>
</g>
<!-- chol_cov&#45;&gt;ksi -->
<g id="edge1" class="edge">
<title>chol_cov&#45;&gt;ksi</title>
<path fill="none" stroke="black" d="M423,-527.52C423,-515.98 423,-503.23 423,-491.11"/>
<polygon fill="black" stroke="black" points="426.5,-491.26 423,-481.26 419.5,-491.26 426.5,-491.26"/>
</g>
<!-- endogenous_structural_paths -->
<g id="node11" class="node">
<title>endogenous_structural_paths</title>
<polygon fill="none" stroke="black" points="449.75,-349.63 276.25,-349.63 276.25,-292.13 449.75,-292.13 449.75,-349.63"/>
<text text-anchor="middle" x="363" y="-332.33" font-family="Times,serif" font-size="14.00">endogenous_structural_paths</text>
<text text-anchor="middle" x="363" y="-315.83" font-family="Times,serif" font-size="14.00">~</text>
<text text-anchor="middle" x="363" y="-299.33" font-family="Times,serif" font-size="14.00">Deterministic</text>
</g>
<!-- ksi&#45;&gt;endogenous_structural_paths -->
<g id="edge3" class="edge">
<title>ksi&#45;&gt;endogenous_structural_paths</title>
<path fill="none" stroke="black" d="M403.69,-400.48C396.98,-387.53 389.46,-373 382.72,-359.98"/>
<polygon fill="black" stroke="black" points="385.92,-358.55 378.22,-351.28 379.7,-361.77 385.92,-358.55"/>
</g>
<!-- ksi&#45;&gt;mu -->
<g id="edge7" class="edge">
<title>ksi&#45;&gt;mu</title>
<path fill="none" stroke="black" d="M445.39,-401.28C465.4,-363.49 487.9,-303.91 462,-259.63 452.26,-242.99 435.52,-230.94 418.54,-222.4"/>
<polygon fill="black" stroke="black" points="420.48,-219.44 409.94,-218.41 417.53,-225.79 420.48,-219.44"/>
</g>
<!-- Psi -->
<g id="node9" class="node">
<title>Psi</title>
<ellipse fill="none" stroke="black" cx="234" cy="-202.98" rx="55.33" ry="40.66"/>
<text text-anchor="middle" x="234" y="-214.43" font-family="Times,serif" font-size="14.00">Psi</text>
<text text-anchor="middle" x="234" y="-197.93" font-family="Times,serif" font-size="14.00">~</text>
<text text-anchor="middle" x="234" y="-181.43" font-family="Times,serif" font-size="14.00">InvGamma</text>
</g>
<!-- likelihood -->
<g id="node12" class="node">
<title>likelihood</title>
<ellipse fill="lightgrey" stroke="black" cx="363" cy="-81.16" rx="50.03" ry="40.66"/>
<text text-anchor="middle" x="363" y="-92.61" font-family="Times,serif" font-size="14.00">likelihood</text>
<text text-anchor="middle" x="363" y="-76.11" font-family="Times,serif" font-size="14.00">~</text>
<text text-anchor="middle" x="363" y="-59.61" font-family="Times,serif" font-size="14.00">Normal</text>
</g>
<!-- Psi&#45;&gt;likelihood -->
<g id="edge13" class="edge">
<title>Psi&#45;&gt;likelihood</title>
<path fill="none" stroke="black" d="M263.24,-168.17C274.6,-155.67 287.98,-141.68 301,-129.82 306.14,-125.14 311.7,-120.42 317.31,-115.88"/>
<polygon fill="black" stroke="black" points="319.27,-118.79 324.93,-109.84 314.92,-113.31 319.27,-118.79"/>
</g>
<!-- betas -->
<g id="node10" class="node">
<title>betas</title>
<path fill="lightgrey" stroke="black" d="M330,-467.54C330,-467.54 300,-467.54 300,-467.54 294,-467.54 288,-461.54 288,-455.54 288,-455.54 288,-422.04 288,-422.04 288,-416.04 294,-410.04 300,-410.04 300,-410.04 330,-410.04 330,-410.04 336,-410.04 342,-416.04 342,-422.04 342,-422.04 342,-455.54 342,-455.54 342,-461.54 336,-467.54 330,-467.54"/>
<text text-anchor="middle" x="315" y="-450.24" font-family="Times,serif" font-size="14.00">betas</text>
<text text-anchor="middle" x="315" y="-433.74" font-family="Times,serif" font-size="14.00">~</text>
<text text-anchor="middle" x="315" y="-417.24" font-family="Times,serif" font-size="14.00">Data</text>
</g>
<!-- betas&#45;&gt;endogenous_structural_paths -->
<g id="edge2" class="edge">
<title>betas&#45;&gt;endogenous_structural_paths</title>
<path fill="none" stroke="black" d="M326.62,-409.73C332.76,-394.9 340.4,-376.46 347.09,-360.31"/>
<polygon fill="black" stroke="black" points="350.15,-362.06 350.74,-351.48 343.68,-359.38 350.15,-362.06"/>
</g>
<!-- endogenous_structural_paths&#45;&gt;mu -->
<g id="edge10" class="edge">
<title>endogenous_structural_paths&#45;&gt;mu</title>
<path fill="none" stroke="black" d="M363,-291.83C363,-277.27 363,-259.25 363,-243.32"/>
<polygon fill="black" stroke="black" points="366.5,-243.69 363,-233.69 359.5,-243.69 366.5,-243.69"/>
</g>
<!-- mu&#45;&gt;likelihood -->
<g id="edge12" class="edge">
<title>mu&#45;&gt;likelihood</title>
<path fill="none" stroke="black" d="M363,-173.88C363,-161.78 363,-147.23 363,-133.33"/>
<polygon fill="black" stroke="black" points="366.5,-133.38 363,-123.38 359.5,-133.38 366.5,-133.38"/>
</g>
</g>
</svg>
