<?xml version="1.0" encoding="UTF-8" standalone="no"?>
<!DOCTYPE svg PUBLIC "-//W3C//DTD SVG 1.1//EN"
 "http://www.w3.org/Graphics/SVG/1.1/DTD/svg11.dtd">
<!-- Generated by graphviz version 12.0.0 (0)
 -->
<!-- Pages: 1 -->
<svg width="887pt" height="633pt"
 viewBox="0.00 0.00 887.00 633.27" xmlns="http://www.w3.org/2000/svg" xmlns:xlink="http://www.w3.org/1999/xlink">
<g id="graph0" class="graph" transform="scale(1 1) rotate(0) translate(4 629.27)">
<polygon fill="white" stroke="none" points="-4,4 -4,-629.27 883,-629.27 883,4 -4,4"/>
<g id="clust1" class="cluster">
<title>clusterindicators_1 (3)</title>
<path fill="none" stroke="black" d="M761,-259.63C761,-259.63 859,-259.63 859,-259.63 865,-259.63 871,-265.63 871,-271.63 871,-271.63 871,-475.45 871,-475.45 871,-481.45 865,-487.45 859,-487.45 859,-487.45 761,-487.45 761,-487.45 755,-487.45 749,-481.45 749,-475.45 749,-475.45 749,-271.63 749,-271.63 749,-265.63 755,-259.63 761,-259.63"/>
<text text-anchor="middle" x="819.88" y="-266.83" font-family="Times,serif" font-size="14.00">indicators_1 (3)</text>
</g>
<g id="clust2" class="cluster">
<title>clusterindicators_2 (3)</title>
<path fill="none" stroke="black" d="M20,-259.63C20,-259.63 118,-259.63 118,-259.63 124,-259.63 130,-265.63 130,-271.63 130,-271.63 130,-475.45 130,-475.45 130,-481.45 124,-487.45 118,-487.45 118,-487.45 20,-487.45 20,-487.45 14,-487.45 8,-481.45 8,-475.45 8,-475.45 8,-271.63 8,-271.63 8,-265.63 14,-259.63 20,-259.63"/>
<text text-anchor="middle" x="78.88" y="-266.83" font-family="Times,serif" font-size="14.00">indicators_2 (3)</text>
</g>
<g id="clust3" class="cluster">
<title>clusterindicators_3 (3)</title>
<path fill="none" stroke="black" d="M150,-259.63C150,-259.63 248,-259.63 248,-259.63 254,-259.63 260,-265.63 260,-271.63 260,-271.63 260,-475.45 260,-475.45 260,-481.45 254,-487.45 248,-487.45 248,-487.45 150,-487.45 150,-487.45 144,-487.45 138,-481.45 138,-475.45 138,-475.45 138,-271.63 138,-271.63 138,-265.63 144,-259.63 150,-259.63"/>
<text text-anchor="middle" x="208.88" y="-266.83" font-family="Times,serif" font-size="14.00">indicators_3 (3)</text>
</g>
<g id="clust4" class="cluster">
<title>cluster6</title>
<path fill="none" stroke="black" d="M467,-495.45C467,-495.45 627,-495.45 627,-495.45 633,-495.45 639,-501.45 639,-507.45 639,-507.45 639,-605.27 639,-605.27 639,-611.27 633,-617.27 627,-617.27 627,-617.27 467,-617.27 467,-617.27 461,-617.27 455,-611.27 455,-605.27 455,-605.27 455,-507.45 455,-507.45 455,-501.45 461,-495.45 467,-495.45"/>
<text text-anchor="middle" x="627.62" y="-502.65" font-family="Times,serif" font-size="14.00">6</text>
</g>
<g id="clust5" class="cluster">
<title>cluster3 x 3</title>
<path fill="none" stroke="black" d="M386,-377.54C386,-377.54 472,-377.54 472,-377.54 478,-377.54 484,-383.54 484,-389.54 484,-389.54 484,-463.54 484,-463.54 484,-469.54 478,-475.54 472,-475.54 472,-475.54 386,-475.54 386,-475.54 380,-475.54 374,-469.54 374,-463.54 374,-463.54 374,-389.54 374,-389.54 374,-383.54 380,-377.54 386,-377.54"/>
<text text-anchor="middle" x="462.12" y="-384.74" font-family="Times,serif" font-size="14.00">3 x 3</text>
</g>
<g id="clust6" class="cluster">
<title>cluster3</title>
<path fill="none" stroke="black" d="M504,-377.54C504,-377.54 590,-377.54 590,-377.54 596,-377.54 602,-383.54 602,-389.54 602,-389.54 602,-463.54 602,-463.54 602,-469.54 596,-475.54 590,-475.54 590,-475.54 504,-475.54 504,-475.54 498,-475.54 492,-469.54 492,-463.54 492,-463.54 492,-389.54 492,-389.54 492,-383.54 498,-377.54 504,-377.54"/>
<text text-anchor="middle" x="590.62" y="-384.74" font-family="Times,serif" font-size="14.00">3</text>
</g>
<g id="clust7" class="cluster">
<title>clusterobs (500) x latent (3)</title>
<path fill="none" stroke="black" d="M622,-365.63C622,-365.63 729,-365.63 729,-365.63 735,-365.63 741,-371.63 741,-377.63 741,-377.63 741,-475.45 741,-475.45 741,-481.45 735,-487.45 729,-487.45 729,-487.45 622,-487.45 622,-487.45 616,-487.45 610,-481.45 610,-475.45 610,-475.45 610,-377.63 610,-377.63 610,-371.63 616,-365.63 622,-365.63"/>
<text text-anchor="middle" x="675.25" y="-372.83" font-family="Times,serif" font-size="14.00">obs (500) x latent (3)</text>
</g>
<g id="clust8" class="cluster">
<title>clusterpaths (3)</title>
<path fill="none" stroke="black" d="M280,-365.63C280,-365.63 354,-365.63 354,-365.63 360,-365.63 366,-371.63 366,-377.63 366,-377.63 366,-475.45 366,-475.45 366,-481.45 360,-487.45 354,-487.45 354,-487.45 280,-487.45 280,-487.45 274,-487.45 268,-481.45 268,-475.45 268,-475.45 268,-377.63 268,-377.63 268,-371.63 274,-365.63 280,-365.63"/>
<text text-anchor="middle" x="334" y="-372.83" font-family="Times,serif" font-size="14.00">paths (3)</text>
</g>
<g id="clust9" class="cluster">
<title>cluster500 x 3</title>
<path fill="none" stroke="black" d="M377,-259.63C377,-259.63 543,-259.63 543,-259.63 549,-259.63 555,-265.63 555,-271.63 555,-271.63 555,-345.63 555,-345.63 555,-351.63 549,-357.63 543,-357.63 543,-357.63 377,-357.63 377,-357.63 371,-357.63 365,-351.63 365,-345.63 365,-345.63 365,-271.63 365,-271.63 365,-265.63 371,-259.63 377,-259.63"/>
<text text-anchor="middle" x="526.38" y="-266.83" font-family="Times,serif" font-size="14.00">500 x 3</text>
</g>
<g id="clust10" class="cluster">
<title>cluster500 x 9</title>
<path fill="none" stroke="black" d="M414,-8C414,-8 506,-8 506,-8 512,-8 518,-14 518,-20 518,-20 518,-227.73 518,-227.73 518,-233.73 512,-239.73 506,-239.73 506,-239.73 414,-239.73 414,-239.73 408,-239.73 402,-233.73 402,-227.73 402,-227.73 402,-20 402,-20 402,-14 408,-8 414,-8"/>
<text text-anchor="middle" x="489.38" y="-15.2" font-family="Times,serif" font-size="14.00">500 x 9</text>
</g>
<g id="clust11" class="cluster">
<title>clusterindicators (9)</title>
<path fill="none" stroke="black" d="M280,-129.82C280,-129.82 382,-129.82 382,-129.82 388,-129.82 394,-135.82 394,-141.82 394,-141.82 394,-239.63 394,-239.63 394,-245.63 388,-251.63 382,-251.63 382,-251.63 280,-251.63 280,-251.63 274,-251.63 268,-245.63 268,-239.63 268,-239.63 268,-141.82 268,-141.82 268,-135.82 274,-129.82 280,-129.82"/>
<text text-anchor="middle" x="349.62" y="-137.02" font-family="Times,serif" font-size="14.00">indicators (9)</text>
</g>
<!-- lambdas1 -->
<g id="node1" class="node">
<title>lambdas1</title>
<polygon fill="none" stroke="black" points="851.12,-349.63 760.88,-349.63 760.88,-292.13 851.12,-292.13 851.12,-349.63"/>
<text text-anchor="middle" x="806" y="-332.33" font-family="Times,serif" font-size="14.00">lambdas1</text>
<text text-anchor="middle" x="806" y="-315.83" font-family="Times,serif" font-size="14.00">~</text>
<text text-anchor="middle" x="806" y="-299.33" font-family="Times,serif" font-size="14.00">Deterministic</text>
</g>
<!-- mu -->
<g id="node14" class="node">
<title>mu</title>
<polygon fill="none" stroke="black" points="505.12,-231.73 414.88,-231.73 414.88,-174.23 505.12,-174.23 505.12,-231.73"/>
<text text-anchor="middle" x="460" y="-214.43" font-family="Times,serif" font-size="14.00">mu</text>
<text text-anchor="middle" x="460" y="-197.93" font-family="Times,serif" font-size="14.00">~</text>
<text text-anchor="middle" x="460" y="-181.43" font-family="Times,serif" font-size="14.00">Deterministic</text>
</g>
<!-- lambdas1&#45;&gt;mu -->
<g id="edge13" class="edge">
<title>lambdas1&#45;&gt;mu</title>
<path fill="none" stroke="black" d="M760.54,-303.01C726.84,-290.64 679.71,-273.63 638,-259.63 597.56,-246.07 551.6,-231.72 516.52,-221"/>
<polygon fill="black" stroke="black" points="517.56,-217.66 506.97,-218.09 515.52,-224.35 517.56,-217.66"/>
</g>
<!-- lambdas1_ -->
<g id="node2" class="node">
<title>lambdas1_</title>
<ellipse fill="none" stroke="black" cx="810" cy="-438.79" rx="53.21" ry="40.66"/>
<text text-anchor="middle" x="810" y="-450.24" font-family="Times,serif" font-size="14.00">lambdas1_</text>
<text text-anchor="middle" x="810" y="-433.74" font-family="Times,serif" font-size="14.00">~</text>
<text text-anchor="middle" x="810" y="-417.24" font-family="Times,serif" font-size="14.00">Normal</text>
</g>
<!-- lambdas1_&#45;&gt;lambdas1 -->
<g id="edge1" class="edge">
<title>lambdas1_&#45;&gt;lambdas1</title>
<path fill="none" stroke="black" d="M808.62,-397.9C808.21,-386.02 807.76,-373.01 807.36,-361.16"/>
<polygon fill="black" stroke="black" points="810.86,-361.17 807.02,-351.3 803.86,-361.42 810.86,-361.17"/>
</g>
<!-- lambdas2_ -->
<g id="node3" class="node">
<title>lambdas2_</title>
<ellipse fill="none" stroke="black" cx="69" cy="-438.79" rx="53.21" ry="40.66"/>
<text text-anchor="middle" x="69" y="-450.24" font-family="Times,serif" font-size="14.00">lambdas2_</text>
<text text-anchor="middle" x="69" y="-433.74" font-family="Times,serif" font-size="14.00">~</text>
<text text-anchor="middle" x="69" y="-417.24" font-family="Times,serif" font-size="14.00">Normal</text>
</g>
<!-- lambdas2 -->
<g id="node4" class="node">
<title>lambdas2</title>
<polygon fill="none" stroke="black" points="118.12,-349.63 27.88,-349.63 27.88,-292.13 118.12,-292.13 118.12,-349.63"/>
<text text-anchor="middle" x="73" y="-332.33" font-family="Times,serif" font-size="14.00">lambdas2</text>
<text text-anchor="middle" x="73" y="-315.83" font-family="Times,serif" font-size="14.00">~</text>
<text text-anchor="middle" x="73" y="-299.33" font-family="Times,serif" font-size="14.00">Deterministic</text>
</g>
<!-- lambdas2_&#45;&gt;lambdas2 -->
<g id="edge2" class="edge">
<title>lambdas2_&#45;&gt;lambdas2</title>
<path fill="none" stroke="black" d="M70.38,-397.9C70.79,-386.02 71.24,-373.01 71.64,-361.16"/>
<polygon fill="black" stroke="black" points="75.14,-361.42 71.98,-351.3 68.14,-361.17 75.14,-361.42"/>
</g>
<!-- lambdas2&#45;&gt;mu -->
<g id="edge11" class="edge">
<title>lambdas2&#45;&gt;mu</title>
<path fill="none" stroke="black" d="M93.54,-291.64C104.12,-279.44 118.13,-266.43 134,-259.63 160.98,-248.08 370.36,-261.5 398,-251.63 406.36,-248.65 414.5,-244.08 421.97,-238.93"/>
<polygon fill="black" stroke="black" points="423.91,-241.85 429.85,-233.08 419.74,-236.23 423.91,-241.85"/>
</g>
<!-- lambdas3_ -->
<g id="node5" class="node">
<title>lambdas3_</title>
<ellipse fill="none" stroke="black" cx="199" cy="-438.79" rx="53.21" ry="40.66"/>
<text text-anchor="middle" x="199" y="-450.24" font-family="Times,serif" font-size="14.00">lambdas3_</text>
<text text-anchor="middle" x="199" y="-433.74" font-family="Times,serif" font-size="14.00">~</text>
<text text-anchor="middle" x="199" y="-417.24" font-family="Times,serif" font-size="14.00">Normal</text>
</g>
<!-- lambdas3 -->
<g id="node6" class="node">
<title>lambdas3</title>
<polygon fill="none" stroke="black" points="248.12,-349.63 157.88,-349.63 157.88,-292.13 248.12,-292.13 248.12,-349.63"/>
<text text-anchor="middle" x="203" y="-332.33" font-family="Times,serif" font-size="14.00">lambdas3</text>
<text text-anchor="middle" x="203" y="-315.83" font-family="Times,serif" font-size="14.00">~</text>
<text text-anchor="middle" x="203" y="-299.33" font-family="Times,serif" font-size="14.00">Deterministic</text>
</g>
<!-- lambdas3_&#45;&gt;lambdas3 -->
<g id="edge3" class="edge">
<title>lambdas3_&#45;&gt;lambdas3</title>
<path fill="none" stroke="black" d="M200.38,-397.9C200.79,-386.02 201.24,-373.01 201.64,-361.16"/>
<polygon fill="black" stroke="black" points="205.14,-361.42 201.98,-351.3 198.14,-361.17 205.14,-361.42"/>
</g>
<!-- lambdas3&#45;&gt;mu -->
<g id="edge10" class="edge">
<title>lambdas3&#45;&gt;mu</title>
<path fill="none" stroke="black" d="M248.35,-300.49C279.59,-287.65 322.3,-271.12 361,-259.63 377.13,-254.85 382.74,-258.71 398,-251.63 405.45,-248.18 412.84,-243.7 419.79,-238.86"/>
<polygon fill="black" stroke="black" points="421.75,-241.76 427.73,-233.02 417.6,-236.13 421.75,-241.76"/>
</g>
<!-- chol_cov -->
<g id="node7" class="node">
<title>chol_cov</title>
<ellipse fill="none" stroke="black" cx="547" cy="-568.61" rx="84.5" ry="40.66"/>
<text text-anchor="middle" x="547" y="-580.06" font-family="Times,serif" font-size="14.00">chol_cov</text>
<text text-anchor="middle" x="547" y="-563.56" font-family="Times,serif" font-size="14.00">~</text>
<text text-anchor="middle" x="547" y="-547.06" font-family="Times,serif" font-size="14.00">_LKJCholeskyCov</text>
</g>
<!-- chol_cov_corr -->
<g id="node8" class="node">
<title>chol_cov_corr</title>
<polygon fill="none" stroke="black" points="476,-467.54 382,-467.54 382,-410.04 476,-410.04 476,-467.54"/>
<text text-anchor="middle" x="429" y="-450.24" font-family="Times,serif" font-size="14.00">chol_cov_corr</text>
<text text-anchor="middle" x="429" y="-433.74" font-family="Times,serif" font-size="14.00">~</text>
<text text-anchor="middle" x="429" y="-417.24" font-family="Times,serif" font-size="14.00">Deterministic</text>
</g>
<!-- chol_cov&#45;&gt;chol_cov_corr -->
<g id="edge4" class="edge">
<title>chol_cov&#45;&gt;chol_cov_corr</title>
<path fill="none" stroke="black" d="M513.19,-530.98C497.27,-513.74 478.34,-493.23 462.46,-476.04"/>
<polygon fill="black" stroke="black" points="465.32,-473.98 455.97,-469 460.18,-478.73 465.32,-473.98"/>
</g>
<!-- chol_cov_stds -->
<g id="node9" class="node">
<title>chol_cov_stds</title>
<polygon fill="none" stroke="black" points="593.62,-467.54 500.38,-467.54 500.38,-410.04 593.62,-410.04 593.62,-467.54"/>
<text text-anchor="middle" x="547" y="-450.24" font-family="Times,serif" font-size="14.00">chol_cov_stds</text>
<text text-anchor="middle" x="547" y="-433.74" font-family="Times,serif" font-size="14.00">~</text>
<text text-anchor="middle" x="547" y="-417.24" font-family="Times,serif" font-size="14.00">Deterministic</text>
</g>
<!-- chol_cov&#45;&gt;chol_cov_stds -->
<g id="edge5" class="edge">
<title>chol_cov&#45;&gt;chol_cov_stds</title>
<path fill="none" stroke="black" d="M547,-527.52C547,-512.12 547,-494.56 547,-479.22"/>
<polygon fill="black" stroke="black" points="550.5,-479.51 547,-469.51 543.5,-479.51 550.5,-479.51"/>
</g>
<!-- ksi -->
<g id="node10" class="node">
<title>ksi</title>
<ellipse fill="none" stroke="black" cx="673" cy="-438.79" rx="54.8" ry="40.66"/>
<text text-anchor="middle" x="673" y="-450.24" font-family="Times,serif" font-size="14.00">ksi</text>
<text text-anchor="middle" x="673" y="-433.74" font-family="Times,serif" font-size="14.00">~</text>
<text text-anchor="middle" x="673" y="-417.24" font-family="Times,serif" font-size="14.00">MvNormal</text>
</g>
<!-- chol_cov&#45;&gt;ksi -->
<g id="edge6" class="edge">
<title>chol_cov&#45;&gt;ksi</title>
<path fill="none" stroke="black" d="M582.77,-531.33C598.53,-515.34 617.1,-496.5 633.28,-480.09"/>
<polygon fill="black" stroke="black" points="635.42,-482.9 639.95,-473.32 630.44,-477.99 635.42,-482.9"/>
</g>
<!-- endogenous_structural_paths -->
<g id="node12" class="node">
<title>endogenous_structural_paths</title>
<polygon fill="none" stroke="black" points="546.75,-349.63 373.25,-349.63 373.25,-292.13 546.75,-292.13 546.75,-349.63"/>
<text text-anchor="middle" x="460" y="-332.33" font-family="Times,serif" font-size="14.00">endogenous_structural_paths</text>
<text text-anchor="middle" x="460" y="-315.83" font-family="Times,serif" font-size="14.00">~</text>
<text text-anchor="middle" x="460" y="-299.33" font-family="Times,serif" font-size="14.00">Deterministic</text>
</g>
<!-- ksi&#45;&gt;endogenous_structural_paths -->
<g id="edge8" class="edge">
<title>ksi&#45;&gt;endogenous_structural_paths</title>
<path fill="none" stroke="black" d="M647.11,-402.74C635.78,-389.49 621.53,-375.3 606,-365.63 591.21,-356.43 574.37,-349.06 557.52,-343.2"/>
<polygon fill="black" stroke="black" points="559.07,-340.03 548.47,-340.22 556.87,-346.68 559.07,-340.03"/>
</g>
<!-- ksi&#45;&gt;mu -->
<g id="edge9" class="edge">
<title>ksi&#45;&gt;mu</title>
<path fill="none" stroke="black" d="M655.67,-399.89C636.41,-360.98 602.25,-300.48 559,-259.63 546.3,-247.64 530.53,-237.28 515.34,-228.86"/>
<polygon fill="black" stroke="black" points="517.29,-225.93 506.82,-224.32 514,-232.11 517.29,-225.93"/>
</g>
<!-- betas -->
<g id="node11" class="node">
<title>betas</title>
<ellipse fill="none" stroke="black" cx="317" cy="-438.79" rx="41.01" ry="40.66"/>
<text text-anchor="middle" x="317" y="-450.24" font-family="Times,serif" font-size="14.00">betas</text>
<text text-anchor="middle" x="317" y="-433.74" font-family="Times,serif" font-size="14.00">~</text>
<text text-anchor="middle" x="317" y="-417.24" font-family="Times,serif" font-size="14.00">Normal</text>
</g>
<!-- betas&#45;&gt;endogenous_structural_paths -->
<g id="edge7" class="edge">
<title>betas&#45;&gt;endogenous_structural_paths</title>
<path fill="none" stroke="black" d="M337.48,-403C346.29,-390.1 357.46,-376.08 370,-365.63 374.12,-362.2 378.56,-358.96 383.17,-355.91"/>
<polygon fill="black" stroke="black" points="384.89,-358.96 391.56,-350.73 381.22,-353 384.89,-358.96"/>
</g>
<!-- endogenous_structural_paths&#45;&gt;mu -->
<g id="edge12" class="edge">
<title>endogenous_structural_paths&#45;&gt;mu</title>
<path fill="none" stroke="black" d="M460,-291.83C460,-277.27 460,-259.25 460,-243.32"/>
<polygon fill="black" stroke="black" points="463.5,-243.69 460,-233.69 456.5,-243.69 463.5,-243.69"/>
</g>
<!-- likelihood -->
<g id="node13" class="node">
<title>likelihood</title>
<ellipse fill="lightgrey" stroke="black" cx="460" cy="-81.16" rx="50.03" ry="40.66"/>
<text text-anchor="middle" x="460" y="-92.61" font-family="Times,serif" font-size="14.00">likelihood</text>
<text text-anchor="middle" x="460" y="-76.11" font-family="Times,serif" font-size="14.00">~</text>
<text text-anchor="middle" x="460" y="-59.61" font-family="Times,serif" font-size="14.00">Normal</text>
</g>
<!-- mu&#45;&gt;likelihood -->
<g id="edge14" class="edge">
<title>mu&#45;&gt;likelihood</title>
<path fill="none" stroke="black" d="M460,-173.88C460,-161.78 460,-147.23 460,-133.33"/>
<polygon fill="black" stroke="black" points="463.5,-133.38 460,-123.38 456.5,-133.38 463.5,-133.38"/>
</g>
<!-- Psi -->
<g id="node15" class="node">
<title>Psi</title>
<ellipse fill="none" stroke="black" cx="331" cy="-202.98" rx="55.33" ry="40.66"/>
<text text-anchor="middle" x="331" y="-214.43" font-family="Times,serif" font-size="14.00">Psi</text>
<text text-anchor="middle" x="331" y="-197.93" font-family="Times,serif" font-size="14.00">~</text>
<text text-anchor="middle" x="331" y="-181.43" font-family="Times,serif" font-size="14.00">InvGamma</text>
</g>
<!-- Psi&#45;&gt;likelihood -->
<g id="edge15" class="edge">
<title>Psi&#45;&gt;likelihood</title>
<path fill="none" stroke="black" d="M360.24,-168.17C371.6,-155.67 384.98,-141.68 398,-129.82 403.14,-125.14 408.7,-120.42 414.31,-115.88"/>
<polygon fill="black" stroke="black" points="416.27,-118.79 421.93,-109.84 411.92,-113.31 416.27,-118.79"/>
</g>
</g>
</svg>
